mtllib building-small-b.mtl
o building-small-b
v 0.500000 0.000000 0.500000
v -0.500000 0.000000 0.500000
v 0.500000 0.050000 0.500000
v -0.500000 0.050000 0.500000
v 0.500000 0.000000 0.500000
v 0.500000 0.000000 -0.500000
v -0.500000 0.000000 0.500000
v -0.500000 0.000000 -0.500000
v -0.500000 0.000000 -0.500000
v -0.500000 0.050000 -0.500000
v -0.500000 0.000000 0.500000
v -0.500000 0.050000 0.500000
v 0.500000 0.050000 -0.500000
v 0.500000 0.000000 -0.500000
v 0.500000 0.050000 0.500000
v 0.500000 0.000000 0.500000
v -0.500000 0.000000 -0.500000
v 0.500000 0.000000 -0.500000
v -0.500000 0.050000 -0.500000
v 0.500000 0.050000 -0.500000
v 0.500000 0.050000 -0.500000
v 0.500000 0.050000 0.500000
v -0.500000 0.050000 -0.500000
v -0.500000 0.050000 0.500000
v 0.233056 1.626500 -0.237953
v 0.233056 1.626500 -0.212953
v 0.208056 1.626500 -0.237953
v 0.208056 1.626500 -0.212953
v 0.195556 1.326500 -0.250453
v 0.208056 1.626500 -0.237953
v 0.195556 1.326500 -0.200453
v 0.208056 1.626500 -0.212953
v 0.245556 1.326500 -0.250453
v 0.245556 1.326500 -0.200453
v 0.233056 1.626500 -0.237953
v 0.233056 1.626500 -0.212953
v 0.245556 1.326500 -0.200453
v 0.195556 1.326500 -0.200453
v 0.233056 1.626500 -0.212953
v 0.208056 1.626500 -0.212953
v 0.195556 1.326500 -0.250453
v 0.245556 1.326500 -0.250453
v 0.208056 1.626500 -0.237953
v 0.233056 1.626500 -0.237953
v -0.400000 0.050000 -0.400000
v 0.400000 0.050000 -0.400000
v -0.400000 0.450000 -0.400000
v 0.400000 0.450000 -0.400000
v -0.400000 0.050000 -0.400000
v -0.400000 0.450000 -0.400000
v -0.400000 0.050000 0.400000
v -0.400000 0.450000 0.400000
v 0.400000 0.450000 -0.400000
v 0.400000 0.050000 -0.400000
v 0.400000 0.450000 0.400000
v 0.400000 0.050000 0.400000
v 0.100000 0.325000 0.400000
v 0.100000 0.100000 0.400000
v -0.000000 0.450000 0.400000
v 0.125000 0.350000 0.400000
v -0.000000 0.050000 0.400000
v 0.400000 0.450000 0.400000
v 0.300000 0.100000 0.400000
v 0.400000 0.050000 0.400000
v 0.275000 0.350000 0.400000
v 0.300000 0.325000 0.400000
v -0.000000 0.050000 0.400000
v -0.075000 0.050000 0.400000
v -0.000000 0.450000 0.400000
v -0.075000 0.325000 0.400000
v -0.100000 0.350000 0.400000
v -0.300000 0.350000 0.400000
v -0.400000 0.450000 0.400000
v -0.325000 0.325000 0.400000
v -0.400000 0.050000 0.400000
v -0.325000 0.050000 0.400000
v 0.300000 0.525000 0.475000
v 0.100000 0.525000 0.475000
v 0.300000 0.550000 0.450000
v 0.100000 0.550000 0.450000
v 0.300000 0.500000 0.475000
v 0.100000 0.500000 0.475000
v 0.300000 0.525000 0.475000
v 0.100000 0.525000 0.475000
v 0.100000 0.500000 0.400000
v 0.100000 0.725000 0.400000
v 0.100000 0.500000 0.425000
v 0.100000 0.725000 0.425000
v 0.100000 0.550000 0.425000
v 0.100000 0.500000 0.475000
v 0.100000 0.550000 0.450000
v 0.100000 0.525000 0.475000
v 0.300000 0.500000 0.475000
v 0.300000 0.500000 0.425000
v 0.100000 0.500000 0.475000
v 0.300000 0.500000 0.400000
v 0.100000 0.500000 0.400000
v 0.100000 0.500000 0.425000
v 0.275000 0.750000 0.400000
v 0.275000 0.750000 0.425000
v 0.125000 0.750000 0.400000
v 0.125000 0.750000 0.425000
v 0.265000 0.550000 0.400000
v 0.265000 0.550000 0.425000
v 0.135000 0.550000 0.400000
v 0.135000 0.550000 0.425000
v 0.100000 0.550000 0.450000
v 0.100000 0.550000 0.425000
v 0.300000 0.550000 0.450000
v 0.300000 0.550000 0.425000
v 0.300000 0.550000 0.425000
v 0.265000 0.550000 0.425000
v 0.300000 0.725000 0.425000
v 0.265000 0.625000 0.425000
v 0.265000 0.650000 0.425000
v 0.135000 0.625000 0.425000
v 0.265000 0.715000 0.425000
v 0.135000 0.715000 0.425000
v 0.135000 0.650000 0.425000
v 0.100000 0.725000 0.425000
v 0.275000 0.750000 0.425000
v 0.125000 0.750000 0.425000
v 0.100000 0.550000 0.425000
v 0.135000 0.550000 0.425000
v 0.135000 0.715000 0.400000
v 0.135000 0.550000 0.400000
v 0.135000 0.715000 0.425000
v 0.135000 0.550000 0.425000
v 0.135000 0.650000 0.425000
v 0.135000 0.625000 0.425000
v 0.300000 0.725000 0.400000
v 0.300000 0.500000 0.400000
v 0.300000 0.725000 0.425000
v 0.300000 0.500000 0.425000
v 0.300000 0.550000 0.425000
v 0.300000 0.550000 0.450000
v 0.300000 0.500000 0.475000
v 0.300000 0.525000 0.475000
v 0.265000 0.550000 0.400000
v 0.265000 0.715000 0.400000
v 0.265000 0.550000 0.425000
v 0.265000 0.715000 0.425000
v 0.265000 0.625000 0.425000
v 0.265000 0.650000 0.425000
v 0.265000 0.715000 0.425000
v 0.265000 0.715000 0.400000
v 0.135000 0.715000 0.425000
v 0.135000 0.715000 0.400000
v 0.275000 0.750000 0.400000
v 0.300000 0.725000 0.400000
v 0.275000 0.750000 0.425000
v 0.300000 0.725000 0.425000
v 0.125000 0.750000 0.400000
v 0.125000 0.750000 0.425000
v 0.100000 0.725000 0.400000
v 0.100000 0.725000 0.425000
v -0.100000 0.525000 0.475000
v -0.300000 0.525000 0.475000
v -0.100000 0.550000 0.450000
v -0.300000 0.550000 0.450000
v -0.100000 0.500000 0.475000
v -0.300000 0.500000 0.475000
v -0.100000 0.525000 0.475000
v -0.300000 0.525000 0.475000
v -0.300000 0.500000 0.400000
v -0.300000 0.725000 0.400000
v -0.300000 0.500000 0.425000
v -0.300000 0.725000 0.425000
v -0.300000 0.550000 0.425000
v -0.300000 0.500000 0.475000
v -0.300000 0.550000 0.450000
v -0.300000 0.525000 0.475000
v -0.100000 0.500000 0.475000
v -0.100000 0.500000 0.425000
v -0.300000 0.500000 0.475000
v -0.100000 0.500000 0.400000
v -0.300000 0.500000 0.400000
v -0.300000 0.500000 0.425000
v -0.125000 0.750000 0.400000
v -0.125000 0.750000 0.425000
v -0.275000 0.750000 0.400000
v -0.275000 0.750000 0.425000
v -0.135000 0.550000 0.400000
v -0.135000 0.550000 0.425000
v -0.265000 0.550000 0.400000
v -0.265000 0.550000 0.425000
v -0.300000 0.550000 0.450000
v -0.300000 0.550000 0.425000
v -0.100000 0.550000 0.450000
v -0.100000 0.550000 0.425000
v -0.100000 0.550000 0.425000
v -0.135000 0.550000 0.425000
v -0.100000 0.725000 0.425000
v -0.135000 0.625000 0.425000
v -0.135000 0.650000 0.425000
v -0.265000 0.625000 0.425000
v -0.135000 0.715000 0.425000
v -0.265000 0.715000 0.425000
v -0.265000 0.650000 0.425000
v -0.300000 0.725000 0.425000
v -0.125000 0.750000 0.425000
v -0.275000 0.750000 0.425000
v -0.300000 0.550000 0.425000
v -0.265000 0.550000 0.425000
v -0.265000 0.715000 0.400000
v -0.265000 0.550000 0.400000
v -0.265000 0.715000 0.425000
v -0.265000 0.550000 0.425000
v -0.265000 0.650000 0.425000
v -0.265000 0.625000 0.425000
v -0.100000 0.725000 0.400000
v -0.100000 0.500000 0.400000
v -0.100000 0.725000 0.425000
v -0.100000 0.500000 0.425000
v -0.100000 0.550000 0.425000
v -0.100000 0.550000 0.450000
v -0.100000 0.500000 0.475000
v -0.100000 0.525000 0.475000
v -0.135000 0.550000 0.400000
v -0.135000 0.715000 0.400000
v -0.135000 0.550000 0.425000
v -0.135000 0.715000 0.425000
v -0.135000 0.625000 0.425000
v -0.135000 0.650000 0.425000
v -0.135000 0.715000 0.425000
v -0.135000 0.715000 0.400000
v -0.265000 0.715000 0.425000
v -0.265000 0.715000 0.400000
v -0.125000 0.750000 0.400000
v -0.100000 0.725000 0.400000
v -0.125000 0.750000 0.425000
v -0.100000 0.725000 0.425000
v -0.275000 0.750000 0.400000
v -0.275000 0.750000 0.425000
v -0.300000 0.725000 0.400000
v -0.300000 0.725000 0.425000
v -0.100000 0.925000 0.475000
v -0.300000 0.925000 0.475000
v -0.100000 0.950000 0.450000
v -0.300000 0.950000 0.450000
v -0.100000 0.900000 0.475000
v -0.300000 0.900000 0.475000
v -0.100000 0.925000 0.475000
v -0.300000 0.925000 0.475000
v -0.300000 0.900000 0.400000
v -0.300000 1.125000 0.400000
v -0.300000 0.900000 0.425000
v -0.300000 1.125000 0.425000
v -0.300000 0.950000 0.425000
v -0.300000 0.900000 0.475000
v -0.300000 0.950000 0.450000
v -0.300000 0.925000 0.475000
v -0.100000 0.900000 0.475000
v -0.100000 0.900000 0.425000
v -0.300000 0.900000 0.475000
v -0.100000 0.900000 0.400000
v -0.300000 0.900000 0.400000
v -0.300000 0.900000 0.425000
v -0.125000 1.150000 0.400000
v -0.125000 1.150000 0.425000
v -0.275000 1.150000 0.400000
v -0.275000 1.150000 0.425000
v -0.135000 0.950000 0.400000
v -0.135000 0.950000 0.425000
v -0.265000 0.950000 0.400000
v -0.265000 0.950000 0.425000
v -0.300000 0.950000 0.450000
v -0.300000 0.950000 0.425000
v -0.100000 0.950000 0.450000
v -0.100000 0.950000 0.425000
v -0.100000 0.950000 0.425000
v -0.135000 0.950000 0.425000
v -0.100000 1.125000 0.425000
v -0.135000 1.025000 0.425000
v -0.135000 1.050000 0.425000
v -0.265000 1.025000 0.425000
v -0.135000 1.115000 0.425000
v -0.265000 1.115000 0.425000
v -0.265000 1.050000 0.425000
v -0.300000 1.125000 0.425000
v -0.125000 1.150000 0.425000
v -0.275000 1.150000 0.425000
v -0.300000 0.950000 0.425000
v -0.265000 0.950000 0.425000
v -0.265000 1.115000 0.400000
v -0.265000 0.950000 0.400000
v -0.265000 1.115000 0.425000
v -0.265000 0.950000 0.425000
v -0.265000 1.050000 0.425000
v -0.265000 1.025000 0.425000
v -0.100000 1.125000 0.400000
v -0.100000 0.900000 0.400000
v -0.100000 1.125000 0.425000
v -0.100000 0.900000 0.425000
v -0.100000 0.950000 0.425000
v -0.100000 0.950000 0.450000
v -0.100000 0.900000 0.475000
v -0.100000 0.925000 0.475000
v -0.135000 0.950000 0.400000
v -0.135000 1.115000 0.400000
v -0.135000 0.950000 0.425000
v -0.135000 1.115000 0.425000
v -0.135000 1.025000 0.425000
v -0.135000 1.050000 0.425000
v -0.135000 1.115000 0.425000
v -0.135000 1.115000 0.400000
v -0.265000 1.115000 0.425000
v -0.265000 1.115000 0.400000
v -0.125000 1.150000 0.400000
v -0.100000 1.125000 0.400000
v -0.125000 1.150000 0.425000
v -0.100000 1.125000 0.425000
v -0.275000 1.150000 0.400000
v -0.275000 1.150000 0.425000
v -0.300000 1.125000 0.400000
v -0.300000 1.125000 0.425000
v 0.300000 0.925000 0.475000
v 0.100000 0.925000 0.475000
v 0.300000 0.950000 0.450000
v 0.100000 0.950000 0.450000
v 0.300000 0.900000 0.475000
v 0.100000 0.900000 0.475000
v 0.300000 0.925000 0.475000
v 0.100000 0.925000 0.475000
v 0.100000 0.900000 0.400000
v 0.100000 1.125000 0.400000
v 0.100000 0.900000 0.425000
v 0.100000 1.125000 0.425000
v 0.100000 0.950000 0.425000
v 0.100000 0.900000 0.475000
v 0.100000 0.950000 0.450000
v 0.100000 0.925000 0.475000
v 0.300000 0.900000 0.475000
v 0.300000 0.900000 0.425000
v 0.100000 0.900000 0.475000
v 0.300000 0.900000 0.400000
v 0.100000 0.900000 0.400000
v 0.100000 0.900000 0.425000
v 0.275000 1.150000 0.400000
v 0.275000 1.150000 0.425000
v 0.125000 1.150000 0.400000
v 0.125000 1.150000 0.425000
v 0.265000 0.950000 0.400000
v 0.265000 0.950000 0.425000
v 0.135000 0.950000 0.400000
v 0.135000 0.950000 0.425000
v 0.100000 0.950000 0.450000
v 0.100000 0.950000 0.425000
v 0.300000 0.950000 0.450000
v 0.300000 0.950000 0.425000
v 0.300000 0.950000 0.425000
v 0.265000 0.950000 0.425000
v 0.300000 1.125000 0.425000
v 0.265000 1.025000 0.425000
v 0.265000 1.050000 0.425000
v 0.135000 1.025000 0.425000
v 0.265000 1.115000 0.425000
v 0.135000 1.115000 0.425000
v 0.135000 1.050000 0.425000
v 0.100000 1.125000 0.425000
v 0.275000 1.150000 0.425000
v 0.125000 1.150000 0.425000
v 0.100000 0.950000 0.425000
v 0.135000 0.950000 0.425000
v 0.135000 1.115000 0.400000
v 0.135000 0.950000 0.400000
v 0.135000 1.115000 0.425000
v 0.135000 0.950000 0.425000
v 0.135000 1.050000 0.425000
v 0.135000 1.025000 0.425000
v 0.300000 1.125000 0.400000
v 0.300000 0.900000 0.400000
v 0.300000 1.125000 0.425000
v 0.300000 0.900000 0.425000
v 0.300000 0.950000 0.425000
v 0.300000 0.950000 0.450000
v 0.300000 0.900000 0.475000
v 0.300000 0.925000 0.475000
v 0.265000 0.950000 0.400000
v 0.265000 1.115000 0.400000
v 0.265000 0.950000 0.425000
v 0.265000 1.115000 0.425000
v 0.265000 1.025000 0.425000
v 0.265000 1.050000 0.425000
v 0.265000 1.115000 0.425000
v 0.265000 1.115000 0.400000
v 0.135000 1.115000 0.425000
v 0.135000 1.115000 0.400000
v 0.275000 1.150000 0.400000
v 0.300000 1.125000 0.400000
v 0.275000 1.150000 0.425000
v 0.300000 1.125000 0.425000
v 0.125000 1.150000 0.400000
v 0.125000 1.150000 0.425000
v 0.100000 1.125000 0.400000
v 0.100000 1.125000 0.425000
v -0.350000 1.250000 -0.450000
v 0.350000 1.250000 -0.450000
v -0.350000 1.350000 -0.450000
v 0.350000 1.350000 -0.450000
v 0.350000 1.250000 -0.450000
v 0.420711 1.250000 -0.420711
v 0.350000 1.350000 -0.450000
v 0.420711 1.350000 -0.420711
v 0.420711 1.350000 -0.420711
v 0.420711 1.250000 -0.420711
v 0.450000 1.350000 -0.350000
v 0.450000 1.250000 -0.350000
v 0.450000 1.350000 -0.350000
v 0.450000 1.250000 -0.350000
v 0.450000 1.350000 0.350000
v 0.450000 1.250000 0.350000
v 0.420711 1.250000 0.420711
v 0.350000 1.250000 0.450000
v 0.420711 1.350000 0.420711
v 0.350000 1.350000 0.450000
v 0.450000 1.350000 0.350000
v 0.450000 1.250000 0.350000
v 0.420711 1.350000 0.420711
v 0.420711 1.250000 0.420711
v 0.350000 1.250000 0.450000
v -0.350000 1.250000 0.450000
v 0.350000 1.350000 0.450000
v -0.350000 1.350000 0.450000
v -0.350000 1.250000 0.450000
v -0.420711 1.250000 0.420711
v -0.350000 1.350000 0.450000
v -0.420711 1.350000 0.420711
v -0.450000 1.250000 0.350000
v -0.450000 1.350000 0.350000
v -0.420711 1.250000 0.420711
v -0.420711 1.350000 0.420711
v -0.450000 1.250000 -0.350000
v -0.450000 1.350000 -0.350000
v -0.450000 1.250000 0.350000
v -0.450000 1.350000 0.350000
v -0.420711 1.250000 -0.420711
v -0.420711 1.350000 -0.420711
v -0.450000 1.250000 -0.350000
v -0.450000 1.350000 -0.350000
v -0.420711 1.250000 -0.420711
v -0.350000 1.250000 -0.450000
v -0.420711 1.350000 -0.420711
v -0.350000 1.350000 -0.450000
v 0.450000 1.350000 -0.350000
v 0.450000 1.350000 0.350000
v 0.420711 1.350000 -0.420711
v 0.420711 1.350000 0.420711
v 0.350000 1.350000 -0.450000
v 0.350000 1.350000 -0.330109
v 0.350000 1.350000 0.450000
v 0.330109 1.350000 -0.350000
v 0.350000 1.350000 0.330109
v 0.330109 1.350000 0.350000
v -0.350000 1.350000 -0.450000
v -0.330109 1.350000 -0.350000
v -0.350000 1.350000 -0.330109
v -0.350000 1.350000 0.450000
v -0.420711 1.350000 -0.420711
v -0.330109 1.350000 0.350000
v -0.350000 1.350000 0.330109
v -0.420711 1.350000 0.420711
v -0.450000 1.350000 -0.350000
v -0.450000 1.350000 0.350000
v 0.450000 1.250000 0.350000
v 0.450000 1.250000 -0.350000
v 0.420711 1.250000 0.420711
v 0.420711 1.250000 -0.420711
v 0.350000 1.250000 0.450000
v 0.350000 1.250000 -0.450000
v -0.350000 1.250000 0.450000
v -0.350000 1.250000 -0.450000
v -0.420711 1.250000 0.420711
v -0.420711 1.250000 -0.420711
v -0.450000 1.250000 0.350000
v -0.450000 1.250000 -0.350000
v 0.350000 1.300000 -0.330109
v 0.350000 1.300000 0.330109
v 0.330109 1.300000 -0.350000
v 0.330109 1.300000 0.350000
v -0.330109 1.300000 -0.350000
v -0.330109 1.300000 0.350000
v -0.350000 1.300000 -0.330109
v -0.350000 1.300000 0.330109
v -0.330109 1.300000 0.350000
v 0.330109 1.300000 0.350000
v -0.330109 1.350000 0.350000
v 0.330109 1.350000 0.350000
v 0.330109 1.300000 0.350000
v 0.350000 1.300000 0.330109
v 0.330109 1.350000 0.350000
v 0.350000 1.350000 0.330109
v 0.350000 1.300000 -0.330109
v 0.350000 1.350000 -0.330109
v 0.350000 1.300000 0.330109
v 0.350000 1.350000 0.330109
v 0.330109 1.300000 -0.350000
v 0.330109 1.350000 -0.350000
v 0.350000 1.300000 -0.330109
v 0.350000 1.350000 -0.330109
v 0.330109 1.300000 -0.350000
v -0.330109 1.300000 -0.350000
v 0.330109 1.350000 -0.350000
v -0.330109 1.350000 -0.350000
v -0.330109 1.350000 -0.350000
v -0.330109 1.300000 -0.350000
v -0.350000 1.350000 -0.330109
v -0.350000 1.300000 -0.330109
v -0.350000 1.350000 -0.330109
v -0.350000 1.300000 -0.330109
v -0.350000 1.350000 0.330109
v -0.350000 1.300000 0.330109
v -0.350000 1.350000 0.330109
v -0.350000 1.300000 0.330109
v -0.330109 1.350000 0.350000
v -0.330109 1.300000 0.350000
v 0.051581 1.325000 0.165533
v 0.077463 1.325000 0.262126
v -0.045012 1.325000 0.191415
v -0.019130 1.325000 0.288007
v -0.045012 1.300000 0.191415
v -0.045012 1.325000 0.191415
v -0.019130 1.300000 0.288007
v -0.019130 1.325000 0.288007
v 0.077463 1.300000 0.262126
v -0.019130 1.300000 0.288007
v 0.077463 1.325000 0.262126
v -0.019130 1.325000 0.288007
v 0.051581 1.325000 0.165533
v 0.051581 1.300000 0.165533
v 0.077463 1.325000 0.262126
v 0.077463 1.300000 0.262126
v -0.045012 1.300000 0.191415
v 0.051581 1.300000 0.165533
v -0.045012 1.325000 0.191415
v 0.051581 1.325000 0.165533
v -0.111197 1.325000 0.061935
v -0.150020 1.325000 0.206824
v -0.256086 1.325000 0.023112
v -0.294909 1.325000 0.168001
v -0.256086 1.300000 0.023112
v -0.256086 1.325000 0.023112
v -0.294909 1.300000 0.168001
v -0.294909 1.325000 0.168001
v -0.150020 1.300000 0.206824
v -0.294909 1.300000 0.168001
v -0.150020 1.325000 0.206824
v -0.294909 1.325000 0.168001
v -0.111197 1.325000 0.061935
v -0.111197 1.300000 0.061935
v -0.150020 1.325000 0.206824
v -0.150020 1.300000 0.206824
v -0.256086 1.300000 0.023112
v -0.111197 1.300000 0.061935
v -0.256086 1.325000 0.023112
v -0.111197 1.325000 0.061935
v 0.400000 0.400000 0.450000
v -0.400000 0.400000 0.450000
v 0.400000 0.500000 0.450000
v -0.400000 0.500000 0.450000
v -0.450000 0.400000 0.400000
v -0.435355 0.400000 0.435355
v -0.450000 0.400000 0.350000
v -0.400000 0.400000 0.350000
v -0.400000 0.400000 0.400000
v -0.400000 0.400000 0.450000
v 0.400000 0.400000 0.400000
v 0.400000 0.400000 0.450000
v 0.400000 0.400000 0.350000
v 0.435355 0.400000 0.435355
v 0.450000 0.400000 0.350000
v 0.450000 0.400000 0.400000
v -0.400000 0.500000 0.350000
v -0.400000 0.500000 0.400000
v -0.450000 0.500000 0.350000
v -0.400000 0.500000 0.450000
v -0.435355 0.500000 0.435355
v -0.450000 0.500000 0.400000
v 0.400000 0.500000 0.450000
v 0.400000 0.500000 0.400000
v 0.400000 0.500000 0.350000
v 0.435355 0.500000 0.435355
v 0.450000 0.500000 0.400000
v 0.450000 0.500000 0.350000
v 0.400000 0.400000 0.350000
v 0.450000 0.400000 0.350000
v 0.400000 0.500000 0.350000
v 0.450000 0.500000 0.350000
v 0.450000 0.500000 0.350000
v 0.450000 0.400000 0.350000
v 0.450000 0.500000 0.400000
v 0.450000 0.400000 0.400000
v -0.450000 0.400000 0.350000
v -0.400000 0.400000 0.350000
v -0.450000 0.500000 0.350000
v -0.400000 0.500000 0.350000
v -0.450000 0.400000 0.350000
v -0.450000 0.500000 0.350000
v -0.450000 0.400000 0.400000
v -0.450000 0.500000 0.400000
v -0.450000 0.400000 0.400000
v -0.450000 0.500000 0.400000
v -0.435355 0.400000 0.435355
v -0.435355 0.500000 0.435355
v -0.400000 0.400000 0.450000
v -0.435355 0.400000 0.435355
v -0.400000 0.500000 0.450000
v -0.435355 0.500000 0.435355
v 0.450000 0.500000 0.400000
v 0.450000 0.400000 0.400000
v 0.435355 0.500000 0.435355
v 0.435355 0.400000 0.435355
v 0.435355 0.400000 0.435355
v 0.400000 0.400000 0.450000
v 0.435355 0.500000 0.435355
v 0.400000 0.500000 0.450000
v 0.300000 0.125000 0.475000
v 0.100000 0.125000 0.475000
v 0.300000 0.150000 0.450000
v 0.100000 0.150000 0.450000
v 0.300000 0.100000 0.475000
v 0.100000 0.100000 0.475000
v 0.300000 0.125000 0.475000
v 0.100000 0.125000 0.475000
v 0.100000 0.100000 0.400000
v 0.100000 0.325000 0.400000
v 0.100000 0.100000 0.425000
v 0.100000 0.325000 0.425000
v 0.100000 0.150000 0.425000
v 0.100000 0.100000 0.475000
v 0.100000 0.150000 0.450000
v 0.100000 0.125000 0.475000
v 0.300000 0.100000 0.475000
v 0.300000 0.100000 0.425000
v 0.100000 0.100000 0.475000
v 0.300000 0.100000 0.400000
v 0.100000 0.100000 0.400000
v 0.100000 0.100000 0.425000
v 0.275000 0.350000 0.400000
v 0.275000 0.350000 0.425000
v 0.125000 0.350000 0.400000
v 0.125000 0.350000 0.425000
v 0.265000 0.150000 0.400000
v 0.265000 0.150000 0.425000
v 0.135000 0.150000 0.400000
v 0.135000 0.150000 0.425000
v 0.100000 0.150000 0.450000
v 0.100000 0.150000 0.425000
v 0.300000 0.150000 0.450000
v 0.300000 0.150000 0.425000
v 0.135000 0.315000 0.400000
v 0.135000 0.150000 0.400000
v 0.135000 0.315000 0.425000
v 0.135000 0.150000 0.425000
v 0.300000 0.325000 0.400000
v 0.300000 0.100000 0.400000
v 0.300000 0.325000 0.425000
v 0.300000 0.100000 0.425000
v 0.300000 0.150000 0.425000
v 0.300000 0.150000 0.450000
v 0.300000 0.100000 0.475000
v 0.300000 0.125000 0.475000
v 0.265000 0.150000 0.400000
v 0.265000 0.315000 0.400000
v 0.265000 0.150000 0.425000
v 0.265000 0.315000 0.425000
v 0.265000 0.315000 0.425000
v 0.265000 0.315000 0.400000
v 0.135000 0.315000 0.425000
v 0.135000 0.315000 0.400000
v 0.275000 0.350000 0.400000
v 0.300000 0.325000 0.400000
v 0.275000 0.350000 0.425000
v 0.300000 0.325000 0.425000
v 0.125000 0.350000 0.400000
v 0.125000 0.350000 0.425000
v 0.100000 0.325000 0.400000
v 0.100000 0.325000 0.425000
v 0.300000 0.150000 0.425000
v 0.265000 0.150000 0.425000
v 0.300000 0.325000 0.425000
v 0.265000 0.315000 0.425000
v 0.135000 0.315000 0.425000
v 0.100000 0.325000 0.425000
v 0.275000 0.350000 0.425000
v 0.125000 0.350000 0.425000
v 0.100000 0.150000 0.425000
v 0.135000 0.150000 0.425000
v -0.450000 0.100000 -0.350000
v -0.450000 1.250000 -0.350000
v -0.450000 0.100000 -0.300000
v -0.450000 1.250000 -0.300000
v -0.450000 0.100000 -0.350000
v -0.400000 0.100000 -0.350000
v -0.450000 1.250000 -0.350000
v -0.400000 1.250000 -0.350000
v -0.400000 0.100000 -0.300000
v -0.450000 0.100000 -0.300000
v -0.400000 1.250000 -0.300000
v -0.450000 1.250000 -0.300000
v -0.400000 0.150000 -0.275000
v -0.400000 0.150000 -0.375000
v -0.450000 0.150000 -0.275000
v -0.450000 0.150000 -0.375000
v -0.475000 0.150000 -0.300000
v -0.475000 0.150000 -0.350000
v -0.450000 0.150000 -0.375000
v -0.400000 0.150000 -0.375000
v -0.450000 0.200000 -0.375000
v -0.400000 0.200000 -0.375000
v -0.400000 0.200000 -0.375000
v -0.400000 0.200000 -0.275000
v -0.450000 0.200000 -0.375000
v -0.450000 0.200000 -0.275000
v -0.475000 0.200000 -0.350000
v -0.475000 0.200000 -0.300000
v -0.400000 0.150000 -0.275000
v -0.450000 0.150000 -0.275000
v -0.400000 0.200000 -0.275000
v -0.450000 0.200000 -0.275000
v -0.475000 0.150000 -0.350000
v -0.475000 0.200000 -0.350000
v -0.475000 0.150000 -0.300000
v -0.475000 0.200000 -0.300000
v -0.475000 0.150000 -0.350000
v -0.450000 0.150000 -0.375000
v -0.475000 0.200000 -0.350000
v -0.450000 0.200000 -0.375000
v -0.475000 0.150000 -0.300000
v -0.475000 0.200000 -0.300000
v -0.450000 0.150000 -0.275000
v -0.450000 0.200000 -0.275000
v -0.400000 1.150000 -0.275000
v -0.400000 1.150000 -0.375000
v -0.450000 1.150000 -0.275000
v -0.450000 1.150000 -0.375000
v -0.475000 1.150000 -0.300000
v -0.475000 1.150000 -0.350000
v -0.450000 1.150000 -0.375000
v -0.400000 1.150000 -0.375000
v -0.450000 1.200000 -0.375000
v -0.400000 1.200000 -0.375000
v -0.400000 1.200000 -0.375000
v -0.400000 1.200000 -0.275000
v -0.450000 1.200000 -0.375000
v -0.450000 1.200000 -0.275000
v -0.475000 1.200000 -0.350000
v -0.475000 1.200000 -0.300000
v -0.400000 1.150000 -0.275000
v -0.450000 1.150000 -0.275000
v -0.400000 1.200000 -0.275000
v -0.450000 1.200000 -0.275000
v -0.475000 1.150000 -0.350000
v -0.475000 1.200000 -0.350000
v -0.475000 1.150000 -0.300000
v -0.475000 1.200000 -0.300000
v -0.475000 1.150000 -0.350000
v -0.450000 1.150000 -0.375000
v -0.475000 1.200000 -0.350000
v -0.450000 1.200000 -0.375000
v -0.475000 1.150000 -0.300000
v -0.475000 1.200000 -0.300000
v -0.450000 1.150000 -0.275000
v -0.450000 1.200000 -0.275000
v -0.275000 0.050000 0.425000
v -0.275000 0.050000 0.400000
v -0.325000 0.050000 0.425000
v -0.325000 0.050000 0.400000
v -0.075000 0.050000 0.425000
v -0.075000 0.050000 0.400000
v -0.125000 0.050000 0.425000
v -0.125000 0.050000 0.400000
v -0.125000 0.050000 0.400000
v -0.125000 0.300000 0.400000
v -0.125000 0.050000 0.425000
v -0.125000 0.300000 0.425000
v -0.275000 0.300000 0.400000
v -0.275000 0.050000 0.400000
v -0.275000 0.300000 0.425000
v -0.275000 0.050000 0.425000
v -0.075000 0.325000 0.400000
v -0.075000 0.050000 0.400000
v -0.075000 0.325000 0.425000
v -0.075000 0.050000 0.425000
v -0.100000 0.350000 0.400000
v -0.075000 0.325000 0.400000
v -0.100000 0.350000 0.425000
v -0.075000 0.325000 0.425000
v -0.325000 0.050000 0.400000
v -0.325000 0.325000 0.400000
v -0.325000 0.050000 0.425000
v -0.325000 0.325000 0.425000
v -0.300000 0.350000 0.400000
v -0.300000 0.350000 0.425000
v -0.325000 0.325000 0.400000
v -0.325000 0.325000 0.425000
v -0.125000 0.300000 0.425000
v -0.125000 0.300000 0.400000
v -0.275000 0.300000 0.425000
v -0.275000 0.300000 0.400000
v -0.100000 0.350000 0.400000
v -0.100000 0.350000 0.425000
v -0.300000 0.350000 0.400000
v -0.300000 0.350000 0.425000
v -0.075000 0.050000 0.425000
v -0.125000 0.050000 0.425000
v -0.075000 0.325000 0.425000
v -0.125000 0.300000 0.425000
v -0.275000 0.300000 0.425000
v -0.325000 0.325000 0.425000
v -0.100000 0.350000 0.425000
v -0.300000 0.350000 0.425000
v -0.325000 0.050000 0.425000
v -0.275000 0.050000 0.425000
v 0.170556 1.300000 -0.275453
v 0.170556 1.326500 -0.275453
v 0.170556 1.300000 -0.175453
v 0.170556 1.326500 -0.175453
v 0.270556 1.300000 -0.175453
v 0.170556 1.300000 -0.175453
v 0.270556 1.326500 -0.175453
v 0.170556 1.326500 -0.175453
v 0.270556 1.326500 -0.275453
v 0.270556 1.300000 -0.275453
v 0.270556 1.326500 -0.175453
v 0.270556 1.300000 -0.175453
v 0.170556 1.300000 -0.275453
v 0.270556 1.300000 -0.275453
v 0.170556 1.326500 -0.275453
v 0.270556 1.326500 -0.275453
v 0.195556 1.326500 -0.250453
v 0.170556 1.326500 -0.275453
v 0.245556 1.326500 -0.250453
v 0.195556 1.326500 -0.200453
v 0.270556 1.326500 -0.275453
v 0.170556 1.326500 -0.175453
v 0.270556 1.326500 -0.175453
v 0.245556 1.326500 -0.200453
v 0.265000 0.150000 0.400000
v 0.135000 0.150000 0.400000
v 0.265000 0.315000 0.400000
v 0.135000 0.315000 0.400000
v -0.275000 0.050000 0.400000
v -0.275000 0.300000 0.400000
v -0.125000 0.050000 0.400000
v -0.125000 0.300000 0.400000
v 0.265000 0.550000 0.400000
v 0.135000 0.550000 0.400000
v 0.265000 0.715000 0.400000
v 0.135000 0.715000 0.400000
v -0.135000 0.550000 0.400000
v -0.265000 0.550000 0.400000
v -0.135000 0.715000 0.400000
v -0.265000 0.715000 0.400000
v -0.135000 0.950000 0.400000
v -0.265000 0.950000 0.400000
v -0.135000 1.115000 0.400000
v -0.265000 1.115000 0.400000
v 0.265000 0.950000 0.400000
v 0.135000 0.950000 0.400000
v 0.265000 1.115000 0.400000
v 0.135000 1.115000 0.400000
v 0.400000 0.850000 -0.400000
v 0.400000 0.450000 -0.400000
v 0.400000 0.850000 0.400000
v 0.400000 0.450000 0.400000
v -0.400000 0.450000 -0.400000
v 0.400000 0.450000 -0.400000
v -0.400000 0.850000 -0.400000
v 0.400000 0.850000 -0.400000
v -0.400000 0.450000 -0.400000
v -0.400000 0.850000 -0.400000
v -0.400000 0.450000 0.400000
v -0.400000 0.850000 0.400000
v 0.100000 0.725000 0.400000
v 0.100000 0.500000 0.400000
v -0.000000 0.850000 0.400000
v 0.125000 0.750000 0.400000
v -0.000000 0.450000 0.400000
v 0.400000 0.850000 0.400000
v 0.300000 0.500000 0.400000
v 0.400000 0.450000 0.400000
v 0.275000 0.750000 0.400000
v 0.300000 0.725000 0.400000
v 0.400000 1.250000 -0.400000
v 0.400000 0.850000 -0.400000
v 0.400000 1.250000 0.400000
v 0.400000 0.850000 0.400000
v -0.400000 0.850000 -0.400000
v 0.400000 0.850000 -0.400000
v -0.400000 1.250000 -0.400000
v 0.400000 1.250000 -0.400000
v -0.400000 0.850000 -0.400000
v -0.400000 1.250000 -0.400000
v -0.400000 0.850000 0.400000
v -0.400000 1.250000 0.400000
v -0.300000 0.725000 0.400000
v -0.300000 0.500000 0.400000
v -0.400000 0.850000 0.400000
v -0.275000 0.750000 0.400000
v -0.400000 0.450000 0.400000
v -0.000000 0.850000 0.400000
v -0.100000 0.500000 0.400000
v -0.000000 0.450000 0.400000
v -0.125000 0.750000 0.400000
v -0.100000 0.725000 0.400000
v -0.300000 1.125000 0.400000
v -0.300000 0.900000 0.400000
v -0.400000 1.250000 0.400000
v -0.275000 1.150000 0.400000
v -0.400000 0.850000 0.400000
v -0.000000 1.250000 0.400000
v -0.100000 0.900000 0.400000
v -0.000000 0.850000 0.400000
v -0.125000 1.150000 0.400000
v -0.100000 1.125000 0.400000
v 0.100000 1.125000 0.400000
v 0.100000 0.900000 0.400000
v -0.000000 1.250000 0.400000
v 0.125000 1.150000 0.400000
v -0.000000 0.850000 0.400000
v 0.400000 1.250000 0.400000
v 0.300000 0.900000 0.400000
v 0.400000 0.850000 0.400000
v 0.275000 1.150000 0.400000
v 0.300000 1.125000 0.400000
vt 0.218750 0.025000
vt 0.218750 0.025000
vt 0.218750 0.225000
vt 0.218750 0.225000
vt 0.218750 0.025000
vt 0.218750 0.025000
vt 0.218750 0.025000
vt 0.218750 0.025000
vt 0.218750 0.025000
vt 0.218750 0.225000
vt 0.218750 0.025000
vt 0.218750 0.225000
vt 0.218750 0.225000
vt 0.218750 0.025000
vt 0.218750 0.225000
vt 0.218750 0.025000
vt 0.218750 0.025000
vt 0.218750 0.025000
vt 0.218750 0.225000
vt 0.218750 0.225000
vt 0.218750 0.225000
vt 0.218750 0.225000
vt 0.218750 0.225000
vt 0.218750 0.225000
vt 0.218750 0.225000
vt 0.218750 0.225000
vt 0.218750 0.225000
vt 0.218750 0.225000
vt 0.218750 0.041233
vt 0.218750 0.225000
vt 0.218750 0.041233
vt 0.218750 0.225000
vt 0.218750 0.041233
vt 0.218750 0.041233
vt 0.218750 0.225000
vt 0.218750 0.225000
vt 0.218750 0.041233
vt 0.218750 0.041233
vt 0.218750 0.225000
vt 0.218750 0.225000
vt 0.218750 0.041233
vt 0.218750 0.041233
vt 0.218750 0.225000
vt 0.218750 0.225000
vt 0.718750 0.025000
vt 0.718750 0.025000
vt 0.718750 0.225000
vt 0.718750 0.225000
vt 0.718750 0.025000
vt 0.718750 0.225000
vt 0.718750 0.025000
vt 0.718750 0.225000
vt 0.718750 0.225000
vt 0.718750 0.025000
vt 0.718750 0.225000
vt 0.718750 0.025000
vt 0.718750 0.162500
vt 0.718750 0.050000
vt 0.718750 0.225000
vt 0.718750 0.175000
vt 0.718750 0.025000
vt 0.718750 0.225000
vt 0.718750 0.050000
vt 0.718750 0.025000
vt 0.718750 0.175000
vt 0.718750 0.162500
vt 0.718750 0.025000
vt 0.718750 0.025000
vt 0.718750 0.225000
vt 0.718750 0.162500
vt 0.718750 0.175000
vt 0.718750 0.175000
vt 0.718750 0.225000
vt 0.718750 0.162500
vt 0.718750 0.025000
vt 0.718750 0.025000
vt 0.718750 0.093750
vt 0.718750 0.093750
vt 0.718750 0.100000
vt 0.718750 0.100000
vt 0.718750 0.087500
vt 0.718750 0.087500
vt 0.718750 0.093750
vt 0.718750 0.093750
vt 0.718750 0.087500
vt 0.718750 0.143750
vt 0.718750 0.087500
vt 0.718750 0.143750
vt 0.718750 0.100000
vt 0.718750 0.087500
vt 0.718750 0.100000
vt 0.718750 0.093750
vt 0.718750 0.087500
vt 0.718750 0.087500
vt 0.718750 0.087500
vt 0.718750 0.087500
vt 0.718750 0.087500
vt 0.718750 0.087500
vt 0.718750 0.150000
vt 0.718750 0.150000
vt 0.718750 0.150000
vt 0.718750 0.150000
vt 0.718750 0.100000
vt 0.718750 0.100000
vt 0.718750 0.100000
vt 0.718750 0.100000
vt 0.718750 0.100000
vt 0.718750 0.100000
vt 0.718750 0.100000
vt 0.718750 0.100000
vt 0.718750 0.100000
vt 0.718750 0.100000
vt 0.718750 0.143750
vt 0.718750 0.118750
vt 0.718750 0.125000
vt 0.718750 0.118750
vt 0.718750 0.141250
vt 0.718750 0.141250
vt 0.718750 0.125000
vt 0.718750 0.143750
vt 0.718750 0.150000
vt 0.718750 0.150000
vt 0.718750 0.100000
vt 0.718750 0.100000
vt 0.718750 0.141250
vt 0.718750 0.100000
vt 0.718750 0.141250
vt 0.718750 0.100000
vt 0.718750 0.125000
vt 0.718750 0.118750
vt 0.718750 0.143750
vt 0.718750 0.087500
vt 0.718750 0.143750
vt 0.718750 0.087500
vt 0.718750 0.100000
vt 0.718750 0.100000
vt 0.718750 0.087500
vt 0.718750 0.093750
vt 0.718750 0.100000
vt 0.718750 0.141250
vt 0.718750 0.100000
vt 0.718750 0.141250
vt 0.718750 0.118750
vt 0.718750 0.125000
vt 0.718750 0.141250
vt 0.718750 0.141250
vt 0.718750 0.141250
vt 0.718750 0.141250
vt 0.718750 0.150000
vt 0.718750 0.143750
vt 0.718750 0.150000
vt 0.718750 0.143750
vt 0.718750 0.150000
vt 0.718750 0.150000
vt 0.718750 0.143750
vt 0.718750 0.143750
vt 0.718750 0.093750
vt 0.718750 0.093750
vt 0.718750 0.100000
vt 0.718750 0.100000
vt 0.718750 0.087500
vt 0.718750 0.087500
vt 0.718750 0.093750
vt 0.718750 0.093750
vt 0.718750 0.087500
vt 0.718750 0.143750
vt 0.718750 0.087500
vt 0.718750 0.143750
vt 0.718750 0.100000
vt 0.718750 0.087500
vt 0.718750 0.100000
vt 0.718750 0.093750
vt 0.718750 0.087500
vt 0.718750 0.087500
vt 0.718750 0.087500
vt 0.718750 0.087500
vt 0.718750 0.087500
vt 0.718750 0.087500
vt 0.718750 0.150000
vt 0.718750 0.150000
vt 0.718750 0.150000
vt 0.718750 0.150000
vt 0.718750 0.100000
vt 0.718750 0.100000
vt 0.718750 0.100000
vt 0.718750 0.100000
vt 0.718750 0.100000
vt 0.718750 0.100000
vt 0.718750 0.100000
vt 0.718750 0.100000
vt 0.718750 0.100000
vt 0.718750 0.100000
vt 0.718750 0.143750
vt 0.718750 0.118750
vt 0.718750 0.125000
vt 0.718750 0.118750
vt 0.718750 0.141250
vt 0.718750 0.141250
vt 0.718750 0.125000
vt 0.718750 0.143750
vt 0.718750 0.150000
vt 0.718750 0.150000
vt 0.718750 0.100000
vt 0.718750 0.100000
vt 0.718750 0.141250
vt 0.718750 0.100000
vt 0.718750 0.141250
vt 0.718750 0.100000
vt 0.718750 0.125000
vt 0.718750 0.118750
vt 0.718750 0.143750
vt 0.718750 0.087500
vt 0.718750 0.143750
vt 0.718750 0.087500
vt 0.718750 0.100000
vt 0.718750 0.100000
vt 0.718750 0.087500
vt 0.718750 0.093750
vt 0.718750 0.100000
vt 0.718750 0.141250
vt 0.718750 0.100000
vt 0.718750 0.141250
vt 0.718750 0.118750
vt 0.718750 0.125000
vt 0.718750 0.141250
vt 0.718750 0.141250
vt 0.718750 0.141250
vt 0.718750 0.141250
vt 0.718750 0.150000
vt 0.718750 0.143750
vt 0.718750 0.150000
vt 0.718750 0.143750
vt 0.718750 0.150000
vt 0.718750 0.150000
vt 0.718750 0.143750
vt 0.718750 0.143750
vt 0.718750 0.093750
vt 0.718750 0.093750
vt 0.718750 0.100000
vt 0.718750 0.100000
vt 0.718750 0.087500
vt 0.718750 0.087500
vt 0.718750 0.093750
vt 0.718750 0.093750
vt 0.718750 0.087500
vt 0.718750 0.143750
vt 0.718750 0.087500
vt 0.718750 0.143750
vt 0.718750 0.100000
vt 0.718750 0.087500
vt 0.718750 0.100000
vt 0.718750 0.093750
vt 0.718750 0.087500
vt 0.718750 0.087500
vt 0.718750 0.087500
vt 0.718750 0.087500
vt 0.718750 0.087500
vt 0.718750 0.087500
vt 0.718750 0.150000
vt 0.718750 0.150000
vt 0.718750 0.150000
vt 0.718750 0.150000
vt 0.718750 0.100000
vt 0.718750 0.100000
vt 0.718750 0.100000
vt 0.718750 0.100000
vt 0.718750 0.100000
vt 0.718750 0.100000
vt 0.718750 0.100000
vt 0.718750 0.100000
vt 0.718750 0.100000
vt 0.718750 0.100000
vt 0.718750 0.143750
vt 0.718750 0.118750
vt 0.718750 0.125000
vt 0.718750 0.118750
vt 0.718750 0.141250
vt 0.718750 0.141250
vt 0.718750 0.125000
vt 0.718750 0.143750
vt 0.718750 0.150000
vt 0.718750 0.150000
vt 0.718750 0.100000
vt 0.718750 0.100000
vt 0.718750 0.141250
vt 0.718750 0.100000
vt 0.718750 0.141250
vt 0.718750 0.100000
vt 0.718750 0.125000
vt 0.718750 0.118750
vt 0.718750 0.143750
vt 0.718750 0.087500
vt 0.718750 0.143750
vt 0.718750 0.087500
vt 0.718750 0.100000
vt 0.718750 0.100000
vt 0.718750 0.087500
vt 0.718750 0.093750
vt 0.718750 0.100000
vt 0.718750 0.141250
vt 0.718750 0.100000
vt 0.718750 0.141250
vt 0.718750 0.118750
vt 0.718750 0.125000
vt 0.718750 0.141250
vt 0.718750 0.141250
vt 0.718750 0.141250
vt 0.718750 0.141250
vt 0.718750 0.150000
vt 0.718750 0.143750
vt 0.718750 0.150000
vt 0.718750 0.143750
vt 0.718750 0.150000
vt 0.718750 0.150000
vt 0.718750 0.143750
vt 0.718750 0.143750
vt 0.718750 0.093750
vt 0.718750 0.093750
vt 0.718750 0.100000
vt 0.718750 0.100000
vt 0.718750 0.087500
vt 0.718750 0.087500
vt 0.718750 0.093750
vt 0.718750 0.093750
vt 0.718750 0.087500
vt 0.718750 0.143750
vt 0.718750 0.087500
vt 0.718750 0.143750
vt 0.718750 0.100000
vt 0.718750 0.087500
vt 0.718750 0.100000
vt 0.718750 0.093750
vt 0.718750 0.087500
vt 0.718750 0.087500
vt 0.718750 0.087500
vt 0.718750 0.087500
vt 0.718750 0.087500
vt 0.718750 0.087500
vt 0.718750 0.150000
vt 0.718750 0.150000
vt 0.718750 0.150000
vt 0.718750 0.150000
vt 0.718750 0.100000
vt 0.718750 0.100000
vt 0.718750 0.100000
vt 0.718750 0.100000
vt 0.718750 0.100000
vt 0.718750 0.100000
vt 0.718750 0.100000
vt 0.718750 0.100000
vt 0.718750 0.100000
vt 0.718750 0.100000
vt 0.718750 0.143750
vt 0.718750 0.118750
vt 0.718750 0.125000
vt 0.718750 0.118750
vt 0.718750 0.141250
vt 0.718750 0.141250
vt 0.718750 0.125000
vt 0.718750 0.143750
vt 0.718750 0.150000
vt 0.718750 0.150000
vt 0.718750 0.100000
vt 0.718750 0.100000
vt 0.718750 0.141250
vt 0.718750 0.100000
vt 0.718750 0.141250
vt 0.718750 0.100000
vt 0.718750 0.125000
vt 0.718750 0.118750
vt 0.718750 0.143750
vt 0.718750 0.087500
vt 0.718750 0.143750
vt 0.718750 0.087500
vt 0.718750 0.100000
vt 0.718750 0.100000
vt 0.718750 0.087500
vt 0.718750 0.093750
vt 0.718750 0.100000
vt 0.718750 0.141250
vt 0.718750 0.100000
vt 0.718750 0.141250
vt 0.718750 0.118750
vt 0.718750 0.125000
vt 0.718750 0.141250
vt 0.718750 0.141250
vt 0.718750 0.141250
vt 0.718750 0.141250
vt 0.718750 0.150000
vt 0.718750 0.143750
vt 0.718750 0.150000
vt 0.718750 0.143750
vt 0.718750 0.150000
vt 0.718750 0.150000
vt 0.718750 0.143750
vt 0.718750 0.143750
vt 0.468750 0.025000
vt 0.468750 0.025000
vt 0.468750 0.225000
vt 0.468750 0.225000
vt 0.468750 0.025000
vt 0.468750 0.025000
vt 0.468750 0.225000
vt 0.468750 0.225000
vt 0.468750 0.225000
vt 0.468750 0.025000
vt 0.468750 0.225000
vt 0.468750 0.025000
vt 0.468750 0.225000
vt 0.468750 0.025000
vt 0.468750 0.225000
vt 0.468750 0.025000
vt 0.468750 0.025000
vt 0.468750 0.025000
vt 0.468750 0.225000
vt 0.468750 0.225000
vt 0.468750 0.225000
vt 0.468750 0.025000
vt 0.468750 0.225000
vt 0.468750 0.025000
vt 0.468750 0.025000
vt 0.468750 0.025000
vt 0.468750 0.225000
vt 0.468750 0.225000
vt 0.468750 0.025000
vt 0.468750 0.025000
vt 0.468750 0.225000
vt 0.468750 0.225000
vt 0.468750 0.025000
vt 0.468750 0.225000
vt 0.468750 0.025000
vt 0.468750 0.225000
vt 0.468750 0.025000
vt 0.468750 0.225000
vt 0.468750 0.025000
vt 0.468750 0.225000
vt 0.468750 0.025000
vt 0.468750 0.225000
vt 0.468750 0.025000
vt 0.468750 0.225000
vt 0.468750 0.025000
vt 0.468750 0.025000
vt 0.468750 0.225000
vt 0.468750 0.225000
vt 0.468750 0.225000
vt 0.468750 0.225000
vt 0.468750 0.225000
vt 0.468750 0.225000
vt 0.468750 0.225000
vt 0.468750 0.225000
vt 0.468750 0.225000
vt 0.468750 0.225000
vt 0.468750 0.225000
vt 0.468750 0.225000
vt 0.468750 0.225000
vt 0.468750 0.225000
vt 0.468750 0.225000
vt 0.468750 0.225000
vt 0.468750 0.225000
vt 0.468750 0.225000
vt 0.468750 0.225000
vt 0.468750 0.225000
vt 0.468750 0.225000
vt 0.468750 0.225000
vt 0.468750 0.025000
vt 0.468750 0.025000
vt 0.468750 0.025000
vt 0.468750 0.025000
vt 0.468750 0.025000
vt 0.468750 0.025000
vt 0.468750 0.025000
vt 0.468750 0.025000
vt 0.468750 0.025000
vt 0.468750 0.025000
vt 0.468750 0.025000
vt 0.468750 0.025000
vt 0.468750 0.125000
vt 0.468750 0.125000
vt 0.468750 0.125000
vt 0.468750 0.125000
vt 0.468750 0.125000
vt 0.468750 0.125000
vt 0.468750 0.125000
vt 0.468750 0.125000
vt 0.468750 0.125000
vt 0.468750 0.125000
vt 0.468750 0.225000
vt 0.468750 0.225000
vt 0.468750 0.125000
vt 0.468750 0.125000
vt 0.468750 0.225000
vt 0.468750 0.225000
vt 0.468750 0.125000
vt 0.468750 0.225000
vt 0.468750 0.125000
vt 0.468750 0.225000
vt 0.468750 0.125000
vt 0.468750 0.225000
vt 0.468750 0.125000
vt 0.468750 0.225000
vt 0.468750 0.125000
vt 0.468750 0.125000
vt 0.468750 0.225000
vt 0.468750 0.225000
vt 0.468750 0.225000
vt 0.468750 0.125000
vt 0.468750 0.225000
vt 0.468750 0.125000
vt 0.468750 0.225000
vt 0.468750 0.125000
vt 0.468750 0.225000
vt 0.468750 0.125000
vt 0.468750 0.225000
vt 0.468750 0.125000
vt 0.468750 0.225000
vt 0.468750 0.125000
vt 0.468750 0.225000
vt 0.468750 0.225000
vt 0.468750 0.225000
vt 0.468750 0.225000
vt 0.468750 0.025000
vt 0.468750 0.225000
vt 0.468750 0.025000
vt 0.468750 0.225000
vt 0.468750 0.025000
vt 0.468750 0.025000
vt 0.468750 0.225000
vt 0.468750 0.225000
vt 0.468750 0.225000
vt 0.468750 0.025000
vt 0.468750 0.225000
vt 0.468750 0.025000
vt 0.468750 0.025000
vt 0.468750 0.025000
vt 0.468750 0.225000
vt 0.468750 0.225000
vt 0.468750 0.225000
vt 0.468750 0.225000
vt 0.468750 0.225000
vt 0.468750 0.225000
vt 0.468750 0.025000
vt 0.468750 0.225000
vt 0.468750 0.025000
vt 0.468750 0.225000
vt 0.468750 0.025000
vt 0.468750 0.025000
vt 0.468750 0.225000
vt 0.468750 0.225000
vt 0.468750 0.225000
vt 0.468750 0.025000
vt 0.468750 0.225000
vt 0.468750 0.025000
vt 0.468750 0.025000
vt 0.468750 0.025000
vt 0.468750 0.225000
vt 0.468750 0.225000
vt 0.468750 0.025000
vt 0.468750 0.025000
vt 0.468750 0.225000
vt 0.468750 0.225000
vt 0.468750 0.025000
vt 0.468750 0.025000
vt 0.468750 0.025000
vt 0.468750 0.025000
vt 0.468750 0.025000
vt 0.468750 0.025000
vt 0.468750 0.025000
vt 0.468750 0.025000
vt 0.468750 0.025000
vt 0.468750 0.025000
vt 0.468750 0.025000
vt 0.468750 0.025000
vt 0.468750 0.225000
vt 0.468750 0.225000
vt 0.468750 0.225000
vt 0.468750 0.225000
vt 0.468750 0.225000
vt 0.468750 0.225000
vt 0.468750 0.225000
vt 0.468750 0.225000
vt 0.468750 0.225000
vt 0.468750 0.225000
vt 0.468750 0.225000
vt 0.468750 0.225000
vt 0.468750 0.025000
vt 0.468750 0.025000
vt 0.468750 0.225000
vt 0.468750 0.225000
vt 0.468750 0.225000
vt 0.468750 0.025000
vt 0.468750 0.225000
vt 0.468750 0.025000
vt 0.468750 0.025000
vt 0.468750 0.025000
vt 0.468750 0.225000
vt 0.468750 0.225000
vt 0.468750 0.025000
vt 0.468750 0.225000
vt 0.468750 0.025000
vt 0.468750 0.225000
vt 0.468750 0.025000
vt 0.468750 0.225000
vt 0.468750 0.025000
vt 0.468750 0.225000
vt 0.468750 0.025000
vt 0.468750 0.025000
vt 0.468750 0.225000
vt 0.468750 0.225000
vt 0.468750 0.225000
vt 0.468750 0.025000
vt 0.468750 0.225000
vt 0.468750 0.025000
vt 0.468750 0.025000
vt 0.468750 0.025000
vt 0.468750 0.225000
vt 0.468750 0.225000
vt 0.468750 0.062500
vt 0.468750 0.062500
vt 0.468750 0.075000
vt 0.468750 0.075000
vt 0.468750 0.050000
vt 0.468750 0.050000
vt 0.468750 0.062500
vt 0.468750 0.062500
vt 0.468750 0.050000
vt 0.468750 0.162500
vt 0.468750 0.050000
vt 0.468750 0.162500
vt 0.468750 0.075000
vt 0.468750 0.050000
vt 0.468750 0.075000
vt 0.468750 0.062500
vt 0.468750 0.050000
vt 0.468750 0.050000
vt 0.468750 0.050000
vt 0.468750 0.050000
vt 0.468750 0.050000
vt 0.468750 0.050000
vt 0.468750 0.175000
vt 0.468750 0.175000
vt 0.468750 0.175000
vt 0.468750 0.175000
vt 0.468750 0.075000
vt 0.468750 0.075000
vt 0.468750 0.075000
vt 0.468750 0.075000
vt 0.468750 0.075000
vt 0.468750 0.075000
vt 0.468750 0.075000
vt 0.468750 0.075000
vt 0.468750 0.157500
vt 0.468750 0.075000
vt 0.468750 0.157500
vt 0.468750 0.075000
vt 0.468750 0.162500
vt 0.468750 0.050000
vt 0.468750 0.162500
vt 0.468750 0.050000
vt 0.468750 0.075000
vt 0.468750 0.075000
vt 0.468750 0.050000
vt 0.468750 0.062500
vt 0.468750 0.075000
vt 0.468750 0.157500
vt 0.468750 0.075000
vt 0.468750 0.157500
vt 0.468750 0.157500
vt 0.468750 0.157500
vt 0.468750 0.157500
vt 0.468750 0.157500
vt 0.468750 0.175000
vt 0.468750 0.162500
vt 0.468750 0.175000
vt 0.468750 0.162500
vt 0.468750 0.175000
vt 0.468750 0.175000
vt 0.468750 0.162500
vt 0.468750 0.162500
vt 0.468750 0.075000
vt 0.468750 0.075000
vt 0.468750 0.162500
vt 0.468750 0.157500
vt 0.468750 0.157500
vt 0.468750 0.162500
vt 0.468750 0.175000
vt 0.468750 0.175000
vt 0.468750 0.075000
vt 0.468750 0.075000
vt 0.468750 0.033333
vt 0.468750 0.225000
vt 0.468750 0.033333
vt 0.468750 0.225000
vt 0.468750 0.033333
vt 0.468750 0.033333
vt 0.468750 0.225000
vt 0.468750 0.225000
vt 0.468750 0.033333
vt 0.468750 0.033333
vt 0.468750 0.225000
vt 0.468750 0.225000
vt 0.468750 0.025000
vt 0.468750 0.025000
vt 0.468750 0.025000
vt 0.468750 0.025000
vt 0.468750 0.025000
vt 0.468750 0.025000
vt 0.468750 0.025000
vt 0.468750 0.025000
vt 0.468750 0.225000
vt 0.468750 0.225000
vt 0.468750 0.225000
vt 0.468750 0.225000
vt 0.468750 0.225000
vt 0.468750 0.225000
vt 0.468750 0.225000
vt 0.468750 0.225000
vt 0.468750 0.025000
vt 0.468750 0.025000
vt 0.468750 0.225000
vt 0.468750 0.225000
vt 0.468750 0.025000
vt 0.468750 0.225000
vt 0.468750 0.025000
vt 0.468750 0.225000
vt 0.468750 0.025000
vt 0.468750 0.025000
vt 0.468750 0.225000
vt 0.468750 0.225000
vt 0.468750 0.025000
vt 0.468750 0.225000
vt 0.468750 0.025000
vt 0.468750 0.225000
vt 0.468750 0.025000
vt 0.468750 0.025000
vt 0.468750 0.025000
vt 0.468750 0.025000
vt 0.468750 0.025000
vt 0.468750 0.025000
vt 0.468750 0.025000
vt 0.468750 0.025000
vt 0.468750 0.225000
vt 0.468750 0.225000
vt 0.468750 0.225000
vt 0.468750 0.225000
vt 0.468750 0.225000
vt 0.468750 0.225000
vt 0.468750 0.225000
vt 0.468750 0.225000
vt 0.468750 0.025000
vt 0.468750 0.025000
vt 0.468750 0.225000
vt 0.468750 0.225000
vt 0.468750 0.025000
vt 0.468750 0.225000
vt 0.468750 0.025000
vt 0.468750 0.225000
vt 0.468750 0.025000
vt 0.468750 0.025000
vt 0.468750 0.225000
vt 0.468750 0.225000
vt 0.468750 0.025000
vt 0.468750 0.225000
vt 0.468750 0.025000
vt 0.468750 0.225000
vt 0.468750 0.025000
vt 0.468750 0.025000
vt 0.468750 0.025000
vt 0.468750 0.025000
vt 0.468750 0.025000
vt 0.468750 0.025000
vt 0.468750 0.025000
vt 0.468750 0.025000
vt 0.468750 0.025000
vt 0.468750 0.150000
vt 0.468750 0.025000
vt 0.468750 0.150000
vt 0.468750 0.150000
vt 0.468750 0.025000
vt 0.468750 0.150000
vt 0.468750 0.025000
vt 0.468750 0.162500
vt 0.468750 0.025000
vt 0.468750 0.162500
vt 0.468750 0.025000
vt 0.468750 0.175000
vt 0.468750 0.162500
vt 0.468750 0.175000
vt 0.468750 0.162500
vt 0.468750 0.025000
vt 0.468750 0.162500
vt 0.468750 0.025000
vt 0.468750 0.162500
vt 0.468750 0.175000
vt 0.468750 0.175000
vt 0.468750 0.162500
vt 0.468750 0.162500
vt 0.468750 0.150000
vt 0.468750 0.150000
vt 0.468750 0.150000
vt 0.468750 0.150000
vt 0.468750 0.175000
vt 0.468750 0.175000
vt 0.468750 0.175000
vt 0.468750 0.175000
vt 0.468750 0.025000
vt 0.468750 0.025000
vt 0.468750 0.162500
vt 0.468750 0.150000
vt 0.468750 0.150000
vt 0.468750 0.162500
vt 0.468750 0.175000
vt 0.468750 0.175000
vt 0.468750 0.025000
vt 0.468750 0.025000
vt 0.468750 0.025000
vt 0.468750 0.041233
vt 0.468750 0.025000
vt 0.468750 0.041233
vt 0.468750 0.025000
vt 0.468750 0.025000
vt 0.468750 0.041233
vt 0.468750 0.041233
vt 0.468750 0.041233
vt 0.468750 0.025000
vt 0.468750 0.041233
vt 0.468750 0.025000
vt 0.468750 0.025000
vt 0.468750 0.025000
vt 0.468750 0.041233
vt 0.468750 0.041233
vt 0.468750 0.041233
vt 0.468750 0.041233
vt 0.468750 0.041233
vt 0.468750 0.041233
vt 0.468750 0.041233
vt 0.468750 0.041233
vt 0.468750 0.041233
vt 0.468750 0.041233
vt 0.093750 0.075000
vt 0.093750 0.075000
vt 0.093750 0.157500
vt 0.093750 0.157500
vt 0.093750 0.025000
vt 0.093750 0.150000
vt 0.093750 0.025000
vt 0.093750 0.150000
vt 0.093750 0.100000
vt 0.093750 0.100000
vt 0.093750 0.141250
vt 0.093750 0.141250
vt 0.093750 0.100000
vt 0.093750 0.100000
vt 0.093750 0.141250
vt 0.093750 0.141250
vt 0.093750 0.100000
vt 0.093750 0.100000
vt 0.093750 0.141250
vt 0.093750 0.141250
vt 0.093750 0.100000
vt 0.093750 0.100000
vt 0.093750 0.141250
vt 0.093750 0.141250
vt 0.218750 0.425000
vt 0.218750 0.325000
vt 0.218750 0.425000
vt 0.218750 0.325000
vt 0.218750 0.325000
vt 0.218750 0.325000
vt 0.218750 0.425000
vt 0.218750 0.425000
vt 0.218750 0.325000
vt 0.218750 0.425000
vt 0.218750 0.325000
vt 0.218750 0.425000
vt 0.218750 0.393750
vt 0.218750 0.337500
vt 0.218750 0.425000
vt 0.218750 0.400000
vt 0.218750 0.325000
vt 0.218750 0.425000
vt 0.218750 0.337500
vt 0.218750 0.325000
vt 0.218750 0.400000
vt 0.218750 0.393750
vt 0.218750 0.425000
vt 0.218750 0.325000
vt 0.218750 0.425000
vt 0.218750 0.325000
vt 0.218750 0.325000
vt 0.218750 0.325000
vt 0.218750 0.425000
vt 0.218750 0.425000
vt 0.218750 0.325000
vt 0.218750 0.425000
vt 0.218750 0.325000
vt 0.218750 0.425000
vt 0.218750 0.393750
vt 0.218750 0.337500
vt 0.218750 0.425000
vt 0.218750 0.400000
vt 0.218750 0.325000
vt 0.218750 0.425000
vt 0.218750 0.337500
vt 0.218750 0.325000
vt 0.218750 0.400000
vt 0.218750 0.393750
vt 0.218750 0.393750
vt 0.218750 0.337500
vt 0.218750 0.425000
vt 0.218750 0.400000
vt 0.218750 0.325000
vt 0.218750 0.425000
vt 0.218750 0.337500
vt 0.218750 0.325000
vt 0.218750 0.400000
vt 0.218750 0.393750
vt 0.218750 0.393750
vt 0.218750 0.337500
vt 0.218750 0.425000
vt 0.218750 0.400000
vt 0.218750 0.325000
vt 0.218750 0.425000
vt 0.218750 0.337500
vt 0.218750 0.325000
vt 0.218750 0.400000
vt 0.218750 0.393750
usemtl colormap
f 3/3 2/2 1/1
f 2/2 3/3 4/4
f 7/7 6/6 5/5
f 6/6 7/7 8/8
f 11/11 10/10 9/9
f 10/10 11/11 12/12
f 15/15 14/14 13/13
f 14/14 15/15 16/16
f 19/19 18/18 17/17
f 18/18 19/19 20/20
f 23/23 22/22 21/21
f 22/22 23/23 24/24
f 27/27 26/26 25/25
f 26/26 27/27 28/28
f 31/31 30/30 29/29
f 30/30 31/31 32/32
f 35/35 34/34 33/33
f 34/34 35/35 36/36
f 39/39 38/38 37/37
f 38/38 39/39 40/40
f 43/43 42/42 41/41
f 42/42 43/43 44/44
f 47/47 46/46 45/45
f 46/46 47/47 48/48
f 51/51 50/50 49/49
f 50/50 51/51 52/52
f 55/55 54/54 53/53
f 54/54 55/55 56/56
f 59/59 58/58 57/57
f 59/59 57/57 60/60
f 61/61 58/58 59/59
f 59/59 60/60 62/62
f 58/58 61/61 63/63
f 64/64 63/63 61/61
f 63/63 64/64 62/62
f 65/65 62/62 60/60
f 63/63 62/62 66/66
f 66/66 62/62 65/65
f 69/69 68/68 67/67
f 68/68 69/69 70/70
f 70/70 69/69 71/71
f 71/71 69/69 72/72
f 73/73 72/72 69/69
f 73/73 74/74 72/72
f 75/75 74/74 73/73
f 74/74 75/75 76/76
f 79/79 78/78 77/77
f 78/78 79/79 80/80
f 83/83 82/82 81/81
f 82/82 83/83 84/84
f 87/87 86/86 85/85
f 86/86 87/87 88/88
f 88/88 87/87 89/89
f 90/90 89/89 87/87
f 89/89 90/90 91/91
f 91/91 90/90 92/92
f 95/95 94/94 93/93
f 94/94 95/95 96/96
f 96/96 95/95 97/97
f 97/97 95/95 98/98
f 101/101 100/100 99/99
f 100/100 101/101 102/102
f 105/105 104/104 103/103
f 106/106 104/104 105/105
f 107/107 104/104 106/106
f 107/107 106/106 108/108
f 109/109 104/104 107/107
f 104/104 109/109 110/110
f 113/113 112/112 111/111
f 112/112 113/113 114/114
f 114/114 113/113 115/115
f 115/115 116/116 114/114
f 115/115 113/113 117/117
f 117/117 113/113 118/118
f 116/116 115/115 119/119
f 120/120 119/119 118/118
f 120/120 118/118 113/113
f 120/120 116/116 119/119
f 120/120 113/113 121/121
f 120/120 121/121 122/122
f 123/123 116/116 120/120
f 116/116 123/123 124/124
f 127/127 126/126 125/125
f 126/126 127/127 128/128
f 128/128 127/127 129/129
f 128/128 129/129 130/130
f 133/133 132/132 131/131
f 132/132 133/133 134/134
f 134/134 133/133 135/135
f 136/136 134/134 135/135
f 134/134 136/136 137/137
f 137/137 136/136 138/138
f 141/141 140/140 139/139
f 140/140 141/141 142/142
f 142/142 141/141 143/143
f 142/142 143/143 144/144
f 147/147 146/146 145/145
f 146/146 147/147 148/148
f 151/151 150/150 149/149
f 150/150 151/151 152/152
f 155/155 154/154 153/153
f 154/154 155/155 156/156
f 159/159 158/158 157/157
f 158/158 159/159 160/160
f 163/163 162/162 161/161
f 162/162 163/163 164/164
f 167/167 166/166 165/165
f 166/166 167/167 168/168
f 168/168 167/167 169/169
f 170/170 169/169 167/167
f 169/169 170/170 171/171
f 171/171 170/170 172/172
f 175/175 174/174 173/173
f 174/174 175/175 176/176
f 176/176 175/175 177/177
f 177/177 175/175 178/178
f 181/181 180/180 179/179
f 180/180 181/181 182/182
f 185/185 184/184 183/183
f 186/186 184/184 185/185
f 187/187 184/184 186/186
f 187/187 186/186 188/188
f 189/189 184/184 187/187
f 184/184 189/189 190/190
f 193/193 192/192 191/191
f 192/192 193/193 194/194
f 194/194 193/193 195/195
f 195/195 196/196 194/194
f 195/195 193/193 197/197
f 197/197 193/193 198/198
f 196/196 195/195 199/199
f 200/200 199/199 198/198
f 200/200 198/198 193/193
f 200/200 196/196 199/199
f 200/200 193/193 201/201
f 200/200 201/201 202/202
f 203/203 196/196 200/200
f 196/196 203/203 204/204
f 207/207 206/206 205/205
f 206/206 207/207 208/208
f 208/208 207/207 209/209
f 208/208 209/209 210/210
f 213/213 212/212 211/211
f 212/212 213/213 214/214
f 214/214 213/213 215/215
f 216/216 214/214 215/215
f 214/214 216/216 217/217
f 217/217 216/216 218/218
f 221/221 220/220 219/219
f 220/220 221/221 222/222
f 222/222 221/221 223/223
f 222/222 223/223 224/224
f 227/227 226/226 225/225
f 226/226 227/227 228/228
f 231/231 230/230 229/229
f 230/230 231/231 232/232
f 235/235 234/234 233/233
f 234/234 235/235 236/236
f 239/239 238/238 237/237
f 238/238 239/239 240/240
f 243/243 242/242 241/241
f 242/242 243/243 244/244
f 247/247 246/246 245/245
f 246/246 247/247 248/248
f 248/248 247/247 249/249
f 250/250 249/249 247/247
f 249/249 250/250 251/251
f 251/251 250/250 252/252
f 255/255 254/254 253/253
f 254/254 255/255 256/256
f 256/256 255/255 257/257
f 257/257 255/255 258/258
f 261/261 260/260 259/259
f 260/260 261/261 262/262
f 265/265 264/264 263/263
f 266/266 264/264 265/265
f 267/267 264/264 266/266
f 267/267 266/266 268/268
f 269/269 264/264 267/267
f 264/264 269/269 270/270
f 273/273 272/272 271/271
f 272/272 273/273 274/274
f 274/274 273/273 275/275
f 275/275 276/276 274/274
f 275/275 273/273 277/277
f 277/277 273/273 278/278
f 276/276 275/275 279/279
f 280/280 279/279 278/278
f 280/280 278/278 273/273
f 280/280 276/276 279/279
f 280/280 273/273 281/281
f 280/280 281/281 282/282
f 283/283 276/276 280/280
f 276/276 283/283 284/284
f 287/287 286/286 285/285
f 286/286 287/287 288/288
f 288/288 287/287 289/289
f 288/288 289/289 290/290
f 293/293 292/292 291/291
f 292/292 293/293 294/294
f 294/294 293/293 295/295
f 296/296 294/294 295/295
f 294/294 296/296 297/297
f 297/297 296/296 298/298
f 301/301 300/300 299/299
f 300/300 301/301 302/302
f 302/302 301/301 303/303
f 302/302 303/303 304/304
f 307/307 306/306 305/305
f 306/306 307/307 308/308
f 311/311 310/310 309/309
f 310/310 311/311 312/312
f 315/315 314/314 313/313
f 314/314 315/315 316/316
f 319/319 318/318 317/317
f 318/318 319/319 320/320
f 323/323 322/322 321/321
f 322/322 323/323 324/324
f 327/327 326/326 325/325
f 326/326 327/327 328/328
f 328/328 327/327 329/329
f 330/330 329/329 327/327
f 329/329 330/330 331/331
f 331/331 330/330 332/332
f 335/335 334/334 333/333
f 334/334 335/335 336/336
f 336/336 335/335 337/337
f 337/337 335/335 338/338
f 341/341 340/340 339/339
f 340/340 341/341 342/342
f 345/345 344/344 343/343
f 346/346 344/344 345/345
f 347/347 344/344 346/346
f 347/347 346/346 348/348
f 349/349 344/344 347/347
f 344/344 349/349 350/350
f 353/353 352/352 351/351
f 352/352 353/353 354/354
f 354/354 353/353 355/355
f 355/355 356/356 354/354
f 355/355 353/353 357/357
f 357/357 353/353 358/358
f 356/356 355/355 359/359
f 360/360 359/359 358/358
f 360/360 358/358 353/353
f 360/360 356/356 359/359
f 360/360 353/353 361/361
f 360/360 361/361 362/362
f 363/363 356/356 360/360
f 356/356 363/363 364/364
f 367/367 366/366 365/365
f 366/366 367/367 368/368
f 368/368 367/367 369/369
f 368/368 369/369 370/370
f 373/373 372/372 371/371
f 372/372 373/373 374/374
f 374/374 373/373 375/375
f 376/376 374/374 375/375
f 374/374 376/376 377/377
f 377/377 376/376 378/378
f 381/381 380/380 379/379
f 380/380 381/381 382/382
f 382/382 381/381 383/383
f 382/382 383/383 384/384
f 387/387 386/386 385/385
f 386/386 387/387 388/388
f 391/391 390/390 389/389
f 390/390 391/391 392/392
f 395/395 394/394 393/393
f 394/394 395/395 396/396
f 399/399 398/398 397/397
f 398/398 399/399 400/400
f 403/403 402/402 401/401
f 402/402 403/403 404/404
f 407/407 406/406 405/405
f 406/406 407/407 408/408
f 411/411 410/410 409/409
f 410/410 411/411 412/412
f 415/415 414/414 413/413
f 414/414 415/415 416/416
f 419/419 418/418 417/417
f 418/418 419/419 420/420
f 423/423 422/422 421/421
f 422/422 423/423 424/424
f 427/427 426/426 425/425
f 426/426 427/427 428/428
f 431/431 430/430 429/429
f 430/430 431/431 432/432
f 435/435 434/434 433/433
f 434/434 435/435 436/436
f 439/439 438/438 437/437
f 438/438 439/439 440/440
f 443/443 442/442 441/441
f 442/442 443/443 444/444
f 447/447 446/446 445/445
f 446/446 447/447 448/448
f 448/448 447/447 449/449
f 448/448 449/449 450/450
f 450/450 451/451 448/448
f 450/450 449/449 452/452
f 451/451 450/450 453/453
f 451/451 453/453 454/454
f 452/452 449/449 455/455
f 452/452 455/455 456/456
f 456/456 455/455 457/457
f 451/451 454/454 458/458
f 457/457 455/455 459/459
f 458/458 454/454 460/460
f 458/458 460/460 461/461
f 457/457 459/459 461/461
f 461/461 459/459 458/458
f 458/458 459/459 462/462
f 462/462 459/459 463/463
f 462/462 463/463 464/464
f 467/467 466/466 465/465
f 466/466 467/467 468/468
f 468/468 467/467 469/469
f 468/468 469/469 470/470
f 470/470 469/469 471/471
f 470/470 471/471 472/472
f 472/472 471/471 473/473
f 472/472 473/473 474/474
f 474/474 473/473 475/475
f 474/474 475/475 476/476
f 479/479 478/478 477/477
f 478/478 479/479 480/480
f 480/480 479/479 481/481
f 480/480 481/481 482/482
f 482/482 481/481 483/483
f 482/482 483/483 484/484
f 487/487 486/486 485/485
f 486/486 487/487 488/488
f 491/491 490/490 489/489
f 490/490 491/491 492/492
f 495/495 494/494 493/493
f 494/494 495/495 496/496
f 499/499 498/498 497/497
f 498/498 499/499 500/500
f 503/503 502/502 501/501
f 502/502 503/503 504/504
f 507/507 506/506 505/505
f 506/506 507/507 508/508
f 511/511 510/510 509/509
f 510/510 511/511 512/512
f 515/515 514/514 513/513
f 514/514 515/515 516/516
f 519/519 518/518 517/517
f 518/518 519/519 520/520
f 523/523 522/522 521/521
f 522/522 523/523 524/524
f 527/527 526/526 525/525
f 526/526 527/527 528/528
f 531/531 530/530 529/529
f 530/530 531/531 532/532
f 535/535 534/534 533/533
f 534/534 535/535 536/536
f 539/539 538/538 537/537
f 538/538 539/539 540/540
f 543/543 542/542 541/541
f 542/542 543/543 544/544
f 547/547 546/546 545/545
f 546/546 547/547 548/548
f 551/551 550/550 549/549
f 550/550 551/551 552/552
f 555/555 554/554 553/553
f 554/554 555/555 556/556
f 559/559 558/558 557/557
f 558/558 559/559 560/560
f 563/563 562/562 561/561
f 564/564 562/562 563/563
f 565/565 562/562 564/564
f 565/565 566/566 562/562
f 567/567 566/566 565/565
f 566/566 567/567 568/568
f 569/569 568/568 567/567
f 569/569 570/570 568/568
f 571/571 570/570 569/569
f 570/570 571/571 572/572
f 575/575 574/574 573/573
f 574/574 575/575 576/576
f 576/576 575/575 577/577
f 577/577 575/575 578/578
f 579/579 574/574 576/576
f 579/579 580/580 574/574
f 579/579 581/581 580/580
f 582/582 581/581 579/579
f 583/583 581/581 582/582
f 581/581 583/583 584/584
f 587/587 586/586 585/585
f 586/586 587/587 588/588
f 591/591 590/590 589/589
f 590/590 591/591 592/592
f 595/595 594/594 593/593
f 594/594 595/595 596/596
f 599/599 598/598 597/597
f 598/598 599/599 600/600
f 603/603 602/602 601/601
f 602/602 603/603 604/604
f 607/607 606/606 605/605
f 606/606 607/607 608/608
f 611/611 610/610 609/609
f 610/610 611/611 612/612
f 615/615 614/614 613/613
f 614/614 615/615 616/616
f 619/619 618/618 617/617
f 618/618 619/619 620/620
f 623/623 622/622 621/621
f 622/622 623/623 624/624
f 627/627 626/626 625/625
f 626/626 627/627 628/628
f 628/628 627/627 629/629
f 630/630 629/629 627/627
f 629/629 630/630 631/631
f 631/631 630/630 632/632
f 635/635 634/634 633/633
f 634/634 635/635 636/636
f 636/636 635/635 637/637
f 637/637 635/635 638/638
f 641/641 640/640 639/639
f 640/640 641/641 642/642
f 645/645 644/644 643/643
f 646/646 644/644 645/645
f 647/647 644/644 646/646
f 647/647 646/646 648/648
f 649/649 644/644 647/647
f 644/644 649/649 650/650
f 653/653 652/652 651/651
f 652/652 653/653 654/654
f 657/657 656/656 655/655
f 656/656 657/657 658/658
f 658/658 657/657 659/659
f 660/660 658/658 659/659
f 658/658 660/660 661/661
f 661/661 660/660 662/662
f 665/665 664/664 663/663
f 664/664 665/665 666/666
f 669/669 668/668 667/667
f 668/668 669/669 670/670
f 673/673 672/672 671/671
f 672/672 673/673 674/674
f 677/677 676/676 675/675
f 676/676 677/677 678/678
f 681/681 680/680 679/679
f 680/680 681/681 682/682
f 682/682 681/681 683/683
f 684/684 683/683 681/681
f 684/684 681/681 685/685
f 684/684 685/685 686/686
f 687/687 683/683 684/684
f 683/683 687/687 688/688
f 691/691 690/690 689/689
f 690/690 691/691 692/692
f 695/695 694/694 693/693
f 694/694 695/695 696/696
f 699/699 698/698 697/697
f 698/698 699/699 700/700
f 703/703 702/702 701/701
f 702/702 703/703 704/704
f 704/704 703/703 705/705
f 704/704 705/705 706/706
f 709/709 708/708 707/707
f 708/708 709/709 710/710
f 713/713 712/712 711/711
f 712/712 713/713 714/714
f 714/714 713/713 715/715
f 714/714 715/715 716/716
f 719/719 718/718 717/717
f 718/718 719/719 720/720
f 723/723 722/722 721/721
f 722/722 723/723 724/724
f 727/727 726/726 725/725
f 726/726 727/727 728/728
f 731/731 730/730 729/729
f 730/730 731/731 732/732
f 735/735 734/734 733/733
f 734/734 735/735 736/736
f 736/736 735/735 737/737
f 736/736 737/737 738/738
f 741/741 740/740 739/739
f 740/740 741/741 742/742
f 745/745 744/744 743/743
f 744/744 745/745 746/746
f 746/746 745/745 747/747
f 746/746 747/747 748/748
f 751/751 750/750 749/749
f 750/750 751/751 752/752
f 755/755 754/754 753/753
f 754/754 755/755 756/756
f 759/759 758/758 757/757
f 758/758 759/759 760/760
f 763/763 762/762 761/761
f 762/762 763/763 764/764
f 767/767 766/766 765/765
f 766/766 767/767 768/768
f 771/771 770/770 769/769
f 770/770 771/771 772/772
f 775/775 774/774 773/773
f 774/774 775/775 776/776
f 779/779 778/778 777/777
f 778/778 779/779 780/780
f 783/783 782/782 781/781
f 782/782 783/783 784/784
f 787/787 786/786 785/785
f 786/786 787/787 788/788
f 791/791 790/790 789/789
f 790/790 791/791 792/792
f 795/795 794/794 793/793
f 794/794 795/795 796/796
f 799/799 798/798 797/797
f 798/798 799/799 800/800
f 803/803 802/802 801/801
f 802/802 803/803 804/804
f 807/807 806/806 805/805
f 806/806 807/807 808/808
f 808/808 807/807 809/809
f 810/810 809/809 807/807
f 810/810 807/807 811/811
f 810/810 811/811 812/812
f 813/813 809/809 810/810
f 809/809 813/813 814/814
f 817/817 816/816 815/815
f 816/816 817/817 818/818
f 821/821 820/820 819/819
f 820/820 821/821 822/822
f 825/825 824/824 823/823
f 824/824 825/825 826/826
f 829/829 828/828 827/827
f 828/828 829/829 830/830
f 833/833 832/832 831/831
f 831/831 832/832 834/834
f 833/833 835/835 832/832
f 836/836 834/834 832/832
f 835/835 833/833 837/837
f 836/836 838/838 834/834
f 837/837 838/838 836/836
f 838/838 837/837 833/833
f 841/841 840/840 839/839
f 840/840 841/841 842/842
f 845/845 844/844 843/843
f 844/844 845/845 846/846
f 849/849 848/848 847/847
f 848/848 849/849 850/850
f 853/853 852/852 851/851
f 852/852 853/853 854/854
f 857/857 856/856 855/855
f 856/856 857/857 858/858
f 861/861 860/860 859/859
f 860/860 861/861 862/862
f 865/865 864/864 863/863
f 864/864 865/865 866/866
f 869/869 868/868 867/867
f 868/868 869/869 870/870
f 873/873 872/872 871/871
f 872/872 873/873 874/874
f 877/877 876/876 875/875
f 877/877 875/875 878/878
f 879/879 876/876 877/877
f 877/877 878/878 880/880
f 876/876 879/879 881/881
f 882/882 881/881 879/879
f 881/881 882/882 880/880
f 883/883 880/880 878/878
f 881/881 880/880 884/884
f 884/884 880/880 883/883
f 887/887 886/886 885/885
f 886/886 887/887 888/888
f 891/891 890/890 889/889
f 890/890 891/891 892/892
f 895/895 894/894 893/893
f 894/894 895/895 896/896
f 899/899 898/898 897/897
f 899/899 897/897 900/900
f 901/901 898/898 899/899
f 899/899 900/900 902/902
f 898/898 901/901 903/903
f 904/904 903/903 901/901
f 903/903 904/904 902/902
f 905/905 902/902 900/900
f 903/903 902/902 906/906
f 906/906 902/902 905/905
f 909/909 908/908 907/907
f 909/909 907/907 910/910
f 911/911 908/908 909/909
f 909/909 910/910 912/912
f 908/908 911/911 913/913
f 914/914 913/913 911/911
f 913/913 914/914 912/912
f 915/915 912/912 910/910
f 913/913 912/912 916/916
f 916/916 912/912 915/915
f 919/919 918/918 917/917
f 919/919 917/917 920/920
f 921/921 918/918 919/919
f 919/919 920/920 922/922
f 918/918 921/921 923/923
f 924/924 923/923 921/921
f 923/923 924/924 922/922
f 925/925 922/922 920/920
f 923/923 922/922 926/926
f 926/926 922/922 925/925
