mtllib building-small-a.mtl
o building-small-a
v 0.500000 0.000000 0.500000
v -0.500000 0.000000 0.500000
v 0.500000 0.050000 0.500000
v -0.500000 0.050000 0.500000
v 0.500000 0.000000 0.500000
v 0.500000 0.000000 -0.500000
v -0.500000 0.000000 0.500000
v -0.500000 0.000000 -0.500000
v -0.500000 0.000000 -0.500000
v -0.500000 0.050000 -0.500000
v -0.500000 0.000000 0.500000
v -0.500000 0.050000 0.500000
v 0.500000 0.050000 -0.500000
v 0.500000 0.000000 -0.500000
v 0.500000 0.050000 0.500000
v 0.500000 0.000000 0.500000
v -0.500000 0.000000 -0.500000
v 0.500000 0.000000 -0.500000
v -0.500000 0.050000 -0.500000
v 0.500000 0.050000 -0.500000
v 0.500000 0.050000 -0.500000
v 0.500000 0.050000 0.500000
v -0.500000 0.050000 -0.500000
v -0.500000 0.050000 0.500000
v 0.500000 0.485048 -0.214026
v 0.500000 0.485048 -0.139026
v 0.450000 0.497389 -0.206901
v 0.450000 0.497389 -0.146151
v 0.500000 0.485048 -0.139026
v 0.500000 0.550000 -0.101526
v 0.450000 0.497389 -0.146151
v 0.450000 0.550000 -0.115776
v 0.500000 0.485048 -0.214026
v 0.450000 0.497389 -0.206901
v 0.500000 0.550000 -0.251526
v 0.450000 0.550000 -0.237276
v 0.500000 0.550000 -0.251526
v 0.450000 0.550000 -0.237276
v 0.500000 0.614952 -0.214026
v 0.450000 0.602611 -0.206901
v 0.500000 0.614952 -0.139026
v 0.500000 0.614952 -0.214026
v 0.450000 0.602611 -0.146151
v 0.450000 0.602611 -0.206901
v 0.500000 0.550000 -0.101526
v 0.500000 0.614952 -0.139026
v 0.450000 0.550000 -0.115776
v 0.450000 0.602611 -0.146151
v -0.400000 0.050000 -0.400000
v 0.400000 0.050000 -0.400000
v -0.400000 0.450000 -0.400000
v 0.400000 0.450000 -0.400000
v -0.400000 0.050000 -0.400000
v -0.400000 0.450000 -0.400000
v -0.400000 0.050000 0.400000
v -0.400000 0.450000 0.400000
v 0.400000 0.450000 -0.400000
v 0.400000 0.050000 -0.400000
v 0.400000 0.450000 0.400000
v 0.400000 0.050000 0.400000
v 0.100000 0.325000 0.400000
v 0.100000 0.100000 0.400000
v -0.000000 0.450000 0.400000
v 0.125000 0.350000 0.400000
v -0.000000 0.050000 0.400000
v 0.400000 0.450000 0.400000
v 0.300000 0.100000 0.400000
v 0.400000 0.050000 0.400000
v 0.275000 0.350000 0.400000
v 0.300000 0.325000 0.400000
v -0.000000 0.050000 0.400000
v -0.075000 0.050000 0.400000
v -0.000000 0.450000 0.400000
v -0.075000 0.325000 0.400000
v -0.100000 0.350000 0.400000
v -0.300000 0.350000 0.400000
v -0.400000 0.450000 0.400000
v -0.325000 0.325000 0.400000
v -0.400000 0.050000 0.400000
v -0.325000 0.050000 0.400000
v 0.400000 0.850000 -0.400000
v 0.400000 0.450000 -0.400000
v 0.400000 0.850000 0.400000
v 0.400000 0.450000 0.400000
v -0.400000 0.450000 -0.400000
v 0.400000 0.450000 -0.400000
v -0.400000 0.850000 -0.400000
v 0.400000 0.850000 -0.400000
v -0.400000 0.450000 -0.400000
v -0.400000 0.850000 -0.400000
v -0.400000 0.450000 0.400000
v -0.400000 0.850000 0.400000
v 0.100000 0.725000 0.400000
v 0.100000 0.500000 0.400000
v -0.000000 0.850000 0.400000
v 0.125000 0.750000 0.400000
v -0.000000 0.450000 0.400000
v 0.400000 0.850000 0.400000
v 0.300000 0.500000 0.400000
v 0.400000 0.450000 0.400000
v 0.275000 0.750000 0.400000
v 0.300000 0.725000 0.400000
v -0.300000 0.725000 0.400000
v -0.300000 0.500000 0.400000
v -0.400000 0.850000 0.400000
v -0.275000 0.750000 0.400000
v -0.400000 0.450000 0.400000
v -0.000000 0.850000 0.400000
v -0.100000 0.500000 0.400000
v -0.000000 0.450000 0.400000
v -0.125000 0.750000 0.400000
v -0.100000 0.725000 0.400000
v 0.400000 0.400000 0.450000
v -0.400000 0.400000 0.450000
v 0.400000 0.500000 0.450000
v -0.400000 0.500000 0.450000
v -0.450000 0.400000 0.400000
v -0.435355 0.400000 0.435355
v -0.450000 0.400000 0.350000
v -0.400000 0.400000 0.350000
v -0.400000 0.400000 0.400000
v -0.400000 0.400000 0.450000
v 0.400000 0.400000 0.400000
v 0.400000 0.400000 0.450000
v 0.400000 0.400000 0.350000
v 0.435355 0.400000 0.435355
v 0.450000 0.400000 0.350000
v 0.450000 0.400000 0.400000
v -0.400000 0.500000 0.350000
v -0.400000 0.500000 0.400000
v -0.450000 0.500000 0.350000
v -0.400000 0.500000 0.450000
v -0.435355 0.500000 0.435355
v -0.450000 0.500000 0.400000
v 0.400000 0.500000 0.450000
v 0.400000 0.500000 0.400000
v 0.400000 0.500000 0.350000
v 0.435355 0.500000 0.435355
v 0.450000 0.500000 0.400000
v 0.450000 0.500000 0.350000
v 0.400000 0.400000 0.350000
v 0.450000 0.400000 0.350000
v 0.400000 0.500000 0.350000
v 0.450000 0.500000 0.350000
v 0.450000 0.500000 0.350000
v 0.450000 0.400000 0.350000
v 0.450000 0.500000 0.400000
v 0.450000 0.400000 0.400000
v -0.450000 0.400000 0.350000
v -0.400000 0.400000 0.350000
v -0.450000 0.500000 0.350000
v -0.400000 0.500000 0.350000
v -0.450000 0.400000 0.350000
v -0.450000 0.500000 0.350000
v -0.450000 0.400000 0.400000
v -0.450000 0.500000 0.400000
v -0.450000 0.400000 0.400000
v -0.450000 0.500000 0.400000
v -0.435355 0.400000 0.435355
v -0.435355 0.500000 0.435355
v -0.400000 0.400000 0.450000
v -0.435355 0.400000 0.435355
v -0.400000 0.500000 0.450000
v -0.435355 0.500000 0.435355
v 0.450000 0.500000 0.400000
v 0.450000 0.400000 0.400000
v 0.435355 0.500000 0.435355
v 0.435355 0.400000 0.435355
v 0.435355 0.400000 0.435355
v 0.400000 0.400000 0.450000
v 0.435355 0.500000 0.435355
v 0.400000 0.500000 0.450000
v -0.450000 0.100000 -0.350000
v -0.450000 0.850000 -0.350000
v -0.450000 0.100000 -0.300000
v -0.450000 0.850000 -0.300000
v -0.450000 0.100000 -0.350000
v -0.400000 0.100000 -0.350000
v -0.450000 0.850000 -0.350000
v -0.400000 0.850000 -0.350000
v -0.400000 0.100000 -0.300000
v -0.450000 0.100000 -0.300000
v -0.400000 0.850000 -0.300000
v -0.450000 0.850000 -0.300000
v -0.400000 0.750000 -0.275000
v -0.400000 0.750000 -0.375000
v -0.450000 0.750000 -0.275000
v -0.450000 0.750000 -0.375000
v -0.475000 0.750000 -0.300000
v -0.475000 0.750000 -0.350000
v -0.450000 0.750000 -0.375000
v -0.400000 0.750000 -0.375000
v -0.450000 0.800000 -0.375000
v -0.400000 0.800000 -0.375000
v -0.400000 0.800000 -0.375000
v -0.400000 0.800000 -0.275000
v -0.450000 0.800000 -0.375000
v -0.450000 0.800000 -0.275000
v -0.475000 0.800000 -0.350000
v -0.475000 0.800000 -0.300000
v -0.400000 0.750000 -0.275000
v -0.450000 0.750000 -0.275000
v -0.400000 0.800000 -0.275000
v -0.450000 0.800000 -0.275000
v -0.475000 0.750000 -0.350000
v -0.475000 0.800000 -0.350000
v -0.475000 0.750000 -0.300000
v -0.475000 0.800000 -0.300000
v -0.475000 0.750000 -0.350000
v -0.450000 0.750000 -0.375000
v -0.475000 0.800000 -0.350000
v -0.450000 0.800000 -0.375000
v -0.475000 0.750000 -0.300000
v -0.475000 0.800000 -0.300000
v -0.450000 0.750000 -0.275000
v -0.450000 0.800000 -0.275000
v -0.400000 0.150000 -0.275000
v -0.400000 0.150000 -0.375000
v -0.450000 0.150000 -0.275000
v -0.450000 0.150000 -0.375000
v -0.475000 0.150000 -0.300000
v -0.475000 0.150000 -0.350000
v -0.450000 0.150000 -0.375000
v -0.400000 0.150000 -0.375000
v -0.450000 0.200000 -0.375000
v -0.400000 0.200000 -0.375000
v -0.400000 0.200000 -0.375000
v -0.400000 0.200000 -0.275000
v -0.450000 0.200000 -0.375000
v -0.450000 0.200000 -0.275000
v -0.475000 0.200000 -0.350000
v -0.475000 0.200000 -0.300000
v -0.400000 0.150000 -0.275000
v -0.450000 0.150000 -0.275000
v -0.400000 0.200000 -0.275000
v -0.450000 0.200000 -0.275000
v -0.475000 0.150000 -0.350000
v -0.475000 0.200000 -0.350000
v -0.475000 0.150000 -0.300000
v -0.475000 0.200000 -0.300000
v -0.475000 0.150000 -0.350000
v -0.450000 0.150000 -0.375000
v -0.475000 0.200000 -0.350000
v -0.450000 0.200000 -0.375000
v -0.475000 0.150000 -0.300000
v -0.475000 0.200000 -0.300000
v -0.450000 0.150000 -0.275000
v -0.450000 0.200000 -0.275000
v 0.300000 0.125000 0.475000
v 0.100000 0.125000 0.475000
v 0.300000 0.150000 0.450000
v 0.100000 0.150000 0.450000
v 0.300000 0.100000 0.475000
v 0.100000 0.100000 0.475000
v 0.300000 0.125000 0.475000
v 0.100000 0.125000 0.475000
v 0.100000 0.100000 0.400000
v 0.100000 0.325000 0.400000
v 0.100000 0.100000 0.425000
v 0.100000 0.325000 0.425000
v 0.100000 0.150000 0.425000
v 0.100000 0.100000 0.475000
v 0.100000 0.150000 0.450000
v 0.100000 0.125000 0.475000
v 0.300000 0.100000 0.475000
v 0.300000 0.100000 0.425000
v 0.100000 0.100000 0.475000
v 0.300000 0.100000 0.400000
v 0.100000 0.100000 0.400000
v 0.100000 0.100000 0.425000
v 0.275000 0.350000 0.400000
v 0.275000 0.350000 0.425000
v 0.125000 0.350000 0.400000
v 0.125000 0.350000 0.425000
v 0.265000 0.150000 0.400000
v 0.265000 0.150000 0.425000
v 0.135000 0.150000 0.400000
v 0.135000 0.150000 0.425000
v 0.100000 0.150000 0.450000
v 0.100000 0.150000 0.425000
v 0.300000 0.150000 0.450000
v 0.300000 0.150000 0.425000
v 0.300000 0.150000 0.425000
v 0.265000 0.150000 0.425000
v 0.300000 0.325000 0.425000
v 0.265000 0.315000 0.425000
v 0.135000 0.315000 0.425000
v 0.100000 0.325000 0.425000
v 0.275000 0.350000 0.425000
v 0.125000 0.350000 0.425000
v 0.100000 0.150000 0.425000
v 0.135000 0.150000 0.425000
v 0.135000 0.315000 0.400000
v 0.135000 0.150000 0.400000
v 0.135000 0.315000 0.425000
v 0.135000 0.150000 0.425000
v 0.300000 0.325000 0.400000
v 0.300000 0.100000 0.400000
v 0.300000 0.325000 0.425000
v 0.300000 0.100000 0.425000
v 0.300000 0.150000 0.425000
v 0.300000 0.150000 0.450000
v 0.300000 0.100000 0.475000
v 0.300000 0.125000 0.475000
v 0.265000 0.150000 0.400000
v 0.265000 0.315000 0.400000
v 0.265000 0.150000 0.425000
v 0.265000 0.315000 0.425000
v 0.265000 0.315000 0.425000
v 0.265000 0.315000 0.400000
v 0.135000 0.315000 0.425000
v 0.135000 0.315000 0.400000
v 0.275000 0.350000 0.400000
v 0.300000 0.325000 0.400000
v 0.275000 0.350000 0.425000
v 0.300000 0.325000 0.425000
v 0.125000 0.350000 0.400000
v 0.125000 0.350000 0.425000
v 0.100000 0.325000 0.400000
v 0.100000 0.325000 0.425000
v -0.275000 0.050000 0.425000
v -0.275000 0.050000 0.400000
v -0.325000 0.050000 0.425000
v -0.325000 0.050000 0.400000
v -0.075000 0.050000 0.425000
v -0.075000 0.050000 0.400000
v -0.125000 0.050000 0.425000
v -0.125000 0.050000 0.400000
v -0.125000 0.050000 0.400000
v -0.125000 0.300000 0.400000
v -0.125000 0.050000 0.425000
v -0.125000 0.300000 0.425000
v -0.275000 0.300000 0.400000
v -0.275000 0.050000 0.400000
v -0.275000 0.300000 0.425000
v -0.275000 0.050000 0.425000
v -0.075000 0.325000 0.400000
v -0.075000 0.050000 0.400000
v -0.075000 0.325000 0.425000
v -0.075000 0.050000 0.425000
v -0.100000 0.350000 0.400000
v -0.075000 0.325000 0.400000
v -0.100000 0.350000 0.425000
v -0.075000 0.325000 0.425000
v -0.325000 0.050000 0.400000
v -0.325000 0.325000 0.400000
v -0.325000 0.050000 0.425000
v -0.325000 0.325000 0.425000
v -0.300000 0.350000 0.400000
v -0.300000 0.350000 0.425000
v -0.325000 0.325000 0.400000
v -0.325000 0.325000 0.425000
v -0.125000 0.300000 0.425000
v -0.125000 0.300000 0.400000
v -0.275000 0.300000 0.425000
v -0.275000 0.300000 0.400000
v -0.100000 0.350000 0.400000
v -0.100000 0.350000 0.425000
v -0.300000 0.350000 0.400000
v -0.300000 0.350000 0.425000
v -0.075000 0.050000 0.425000
v -0.125000 0.050000 0.425000
v -0.075000 0.325000 0.425000
v -0.125000 0.300000 0.425000
v -0.275000 0.300000 0.425000
v -0.325000 0.325000 0.425000
v -0.100000 0.350000 0.425000
v -0.300000 0.350000 0.425000
v -0.325000 0.050000 0.425000
v -0.275000 0.050000 0.425000
v 0.162811 0.925000 -0.229757
v 0.123988 0.925000 -0.084869
v 0.017922 0.925000 -0.268580
v -0.020901 0.925000 -0.123691
v 0.017922 0.900000 -0.268580
v 0.017922 0.925000 -0.268580
v -0.020901 0.900000 -0.123691
v -0.020901 0.925000 -0.123691
v 0.123988 0.900000 -0.084869
v -0.020901 0.900000 -0.123691
v 0.123988 0.925000 -0.084869
v -0.020901 0.925000 -0.123691
v 0.162811 0.925000 -0.229757
v 0.162811 0.900000 -0.229757
v 0.123988 0.925000 -0.084869
v 0.123988 0.900000 -0.084869
v 0.017922 0.900000 -0.268580
v 0.162811 0.900000 -0.229757
v 0.017922 0.925000 -0.268580
v 0.162811 0.925000 -0.229757
v -0.350000 0.850000 -0.450000
v 0.350000 0.850000 -0.450000
v -0.350000 0.950000 -0.450000
v 0.350000 0.950000 -0.450000
v 0.350000 0.850000 -0.450000
v 0.420711 0.850000 -0.420711
v 0.350000 0.950000 -0.450000
v 0.420711 0.950000 -0.420711
v 0.420711 0.950000 -0.420711
v 0.420711 0.850000 -0.420711
v 0.450000 0.950000 -0.350000
v 0.450000 0.850000 -0.350000
v 0.450000 0.950000 -0.350000
v 0.450000 0.850000 -0.350000
v 0.450000 0.950000 0.350000
v 0.450000 0.850000 0.350000
v 0.420711 0.850000 0.420711
v 0.350000 0.850000 0.450000
v 0.420711 0.950000 0.420711
v 0.350000 0.950000 0.450000
v 0.450000 0.950000 0.350000
v 0.450000 0.850000 0.350000
v 0.420711 0.950000 0.420711
v 0.420711 0.850000 0.420711
v 0.350000 0.850000 0.450000
v -0.350000 0.850000 0.450000
v 0.350000 0.950000 0.450000
v -0.350000 0.950000 0.450000
v -0.350000 0.850000 0.450000
v -0.420711 0.850000 0.420711
v -0.350000 0.950000 0.450000
v -0.420711 0.950000 0.420711
v -0.450000 0.850000 0.350000
v -0.450000 0.950000 0.350000
v -0.420711 0.850000 0.420711
v -0.420711 0.950000 0.420711
v -0.450000 0.850000 -0.350000
v -0.450000 0.950000 -0.350000
v -0.450000 0.850000 0.350000
v -0.450000 0.950000 0.350000
v -0.420711 0.850000 -0.420711
v -0.420711 0.950000 -0.420711
v -0.450000 0.850000 -0.350000
v -0.450000 0.950000 -0.350000
v -0.420711 0.850000 -0.420711
v -0.350000 0.850000 -0.450000
v -0.420711 0.950000 -0.420711
v -0.350000 0.950000 -0.450000
v 0.450000 0.950000 -0.350000
v 0.450000 0.950000 0.350000
v 0.420711 0.950000 -0.420711
v 0.420711 0.950000 0.420711
v 0.350000 0.950000 -0.450000
v 0.350000 0.950000 -0.330109
v 0.350000 0.950000 0.450000
v 0.330109 0.950000 -0.350000
v 0.350000 0.950000 0.330109
v 0.330109 0.950000 0.350000
v -0.350000 0.950000 -0.450000
v -0.330109 0.950000 -0.350000
v -0.350000 0.950000 -0.330109
v -0.350000 0.950000 0.450000
v -0.420711 0.950000 -0.420711
v -0.330109 0.950000 0.350000
v -0.350000 0.950000 0.330109
v -0.420711 0.950000 0.420711
v -0.450000 0.950000 -0.350000
v -0.450000 0.950000 0.350000
v 0.450000 0.850000 0.350000
v 0.450000 0.850000 -0.350000
v 0.420711 0.850000 0.420711
v 0.420711 0.850000 -0.420711
v 0.350000 0.850000 0.450000
v 0.350000 0.850000 -0.450000
v -0.350000 0.850000 0.450000
v -0.350000 0.850000 -0.450000
v -0.420711 0.850000 0.420711
v -0.420711 0.850000 -0.420711
v -0.450000 0.850000 0.350000
v -0.450000 0.850000 -0.350000
v 0.350000 0.900000 -0.330109
v 0.350000 0.900000 0.330109
v 0.330109 0.900000 -0.350000
v 0.330109 0.900000 0.350000
v -0.330109 0.900000 -0.350000
v -0.330109 0.900000 0.350000
v -0.350000 0.900000 -0.330109
v -0.350000 0.900000 0.330109
v -0.330109 0.900000 0.350000
v 0.330109 0.900000 0.350000
v -0.330109 0.950000 0.350000
v 0.330109 0.950000 0.350000
v 0.330109 0.900000 0.350000
v 0.350000 0.900000 0.330109
v 0.330109 0.950000 0.350000
v 0.350000 0.950000 0.330109
v 0.350000 0.900000 -0.330109
v 0.350000 0.950000 -0.330109
v 0.350000 0.900000 0.330109
v 0.350000 0.950000 0.330109
v 0.330109 0.900000 -0.350000
v 0.330109 0.950000 -0.350000
v 0.350000 0.900000 -0.330109
v 0.350000 0.950000 -0.330109
v 0.330109 0.900000 -0.350000
v -0.330109 0.900000 -0.350000
v 0.330109 0.950000 -0.350000
v -0.330109 0.950000 -0.350000
v -0.330109 0.950000 -0.350000
v -0.330109 0.900000 -0.350000
v -0.350000 0.950000 -0.330109
v -0.350000 0.900000 -0.330109
v -0.350000 0.950000 -0.330109
v -0.350000 0.900000 -0.330109
v -0.350000 0.950000 0.330109
v -0.350000 0.900000 0.330109
v -0.350000 0.950000 0.330109
v -0.350000 0.900000 0.330109
v -0.330109 0.950000 0.350000
v -0.330109 0.900000 0.350000
v 0.206772 0.925000 -0.036824
v 0.232653 0.925000 0.059769
v 0.110179 0.925000 -0.010942
v 0.136061 0.925000 0.085650
v 0.110179 0.900000 -0.010942
v 0.110179 0.925000 -0.010942
v 0.136061 0.900000 0.085650
v 0.136061 0.925000 0.085650
v 0.232653 0.900000 0.059769
v 0.136061 0.900000 0.085650
v 0.232653 0.925000 0.059769
v 0.136061 0.925000 0.085650
v 0.206772 0.925000 -0.036824
v 0.206772 0.900000 -0.036824
v 0.232653 0.925000 0.059769
v 0.232653 0.900000 0.059769
v 0.110179 0.900000 -0.010942
v 0.206772 0.900000 -0.036824
v 0.110179 0.925000 -0.010942
v 0.206772 0.925000 -0.036824
v 0.300000 0.525000 0.475000
v 0.100000 0.525000 0.475000
v 0.300000 0.550000 0.450000
v 0.100000 0.550000 0.450000
v 0.300000 0.500000 0.475000
v 0.100000 0.500000 0.475000
v 0.300000 0.525000 0.475000
v 0.100000 0.525000 0.475000
v 0.100000 0.500000 0.400000
v 0.100000 0.725000 0.400000
v 0.100000 0.500000 0.425000
v 0.100000 0.725000 0.425000
v 0.100000 0.550000 0.425000
v 0.100000 0.500000 0.475000
v 0.100000 0.550000 0.450000
v 0.100000 0.525000 0.475000
v 0.300000 0.500000 0.475000
v 0.300000 0.500000 0.425000
v 0.100000 0.500000 0.475000
v 0.300000 0.500000 0.400000
v 0.100000 0.500000 0.400000
v 0.100000 0.500000 0.425000
v 0.275000 0.750000 0.400000
v 0.275000 0.750000 0.425000
v 0.125000 0.750000 0.400000
v 0.125000 0.750000 0.425000
v 0.265000 0.550000 0.400000
v 0.265000 0.550000 0.425000
v 0.135000 0.550000 0.400000
v 0.135000 0.550000 0.425000
v 0.100000 0.550000 0.450000
v 0.100000 0.550000 0.425000
v 0.300000 0.550000 0.450000
v 0.300000 0.550000 0.425000
v 0.300000 0.550000 0.425000
v 0.265000 0.550000 0.425000
v 0.300000 0.725000 0.425000
v 0.265000 0.715000 0.425000
v 0.135000 0.715000 0.425000
v 0.100000 0.725000 0.425000
v 0.275000 0.750000 0.425000
v 0.125000 0.750000 0.425000
v 0.100000 0.550000 0.425000
v 0.135000 0.550000 0.425000
v 0.135000 0.715000 0.400000
v 0.135000 0.550000 0.400000
v 0.135000 0.715000 0.425000
v 0.135000 0.550000 0.425000
v 0.300000 0.725000 0.400000
v 0.300000 0.500000 0.400000
v 0.300000 0.725000 0.425000
v 0.300000 0.500000 0.425000
v 0.300000 0.550000 0.425000
v 0.300000 0.550000 0.450000
v 0.300000 0.500000 0.475000
v 0.300000 0.525000 0.475000
v 0.265000 0.550000 0.400000
v 0.265000 0.715000 0.400000
v 0.265000 0.550000 0.425000
v 0.265000 0.715000 0.425000
v 0.265000 0.715000 0.425000
v 0.265000 0.715000 0.400000
v 0.135000 0.715000 0.425000
v 0.135000 0.715000 0.400000
v 0.275000 0.750000 0.400000
v 0.300000 0.725000 0.400000
v 0.275000 0.750000 0.425000
v 0.300000 0.725000 0.425000
v 0.125000 0.750000 0.400000
v 0.125000 0.750000 0.425000
v 0.100000 0.725000 0.400000
v 0.100000 0.725000 0.425000
v -0.100000 0.525000 0.475000
v -0.300000 0.525000 0.475000
v -0.100000 0.550000 0.450000
v -0.300000 0.550000 0.450000
v -0.100000 0.500000 0.475000
v -0.300000 0.500000 0.475000
v -0.100000 0.525000 0.475000
v -0.300000 0.525000 0.475000
v -0.300000 0.500000 0.400000
v -0.300000 0.725000 0.400000
v -0.300000 0.500000 0.425000
v -0.300000 0.725000 0.425000
v -0.300000 0.550000 0.425000
v -0.300000 0.500000 0.475000
v -0.300000 0.550000 0.450000
v -0.300000 0.525000 0.475000
v -0.100000 0.500000 0.475000
v -0.100000 0.500000 0.425000
v -0.300000 0.500000 0.475000
v -0.100000 0.500000 0.400000
v -0.300000 0.500000 0.400000
v -0.300000 0.500000 0.425000
v -0.125000 0.750000 0.400000
v -0.125000 0.750000 0.425000
v -0.275000 0.750000 0.400000
v -0.275000 0.750000 0.425000
v -0.135000 0.550000 0.400000
v -0.135000 0.550000 0.425000
v -0.265000 0.550000 0.400000
v -0.265000 0.550000 0.425000
v -0.300000 0.550000 0.450000
v -0.300000 0.550000 0.425000
v -0.100000 0.550000 0.450000
v -0.100000 0.550000 0.425000
v -0.100000 0.550000 0.425000
v -0.135000 0.550000 0.425000
v -0.100000 0.725000 0.425000
v -0.135000 0.715000 0.425000
v -0.265000 0.715000 0.425000
v -0.300000 0.725000 0.425000
v -0.125000 0.750000 0.425000
v -0.275000 0.750000 0.425000
v -0.300000 0.550000 0.425000
v -0.265000 0.550000 0.425000
v -0.265000 0.715000 0.400000
v -0.265000 0.550000 0.400000
v -0.265000 0.715000 0.425000
v -0.265000 0.550000 0.425000
v -0.100000 0.725000 0.400000
v -0.100000 0.500000 0.400000
v -0.100000 0.725000 0.425000
v -0.100000 0.500000 0.425000
v -0.100000 0.550000 0.425000
v -0.100000 0.550000 0.450000
v -0.100000 0.500000 0.475000
v -0.100000 0.525000 0.475000
v -0.135000 0.550000 0.400000
v -0.135000 0.715000 0.400000
v -0.135000 0.550000 0.425000
v -0.135000 0.715000 0.425000
v -0.135000 0.715000 0.425000
v -0.135000 0.715000 0.400000
v -0.265000 0.715000 0.425000
v -0.265000 0.715000 0.400000
v -0.125000 0.750000 0.400000
v -0.100000 0.725000 0.400000
v -0.125000 0.750000 0.425000
v -0.100000 0.725000 0.425000
v -0.275000 0.750000 0.400000
v -0.275000 0.750000 0.425000
v -0.300000 0.725000 0.400000
v -0.300000 0.725000 0.425000
v 0.450000 0.650000 -0.126526
v 0.450000 0.850000 -0.126526
v 0.450000 0.650000 -0.176526
v 0.450000 0.850000 -0.176526
v 0.450000 0.650000 -0.126526
v 0.400000 0.650000 -0.126526
v 0.450000 0.850000 -0.126526
v 0.400000 0.850000 -0.126526
v 0.400000 0.650000 -0.176526
v 0.450000 0.650000 -0.176526
v 0.400000 0.850000 -0.176526
v 0.450000 0.850000 -0.176526
v 0.500000 0.650000 -0.276526
v 0.500000 0.650000 -0.076526
v 0.400000 0.650000 -0.276526
v 0.400000 0.650000 -0.076526
v 0.400000 0.450000 -0.276526
v 0.500000 0.450000 -0.276526
v 0.400000 0.650000 -0.276526
v 0.500000 0.650000 -0.276526
v 0.500000 0.450000 -0.076526
v 0.500000 0.450000 -0.276526
v 0.400000 0.450000 -0.076526
v 0.400000 0.450000 -0.276526
v 0.500000 0.450000 -0.076526
v 0.400000 0.450000 -0.076526
v 0.500000 0.650000 -0.076526
v 0.400000 0.650000 -0.076526
v 0.450000 0.550000 -0.237276
v 0.450000 0.497389 -0.206901
v 0.450000 0.602611 -0.206901
v 0.450000 0.497389 -0.146151
v 0.450000 0.602611 -0.146151
v 0.450000 0.550000 -0.115776
v 0.500000 0.485048 -0.139026
v 0.500000 0.485048 -0.214026
v 0.500000 0.450000 -0.076526
v 0.500000 0.550000 -0.101526
v 0.500000 0.450000 -0.276526
v 0.500000 0.550000 -0.251526
v 0.500000 0.650000 -0.276526
v 0.500000 0.614952 -0.214026
v 0.500000 0.650000 -0.076526
v 0.500000 0.614952 -0.139026
v 0.265000 0.150000 0.400000
v 0.135000 0.150000 0.400000
v 0.265000 0.315000 0.400000
v 0.135000 0.315000 0.400000
v -0.275000 0.050000 0.400000
v -0.275000 0.300000 0.400000
v -0.125000 0.050000 0.400000
v -0.125000 0.300000 0.400000
v 0.265000 0.550000 0.400000
v 0.135000 0.550000 0.400000
v 0.265000 0.715000 0.400000
v 0.135000 0.715000 0.400000
v -0.135000 0.550000 0.400000
v -0.265000 0.550000 0.400000
v -0.135000 0.715000 0.400000
v -0.265000 0.715000 0.400000
vt 0.218750 0.025000
vt 0.218750 0.025000
vt 0.218750 0.225000
vt 0.218750 0.225000
vt 0.218750 0.025000
vt 0.218750 0.025000
vt 0.218750 0.025000
vt 0.218750 0.025000
vt 0.218750 0.025000
vt 0.218750 0.225000
vt 0.218750 0.025000
vt 0.218750 0.225000
vt 0.218750 0.225000
vt 0.218750 0.025000
vt 0.218750 0.225000
vt 0.218750 0.025000
vt 0.218750 0.025000
vt 0.218750 0.025000
vt 0.218750 0.225000
vt 0.218750 0.225000
vt 0.218750 0.225000
vt 0.218750 0.225000
vt 0.218750 0.225000
vt 0.218750 0.225000
vt 0.218750 0.060048
vt 0.218750 0.060048
vt 0.218750 0.072389
vt 0.218750 0.072389
vt 0.218750 0.060048
vt 0.218750 0.125000
vt 0.218750 0.072389
vt 0.218750 0.125000
vt 0.218750 0.060048
vt 0.218750 0.072389
vt 0.218750 0.125000
vt 0.218750 0.125000
vt 0.218750 0.125000
vt 0.218750 0.125000
vt 0.218750 0.189952
vt 0.218750 0.177611
vt 0.218750 0.189952
vt 0.218750 0.189952
vt 0.218750 0.177611
vt 0.218750 0.177611
vt 0.218750 0.125000
vt 0.218750 0.189952
vt 0.218750 0.125000
vt 0.218750 0.177611
vt 0.718750 0.025000
vt 0.718750 0.025000
vt 0.718750 0.225000
vt 0.718750 0.225000
vt 0.718750 0.025000
vt 0.718750 0.225000
vt 0.718750 0.025000
vt 0.718750 0.225000
vt 0.718750 0.225000
vt 0.718750 0.025000
vt 0.718750 0.225000
vt 0.718750 0.025000
vt 0.718750 0.162500
vt 0.718750 0.050000
vt 0.718750 0.225000
vt 0.718750 0.175000
vt 0.718750 0.025000
vt 0.718750 0.225000
vt 0.718750 0.050000
vt 0.718750 0.025000
vt 0.718750 0.175000
vt 0.718750 0.162500
vt 0.718750 0.025000
vt 0.718750 0.025000
vt 0.718750 0.225000
vt 0.718750 0.162500
vt 0.718750 0.175000
vt 0.718750 0.175000
vt 0.718750 0.225000
vt 0.718750 0.162500
vt 0.718750 0.025000
vt 0.718750 0.025000
vt 0.593750 0.475000
vt 0.593750 0.275000
vt 0.593750 0.475000
vt 0.593750 0.275000
vt 0.593750 0.275000
vt 0.593750 0.275000
vt 0.593750 0.475000
vt 0.593750 0.475000
vt 0.593750 0.275000
vt 0.593750 0.475000
vt 0.593750 0.275000
vt 0.593750 0.475000
vt 0.593750 0.412500
vt 0.593750 0.300000
vt 0.593750 0.475000
vt 0.593750 0.425000
vt 0.593750 0.275000
vt 0.593750 0.475000
vt 0.593750 0.300000
vt 0.593750 0.275000
vt 0.593750 0.425000
vt 0.593750 0.412500
vt 0.593750 0.412500
vt 0.593750 0.300000
vt 0.593750 0.475000
vt 0.593750 0.425000
vt 0.593750 0.275000
vt 0.593750 0.475000
vt 0.593750 0.300000
vt 0.593750 0.275000
vt 0.593750 0.425000
vt 0.593750 0.412500
vt 0.468750 0.025000
vt 0.468750 0.025000
vt 0.468750 0.225000
vt 0.468750 0.225000
vt 0.468750 0.025000
vt 0.468750 0.025000
vt 0.468750 0.025000
vt 0.468750 0.025000
vt 0.468750 0.025000
vt 0.468750 0.025000
vt 0.468750 0.025000
vt 0.468750 0.025000
vt 0.468750 0.025000
vt 0.468750 0.025000
vt 0.468750 0.025000
vt 0.468750 0.025000
vt 0.468750 0.225000
vt 0.468750 0.225000
vt 0.468750 0.225000
vt 0.468750 0.225000
vt 0.468750 0.225000
vt 0.468750 0.225000
vt 0.468750 0.225000
vt 0.468750 0.225000
vt 0.468750 0.225000
vt 0.468750 0.225000
vt 0.468750 0.225000
vt 0.468750 0.225000
vt 0.468750 0.025000
vt 0.468750 0.025000
vt 0.468750 0.225000
vt 0.468750 0.225000
vt 0.468750 0.225000
vt 0.468750 0.025000
vt 0.468750 0.225000
vt 0.468750 0.025000
vt 0.468750 0.025000
vt 0.468750 0.025000
vt 0.468750 0.225000
vt 0.468750 0.225000
vt 0.468750 0.025000
vt 0.468750 0.225000
vt 0.468750 0.025000
vt 0.468750 0.225000
vt 0.468750 0.025000
vt 0.468750 0.225000
vt 0.468750 0.025000
vt 0.468750 0.225000
vt 0.468750 0.025000
vt 0.468750 0.025000
vt 0.468750 0.225000
vt 0.468750 0.225000
vt 0.468750 0.225000
vt 0.468750 0.025000
vt 0.468750 0.225000
vt 0.468750 0.025000
vt 0.468750 0.025000
vt 0.468750 0.025000
vt 0.468750 0.225000
vt 0.468750 0.225000
vt 0.468750 0.037500
vt 0.468750 0.225000
vt 0.468750 0.037500
vt 0.468750 0.225000
vt 0.468750 0.037500
vt 0.468750 0.037500
vt 0.468750 0.225000
vt 0.468750 0.225000
vt 0.468750 0.037500
vt 0.468750 0.037500
vt 0.468750 0.225000
vt 0.468750 0.225000
vt 0.468750 0.025000
vt 0.468750 0.025000
vt 0.468750 0.025000
vt 0.468750 0.025000
vt 0.468750 0.025000
vt 0.468750 0.025000
vt 0.468750 0.025000
vt 0.468750 0.025000
vt 0.468750 0.225000
vt 0.468750 0.225000
vt 0.468750 0.225000
vt 0.468750 0.225000
vt 0.468750 0.225000
vt 0.468750 0.225000
vt 0.468750 0.225000
vt 0.468750 0.225000
vt 0.468750 0.025000
vt 0.468750 0.025000
vt 0.468750 0.225000
vt 0.468750 0.225000
vt 0.468750 0.025000
vt 0.468750 0.225000
vt 0.468750 0.025000
vt 0.468750 0.225000
vt 0.468750 0.025000
vt 0.468750 0.025000
vt 0.468750 0.225000
vt 0.468750 0.225000
vt 0.468750 0.025000
vt 0.468750 0.225000
vt 0.468750 0.025000
vt 0.468750 0.225000
vt 0.468750 0.025000
vt 0.468750 0.025000
vt 0.468750 0.025000
vt 0.468750 0.025000
vt 0.468750 0.025000
vt 0.468750 0.025000
vt 0.468750 0.025000
vt 0.468750 0.025000
vt 0.468750 0.225000
vt 0.468750 0.225000
vt 0.468750 0.225000
vt 0.468750 0.225000
vt 0.468750 0.225000
vt 0.468750 0.225000
vt 0.468750 0.225000
vt 0.468750 0.225000
vt 0.468750 0.025000
vt 0.468750 0.025000
vt 0.468750 0.225000
vt 0.468750 0.225000
vt 0.468750 0.025000
vt 0.468750 0.225000
vt 0.468750 0.025000
vt 0.468750 0.225000
vt 0.468750 0.025000
vt 0.468750 0.025000
vt 0.468750 0.225000
vt 0.468750 0.225000
vt 0.468750 0.025000
vt 0.468750 0.225000
vt 0.468750 0.025000
vt 0.468750 0.225000
vt 0.468750 0.062500
vt 0.468750 0.062500
vt 0.468750 0.075000
vt 0.468750 0.075000
vt 0.468750 0.050000
vt 0.468750 0.050000
vt 0.468750 0.062500
vt 0.468750 0.062500
vt 0.468750 0.050000
vt 0.468750 0.162500
vt 0.468750 0.050000
vt 0.468750 0.162500
vt 0.468750 0.075000
vt 0.468750 0.050000
vt 0.468750 0.075000
vt 0.468750 0.062500
vt 0.468750 0.050000
vt 0.468750 0.050000
vt 0.468750 0.050000
vt 0.468750 0.050000
vt 0.468750 0.050000
vt 0.468750 0.050000
vt 0.468750 0.175000
vt 0.468750 0.175000
vt 0.468750 0.175000
vt 0.468750 0.175000
vt 0.468750 0.075000
vt 0.468750 0.075000
vt 0.468750 0.075000
vt 0.468750 0.075000
vt 0.468750 0.075000
vt 0.468750 0.075000
vt 0.468750 0.075000
vt 0.468750 0.075000
vt 0.468750 0.075000
vt 0.468750 0.075000
vt 0.468750 0.162500
vt 0.468750 0.157500
vt 0.468750 0.157500
vt 0.468750 0.162500
vt 0.468750 0.175000
vt 0.468750 0.175000
vt 0.468750 0.075000
vt 0.468750 0.075000
vt 0.468750 0.157500
vt 0.468750 0.075000
vt 0.468750 0.157500
vt 0.468750 0.075000
vt 0.468750 0.162500
vt 0.468750 0.050000
vt 0.468750 0.162500
vt 0.468750 0.050000
vt 0.468750 0.075000
vt 0.468750 0.075000
vt 0.468750 0.050000
vt 0.468750 0.062500
vt 0.468750 0.075000
vt 0.468750 0.157500
vt 0.468750 0.075000
vt 0.468750 0.157500
vt 0.468750 0.157500
vt 0.468750 0.157500
vt 0.468750 0.157500
vt 0.468750 0.157500
vt 0.468750 0.175000
vt 0.468750 0.162500
vt 0.468750 0.175000
vt 0.468750 0.162500
vt 0.468750 0.175000
vt 0.468750 0.175000
vt 0.468750 0.162500
vt 0.468750 0.162500
vt 0.468750 0.025000
vt 0.468750 0.025000
vt 0.468750 0.025000
vt 0.468750 0.025000
vt 0.468750 0.025000
vt 0.468750 0.025000
vt 0.468750 0.025000
vt 0.468750 0.025000
vt 0.468750 0.025000
vt 0.468750 0.150000
vt 0.468750 0.025000
vt 0.468750 0.150000
vt 0.468750 0.150000
vt 0.468750 0.025000
vt 0.468750 0.150000
vt 0.468750 0.025000
vt 0.468750 0.162500
vt 0.468750 0.025000
vt 0.468750 0.162500
vt 0.468750 0.025000
vt 0.468750 0.175000
vt 0.468750 0.162500
vt 0.468750 0.175000
vt 0.468750 0.162500
vt 0.468750 0.025000
vt 0.468750 0.162500
vt 0.468750 0.025000
vt 0.468750 0.162500
vt 0.468750 0.175000
vt 0.468750 0.175000
vt 0.468750 0.162500
vt 0.468750 0.162500
vt 0.468750 0.150000
vt 0.468750 0.150000
vt 0.468750 0.150000
vt 0.468750 0.150000
vt 0.468750 0.175000
vt 0.468750 0.175000
vt 0.468750 0.175000
vt 0.468750 0.175000
vt 0.468750 0.025000
vt 0.468750 0.025000
vt 0.468750 0.162500
vt 0.468750 0.150000
vt 0.468750 0.150000
vt 0.468750 0.162500
vt 0.468750 0.175000
vt 0.468750 0.175000
vt 0.468750 0.025000
vt 0.468750 0.025000
vt 0.468750 0.225000
vt 0.468750 0.225000
vt 0.468750 0.225000
vt 0.468750 0.225000
vt 0.468750 0.025000
vt 0.468750 0.225000
vt 0.468750 0.025000
vt 0.468750 0.225000
vt 0.468750 0.025000
vt 0.468750 0.025000
vt 0.468750 0.225000
vt 0.468750 0.225000
vt 0.468750 0.225000
vt 0.468750 0.025000
vt 0.468750 0.225000
vt 0.468750 0.025000
vt 0.468750 0.025000
vt 0.468750 0.025000
vt 0.468750 0.225000
vt 0.468750 0.225000
vt 0.468750 0.025000
vt 0.468750 0.025000
vt 0.468750 0.225000
vt 0.468750 0.225000
vt 0.468750 0.025000
vt 0.468750 0.025000
vt 0.468750 0.225000
vt 0.468750 0.225000
vt 0.468750 0.225000
vt 0.468750 0.025000
vt 0.468750 0.225000
vt 0.468750 0.025000
vt 0.468750 0.225000
vt 0.468750 0.025000
vt 0.468750 0.225000
vt 0.468750 0.025000
vt 0.468750 0.025000
vt 0.468750 0.025000
vt 0.468750 0.225000
vt 0.468750 0.225000
vt 0.468750 0.225000
vt 0.468750 0.025000
vt 0.468750 0.225000
vt 0.468750 0.025000
vt 0.468750 0.025000
vt 0.468750 0.025000
vt 0.468750 0.225000
vt 0.468750 0.225000
vt 0.468750 0.025000
vt 0.468750 0.025000
vt 0.468750 0.225000
vt 0.468750 0.225000
vt 0.468750 0.025000
vt 0.468750 0.225000
vt 0.468750 0.025000
vt 0.468750 0.225000
vt 0.468750 0.025000
vt 0.468750 0.225000
vt 0.468750 0.025000
vt 0.468750 0.225000
vt 0.468750 0.025000
vt 0.468750 0.225000
vt 0.468750 0.025000
vt 0.468750 0.225000
vt 0.468750 0.025000
vt 0.468750 0.025000
vt 0.468750 0.225000
vt 0.468750 0.225000
vt 0.468750 0.225000
vt 0.468750 0.225000
vt 0.468750 0.225000
vt 0.468750 0.225000
vt 0.468750 0.225000
vt 0.468750 0.225000
vt 0.468750 0.225000
vt 0.468750 0.225000
vt 0.468750 0.225000
vt 0.468750 0.225000
vt 0.468750 0.225000
vt 0.468750 0.225000
vt 0.468750 0.225000
vt 0.468750 0.225000
vt 0.468750 0.225000
vt 0.468750 0.225000
vt 0.468750 0.225000
vt 0.468750 0.225000
vt 0.468750 0.225000
vt 0.468750 0.225000
vt 0.468750 0.025000
vt 0.468750 0.025000
vt 0.468750 0.025000
vt 0.468750 0.025000
vt 0.468750 0.025000
vt 0.468750 0.025000
vt 0.468750 0.025000
vt 0.468750 0.025000
vt 0.468750 0.025000
vt 0.468750 0.025000
vt 0.468750 0.025000
vt 0.468750 0.025000
vt 0.468750 0.125000
vt 0.468750 0.125000
vt 0.468750 0.125000
vt 0.468750 0.125000
vt 0.468750 0.125000
vt 0.468750 0.125000
vt 0.468750 0.125000
vt 0.468750 0.125000
vt 0.468750 0.125000
vt 0.468750 0.125000
vt 0.468750 0.225000
vt 0.468750 0.225000
vt 0.468750 0.125000
vt 0.468750 0.125000
vt 0.468750 0.225000
vt 0.468750 0.225000
vt 0.468750 0.125000
vt 0.468750 0.225000
vt 0.468750 0.125000
vt 0.468750 0.225000
vt 0.468750 0.125000
vt 0.468750 0.225000
vt 0.468750 0.125000
vt 0.468750 0.225000
vt 0.468750 0.125000
vt 0.468750 0.125000
vt 0.468750 0.225000
vt 0.468750 0.225000
vt 0.468750 0.225000
vt 0.468750 0.125000
vt 0.468750 0.225000
vt 0.468750 0.125000
vt 0.468750 0.225000
vt 0.468750 0.125000
vt 0.468750 0.225000
vt 0.468750 0.125000
vt 0.468750 0.225000
vt 0.468750 0.125000
vt 0.468750 0.225000
vt 0.468750 0.125000
vt 0.468750 0.225000
vt 0.468750 0.225000
vt 0.468750 0.225000
vt 0.468750 0.225000
vt 0.468750 0.025000
vt 0.468750 0.225000
vt 0.468750 0.025000
vt 0.468750 0.225000
vt 0.468750 0.025000
vt 0.468750 0.025000
vt 0.468750 0.225000
vt 0.468750 0.225000
vt 0.468750 0.225000
vt 0.468750 0.025000
vt 0.468750 0.225000
vt 0.468750 0.025000
vt 0.468750 0.025000
vt 0.468750 0.025000
vt 0.468750 0.225000
vt 0.468750 0.225000
vt 0.468750 0.062500
vt 0.468750 0.062500
vt 0.468750 0.075000
vt 0.468750 0.075000
vt 0.468750 0.050000
vt 0.468750 0.050000
vt 0.468750 0.062500
vt 0.468750 0.062500
vt 0.468750 0.050000
vt 0.468750 0.162500
vt 0.468750 0.050000
vt 0.468750 0.162500
vt 0.468750 0.075000
vt 0.468750 0.050000
vt 0.468750 0.075000
vt 0.468750 0.062500
vt 0.468750 0.050000
vt 0.468750 0.050000
vt 0.468750 0.050000
vt 0.468750 0.050000
vt 0.468750 0.050000
vt 0.468750 0.050000
vt 0.468750 0.175000
vt 0.468750 0.175000
vt 0.468750 0.175000
vt 0.468750 0.175000
vt 0.468750 0.075000
vt 0.468750 0.075000
vt 0.468750 0.075000
vt 0.468750 0.075000
vt 0.468750 0.075000
vt 0.468750 0.075000
vt 0.468750 0.075000
vt 0.468750 0.075000
vt 0.468750 0.075000
vt 0.468750 0.075000
vt 0.468750 0.162500
vt 0.468750 0.157500
vt 0.468750 0.157500
vt 0.468750 0.162500
vt 0.468750 0.175000
vt 0.468750 0.175000
vt 0.468750 0.075000
vt 0.468750 0.075000
vt 0.468750 0.157500
vt 0.468750 0.075000
vt 0.468750 0.157500
vt 0.468750 0.075000
vt 0.468750 0.162500
vt 0.468750 0.050000
vt 0.468750 0.162500
vt 0.468750 0.050000
vt 0.468750 0.075000
vt 0.468750 0.075000
vt 0.468750 0.050000
vt 0.468750 0.062500
vt 0.468750 0.075000
vt 0.468750 0.157500
vt 0.468750 0.075000
vt 0.468750 0.157500
vt 0.468750 0.157500
vt 0.468750 0.157500
vt 0.468750 0.157500
vt 0.468750 0.157500
vt 0.468750 0.175000
vt 0.468750 0.162500
vt 0.468750 0.175000
vt 0.468750 0.162500
vt 0.468750 0.175000
vt 0.468750 0.175000
vt 0.468750 0.162500
vt 0.468750 0.162500
vt 0.468750 0.062500
vt 0.468750 0.062500
vt 0.468750 0.075000
vt 0.468750 0.075000
vt 0.468750 0.050000
vt 0.468750 0.050000
vt 0.468750 0.062500
vt 0.468750 0.062500
vt 0.468750 0.050000
vt 0.468750 0.162500
vt 0.468750 0.050000
vt 0.468750 0.162500
vt 0.468750 0.075000
vt 0.468750 0.050000
vt 0.468750 0.075000
vt 0.468750 0.062500
vt 0.468750 0.050000
vt 0.468750 0.050000
vt 0.468750 0.050000
vt 0.468750 0.050000
vt 0.468750 0.050000
vt 0.468750 0.050000
vt 0.468750 0.175000
vt 0.468750 0.175000
vt 0.468750 0.175000
vt 0.468750 0.175000
vt 0.468750 0.075000
vt 0.468750 0.075000
vt 0.468750 0.075000
vt 0.468750 0.075000
vt 0.468750 0.075000
vt 0.468750 0.075000
vt 0.468750 0.075000
vt 0.468750 0.075000
vt 0.468750 0.075000
vt 0.468750 0.075000
vt 0.468750 0.162500
vt 0.468750 0.157500
vt 0.468750 0.157500
vt 0.468750 0.162500
vt 0.468750 0.175000
vt 0.468750 0.175000
vt 0.468750 0.075000
vt 0.468750 0.075000
vt 0.468750 0.157500
vt 0.468750 0.075000
vt 0.468750 0.157500
vt 0.468750 0.075000
vt 0.468750 0.162500
vt 0.468750 0.050000
vt 0.468750 0.162500
vt 0.468750 0.050000
vt 0.468750 0.075000
vt 0.468750 0.075000
vt 0.468750 0.050000
vt 0.468750 0.062500
vt 0.468750 0.075000
vt 0.468750 0.157500
vt 0.468750 0.075000
vt 0.468750 0.157500
vt 0.468750 0.157500
vt 0.468750 0.157500
vt 0.468750 0.157500
vt 0.468750 0.157500
vt 0.468750 0.175000
vt 0.468750 0.162500
vt 0.468750 0.175000
vt 0.468750 0.162500
vt 0.468750 0.175000
vt 0.468750 0.175000
vt 0.468750 0.162500
vt 0.468750 0.162500
vt 0.468750 0.025000
vt 0.468750 0.225000
vt 0.468750 0.025000
vt 0.468750 0.225000
vt 0.468750 0.025000
vt 0.468750 0.025000
vt 0.468750 0.225000
vt 0.468750 0.225000
vt 0.468750 0.025000
vt 0.468750 0.025000
vt 0.468750 0.225000
vt 0.468750 0.225000
vt 0.468750 0.225000
vt 0.468750 0.225000
vt 0.468750 0.225000
vt 0.468750 0.225000
vt 0.468750 0.025000
vt 0.468750 0.025000
vt 0.468750 0.225000
vt 0.468750 0.225000
vt 0.468750 0.025000
vt 0.468750 0.025000
vt 0.468750 0.025000
vt 0.468750 0.025000
vt 0.468750 0.025000
vt 0.468750 0.025000
vt 0.468750 0.225000
vt 0.468750 0.225000
vt 0.468750 0.125000
vt 0.468750 0.072389
vt 0.468750 0.177611
vt 0.468750 0.072389
vt 0.468750 0.177611
vt 0.468750 0.125000
vt 0.468750 0.060048
vt 0.468750 0.060048
vt 0.468750 0.025000
vt 0.468750 0.125000
vt 0.468750 0.025000
vt 0.468750 0.125000
vt 0.468750 0.225000
vt 0.468750 0.189952
vt 0.468750 0.225000
vt 0.468750 0.189952
vt 0.093750 0.075000
vt 0.093750 0.075000
vt 0.093750 0.157500
vt 0.093750 0.157500
vt 0.093750 0.025000
vt 0.093750 0.150000
vt 0.093750 0.025000
vt 0.093750 0.150000
vt 0.093750 0.075000
vt 0.093750 0.075000
vt 0.093750 0.157500
vt 0.093750 0.157500
vt 0.093750 0.075000
vt 0.093750 0.075000
vt 0.093750 0.157500
vt 0.093750 0.157500
usemtl colormap
f 3/3 2/2 1/1
f 2/2 3/3 4/4
f 7/7 6/6 5/5
f 6/6 7/7 8/8
f 11/11 10/10 9/9
f 10/10 11/11 12/12
f 15/15 14/14 13/13
f 14/14 15/15 16/16
f 19/19 18/18 17/17
f 18/18 19/19 20/20
f 23/23 22/22 21/21
f 22/22 23/23 24/24
f 27/27 26/26 25/25
f 26/26 27/27 28/28
f 31/31 30/30 29/29
f 30/30 31/31 32/32
f 35/35 34/34 33/33
f 34/34 35/35 36/36
f 39/39 38/38 37/37
f 38/38 39/39 40/40
f 43/43 42/42 41/41
f 42/42 43/43 44/44
f 47/47 46/46 45/45
f 46/46 47/47 48/48
f 51/51 50/50 49/49
f 50/50 51/51 52/52
f 55/55 54/54 53/53
f 54/54 55/55 56/56
f 59/59 58/58 57/57
f 58/58 59/59 60/60
f 63/63 62/62 61/61
f 63/63 61/61 64/64
f 65/65 62/62 63/63
f 63/63 64/64 66/66
f 62/62 65/65 67/67
f 68/68 67/67 65/65
f 67/67 68/68 66/66
f 69/69 66/66 64/64
f 67/67 66/66 70/70
f 70/70 66/66 69/69
f 73/73 72/72 71/71
f 72/72 73/73 74/74
f 74/74 73/73 75/75
f 75/75 73/73 76/76
f 77/77 76/76 73/73
f 77/77 78/78 76/76
f 79/79 78/78 77/77
f 78/78 79/79 80/80
f 83/83 82/82 81/81
f 82/82 83/83 84/84
f 87/87 86/86 85/85
f 86/86 87/87 88/88
f 91/91 90/90 89/89
f 90/90 91/91 92/92
f 95/95 94/94 93/93
f 95/95 93/93 96/96
f 97/97 94/94 95/95
f 95/95 96/96 98/98
f 94/94 97/97 99/99
f 100/100 99/99 97/97
f 99/99 100/100 98/98
f 101/101 98/98 96/96
f 99/99 98/98 102/102
f 102/102 98/98 101/101
f 105/105 104/104 103/103
f 105/105 103/103 106/106
f 107/107 104/104 105/105
f 105/105 106/106 108/108
f 104/104 107/107 109/109
f 110/110 109/109 107/107
f 109/109 110/110 108/108
f 111/111 108/108 106/106
f 109/109 108/108 112/112
f 112/112 108/108 111/111
f 115/115 114/114 113/113
f 114/114 115/115 116/116
f 119/119 118/118 117/117
f 120/120 118/118 119/119
f 121/121 118/118 120/120
f 121/121 122/122 118/118
f 123/123 122/122 121/121
f 122/122 123/123 124/124
f 125/125 124/124 123/123
f 125/125 126/126 124/124
f 127/127 126/126 125/125
f 126/126 127/127 128/128
f 131/131 130/130 129/129
f 130/130 131/131 132/132
f 132/132 131/131 133/133
f 133/133 131/131 134/134
f 135/135 130/130 132/132
f 135/135 136/136 130/130
f 135/135 137/137 136/136
f 138/138 137/137 135/135
f 139/139 137/137 138/138
f 137/137 139/139 140/140
f 143/143 142/142 141/141
f 142/142 143/143 144/144
f 147/147 146/146 145/145
f 146/146 147/147 148/148
f 151/151 150/150 149/149
f 150/150 151/151 152/152
f 155/155 154/154 153/153
f 154/154 155/155 156/156
f 159/159 158/158 157/157
f 158/158 159/159 160/160
f 163/163 162/162 161/161
f 162/162 163/163 164/164
f 167/167 166/166 165/165
f 166/166 167/167 168/168
f 171/171 170/170 169/169
f 170/170 171/171 172/172
f 175/175 174/174 173/173
f 174/174 175/175 176/176
f 179/179 178/178 177/177
f 178/178 179/179 180/180
f 183/183 182/182 181/181
f 182/182 183/183 184/184
f 187/187 186/186 185/185
f 186/186 187/187 188/188
f 188/188 187/187 189/189
f 188/188 189/189 190/190
f 193/193 192/192 191/191
f 192/192 193/193 194/194
f 197/197 196/196 195/195
f 196/196 197/197 198/198
f 198/198 197/197 199/199
f 198/198 199/199 200/200
f 203/203 202/202 201/201
f 202/202 203/203 204/204
f 207/207 206/206 205/205
f 206/206 207/207 208/208
f 211/211 210/210 209/209
f 210/210 211/211 212/212
f 215/215 214/214 213/213
f 214/214 215/215 216/216
f 219/219 218/218 217/217
f 218/218 219/219 220/220
f 220/220 219/219 221/221
f 220/220 221/221 222/222
f 225/225 224/224 223/223
f 224/224 225/225 226/226
f 229/229 228/228 227/227
f 228/228 229/229 230/230
f 230/230 229/229 231/231
f 230/230 231/231 232/232
f 235/235 234/234 233/233
f 234/234 235/235 236/236
f 239/239 238/238 237/237
f 238/238 239/239 240/240
f 243/243 242/242 241/241
f 242/242 243/243 244/244
f 247/247 246/246 245/245
f 246/246 247/247 248/248
f 251/251 250/250 249/249
f 250/250 251/251 252/252
f 255/255 254/254 253/253
f 254/254 255/255 256/256
f 259/259 258/258 257/257
f 258/258 259/259 260/260
f 260/260 259/259 261/261
f 262/262 261/261 259/259
f 261/261 262/262 263/263
f 263/263 262/262 264/264
f 267/267 266/266 265/265
f 266/266 267/267 268/268
f 268/268 267/267 269/269
f 269/269 267/267 270/270
f 273/273 272/272 271/271
f 272/272 273/273 274/274
f 277/277 276/276 275/275
f 278/278 276/276 277/277
f 279/279 276/276 278/278
f 279/279 278/278 280/280
f 281/281 276/276 279/279
f 276/276 281/281 282/282
f 285/285 284/284 283/283
f 284/284 285/285 286/286
f 286/286 285/285 287/287
f 288/288 287/287 285/285
f 288/288 285/285 289/289
f 288/288 289/289 290/290
f 291/291 287/287 288/288
f 287/287 291/291 292/292
f 295/295 294/294 293/293
f 294/294 295/295 296/296
f 299/299 298/298 297/297
f 298/298 299/299 300/300
f 300/300 299/299 301/301
f 302/302 300/300 301/301
f 300/300 302/302 303/303
f 303/303 302/302 304/304
f 307/307 306/306 305/305
f 306/306 307/307 308/308
f 311/311 310/310 309/309
f 310/310 311/311 312/312
f 315/315 314/314 313/313
f 314/314 315/315 316/316
f 319/319 318/318 317/317
f 318/318 319/319 320/320
f 323/323 322/322 321/321
f 322/322 323/323 324/324
f 327/327 326/326 325/325
f 326/326 327/327 328/328
f 331/331 330/330 329/329
f 330/330 331/331 332/332
f 335/335 334/334 333/333
f 334/334 335/335 336/336
f 339/339 338/338 337/337
f 338/338 339/339 340/340
f 343/343 342/342 341/341
f 342/342 343/343 344/344
f 347/347 346/346 345/345
f 346/346 347/347 348/348
f 351/351 350/350 349/349
f 350/350 351/351 352/352
f 355/355 354/354 353/353
f 354/354 355/355 356/356
f 359/359 358/358 357/357
f 358/358 359/359 360/360
f 363/363 362/362 361/361
f 362/362 363/363 364/364
f 364/364 363/363 365/365
f 366/366 365/365 363/363
f 366/366 363/363 367/367
f 366/366 367/367 368/368
f 369/369 365/365 366/366
f 365/365 369/369 370/370
f 373/373 372/372 371/371
f 372/372 373/373 374/374
f 377/377 376/376 375/375
f 376/376 377/377 378/378
f 381/381 380/380 379/379
f 380/380 381/381 382/382
f 385/385 384/384 383/383
f 384/384 385/385 386/386
f 389/389 388/388 387/387
f 388/388 389/389 390/390
f 393/393 392/392 391/391
f 392/392 393/393 394/394
f 397/397 396/396 395/395
f 396/396 397/397 398/398
f 401/401 400/400 399/399
f 400/400 401/401 402/402
f 405/405 404/404 403/403
f 404/404 405/405 406/406
f 409/409 408/408 407/407
f 408/408 409/409 410/410
f 413/413 412/412 411/411
f 412/412 413/413 414/414
f 417/417 416/416 415/415
f 416/416 417/417 418/418
f 421/421 420/420 419/419
f 420/420 421/421 422/422
f 425/425 424/424 423/423
f 424/424 425/425 426/426
f 429/429 428/428 427/427
f 428/428 429/429 430/430
f 433/433 432/432 431/431
f 432/432 433/433 434/434
f 437/437 436/436 435/435
f 436/436 437/437 438/438
f 441/441 440/440 439/439
f 440/440 441/441 442/442
f 442/442 441/441 443/443
f 442/442 443/443 444/444
f 444/444 445/445 442/442
f 444/444 443/443 446/446
f 445/445 444/444 447/447
f 445/445 447/447 448/448
f 446/446 443/443 449/449
f 446/446 449/449 450/450
f 450/450 449/449 451/451
f 445/445 448/448 452/452
f 451/451 449/449 453/453
f 452/452 448/448 454/454
f 452/452 454/454 455/455
f 451/451 453/453 455/455
f 455/455 453/453 452/452
f 452/452 453/453 456/456
f 456/456 453/453 457/457
f 456/456 457/457 458/458
f 461/461 460/460 459/459
f 460/460 461/461 462/462
f 462/462 461/461 463/463
f 462/462 463/463 464/464
f 464/464 463/463 465/465
f 464/464 465/465 466/466
f 466/466 465/465 467/467
f 466/466 467/467 468/468
f 468/468 467/467 469/469
f 468/468 469/469 470/470
f 473/473 472/472 471/471
f 472/472 473/473 474/474
f 474/474 473/473 475/475
f 474/474 475/475 476/476
f 476/476 475/475 477/477
f 476/476 477/477 478/478
f 481/481 480/480 479/479
f 480/480 481/481 482/482
f 485/485 484/484 483/483
f 484/484 485/485 486/486
f 489/489 488/488 487/487
f 488/488 489/489 490/490
f 493/493 492/492 491/491
f 492/492 493/493 494/494
f 497/497 496/496 495/495
f 496/496 497/497 498/498
f 501/501 500/500 499/499
f 500/500 501/501 502/502
f 505/505 504/504 503/503
f 504/504 505/505 506/506
f 509/509 508/508 507/507
f 508/508 509/509 510/510
f 513/513 512/512 511/511
f 512/512 513/513 514/514
f 517/517 516/516 515/515
f 516/516 517/517 518/518
f 521/521 520/520 519/519
f 520/520 521/521 522/522
f 525/525 524/524 523/523
f 524/524 525/525 526/526
f 529/529 528/528 527/527
f 528/528 529/529 530/530
f 533/533 532/532 531/531
f 532/532 533/533 534/534
f 537/537 536/536 535/535
f 536/536 537/537 538/538
f 541/541 540/540 539/539
f 540/540 541/541 542/542
f 542/542 541/541 543/543
f 544/544 543/543 541/541
f 543/543 544/544 545/545
f 545/545 544/544 546/546
f 549/549 548/548 547/547
f 548/548 549/549 550/550
f 550/550 549/549 551/551
f 551/551 549/549 552/552
f 555/555 554/554 553/553
f 554/554 555/555 556/556
f 559/559 558/558 557/557
f 560/560 558/558 559/559
f 561/561 558/558 560/560
f 561/561 560/560 562/562
f 563/563 558/558 561/561
f 558/558 563/563 564/564
f 567/567 566/566 565/565
f 566/566 567/567 568/568
f 568/568 567/567 569/569
f 570/570 569/569 567/567
f 570/570 567/567 571/571
f 570/570 571/571 572/572
f 573/573 569/569 570/570
f 569/569 573/573 574/574
f 577/577 576/576 575/575
f 576/576 577/577 578/578
f 581/581 580/580 579/579
f 580/580 581/581 582/582
f 582/582 581/581 583/583
f 584/584 582/582 583/583
f 582/582 584/584 585/585
f 585/585 584/584 586/586
f 589/589 588/588 587/587
f 588/588 589/589 590/590
f 593/593 592/592 591/591
f 592/592 593/593 594/594
f 597/597 596/596 595/595
f 596/596 597/597 598/598
f 601/601 600/600 599/599
f 600/600 601/601 602/602
f 605/605 604/604 603/603
f 604/604 605/605 606/606
f 609/609 608/608 607/607
f 608/608 609/609 610/610
f 613/613 612/612 611/611
f 612/612 613/613 614/614
f 614/614 613/613 615/615
f 616/616 615/615 613/613
f 615/615 616/616 617/617
f 617/617 616/616 618/618
f 621/621 620/620 619/619
f 620/620 621/621 622/622
f 622/622 621/621 623/623
f 623/623 621/621 624/624
f 627/627 626/626 625/625
f 626/626 627/627 628/628
f 631/631 630/630 629/629
f 632/632 630/630 631/631
f 633/633 630/630 632/632
f 633/633 632/632 634/634
f 635/635 630/630 633/633
f 630/630 635/635 636/636
f 639/639 638/638 637/637
f 638/638 639/639 640/640
f 640/640 639/639 641/641
f 642/642 641/641 639/639
f 642/642 639/639 643/643
f 642/642 643/643 644/644
f 645/645 641/641 642/642
f 641/641 645/645 646/646
f 649/649 648/648 647/647
f 648/648 649/649 650/650
f 653/653 652/652 651/651
f 652/652 653/653 654/654
f 654/654 653/653 655/655
f 656/656 654/654 655/655
f 654/654 656/656 657/657
f 657/657 656/656 658/658
f 661/661 660/660 659/659
f 660/660 661/661 662/662
f 665/665 664/664 663/663
f 664/664 665/665 666/666
f 669/669 668/668 667/667
f 668/668 669/669 670/670
f 673/673 672/672 671/671
f 672/672 673/673 674/674
f 677/677 676/676 675/675
f 676/676 677/677 678/678
f 681/681 680/680 679/679
f 680/680 681/681 682/682
f 685/685 684/684 683/683
f 684/684 685/685 686/686
f 689/689 688/688 687/687
f 688/688 689/689 690/690
f 693/693 692/692 691/691
f 692/692 693/693 694/694
f 697/697 696/696 695/695
f 696/696 697/697 698/698
f 701/701 700/700 699/699
f 700/700 701/701 702/702
f 705/705 704/704 703/703
f 704/704 705/705 706/706
f 706/706 705/705 707/707
f 706/706 707/707 708/708
f 711/711 710/710 709/709
f 711/711 709/709 712/712
f 713/713 710/710 711/711
f 710/710 713/713 714/714
f 715/715 714/714 713/713
f 714/714 715/715 716/716
f 711/711 712/712 717/717
f 716/716 715/715 717/717
f 718/718 717/717 712/712
f 716/716 717/717 718/718
f 721/721 720/720 719/719
f 720/720 721/721 722/722
f 725/725 724/724 723/723
f 724/724 725/725 726/726
f 729/729 728/728 727/727
f 728/728 729/729 730/730
f 733/733 732/732 731/731
f 732/732 733/733 734/734
