mtllib building-small-c.mtl
o building-small-c
v 0.500000 0.000000 0.500000
v -0.500000 0.000000 0.500000
v 0.500000 0.050000 0.500000
v -0.500000 0.050000 0.500000
v 0.500000 0.000000 0.500000
v 0.500000 0.000000 -0.500000
v -0.500000 0.000000 0.500000
v -0.500000 0.000000 -0.500000
v -0.500000 0.000000 -0.500000
v -0.500000 0.050000 -0.500000
v -0.500000 0.000000 0.500000
v -0.500000 0.050000 0.500000
v 0.500000 0.050000 -0.500000
v 0.500000 0.000000 -0.500000
v 0.500000 0.050000 0.500000
v 0.500000 0.000000 0.500000
v -0.500000 0.000000 -0.500000
v 0.500000 0.000000 -0.500000
v -0.500000 0.050000 -0.500000
v 0.500000 0.050000 -0.500000
v 0.500000 0.050000 -0.500000
v 0.500000 0.050000 0.500000
v -0.500000 0.050000 -0.500000
v -0.500000 0.050000 0.500000
v -0.400000 0.050000 -0.400000
v 0.400000 0.050000 -0.400000
v -0.400000 0.450000 -0.400000
v 0.400000 0.450000 -0.400000
v -0.400000 0.050000 -0.400000
v -0.400000 0.450000 -0.400000
v -0.400000 0.050000 0.400000
v -0.400000 0.450000 0.400000
v 0.400000 0.450000 -0.400000
v 0.400000 0.050000 -0.400000
v 0.400000 0.450000 0.400000
v 0.400000 0.050000 0.400000
v -0.000000 0.050000 0.400000
v -0.075000 0.050000 0.400000
v -0.000000 0.450000 0.400000
v -0.075000 0.325000 0.400000
v -0.100000 0.350000 0.400000
v -0.300000 0.350000 0.400000
v -0.400000 0.450000 0.400000
v -0.325000 0.325000 0.400000
v -0.400000 0.050000 0.400000
v -0.325000 0.050000 0.400000
v 0.350000 0.325000 0.400000
v 0.325000 0.150000 0.400000
v 0.325000 0.325000 0.400000
v 0.400000 0.450000 0.400000
v 0.350000 0.375000 0.400000
v 0.350000 0.150000 0.400000
v 0.050000 0.375000 0.400000
v 0.350000 0.100000 0.400000
v 0.400000 0.050000 0.400000
v -0.000000 0.050000 0.400000
v 0.050000 0.100000 0.400000
v -0.000000 0.450000 0.400000
v 0.050000 0.325000 0.400000
v 0.050000 0.150000 0.400000
v 0.075000 0.325000 0.400000
v 0.075000 0.150000 0.400000
v 0.400000 0.400000 0.450000
v -0.400000 0.400000 0.450000
v 0.400000 0.500000 0.450000
v -0.400000 0.500000 0.450000
v -0.450000 0.400000 0.400000
v -0.435355 0.400000 0.435355
v -0.450000 0.400000 0.350000
v -0.400000 0.400000 0.350000
v -0.400000 0.400000 0.400000
v -0.400000 0.400000 0.450000
v 0.400000 0.400000 0.400000
v 0.400000 0.400000 0.450000
v 0.400000 0.400000 0.350000
v 0.435355 0.400000 0.435355
v 0.450000 0.400000 0.350000
v 0.450000 0.400000 0.400000
v -0.400000 0.500000 0.350000
v -0.400000 0.500000 0.400000
v -0.450000 0.500000 0.350000
v -0.400000 0.500000 0.450000
v -0.435355 0.500000 0.435355
v -0.450000 0.500000 0.400000
v 0.400000 0.500000 0.450000
v 0.400000 0.500000 0.400000
v 0.400000 0.500000 0.350000
v 0.435355 0.500000 0.435355
v 0.450000 0.500000 0.400000
v 0.450000 0.500000 0.350000
v 0.400000 0.400000 0.350000
v 0.450000 0.400000 0.350000
v 0.400000 0.500000 0.350000
v 0.450000 0.500000 0.350000
v 0.450000 0.500000 0.350000
v 0.450000 0.400000 0.350000
v 0.450000 0.500000 0.400000
v 0.450000 0.400000 0.400000
v -0.450000 0.400000 0.350000
v -0.400000 0.400000 0.350000
v -0.450000 0.500000 0.350000
v -0.400000 0.500000 0.350000
v -0.450000 0.400000 0.350000
v -0.450000 0.500000 0.350000
v -0.450000 0.400000 0.400000
v -0.450000 0.500000 0.400000
v -0.450000 0.400000 0.400000
v -0.450000 0.500000 0.400000
v -0.435355 0.400000 0.435355
v -0.435355 0.500000 0.435355
v -0.400000 0.400000 0.450000
v -0.435355 0.400000 0.435355
v -0.400000 0.500000 0.450000
v -0.435355 0.500000 0.435355
v 0.450000 0.500000 0.400000
v 0.450000 0.400000 0.400000
v 0.435355 0.500000 0.435355
v 0.435355 0.400000 0.435355
v 0.435355 0.400000 0.435355
v 0.400000 0.400000 0.450000
v 0.435355 0.500000 0.435355
v 0.400000 0.500000 0.450000
v -0.275000 0.050000 0.425000
v -0.275000 0.050000 0.400000
v -0.325000 0.050000 0.425000
v -0.325000 0.050000 0.400000
v -0.075000 0.050000 0.425000
v -0.075000 0.050000 0.400000
v -0.125000 0.050000 0.425000
v -0.125000 0.050000 0.400000
v -0.125000 0.050000 0.400000
v -0.125000 0.300000 0.400000
v -0.125000 0.050000 0.425000
v -0.125000 0.300000 0.425000
v -0.275000 0.300000 0.400000
v -0.275000 0.050000 0.400000
v -0.275000 0.300000 0.425000
v -0.275000 0.050000 0.425000
v -0.075000 0.325000 0.400000
v -0.075000 0.050000 0.400000
v -0.075000 0.325000 0.425000
v -0.075000 0.050000 0.425000
v -0.100000 0.350000 0.400000
v -0.075000 0.325000 0.400000
v -0.100000 0.350000 0.425000
v -0.075000 0.325000 0.425000
v -0.325000 0.050000 0.400000
v -0.325000 0.325000 0.400000
v -0.325000 0.050000 0.425000
v -0.325000 0.325000 0.425000
v -0.300000 0.350000 0.400000
v -0.300000 0.350000 0.425000
v -0.325000 0.325000 0.400000
v -0.325000 0.325000 0.425000
v -0.125000 0.300000 0.425000
v -0.125000 0.300000 0.400000
v -0.275000 0.300000 0.425000
v -0.275000 0.300000 0.400000
v -0.100000 0.350000 0.400000
v -0.100000 0.350000 0.425000
v -0.300000 0.350000 0.400000
v -0.300000 0.350000 0.425000
v -0.075000 0.050000 0.425000
v -0.125000 0.050000 0.425000
v -0.075000 0.325000 0.425000
v -0.125000 0.300000 0.425000
v -0.275000 0.300000 0.425000
v -0.325000 0.325000 0.425000
v -0.100000 0.350000 0.425000
v -0.300000 0.350000 0.425000
v -0.325000 0.050000 0.425000
v -0.275000 0.050000 0.425000
v -0.450000 0.100000 -0.350000
v -0.450000 1.650000 -0.350000
v -0.450000 0.100000 -0.300000
v -0.450000 1.650000 -0.300000
v -0.450000 0.100000 -0.350000
v -0.400000 0.100000 -0.350000
v -0.450000 1.650000 -0.350000
v -0.400000 1.650000 -0.350000
v -0.400000 0.100000 -0.300000
v -0.450000 0.100000 -0.300000
v -0.400000 1.650000 -0.300000
v -0.450000 1.650000 -0.300000
v -0.400000 0.150000 -0.275000
v -0.400000 0.150000 -0.375000
v -0.450000 0.150000 -0.275000
v -0.450000 0.150000 -0.375000
v -0.475000 0.150000 -0.300000
v -0.475000 0.150000 -0.350000
v -0.450000 0.150000 -0.375000
v -0.400000 0.150000 -0.375000
v -0.450000 0.200000 -0.375000
v -0.400000 0.200000 -0.375000
v -0.400000 0.200000 -0.375000
v -0.400000 0.200000 -0.275000
v -0.450000 0.200000 -0.375000
v -0.450000 0.200000 -0.275000
v -0.475000 0.200000 -0.350000
v -0.475000 0.200000 -0.300000
v -0.400000 0.150000 -0.275000
v -0.450000 0.150000 -0.275000
v -0.400000 0.200000 -0.275000
v -0.450000 0.200000 -0.275000
v -0.475000 0.150000 -0.350000
v -0.475000 0.200000 -0.350000
v -0.475000 0.150000 -0.300000
v -0.475000 0.200000 -0.300000
v -0.475000 0.150000 -0.350000
v -0.450000 0.150000 -0.375000
v -0.475000 0.200000 -0.350000
v -0.450000 0.200000 -0.375000
v -0.475000 0.150000 -0.300000
v -0.475000 0.200000 -0.300000
v -0.450000 0.150000 -0.275000
v -0.450000 0.200000 -0.275000
v -0.400000 1.550000 -0.275000
v -0.400000 1.550000 -0.375000
v -0.450000 1.550000 -0.275000
v -0.450000 1.550000 -0.375000
v -0.475000 1.550000 -0.300000
v -0.475000 1.550000 -0.350000
v -0.450000 1.550000 -0.375000
v -0.400000 1.550000 -0.375000
v -0.450000 1.600000 -0.375000
v -0.400000 1.600000 -0.375000
v -0.400000 1.600000 -0.375000
v -0.400000 1.600000 -0.275000
v -0.450000 1.600000 -0.375000
v -0.450000 1.600000 -0.275000
v -0.475000 1.600000 -0.350000
v -0.475000 1.600000 -0.300000
v -0.400000 1.550000 -0.275000
v -0.450000 1.550000 -0.275000
v -0.400000 1.600000 -0.275000
v -0.450000 1.600000 -0.275000
v -0.475000 1.550000 -0.350000
v -0.475000 1.600000 -0.350000
v -0.475000 1.550000 -0.300000
v -0.475000 1.600000 -0.300000
v -0.475000 1.550000 -0.350000
v -0.450000 1.550000 -0.375000
v -0.475000 1.600000 -0.350000
v -0.450000 1.600000 -0.375000
v -0.475000 1.550000 -0.300000
v -0.475000 1.600000 -0.300000
v -0.450000 1.550000 -0.275000
v -0.450000 1.600000 -0.275000
v -0.350000 1.650000 -0.450000
v 0.350000 1.650000 -0.450000
v -0.350000 1.750000 -0.450000
v 0.350000 1.750000 -0.450000
v 0.350000 1.650000 -0.450000
v 0.420711 1.650000 -0.420711
v 0.350000 1.750000 -0.450000
v 0.420711 1.750000 -0.420711
v 0.420711 1.750000 -0.420711
v 0.420711 1.650000 -0.420711
v 0.450000 1.750000 -0.350000
v 0.450000 1.650000 -0.350000
v 0.450000 1.750000 -0.350000
v 0.450000 1.650000 -0.350000
v 0.450000 1.750000 0.350000
v 0.450000 1.650000 0.350000
v 0.420711 1.650000 0.420711
v 0.350000 1.650000 0.450000
v 0.420711 1.750000 0.420711
v 0.350000 1.750000 0.450000
v 0.450000 1.750000 0.350000
v 0.450000 1.650000 0.350000
v 0.420711 1.750000 0.420711
v 0.420711 1.650000 0.420711
v 0.350000 1.650000 0.450000
v -0.350000 1.650000 0.450000
v 0.350000 1.750000 0.450000
v -0.350000 1.750000 0.450000
v -0.350000 1.650000 0.450000
v -0.420711 1.650000 0.420711
v -0.350000 1.750000 0.450000
v -0.420711 1.750000 0.420711
v -0.450000 1.650000 0.350000
v -0.450000 1.750000 0.350000
v -0.420711 1.650000 0.420711
v -0.420711 1.750000 0.420711
v -0.450000 1.650000 -0.350000
v -0.450000 1.750000 -0.350000
v -0.450000 1.650000 0.350000
v -0.450000 1.750000 0.350000
v -0.420711 1.650000 -0.420711
v -0.420711 1.750000 -0.420711
v -0.450000 1.650000 -0.350000
v -0.450000 1.750000 -0.350000
v -0.420711 1.650000 -0.420711
v -0.350000 1.650000 -0.450000
v -0.420711 1.750000 -0.420711
v -0.350000 1.750000 -0.450000
v 0.450000 1.750000 -0.350000
v 0.450000 1.750000 0.350000
v 0.420711 1.750000 -0.420711
v 0.420711 1.750000 0.420711
v 0.350000 1.750000 -0.450000
v 0.350000 1.750000 -0.330109
v 0.350000 1.750000 0.450000
v 0.330109 1.750000 -0.350000
v 0.350000 1.750000 0.330109
v 0.330109 1.750000 0.350000
v -0.350000 1.750000 -0.450000
v -0.330109 1.750000 -0.350000
v -0.350000 1.750000 -0.330109
v -0.350000 1.750000 0.450000
v -0.420711 1.750000 -0.420711
v -0.330109 1.750000 0.350000
v -0.350000 1.750000 0.330109
v -0.420711 1.750000 0.420711
v -0.450000 1.750000 -0.350000
v -0.450000 1.750000 0.350000
v 0.450000 1.650000 0.350000
v 0.450000 1.650000 -0.350000
v 0.420711 1.650000 0.420711
v 0.420711 1.650000 -0.420711
v 0.350000 1.650000 0.450000
v 0.350000 1.650000 -0.450000
v -0.350000 1.650000 0.450000
v -0.350000 1.650000 -0.450000
v -0.420711 1.650000 0.420711
v -0.420711 1.650000 -0.420711
v -0.450000 1.650000 0.350000
v -0.450000 1.650000 -0.350000
v 0.350000 1.700000 -0.330109
v 0.350000 1.700000 0.330109
v 0.330109 1.700000 -0.350000
v 0.330109 1.700000 0.350000
v -0.330109 1.700000 -0.350000
v -0.330109 1.700000 0.350000
v -0.350000 1.700000 -0.330109
v -0.350000 1.700000 0.330109
v -0.330109 1.700000 0.350000
v 0.330109 1.700000 0.350000
v -0.330109 1.750000 0.350000
v 0.330109 1.750000 0.350000
v 0.330109 1.700000 0.350000
v 0.350000 1.700000 0.330109
v 0.330109 1.750000 0.350000
v 0.350000 1.750000 0.330109
v 0.350000 1.700000 -0.330109
v 0.350000 1.750000 -0.330109
v 0.350000 1.700000 0.330109
v 0.350000 1.750000 0.330109
v 0.330109 1.700000 -0.350000
v 0.330109 1.750000 -0.350000
v 0.350000 1.700000 -0.330109
v 0.350000 1.750000 -0.330109
v 0.330109 1.700000 -0.350000
v -0.330109 1.700000 -0.350000
v 0.330109 1.750000 -0.350000
v -0.330109 1.750000 -0.350000
v -0.330109 1.750000 -0.350000
v -0.330109 1.700000 -0.350000
v -0.350000 1.750000 -0.330109
v -0.350000 1.700000 -0.330109
v -0.350000 1.750000 -0.330109
v -0.350000 1.700000 -0.330109
v -0.350000 1.750000 0.330109
v -0.350000 1.700000 0.330109
v -0.350000 1.750000 0.330109
v -0.350000 1.700000 0.330109
v -0.330109 1.750000 0.350000
v -0.330109 1.700000 0.350000
v 0.225330 1.725000 -0.218968
v 0.186507 1.725000 -0.074079
v 0.080441 1.725000 -0.257791
v 0.041618 1.725000 -0.112902
v 0.080441 1.700000 -0.257791
v 0.080441 1.725000 -0.257791
v 0.041618 1.700000 -0.112902
v 0.041618 1.725000 -0.112902
v 0.186507 1.700000 -0.074079
v 0.041618 1.700000 -0.112902
v 0.186507 1.725000 -0.074079
v 0.041618 1.725000 -0.112902
v 0.225330 1.725000 -0.218968
v 0.225330 1.700000 -0.218968
v 0.186507 1.725000 -0.074079
v 0.186507 1.700000 -0.074079
v 0.080441 1.700000 -0.257791
v 0.225330 1.700000 -0.218968
v 0.080441 1.725000 -0.257791
v 0.225330 1.725000 -0.218968
v 0.233793 1.725000 -0.032930
v 0.259675 1.725000 0.063662
v 0.137200 1.725000 -0.007049
v 0.163082 1.725000 0.089544
v 0.137200 1.700000 -0.007049
v 0.137200 1.725000 -0.007049
v 0.163082 1.700000 0.089544
v 0.163082 1.725000 0.089544
v 0.259675 1.700000 0.063662
v 0.163082 1.700000 0.089544
v 0.259675 1.725000 0.063662
v 0.163082 1.725000 0.089544
v 0.233793 1.725000 -0.032930
v 0.233793 1.700000 -0.032930
v 0.259675 1.725000 0.063662
v 0.259675 1.700000 0.063662
v 0.137200 1.700000 -0.007049
v 0.233793 1.700000 -0.032930
v 0.137200 1.725000 -0.007049
v 0.233793 1.725000 -0.032930
v -0.193934 1.725000 0.137984
v -0.168052 1.725000 0.234577
v -0.290526 1.725000 0.163866
v -0.264644 1.725000 0.260459
v -0.290526 1.700000 0.163866
v -0.290526 1.725000 0.163866
v -0.264644 1.700000 0.260459
v -0.264644 1.725000 0.260459
v -0.168052 1.700000 0.234577
v -0.264644 1.700000 0.260459
v -0.168052 1.725000 0.234577
v -0.264644 1.725000 0.260459
v -0.193934 1.725000 0.137984
v -0.193934 1.700000 0.137984
v -0.168052 1.725000 0.234577
v -0.168052 1.700000 0.234577
v -0.290526 1.700000 0.163866
v -0.193934 1.700000 0.137984
v -0.290526 1.725000 0.163866
v -0.193934 1.725000 0.137984
v 0.100000 1.125000 0.425000
v 0.100000 1.175000 0.425000
v 0.125000 1.125000 0.450000
v 0.125000 1.175000 0.450000
v 0.275000 1.125000 0.450000
v 0.125000 1.125000 0.450000
v 0.275000 1.175000 0.450000
v 0.125000 1.175000 0.450000
v 0.300000 1.175000 0.400000
v 0.300000 1.175000 0.425000
v 0.100000 1.175000 0.400000
v 0.275000 1.175000 0.450000
v 0.125000 1.175000 0.450000
v 0.100000 1.175000 0.425000
v 0.300000 1.175000 0.400000
v 0.300000 1.125000 0.400000
v 0.300000 1.175000 0.425000
v 0.300000 1.125000 0.425000
v 0.300000 1.125000 0.425000
v 0.300000 1.125000 0.400000
v 0.275000 1.125000 0.450000
v 0.275000 1.125000 0.400000
v 0.275000 1.125000 0.425000
v 0.125000 1.125000 0.450000
v 0.240000 1.125000 0.425000
v 0.240000 1.125000 0.400000
v 0.160000 1.125000 0.425000
v 0.160000 1.125000 0.400000
v 0.125000 1.125000 0.425000
v 0.100000 1.125000 0.425000
v 0.125000 1.125000 0.400000
v 0.100000 1.125000 0.400000
v 0.100000 1.125000 0.400000
v 0.100000 1.175000 0.400000
v 0.100000 1.125000 0.425000
v 0.100000 1.175000 0.425000
v 0.300000 1.175000 0.425000
v 0.300000 1.125000 0.425000
v 0.275000 1.175000 0.450000
v 0.275000 1.125000 0.450000
v 0.160000 0.950000 0.425000
v 0.125000 0.950000 0.425000
v 0.160000 1.125000 0.425000
v 0.125000 1.125000 0.425000
v 0.125000 0.950000 0.400000
v 0.125000 1.125000 0.400000
v 0.125000 0.950000 0.425000
v 0.125000 1.125000 0.425000
v 0.100000 0.900000 0.425000
v 0.100000 0.950000 0.425000
v 0.125000 0.900000 0.450000
v 0.125000 0.950000 0.450000
v 0.275000 0.950000 0.425000
v 0.240000 0.950000 0.425000
v 0.275000 1.125000 0.425000
v 0.240000 1.125000 0.425000
v 0.275000 1.125000 0.400000
v 0.275000 0.950000 0.400000
v 0.275000 1.125000 0.425000
v 0.275000 0.950000 0.425000
v 0.300000 0.950000 0.400000
v 0.300000 0.900000 0.400000
v 0.300000 0.950000 0.425000
v 0.300000 0.900000 0.425000
v 0.240000 0.950000 0.400000
v 0.240000 0.950000 0.425000
v 0.160000 0.950000 0.400000
v 0.160000 0.950000 0.425000
v 0.125000 0.950000 0.450000
v 0.125000 0.950000 0.425000
v 0.100000 0.950000 0.400000
v 0.125000 0.950000 0.400000
v 0.100000 0.950000 0.425000
v 0.275000 0.950000 0.450000
v 0.275000 0.950000 0.425000
v 0.275000 0.950000 0.400000
v 0.300000 0.950000 0.425000
v 0.300000 0.950000 0.400000
v 0.300000 0.900000 0.425000
v 0.300000 0.900000 0.400000
v 0.275000 0.900000 0.450000
v 0.100000 0.900000 0.400000
v 0.125000 0.900000 0.450000
v 0.100000 0.900000 0.425000
v 0.275000 0.900000 0.450000
v 0.125000 0.900000 0.450000
v 0.275000 0.950000 0.450000
v 0.125000 0.950000 0.450000
v 0.100000 0.900000 0.400000
v 0.100000 0.950000 0.400000
v 0.100000 0.900000 0.425000
v 0.100000 0.950000 0.425000
v 0.300000 0.950000 0.425000
v 0.300000 0.900000 0.425000
v 0.275000 0.950000 0.450000
v 0.275000 0.900000 0.450000
v 0.240000 0.950000 0.400000
v 0.240000 1.125000 0.400000
v 0.240000 0.950000 0.425000
v 0.240000 1.125000 0.425000
v 0.160000 1.125000 0.400000
v 0.160000 0.950000 0.400000
v 0.160000 1.125000 0.425000
v 0.160000 0.950000 0.425000
v 0.350000 0.375000 0.400000
v 0.350000 0.325000 0.400000
v 0.350000 0.375000 0.425000
v 0.350000 0.325000 0.425000
v 0.050000 0.325000 0.400000
v 0.050000 0.375000 0.400000
v 0.050000 0.325000 0.425000
v 0.050000 0.375000 0.425000
v 0.110000 0.150000 0.425000
v 0.075000 0.150000 0.425000
v 0.110000 0.325000 0.425000
v 0.075000 0.325000 0.425000
v 0.075000 0.150000 0.400000
v 0.075000 0.325000 0.400000
v 0.075000 0.150000 0.425000
v 0.075000 0.325000 0.425000
v 0.110000 0.325000 0.400000
v 0.110000 0.150000 0.400000
v 0.110000 0.325000 0.425000
v 0.110000 0.150000 0.425000
v 0.325000 0.150000 0.425000
v 0.290000 0.150000 0.425000
v 0.325000 0.325000 0.425000
v 0.290000 0.325000 0.425000
v 0.325000 0.325000 0.400000
v 0.325000 0.150000 0.400000
v 0.325000 0.325000 0.425000
v 0.325000 0.150000 0.425000
v 0.290000 0.150000 0.400000
v 0.290000 0.325000 0.400000
v 0.290000 0.150000 0.425000
v 0.290000 0.325000 0.425000
v 0.350000 0.150000 0.400000
v 0.350000 0.100000 0.400000
v 0.350000 0.150000 0.425000
v 0.350000 0.100000 0.425000
v 0.050000 0.100000 0.400000
v 0.050000 0.150000 0.400000
v 0.050000 0.100000 0.425000
v 0.050000 0.150000 0.425000
v 0.350000 0.150000 0.425000
v 0.350000 0.100000 0.425000
v 0.325000 0.150000 0.450000
v 0.325000 0.100000 0.450000
v 0.350000 0.375000 0.425000
v 0.350000 0.325000 0.425000
v 0.325000 0.375000 0.450000
v 0.325000 0.325000 0.450000
v 0.350000 0.100000 0.425000
v 0.350000 0.100000 0.400000
v 0.325000 0.100000 0.450000
v 0.050000 0.100000 0.400000
v 0.075000 0.100000 0.450000
v 0.050000 0.100000 0.425000
v 0.075000 0.100000 0.450000
v 0.075000 0.150000 0.450000
v 0.325000 0.100000 0.450000
v 0.325000 0.150000 0.450000
v 0.325000 0.325000 0.450000
v 0.075000 0.325000 0.450000
v 0.325000 0.375000 0.450000
v 0.075000 0.375000 0.450000
v 0.350000 0.375000 0.400000
v 0.350000 0.375000 0.425000
v 0.050000 0.375000 0.400000
v 0.325000 0.375000 0.450000
v 0.075000 0.375000 0.450000
v 0.050000 0.375000 0.425000
v 0.350000 0.325000 0.425000
v 0.350000 0.325000 0.400000
v 0.325000 0.325000 0.450000
v 0.325000 0.325000 0.400000
v 0.325000 0.325000 0.425000
v 0.075000 0.325000 0.450000
v 0.290000 0.325000 0.425000
v 0.290000 0.325000 0.400000
v 0.110000 0.325000 0.425000
v 0.110000 0.325000 0.400000
v 0.075000 0.325000 0.425000
v 0.050000 0.325000 0.425000
v 0.075000 0.325000 0.400000
v 0.050000 0.325000 0.400000
v 0.290000 0.150000 0.400000
v 0.290000 0.150000 0.425000
v 0.110000 0.150000 0.400000
v 0.110000 0.150000 0.425000
v 0.075000 0.150000 0.450000
v 0.075000 0.150000 0.425000
v 0.050000 0.150000 0.400000
v 0.075000 0.150000 0.400000
v 0.050000 0.150000 0.425000
v 0.325000 0.150000 0.450000
v 0.325000 0.150000 0.425000
v 0.325000 0.150000 0.400000
v 0.350000 0.150000 0.425000
v 0.350000 0.150000 0.400000
v 0.050000 0.325000 0.425000
v 0.050000 0.375000 0.425000
v 0.075000 0.325000 0.450000
v 0.075000 0.375000 0.450000
v 0.050000 0.100000 0.425000
v 0.050000 0.150000 0.425000
v 0.075000 0.100000 0.450000
v 0.075000 0.150000 0.450000
v -0.300000 1.125000 0.425000
v -0.300000 1.175000 0.425000
v -0.275000 1.125000 0.450000
v -0.275000 1.175000 0.450000
v -0.125000 1.125000 0.450000
v -0.275000 1.125000 0.450000
v -0.125000 1.175000 0.450000
v -0.275000 1.175000 0.450000
v -0.100000 1.175000 0.400000
v -0.100000 1.175000 0.425000
v -0.300000 1.175000 0.400000
v -0.125000 1.175000 0.450000
v -0.275000 1.175000 0.450000
v -0.300000 1.175000 0.425000
v -0.100000 1.175000 0.400000
v -0.100000 1.125000 0.400000
v -0.100000 1.175000 0.425000
v -0.100000 1.125000 0.425000
v -0.100000 1.125000 0.425000
v -0.100000 1.125000 0.400000
v -0.125000 1.125000 0.450000
v -0.125000 1.125000 0.400000
v -0.125000 1.125000 0.425000
v -0.275000 1.125000 0.450000
v -0.160000 1.125000 0.425000
v -0.160000 1.125000 0.400000
v -0.240000 1.125000 0.425000
v -0.240000 1.125000 0.400000
v -0.275000 1.125000 0.425000
v -0.300000 1.125000 0.425000
v -0.275000 1.125000 0.400000
v -0.300000 1.125000 0.400000
v -0.300000 1.125000 0.400000
v -0.300000 1.175000 0.400000
v -0.300000 1.125000 0.425000
v -0.300000 1.175000 0.425000
v -0.100000 1.175000 0.425000
v -0.100000 1.125000 0.425000
v -0.125000 1.175000 0.450000
v -0.125000 1.125000 0.450000
v -0.240000 0.950000 0.425000
v -0.275000 0.950000 0.425000
v -0.240000 1.125000 0.425000
v -0.275000 1.125000 0.425000
v -0.275000 0.950000 0.400000
v -0.275000 1.125000 0.400000
v -0.275000 0.950000 0.425000
v -0.275000 1.125000 0.425000
v -0.300000 0.900000 0.425000
v -0.300000 0.950000 0.425000
v -0.275000 0.900000 0.450000
v -0.275000 0.950000 0.450000
v -0.125000 0.950000 0.425000
v -0.160000 0.950000 0.425000
v -0.125000 1.125000 0.425000
v -0.160000 1.125000 0.425000
v -0.125000 1.125000 0.400000
v -0.125000 0.950000 0.400000
v -0.125000 1.125000 0.425000
v -0.125000 0.950000 0.425000
v -0.100000 0.950000 0.400000
v -0.100000 0.900000 0.400000
v -0.100000 0.950000 0.425000
v -0.100000 0.900000 0.425000
v -0.160000 0.950000 0.400000
v -0.160000 0.950000 0.425000
v -0.240000 0.950000 0.400000
v -0.240000 0.950000 0.425000
v -0.275000 0.950000 0.450000
v -0.275000 0.950000 0.425000
v -0.300000 0.950000 0.400000
v -0.275000 0.950000 0.400000
v -0.300000 0.950000 0.425000
v -0.125000 0.950000 0.450000
v -0.125000 0.950000 0.425000
v -0.125000 0.950000 0.400000
v -0.100000 0.950000 0.425000
v -0.100000 0.950000 0.400000
v -0.100000 0.900000 0.425000
v -0.100000 0.900000 0.400000
v -0.125000 0.900000 0.450000
v -0.300000 0.900000 0.400000
v -0.275000 0.900000 0.450000
v -0.300000 0.900000 0.425000
v -0.125000 0.900000 0.450000
v -0.275000 0.900000 0.450000
v -0.125000 0.950000 0.450000
v -0.275000 0.950000 0.450000
v -0.300000 0.900000 0.400000
v -0.300000 0.950000 0.400000
v -0.300000 0.900000 0.425000
v -0.300000 0.950000 0.425000
v -0.100000 0.950000 0.425000
v -0.100000 0.900000 0.425000
v -0.125000 0.950000 0.450000
v -0.125000 0.900000 0.450000
v -0.160000 0.950000 0.400000
v -0.160000 1.125000 0.400000
v -0.160000 0.950000 0.425000
v -0.160000 1.125000 0.425000
v -0.240000 1.125000 0.400000
v -0.240000 0.950000 0.400000
v -0.240000 1.125000 0.425000
v -0.240000 0.950000 0.425000
v -0.300000 1.525000 0.425000
v -0.300000 1.575000 0.425000
v -0.275000 1.525000 0.450000
v -0.275000 1.575000 0.450000
v -0.125000 1.525000 0.450000
v -0.275000 1.525000 0.450000
v -0.125000 1.575000 0.450000
v -0.275000 1.575000 0.450000
v -0.100000 1.575000 0.400000
v -0.100000 1.575000 0.425000
v -0.300000 1.575000 0.400000
v -0.125000 1.575000 0.450000
v -0.275000 1.575000 0.450000
v -0.300000 1.575000 0.425000
v -0.100000 1.575000 0.400000
v -0.100000 1.525000 0.400000
v -0.100000 1.575000 0.425000
v -0.100000 1.525000 0.425000
v -0.100000 1.525000 0.425000
v -0.100000 1.525000 0.400000
v -0.125000 1.525000 0.450000
v -0.125000 1.525000 0.400000
v -0.125000 1.525000 0.425000
v -0.275000 1.525000 0.450000
v -0.160000 1.525000 0.425000
v -0.160000 1.525000 0.400000
v -0.240000 1.525000 0.425000
v -0.240000 1.525000 0.400000
v -0.275000 1.525000 0.425000
v -0.300000 1.525000 0.425000
v -0.275000 1.525000 0.400000
v -0.300000 1.525000 0.400000
v -0.300000 1.525000 0.400000
v -0.300000 1.575000 0.400000
v -0.300000 1.525000 0.425000
v -0.300000 1.575000 0.425000
v -0.100000 1.575000 0.425000
v -0.100000 1.525000 0.425000
v -0.125000 1.575000 0.450000
v -0.125000 1.525000 0.450000
v -0.240000 1.350000 0.425000
v -0.275000 1.350000 0.425000
v -0.240000 1.525000 0.425000
v -0.275000 1.525000 0.425000
v -0.275000 1.350000 0.400000
v -0.275000 1.525000 0.400000
v -0.275000 1.350000 0.425000
v -0.275000 1.525000 0.425000
v -0.300000 1.300000 0.425000
v -0.300000 1.350000 0.425000
v -0.275000 1.300000 0.450000
v -0.275000 1.350000 0.450000
v -0.125000 1.350000 0.425000
v -0.160000 1.350000 0.425000
v -0.125000 1.525000 0.425000
v -0.160000 1.525000 0.425000
v -0.125000 1.525000 0.400000
v -0.125000 1.350000 0.400000
v -0.125000 1.525000 0.425000
v -0.125000 1.350000 0.425000
v -0.100000 1.350000 0.400000
v -0.100000 1.300000 0.400000
v -0.100000 1.350000 0.425000
v -0.100000 1.300000 0.425000
v -0.160000 1.350000 0.400000
v -0.160000 1.350000 0.425000
v -0.240000 1.350000 0.400000
v -0.240000 1.350000 0.425000
v -0.275000 1.350000 0.450000
v -0.275000 1.350000 0.425000
v -0.300000 1.350000 0.400000
v -0.275000 1.350000 0.400000
v -0.300000 1.350000 0.425000
v -0.125000 1.350000 0.450000
v -0.125000 1.350000 0.425000
v -0.125000 1.350000 0.400000
v -0.100000 1.350000 0.425000
v -0.100000 1.350000 0.400000
v -0.100000 1.300000 0.425000
v -0.100000 1.300000 0.400000
v -0.125000 1.300000 0.450000
v -0.300000 1.300000 0.400000
v -0.275000 1.300000 0.450000
v -0.300000 1.300000 0.425000
v -0.125000 1.300000 0.450000
v -0.275000 1.300000 0.450000
v -0.125000 1.350000 0.450000
v -0.275000 1.350000 0.450000
v -0.300000 1.300000 0.400000
v -0.300000 1.350000 0.400000
v -0.300000 1.300000 0.425000
v -0.300000 1.350000 0.425000
v -0.100000 1.350000 0.425000
v -0.100000 1.300000 0.425000
v -0.125000 1.350000 0.450000
v -0.125000 1.300000 0.450000
v -0.160000 1.350000 0.400000
v -0.160000 1.525000 0.400000
v -0.160000 1.350000 0.425000
v -0.160000 1.525000 0.425000
v -0.240000 1.525000 0.400000
v -0.240000 1.350000 0.400000
v -0.240000 1.525000 0.425000
v -0.240000 1.350000 0.425000
v 0.100000 1.525000 0.425000
v 0.100000 1.575000 0.425000
v 0.125000 1.525000 0.450000
v 0.125000 1.575000 0.450000
v 0.275000 1.525000 0.450000
v 0.125000 1.525000 0.450000
v 0.275000 1.575000 0.450000
v 0.125000 1.575000 0.450000
v 0.300000 1.575000 0.400000
v 0.300000 1.575000 0.425000
v 0.100000 1.575000 0.400000
v 0.275000 1.575000 0.450000
v 0.125000 1.575000 0.450000
v 0.100000 1.575000 0.425000
v 0.300000 1.575000 0.400000
v 0.300000 1.525000 0.400000
v 0.300000 1.575000 0.425000
v 0.300000 1.525000 0.425000
v 0.300000 1.525000 0.425000
v 0.300000 1.525000 0.400000
v 0.275000 1.525000 0.450000
v 0.275000 1.525000 0.400000
v 0.275000 1.525000 0.425000
v 0.125000 1.525000 0.450000
v 0.240000 1.525000 0.425000
v 0.240000 1.525000 0.400000
v 0.160000 1.525000 0.425000
v 0.160000 1.525000 0.400000
v 0.125000 1.525000 0.425000
v 0.100000 1.525000 0.425000
v 0.125000 1.525000 0.400000
v 0.100000 1.525000 0.400000
v 0.100000 1.525000 0.400000
v 0.100000 1.575000 0.400000
v 0.100000 1.525000 0.425000
v 0.100000 1.575000 0.425000
v 0.300000 1.575000 0.425000
v 0.300000 1.525000 0.425000
v 0.275000 1.575000 0.450000
v 0.275000 1.525000 0.450000
v 0.160000 1.350000 0.425000
v 0.125000 1.350000 0.425000
v 0.160000 1.525000 0.425000
v 0.125000 1.525000 0.425000
v 0.125000 1.350000 0.400000
v 0.125000 1.525000 0.400000
v 0.125000 1.350000 0.425000
v 0.125000 1.525000 0.425000
v 0.100000 1.300000 0.425000
v 0.100000 1.350000 0.425000
v 0.125000 1.300000 0.450000
v 0.125000 1.350000 0.450000
v 0.275000 1.350000 0.425000
v 0.240000 1.350000 0.425000
v 0.275000 1.525000 0.425000
v 0.240000 1.525000 0.425000
v 0.275000 1.525000 0.400000
v 0.275000 1.350000 0.400000
v 0.275000 1.525000 0.425000
v 0.275000 1.350000 0.425000
v 0.300000 1.350000 0.400000
v 0.300000 1.300000 0.400000
v 0.300000 1.350000 0.425000
v 0.300000 1.300000 0.425000
v 0.240000 1.350000 0.400000
v 0.240000 1.350000 0.425000
v 0.160000 1.350000 0.400000
v 0.160000 1.350000 0.425000
v 0.125000 1.350000 0.450000
v 0.125000 1.350000 0.425000
v 0.100000 1.350000 0.400000
v 0.125000 1.350000 0.400000
v 0.100000 1.350000 0.425000
v 0.275000 1.350000 0.450000
v 0.275000 1.350000 0.425000
v 0.275000 1.350000 0.400000
v 0.300000 1.350000 0.425000
v 0.300000 1.350000 0.400000
v 0.300000 1.300000 0.425000
v 0.300000 1.300000 0.400000
v 0.275000 1.300000 0.450000
v 0.100000 1.300000 0.400000
v 0.125000 1.300000 0.450000
v 0.100000 1.300000 0.425000
v 0.275000 1.300000 0.450000
v 0.125000 1.300000 0.450000
v 0.275000 1.350000 0.450000
v 0.125000 1.350000 0.450000
v 0.100000 1.300000 0.400000
v 0.100000 1.350000 0.400000
v 0.100000 1.300000 0.425000
v 0.100000 1.350000 0.425000
v 0.300000 1.350000 0.425000
v 0.300000 1.300000 0.425000
v 0.275000 1.350000 0.450000
v 0.275000 1.300000 0.450000
v 0.240000 1.350000 0.400000
v 0.240000 1.525000 0.400000
v 0.240000 1.350000 0.425000
v 0.240000 1.525000 0.425000
v 0.160000 1.525000 0.400000
v 0.160000 1.350000 0.400000
v 0.160000 1.525000 0.425000
v 0.160000 1.350000 0.425000
v -0.300000 0.725000 0.425000
v -0.300000 0.775000 0.425000
v -0.275000 0.725000 0.450000
v -0.275000 0.775000 0.450000
v -0.125000 0.725000 0.450000
v -0.275000 0.725000 0.450000
v -0.125000 0.775000 0.450000
v -0.275000 0.775000 0.450000
v -0.100000 0.775000 0.400000
v -0.100000 0.775000 0.425000
v -0.300000 0.775000 0.400000
v -0.125000 0.775000 0.450000
v -0.275000 0.775000 0.450000
v -0.300000 0.775000 0.425000
v -0.100000 0.775000 0.400000
v -0.100000 0.725000 0.400000
v -0.100000 0.775000 0.425000
v -0.100000 0.725000 0.425000
v -0.100000 0.725000 0.425000
v -0.100000 0.725000 0.400000
v -0.125000 0.725000 0.450000
v -0.125000 0.725000 0.400000
v -0.125000 0.725000 0.425000
v -0.275000 0.725000 0.450000
v -0.160000 0.725000 0.425000
v -0.160000 0.725000 0.400000
v -0.240000 0.725000 0.425000
v -0.240000 0.725000 0.400000
v -0.275000 0.725000 0.425000
v -0.300000 0.725000 0.425000
v -0.275000 0.725000 0.400000
v -0.300000 0.725000 0.400000
v -0.300000 0.725000 0.400000
v -0.300000 0.775000 0.400000
v -0.300000 0.725000 0.425000
v -0.300000 0.775000 0.425000
v -0.100000 0.775000 0.425000
v -0.100000 0.725000 0.425000
v -0.125000 0.775000 0.450000
v -0.125000 0.725000 0.450000
v -0.240000 0.550000 0.425000
v -0.275000 0.550000 0.425000
v -0.240000 0.725000 0.425000
v -0.275000 0.725000 0.425000
v -0.275000 0.550000 0.400000
v -0.275000 0.725000 0.400000
v -0.275000 0.550000 0.425000
v -0.275000 0.725000 0.425000
v -0.300000 0.500000 0.425000
v -0.300000 0.550000 0.425000
v -0.275000 0.500000 0.450000
v -0.275000 0.550000 0.450000
v -0.125000 0.550000 0.425000
v -0.160000 0.550000 0.425000
v -0.125000 0.725000 0.425000
v -0.160000 0.725000 0.425000
v -0.125000 0.725000 0.400000
v -0.125000 0.550000 0.400000
v -0.125000 0.725000 0.425000
v -0.125000 0.550000 0.425000
v -0.100000 0.550000 0.400000
v -0.100000 0.500000 0.400000
v -0.100000 0.550000 0.425000
v -0.100000 0.500000 0.425000
v -0.160000 0.550000 0.400000
v -0.160000 0.550000 0.425000
v -0.240000 0.550000 0.400000
v -0.240000 0.550000 0.425000
v -0.275000 0.550000 0.450000
v -0.275000 0.550000 0.425000
v -0.300000 0.550000 0.400000
v -0.275000 0.550000 0.400000
v -0.300000 0.550000 0.425000
v -0.125000 0.550000 0.450000
v -0.125000 0.550000 0.425000
v -0.125000 0.550000 0.400000
v -0.100000 0.550000 0.425000
v -0.100000 0.550000 0.400000
v -0.100000 0.500000 0.425000
v -0.100000 0.500000 0.400000
v -0.125000 0.500000 0.450000
v -0.300000 0.500000 0.400000
v -0.275000 0.500000 0.450000
v -0.300000 0.500000 0.425000
v -0.125000 0.500000 0.450000
v -0.275000 0.500000 0.450000
v -0.125000 0.550000 0.450000
v -0.275000 0.550000 0.450000
v -0.300000 0.500000 0.400000
v -0.300000 0.550000 0.400000
v -0.300000 0.500000 0.425000
v -0.300000 0.550000 0.425000
v -0.100000 0.550000 0.425000
v -0.100000 0.500000 0.425000
v -0.125000 0.550000 0.450000
v -0.125000 0.500000 0.450000
v -0.160000 0.550000 0.400000
v -0.160000 0.725000 0.400000
v -0.160000 0.550000 0.425000
v -0.160000 0.725000 0.425000
v -0.240000 0.725000 0.400000
v -0.240000 0.550000 0.400000
v -0.240000 0.725000 0.425000
v -0.240000 0.550000 0.425000
v 0.100000 0.725000 0.425000
v 0.100000 0.775000 0.425000
v 0.125000 0.725000 0.450000
v 0.125000 0.775000 0.450000
v 0.275000 0.725000 0.450000
v 0.125000 0.725000 0.450000
v 0.275000 0.775000 0.450000
v 0.125000 0.775000 0.450000
v 0.300000 0.775000 0.400000
v 0.300000 0.775000 0.425000
v 0.100000 0.775000 0.400000
v 0.275000 0.775000 0.450000
v 0.125000 0.775000 0.450000
v 0.100000 0.775000 0.425000
v 0.300000 0.775000 0.400000
v 0.300000 0.725000 0.400000
v 0.300000 0.775000 0.425000
v 0.300000 0.725000 0.425000
v 0.300000 0.725000 0.425000
v 0.300000 0.725000 0.400000
v 0.275000 0.725000 0.450000
v 0.275000 0.725000 0.400000
v 0.275000 0.725000 0.425000
v 0.125000 0.725000 0.450000
v 0.240000 0.725000 0.425000
v 0.240000 0.725000 0.400000
v 0.160000 0.725000 0.425000
v 0.160000 0.725000 0.400000
v 0.125000 0.725000 0.425000
v 0.100000 0.725000 0.425000
v 0.125000 0.725000 0.400000
v 0.100000 0.725000 0.400000
v 0.100000 0.725000 0.400000
v 0.100000 0.775000 0.400000
v 0.100000 0.725000 0.425000
v 0.100000 0.775000 0.425000
v 0.300000 0.775000 0.425000
v 0.300000 0.725000 0.425000
v 0.275000 0.775000 0.450000
v 0.275000 0.725000 0.450000
v 0.160000 0.550000 0.425000
v 0.125000 0.550000 0.425000
v 0.160000 0.725000 0.425000
v 0.125000 0.725000 0.425000
v 0.125000 0.550000 0.400000
v 0.125000 0.725000 0.400000
v 0.125000 0.550000 0.425000
v 0.125000 0.725000 0.425000
v 0.100000 0.500000 0.425000
v 0.100000 0.550000 0.425000
v 0.125000 0.500000 0.450000
v 0.125000 0.550000 0.450000
v 0.275000 0.550000 0.425000
v 0.240000 0.550000 0.425000
v 0.275000 0.725000 0.425000
v 0.240000 0.725000 0.425000
v 0.275000 0.725000 0.400000
v 0.275000 0.550000 0.400000
v 0.275000 0.725000 0.425000
v 0.275000 0.550000 0.425000
v 0.300000 0.550000 0.400000
v 0.300000 0.500000 0.400000
v 0.300000 0.550000 0.425000
v 0.300000 0.500000 0.425000
v 0.240000 0.550000 0.400000
v 0.240000 0.550000 0.425000
v 0.160000 0.550000 0.400000
v 0.160000 0.550000 0.425000
v 0.125000 0.550000 0.450000
v 0.125000 0.550000 0.425000
v 0.100000 0.550000 0.400000
v 0.125000 0.550000 0.400000
v 0.100000 0.550000 0.425000
v 0.275000 0.550000 0.450000
v 0.275000 0.550000 0.425000
v 0.275000 0.550000 0.400000
v 0.300000 0.550000 0.425000
v 0.300000 0.550000 0.400000
v 0.300000 0.500000 0.425000
v 0.300000 0.500000 0.400000
v 0.275000 0.500000 0.450000
v 0.100000 0.500000 0.400000
v 0.125000 0.500000 0.450000
v 0.100000 0.500000 0.425000
v 0.275000 0.500000 0.450000
v 0.125000 0.500000 0.450000
v 0.275000 0.550000 0.450000
v 0.125000 0.550000 0.450000
v 0.100000 0.500000 0.400000
v 0.100000 0.550000 0.400000
v 0.100000 0.500000 0.425000
v 0.100000 0.550000 0.425000
v 0.300000 0.550000 0.425000
v 0.300000 0.500000 0.425000
v 0.275000 0.550000 0.450000
v 0.275000 0.500000 0.450000
v 0.240000 0.550000 0.400000
v 0.240000 0.725000 0.400000
v 0.240000 0.550000 0.425000
v 0.240000 0.725000 0.425000
v 0.160000 0.725000 0.400000
v 0.160000 0.550000 0.400000
v 0.160000 0.725000 0.425000
v 0.160000 0.550000 0.425000
v -0.275000 0.050000 0.400000
v -0.275000 0.300000 0.400000
v -0.125000 0.050000 0.400000
v -0.125000 0.300000 0.400000
v 0.240000 0.950000 0.400000
v 0.160000 0.950000 0.400000
v 0.240000 1.125000 0.400000
v 0.160000 1.125000 0.400000
v 0.290000 0.150000 0.400000
v 0.110000 0.150000 0.400000
v 0.290000 0.325000 0.400000
v 0.110000 0.325000 0.400000
v -0.160000 0.950000 0.400000
v -0.240000 0.950000 0.400000
v -0.160000 1.125000 0.400000
v -0.240000 1.125000 0.400000
v -0.160000 1.350000 0.400000
v -0.240000 1.350000 0.400000
v -0.160000 1.525000 0.400000
v -0.240000 1.525000 0.400000
v 0.240000 1.350000 0.400000
v 0.160000 1.350000 0.400000
v 0.240000 1.525000 0.400000
v 0.160000 1.525000 0.400000
v -0.160000 0.550000 0.400000
v -0.240000 0.550000 0.400000
v -0.160000 0.725000 0.400000
v -0.240000 0.725000 0.400000
v 0.240000 0.550000 0.400000
v 0.160000 0.550000 0.400000
v 0.240000 0.725000 0.400000
v 0.160000 0.725000 0.400000
v 0.400000 0.850000 -0.400000
v 0.400000 0.450000 -0.400000
v 0.400000 0.850000 0.400000
v 0.400000 0.450000 0.400000
v -0.400000 0.450000 -0.400000
v 0.400000 0.450000 -0.400000
v -0.400000 0.850000 -0.400000
v 0.400000 0.850000 -0.400000
v -0.400000 0.450000 -0.400000
v -0.400000 0.850000 -0.400000
v -0.400000 0.450000 0.400000
v -0.400000 0.850000 0.400000
v 0.400000 1.250000 -0.400000
v 0.400000 0.850000 -0.400000
v 0.400000 1.250000 0.400000
v 0.400000 0.850000 0.400000
v -0.400000 0.850000 -0.400000
v 0.400000 0.850000 -0.400000
v -0.400000 1.250000 -0.400000
v 0.400000 1.250000 -0.400000
v -0.400000 0.850000 -0.400000
v -0.400000 1.250000 -0.400000
v -0.400000 0.850000 0.400000
v -0.400000 1.250000 0.400000
v 0.300000 1.125000 0.400000
v 0.275000 0.950000 0.400000
v 0.275000 1.125000 0.400000
v 0.400000 1.250000 0.400000
v 0.300000 1.175000 0.400000
v 0.300000 0.950000 0.400000
v 0.100000 1.175000 0.400000
v 0.300000 0.900000 0.400000
v 0.400000 0.850000 0.400000
v -0.000000 0.850000 0.400000
v 0.100000 0.900000 0.400000
v -0.000000 1.250000 0.400000
v 0.100000 1.125000 0.400000
v 0.100000 0.950000 0.400000
v 0.125000 1.125000 0.400000
v 0.125000 0.950000 0.400000
v 0.400000 1.650000 -0.400000
v 0.400000 1.250000 -0.400000
v 0.400000 1.650000 0.400000
v 0.400000 1.250000 0.400000
v -0.400000 1.250000 -0.400000
v 0.400000 1.250000 -0.400000
v -0.400000 1.650000 -0.400000
v 0.400000 1.650000 -0.400000
v -0.400000 1.250000 -0.400000
v -0.400000 1.650000 -0.400000
v -0.400000 1.250000 0.400000
v -0.400000 1.650000 0.400000
v -0.100000 1.125000 0.400000
v -0.125000 0.950000 0.400000
v -0.125000 1.125000 0.400000
v -0.000000 1.250000 0.400000
v -0.100000 1.175000 0.400000
v -0.100000 0.950000 0.400000
v -0.300000 1.175000 0.400000
v -0.100000 0.900000 0.400000
v -0.000000 0.850000 0.400000
v -0.400000 0.850000 0.400000
v -0.300000 0.900000 0.400000
v -0.400000 1.250000 0.400000
v -0.300000 1.125000 0.400000
v -0.300000 0.950000 0.400000
v -0.275000 1.125000 0.400000
v -0.275000 0.950000 0.400000
v -0.100000 1.525000 0.400000
v -0.125000 1.350000 0.400000
v -0.125000 1.525000 0.400000
v -0.000000 1.650000 0.400000
v -0.100000 1.575000 0.400000
v -0.100000 1.350000 0.400000
v -0.300000 1.575000 0.400000
v -0.100000 1.300000 0.400000
v -0.000000 1.250000 0.400000
v -0.400000 1.250000 0.400000
v -0.300000 1.300000 0.400000
v -0.400000 1.650000 0.400000
v -0.300000 1.525000 0.400000
v -0.300000 1.350000 0.400000
v -0.275000 1.525000 0.400000
v -0.275000 1.350000 0.400000
v 0.300000 1.525000 0.400000
v 0.275000 1.350000 0.400000
v 0.275000 1.525000 0.400000
v 0.400000 1.650000 0.400000
v 0.300000 1.575000 0.400000
v 0.300000 1.350000 0.400000
v 0.100000 1.575000 0.400000
v 0.300000 1.300000 0.400000
v 0.400000 1.250000 0.400000
v -0.000000 1.250000 0.400000
v 0.100000 1.300000 0.400000
v -0.000000 1.650000 0.400000
v 0.100000 1.525000 0.400000
v 0.100000 1.350000 0.400000
v 0.125000 1.525000 0.400000
v 0.125000 1.350000 0.400000
v -0.100000 0.725000 0.400000
v -0.125000 0.550000 0.400000
v -0.125000 0.725000 0.400000
v -0.000000 0.850000 0.400000
v -0.100000 0.775000 0.400000
v -0.100000 0.550000 0.400000
v -0.300000 0.775000 0.400000
v -0.100000 0.500000 0.400000
v -0.000000 0.450000 0.400000
v -0.400000 0.450000 0.400000
v -0.300000 0.500000 0.400000
v -0.400000 0.850000 0.400000
v -0.300000 0.725000 0.400000
v -0.300000 0.550000 0.400000
v -0.275000 0.725000 0.400000
v -0.275000 0.550000 0.400000
v 0.300000 0.725000 0.400000
v 0.275000 0.550000 0.400000
v 0.275000 0.725000 0.400000
v 0.400000 0.850000 0.400000
v 0.300000 0.775000 0.400000
v 0.300000 0.550000 0.400000
v 0.100000 0.775000 0.400000
v 0.300000 0.500000 0.400000
v 0.400000 0.450000 0.400000
v -0.000000 0.450000 0.400000
v 0.100000 0.500000 0.400000
v -0.000000 0.850000 0.400000
v 0.100000 0.725000 0.400000
v 0.100000 0.550000 0.400000
v 0.125000 0.725000 0.400000
v 0.125000 0.550000 0.400000
vt 0.218750 0.025000
vt 0.218750 0.025000
vt 0.218750 0.225000
vt 0.218750 0.225000
vt 0.218750 0.025000
vt 0.218750 0.025000
vt 0.218750 0.025000
vt 0.218750 0.025000
vt 0.218750 0.025000
vt 0.218750 0.225000
vt 0.218750 0.025000
vt 0.218750 0.225000
vt 0.218750 0.225000
vt 0.218750 0.025000
vt 0.218750 0.225000
vt 0.218750 0.025000
vt 0.218750 0.025000
vt 0.218750 0.025000
vt 0.218750 0.225000
vt 0.218750 0.225000
vt 0.218750 0.225000
vt 0.218750 0.225000
vt 0.218750 0.225000
vt 0.218750 0.225000
vt 0.218750 0.025000
vt 0.218750 0.025000
vt 0.218750 0.225000
vt 0.218750 0.225000
vt 0.218750 0.025000
vt 0.218750 0.225000
vt 0.218750 0.025000
vt 0.218750 0.225000
vt 0.218750 0.225000
vt 0.218750 0.025000
vt 0.218750 0.225000
vt 0.218750 0.025000
vt 0.218750 0.025000
vt 0.218750 0.025000
vt 0.218750 0.225000
vt 0.218750 0.162500
vt 0.218750 0.175000
vt 0.218750 0.175000
vt 0.218750 0.225000
vt 0.218750 0.162500
vt 0.218750 0.025000
vt 0.218750 0.025000
vt 0.218750 0.143750
vt 0.218750 0.100000
vt 0.218750 0.143750
vt 0.218750 0.175000
vt 0.218750 0.156250
vt 0.218750 0.100000
vt 0.218750 0.156250
vt 0.218750 0.087500
vt 0.218750 0.075000
vt 0.218750 0.075000
vt 0.218750 0.087500
vt 0.218750 0.175000
vt 0.218750 0.143750
vt 0.218750 0.100000
vt 0.218750 0.143750
vt 0.218750 0.100000
vt 0.468750 0.025000
vt 0.468750 0.025000
vt 0.468750 0.225000
vt 0.468750 0.225000
vt 0.468750 0.025000
vt 0.468750 0.025000
vt 0.468750 0.025000
vt 0.468750 0.025000
vt 0.468750 0.025000
vt 0.468750 0.025000
vt 0.468750 0.025000
vt 0.468750 0.025000
vt 0.468750 0.025000
vt 0.468750 0.025000
vt 0.468750 0.025000
vt 0.468750 0.025000
vt 0.468750 0.225000
vt 0.468750 0.225000
vt 0.468750 0.225000
vt 0.468750 0.225000
vt 0.468750 0.225000
vt 0.468750 0.225000
vt 0.468750 0.225000
vt 0.468750 0.225000
vt 0.468750 0.225000
vt 0.468750 0.225000
vt 0.468750 0.225000
vt 0.468750 0.225000
vt 0.468750 0.025000
vt 0.468750 0.025000
vt 0.468750 0.225000
vt 0.468750 0.225000
vt 0.468750 0.225000
vt 0.468750 0.025000
vt 0.468750 0.225000
vt 0.468750 0.025000
vt 0.468750 0.025000
vt 0.468750 0.025000
vt 0.468750 0.225000
vt 0.468750 0.225000
vt 0.468750 0.025000
vt 0.468750 0.225000
vt 0.468750 0.025000
vt 0.468750 0.225000
vt 0.468750 0.025000
vt 0.468750 0.225000
vt 0.468750 0.025000
vt 0.468750 0.225000
vt 0.468750 0.025000
vt 0.468750 0.025000
vt 0.468750 0.225000
vt 0.468750 0.225000
vt 0.468750 0.225000
vt 0.468750 0.025000
vt 0.468750 0.225000
vt 0.468750 0.025000
vt 0.468750 0.025000
vt 0.468750 0.025000
vt 0.468750 0.225000
vt 0.468750 0.225000
vt 0.468750 0.025000
vt 0.468750 0.025000
vt 0.468750 0.025000
vt 0.468750 0.025000
vt 0.468750 0.025000
vt 0.468750 0.025000
vt 0.468750 0.025000
vt 0.468750 0.025000
vt 0.468750 0.025000
vt 0.468750 0.150000
vt 0.468750 0.025000
vt 0.468750 0.150000
vt 0.468750 0.150000
vt 0.468750 0.025000
vt 0.468750 0.150000
vt 0.468750 0.025000
vt 0.468750 0.162500
vt 0.468750 0.025000
vt 0.468750 0.162500
vt 0.468750 0.025000
vt 0.468750 0.175000
vt 0.468750 0.162500
vt 0.468750 0.175000
vt 0.468750 0.162500
vt 0.468750 0.025000
vt 0.468750 0.162500
vt 0.468750 0.025000
vt 0.468750 0.162500
vt 0.468750 0.175000
vt 0.468750 0.175000
vt 0.468750 0.162500
vt 0.468750 0.162500
vt 0.468750 0.150000
vt 0.468750 0.150000
vt 0.468750 0.150000
vt 0.468750 0.150000
vt 0.468750 0.175000
vt 0.468750 0.175000
vt 0.468750 0.175000
vt 0.468750 0.175000
vt 0.468750 0.025000
vt 0.468750 0.025000
vt 0.468750 0.162500
vt 0.468750 0.150000
vt 0.468750 0.150000
vt 0.468750 0.162500
vt 0.468750 0.175000
vt 0.468750 0.175000
vt 0.468750 0.025000
vt 0.468750 0.025000
vt 0.468750 0.031250
vt 0.468750 0.225000
vt 0.468750 0.031250
vt 0.468750 0.225000
vt 0.468750 0.031250
vt 0.468750 0.031250
vt 0.468750 0.225000
vt 0.468750 0.225000
vt 0.468750 0.031250
vt 0.468750 0.031250
vt 0.468750 0.225000
vt 0.468750 0.225000
vt 0.468750 0.025000
vt 0.468750 0.025000
vt 0.468750 0.025000
vt 0.468750 0.025000
vt 0.468750 0.025000
vt 0.468750 0.025000
vt 0.468750 0.025000
vt 0.468750 0.025000
vt 0.468750 0.225000
vt 0.468750 0.225000
vt 0.468750 0.225000
vt 0.468750 0.225000
vt 0.468750 0.225000
vt 0.468750 0.225000
vt 0.468750 0.225000
vt 0.468750 0.225000
vt 0.468750 0.025000
vt 0.468750 0.025000
vt 0.468750 0.225000
vt 0.468750 0.225000
vt 0.468750 0.025000
vt 0.468750 0.225000
vt 0.468750 0.025000
vt 0.468750 0.225000
vt 0.468750 0.025000
vt 0.468750 0.025000
vt 0.468750 0.225000
vt 0.468750 0.225000
vt 0.468750 0.025000
vt 0.468750 0.225000
vt 0.468750 0.025000
vt 0.468750 0.225000
vt 0.468750 0.025000
vt 0.468750 0.025000
vt 0.468750 0.025000
vt 0.468750 0.025000
vt 0.468750 0.025000
vt 0.468750 0.025000
vt 0.468750 0.025000
vt 0.468750 0.025000
vt 0.468750 0.225000
vt 0.468750 0.225000
vt 0.468750 0.225000
vt 0.468750 0.225000
vt 0.468750 0.225000
vt 0.468750 0.225000
vt 0.468750 0.225000
vt 0.468750 0.225000
vt 0.468750 0.025000
vt 0.468750 0.025000
vt 0.468750 0.225000
vt 0.468750 0.225000
vt 0.468750 0.025000
vt 0.468750 0.225000
vt 0.468750 0.025000
vt 0.468750 0.225000
vt 0.468750 0.025000
vt 0.468750 0.025000
vt 0.468750 0.225000
vt 0.468750 0.225000
vt 0.468750 0.025000
vt 0.468750 0.225000
vt 0.468750 0.025000
vt 0.468750 0.225000
vt 0.468750 0.025000
vt 0.468750 0.025000
vt 0.468750 0.225000
vt 0.468750 0.225000
vt 0.468750 0.025000
vt 0.468750 0.025000
vt 0.468750 0.225000
vt 0.468750 0.225000
vt 0.468750 0.225000
vt 0.468750 0.025000
vt 0.468750 0.225000
vt 0.468750 0.025000
vt 0.468750 0.225000
vt 0.468750 0.025000
vt 0.468750 0.225000
vt 0.468750 0.025000
vt 0.468750 0.025000
vt 0.468750 0.025000
vt 0.468750 0.225000
vt 0.468750 0.225000
vt 0.468750 0.225000
vt 0.468750 0.025000
vt 0.468750 0.225000
vt 0.468750 0.025000
vt 0.468750 0.025000
vt 0.468750 0.025000
vt 0.468750 0.225000
vt 0.468750 0.225000
vt 0.468750 0.025000
vt 0.468750 0.025000
vt 0.468750 0.225000
vt 0.468750 0.225000
vt 0.468750 0.025000
vt 0.468750 0.225000
vt 0.468750 0.025000
vt 0.468750 0.225000
vt 0.468750 0.025000
vt 0.468750 0.225000
vt 0.468750 0.025000
vt 0.468750 0.225000
vt 0.468750 0.025000
vt 0.468750 0.225000
vt 0.468750 0.025000
vt 0.468750 0.225000
vt 0.468750 0.025000
vt 0.468750 0.025000
vt 0.468750 0.225000
vt 0.468750 0.225000
vt 0.468750 0.225000
vt 0.468750 0.225000
vt 0.468750 0.225000
vt 0.468750 0.225000
vt 0.468750 0.225000
vt 0.468750 0.225000
vt 0.468750 0.225000
vt 0.468750 0.225000
vt 0.468750 0.225000
vt 0.468750 0.225000
vt 0.468750 0.225000
vt 0.468750 0.225000
vt 0.468750 0.225000
vt 0.468750 0.225000
vt 0.468750 0.225000
vt 0.468750 0.225000
vt 0.468750 0.225000
vt 0.468750 0.225000
vt 0.468750 0.225000
vt 0.468750 0.225000
vt 0.468750 0.025000
vt 0.468750 0.025000
vt 0.468750 0.025000
vt 0.468750 0.025000
vt 0.468750 0.025000
vt 0.468750 0.025000
vt 0.468750 0.025000
vt 0.468750 0.025000
vt 0.468750 0.025000
vt 0.468750 0.025000
vt 0.468750 0.025000
vt 0.468750 0.025000
vt 0.468750 0.125000
vt 0.468750 0.125000
vt 0.468750 0.125000
vt 0.468750 0.125000
vt 0.468750 0.125000
vt 0.468750 0.125000
vt 0.468750 0.125000
vt 0.468750 0.125000
vt 0.468750 0.125000
vt 0.468750 0.125000
vt 0.468750 0.225000
vt 0.468750 0.225000
vt 0.468750 0.125000
vt 0.468750 0.125000
vt 0.468750 0.225000
vt 0.468750 0.225000
vt 0.468750 0.125000
vt 0.468750 0.225000
vt 0.468750 0.125000
vt 0.468750 0.225000
vt 0.468750 0.125000
vt 0.468750 0.225000
vt 0.468750 0.125000
vt 0.468750 0.225000
vt 0.468750 0.125000
vt 0.468750 0.125000
vt 0.468750 0.225000
vt 0.468750 0.225000
vt 0.468750 0.225000
vt 0.468750 0.125000
vt 0.468750 0.225000
vt 0.468750 0.125000
vt 0.468750 0.225000
vt 0.468750 0.125000
vt 0.468750 0.225000
vt 0.468750 0.125000
vt 0.468750 0.225000
vt 0.468750 0.125000
vt 0.468750 0.225000
vt 0.468750 0.125000
vt 0.468750 0.225000
vt 0.468750 0.225000
vt 0.468750 0.225000
vt 0.468750 0.225000
vt 0.468750 0.025000
vt 0.468750 0.225000
vt 0.468750 0.025000
vt 0.468750 0.225000
vt 0.468750 0.025000
vt 0.468750 0.025000
vt 0.468750 0.225000
vt 0.468750 0.225000
vt 0.468750 0.225000
vt 0.468750 0.025000
vt 0.468750 0.225000
vt 0.468750 0.025000
vt 0.468750 0.025000
vt 0.468750 0.025000
vt 0.468750 0.225000
vt 0.468750 0.225000
vt 0.468750 0.225000
vt 0.468750 0.225000
vt 0.468750 0.225000
vt 0.468750 0.225000
vt 0.468750 0.025000
vt 0.468750 0.225000
vt 0.468750 0.025000
vt 0.468750 0.225000
vt 0.468750 0.025000
vt 0.468750 0.025000
vt 0.468750 0.225000
vt 0.468750 0.225000
vt 0.468750 0.225000
vt 0.468750 0.025000
vt 0.468750 0.225000
vt 0.468750 0.025000
vt 0.468750 0.025000
vt 0.468750 0.025000
vt 0.468750 0.225000
vt 0.468750 0.225000
vt 0.468750 0.225000
vt 0.468750 0.225000
vt 0.468750 0.225000
vt 0.468750 0.225000
vt 0.468750 0.025000
vt 0.468750 0.225000
vt 0.468750 0.025000
vt 0.468750 0.225000
vt 0.468750 0.025000
vt 0.468750 0.025000
vt 0.468750 0.225000
vt 0.468750 0.225000
vt 0.468750 0.225000
vt 0.468750 0.025000
vt 0.468750 0.225000
vt 0.468750 0.025000
vt 0.468750 0.025000
vt 0.468750 0.025000
vt 0.468750 0.225000
vt 0.468750 0.225000
vt 0.468750 0.143750
vt 0.468750 0.156250
vt 0.468750 0.143750
vt 0.468750 0.156250
vt 0.468750 0.143750
vt 0.468750 0.143750
vt 0.468750 0.156250
vt 0.468750 0.156250
vt 0.468750 0.156250
vt 0.468750 0.156250
vt 0.468750 0.156250
vt 0.468750 0.156250
vt 0.468750 0.156250
vt 0.468750 0.156250
vt 0.468750 0.156250
vt 0.468750 0.143750
vt 0.468750 0.156250
vt 0.468750 0.143750
vt 0.468750 0.143750
vt 0.468750 0.143750
vt 0.468750 0.143750
vt 0.468750 0.143750
vt 0.468750 0.143750
vt 0.468750 0.143750
vt 0.468750 0.143750
vt 0.468750 0.143750
vt 0.468750 0.143750
vt 0.468750 0.143750
vt 0.468750 0.143750
vt 0.468750 0.143750
vt 0.468750 0.143750
vt 0.468750 0.143750
vt 0.468750 0.143750
vt 0.468750 0.156250
vt 0.468750 0.143750
vt 0.468750 0.156250
vt 0.468750 0.156250
vt 0.468750 0.143750
vt 0.468750 0.156250
vt 0.468750 0.143750
vt 0.468750 0.100000
vt 0.468750 0.100000
vt 0.468750 0.143750
vt 0.468750 0.143750
vt 0.468750 0.100000
vt 0.468750 0.143750
vt 0.468750 0.100000
vt 0.468750 0.143750
vt 0.468750 0.087500
vt 0.468750 0.100000
vt 0.468750 0.087500
vt 0.468750 0.100000
vt 0.468750 0.100000
vt 0.468750 0.100000
vt 0.468750 0.143750
vt 0.468750 0.143750
vt 0.468750 0.143750
vt 0.468750 0.100000
vt 0.468750 0.143750
vt 0.468750 0.100000
vt 0.468750 0.100000
vt 0.468750 0.087500
vt 0.468750 0.100000
vt 0.468750 0.087500
vt 0.468750 0.100000
vt 0.468750 0.100000
vt 0.468750 0.100000
vt 0.468750 0.100000
vt 0.468750 0.100000
vt 0.468750 0.100000
vt 0.468750 0.100000
vt 0.468750 0.100000
vt 0.468750 0.100000
vt 0.468750 0.100000
vt 0.468750 0.100000
vt 0.468750 0.100000
vt 0.468750 0.100000
vt 0.468750 0.100000
vt 0.468750 0.087500
vt 0.468750 0.087500
vt 0.468750 0.087500
vt 0.468750 0.087500
vt 0.468750 0.087500
vt 0.468750 0.087500
vt 0.468750 0.087500
vt 0.468750 0.087500
vt 0.468750 0.100000
vt 0.468750 0.100000
vt 0.468750 0.087500
vt 0.468750 0.100000
vt 0.468750 0.087500
vt 0.468750 0.100000
vt 0.468750 0.100000
vt 0.468750 0.087500
vt 0.468750 0.100000
vt 0.468750 0.087500
vt 0.468750 0.100000
vt 0.468750 0.143750
vt 0.468750 0.100000
vt 0.468750 0.143750
vt 0.468750 0.143750
vt 0.468750 0.100000
vt 0.468750 0.143750
vt 0.468750 0.100000
vt 0.468750 0.156250
vt 0.468750 0.143750
vt 0.468750 0.156250
vt 0.468750 0.143750
vt 0.468750 0.143750
vt 0.468750 0.156250
vt 0.468750 0.143750
vt 0.468750 0.156250
vt 0.468750 0.100000
vt 0.468750 0.100000
vt 0.468750 0.143750
vt 0.468750 0.143750
vt 0.468750 0.100000
vt 0.468750 0.143750
vt 0.468750 0.100000
vt 0.468750 0.143750
vt 0.468750 0.143750
vt 0.468750 0.100000
vt 0.468750 0.143750
vt 0.468750 0.100000
vt 0.468750 0.100000
vt 0.468750 0.100000
vt 0.468750 0.143750
vt 0.468750 0.143750
vt 0.468750 0.143750
vt 0.468750 0.100000
vt 0.468750 0.143750
vt 0.468750 0.100000
vt 0.468750 0.100000
vt 0.468750 0.143750
vt 0.468750 0.100000
vt 0.468750 0.143750
vt 0.468750 0.100000
vt 0.468750 0.087500
vt 0.468750 0.100000
vt 0.468750 0.087500
vt 0.468750 0.087500
vt 0.468750 0.100000
vt 0.468750 0.087500
vt 0.468750 0.100000
vt 0.468750 0.100000
vt 0.468750 0.087500
vt 0.468750 0.100000
vt 0.468750 0.087500
vt 0.468750 0.156250
vt 0.468750 0.143750
vt 0.468750 0.156250
vt 0.468750 0.143750
vt 0.468750 0.087500
vt 0.468750 0.087500
vt 0.468750 0.087500
vt 0.468750 0.087500
vt 0.468750 0.087500
vt 0.468750 0.087500
vt 0.468750 0.087500
vt 0.468750 0.100000
vt 0.468750 0.087500
vt 0.468750 0.100000
vt 0.468750 0.143750
vt 0.468750 0.143750
vt 0.468750 0.156250
vt 0.468750 0.156250
vt 0.468750 0.156250
vt 0.468750 0.156250
vt 0.468750 0.156250
vt 0.468750 0.156250
vt 0.468750 0.156250
vt 0.468750 0.156250
vt 0.468750 0.143750
vt 0.468750 0.143750
vt 0.468750 0.143750
vt 0.468750 0.143750
vt 0.468750 0.143750
vt 0.468750 0.143750
vt 0.468750 0.143750
vt 0.468750 0.143750
vt 0.468750 0.143750
vt 0.468750 0.143750
vt 0.468750 0.143750
vt 0.468750 0.143750
vt 0.468750 0.143750
vt 0.468750 0.143750
vt 0.468750 0.100000
vt 0.468750 0.100000
vt 0.468750 0.100000
vt 0.468750 0.100000
vt 0.468750 0.100000
vt 0.468750 0.100000
vt 0.468750 0.100000
vt 0.468750 0.100000
vt 0.468750 0.100000
vt 0.468750 0.100000
vt 0.468750 0.100000
vt 0.468750 0.100000
vt 0.468750 0.100000
vt 0.468750 0.100000
vt 0.468750 0.143750
vt 0.468750 0.156250
vt 0.468750 0.143750
vt 0.468750 0.156250
vt 0.468750 0.087500
vt 0.468750 0.100000
vt 0.468750 0.087500
vt 0.468750 0.100000
vt 0.468750 0.143750
vt 0.468750 0.156250
vt 0.468750 0.143750
vt 0.468750 0.156250
vt 0.468750 0.143750
vt 0.468750 0.143750
vt 0.468750 0.156250
vt 0.468750 0.156250
vt 0.468750 0.156250
vt 0.468750 0.156250
vt 0.468750 0.156250
vt 0.468750 0.156250
vt 0.468750 0.156250
vt 0.468750 0.156250
vt 0.468750 0.156250
vt 0.468750 0.143750
vt 0.468750 0.156250
vt 0.468750 0.143750
vt 0.468750 0.143750
vt 0.468750 0.143750
vt 0.468750 0.143750
vt 0.468750 0.143750
vt 0.468750 0.143750
vt 0.468750 0.143750
vt 0.468750 0.143750
vt 0.468750 0.143750
vt 0.468750 0.143750
vt 0.468750 0.143750
vt 0.468750 0.143750
vt 0.468750 0.143750
vt 0.468750 0.143750
vt 0.468750 0.143750
vt 0.468750 0.143750
vt 0.468750 0.156250
vt 0.468750 0.143750
vt 0.468750 0.156250
vt 0.468750 0.156250
vt 0.468750 0.143750
vt 0.468750 0.156250
vt 0.468750 0.143750
vt 0.468750 0.100000
vt 0.468750 0.100000
vt 0.468750 0.143750
vt 0.468750 0.143750
vt 0.468750 0.100000
vt 0.468750 0.143750
vt 0.468750 0.100000
vt 0.468750 0.143750
vt 0.468750 0.087500
vt 0.468750 0.100000
vt 0.468750 0.087500
vt 0.468750 0.100000
vt 0.468750 0.100000
vt 0.468750 0.100000
vt 0.468750 0.143750
vt 0.468750 0.143750
vt 0.468750 0.143750
vt 0.468750 0.100000
vt 0.468750 0.143750
vt 0.468750 0.100000
vt 0.468750 0.100000
vt 0.468750 0.087500
vt 0.468750 0.100000
vt 0.468750 0.087500
vt 0.468750 0.100000
vt 0.468750 0.100000
vt 0.468750 0.100000
vt 0.468750 0.100000
vt 0.468750 0.100000
vt 0.468750 0.100000
vt 0.468750 0.100000
vt 0.468750 0.100000
vt 0.468750 0.100000
vt 0.468750 0.100000
vt 0.468750 0.100000
vt 0.468750 0.100000
vt 0.468750 0.100000
vt 0.468750 0.100000
vt 0.468750 0.087500
vt 0.468750 0.087500
vt 0.468750 0.087500
vt 0.468750 0.087500
vt 0.468750 0.087500
vt 0.468750 0.087500
vt 0.468750 0.087500
vt 0.468750 0.087500
vt 0.468750 0.100000
vt 0.468750 0.100000
vt 0.468750 0.087500
vt 0.468750 0.100000
vt 0.468750 0.087500
vt 0.468750 0.100000
vt 0.468750 0.100000
vt 0.468750 0.087500
vt 0.468750 0.100000
vt 0.468750 0.087500
vt 0.468750 0.100000
vt 0.468750 0.143750
vt 0.468750 0.100000
vt 0.468750 0.143750
vt 0.468750 0.143750
vt 0.468750 0.100000
vt 0.468750 0.143750
vt 0.468750 0.100000
vt 0.468750 0.143750
vt 0.468750 0.156250
vt 0.468750 0.143750
vt 0.468750 0.156250
vt 0.468750 0.143750
vt 0.468750 0.143750
vt 0.468750 0.156250
vt 0.468750 0.156250
vt 0.468750 0.156250
vt 0.468750 0.156250
vt 0.468750 0.156250
vt 0.468750 0.156250
vt 0.468750 0.156250
vt 0.468750 0.156250
vt 0.468750 0.156250
vt 0.468750 0.143750
vt 0.468750 0.156250
vt 0.468750 0.143750
vt 0.468750 0.143750
vt 0.468750 0.143750
vt 0.468750 0.143750
vt 0.468750 0.143750
vt 0.468750 0.143750
vt 0.468750 0.143750
vt 0.468750 0.143750
vt 0.468750 0.143750
vt 0.468750 0.143750
vt 0.468750 0.143750
vt 0.468750 0.143750
vt 0.468750 0.143750
vt 0.468750 0.143750
vt 0.468750 0.143750
vt 0.468750 0.143750
vt 0.468750 0.156250
vt 0.468750 0.143750
vt 0.468750 0.156250
vt 0.468750 0.156250
vt 0.468750 0.143750
vt 0.468750 0.156250
vt 0.468750 0.143750
vt 0.468750 0.100000
vt 0.468750 0.100000
vt 0.468750 0.143750
vt 0.468750 0.143750
vt 0.468750 0.100000
vt 0.468750 0.143750
vt 0.468750 0.100000
vt 0.468750 0.143750
vt 0.468750 0.087500
vt 0.468750 0.100000
vt 0.468750 0.087500
vt 0.468750 0.100000
vt 0.468750 0.100000
vt 0.468750 0.100000
vt 0.468750 0.143750
vt 0.468750 0.143750
vt 0.468750 0.143750
vt 0.468750 0.100000
vt 0.468750 0.143750
vt 0.468750 0.100000
vt 0.468750 0.100000
vt 0.468750 0.087500
vt 0.468750 0.100000
vt 0.468750 0.087500
vt 0.468750 0.100000
vt 0.468750 0.100000
vt 0.468750 0.100000
vt 0.468750 0.100000
vt 0.468750 0.100000
vt 0.468750 0.100000
vt 0.468750 0.100000
vt 0.468750 0.100000
vt 0.468750 0.100000
vt 0.468750 0.100000
vt 0.468750 0.100000
vt 0.468750 0.100000
vt 0.468750 0.100000
vt 0.468750 0.100000
vt 0.468750 0.087500
vt 0.468750 0.087500
vt 0.468750 0.087500
vt 0.468750 0.087500
vt 0.468750 0.087500
vt 0.468750 0.087500
vt 0.468750 0.087500
vt 0.468750 0.087500
vt 0.468750 0.100000
vt 0.468750 0.100000
vt 0.468750 0.087500
vt 0.468750 0.100000
vt 0.468750 0.087500
vt 0.468750 0.100000
vt 0.468750 0.100000
vt 0.468750 0.087500
vt 0.468750 0.100000
vt 0.468750 0.087500
vt 0.468750 0.100000
vt 0.468750 0.143750
vt 0.468750 0.100000
vt 0.468750 0.143750
vt 0.468750 0.143750
vt 0.468750 0.100000
vt 0.468750 0.143750
vt 0.468750 0.100000
vt 0.468750 0.143750
vt 0.468750 0.156250
vt 0.468750 0.143750
vt 0.468750 0.156250
vt 0.468750 0.143750
vt 0.468750 0.143750
vt 0.468750 0.156250
vt 0.468750 0.156250
vt 0.468750 0.156250
vt 0.468750 0.156250
vt 0.468750 0.156250
vt 0.468750 0.156250
vt 0.468750 0.156250
vt 0.468750 0.156250
vt 0.468750 0.156250
vt 0.468750 0.143750
vt 0.468750 0.156250
vt 0.468750 0.143750
vt 0.468750 0.143750
vt 0.468750 0.143750
vt 0.468750 0.143750
vt 0.468750 0.143750
vt 0.468750 0.143750
vt 0.468750 0.143750
vt 0.468750 0.143750
vt 0.468750 0.143750
vt 0.468750 0.143750
vt 0.468750 0.143750
vt 0.468750 0.143750
vt 0.468750 0.143750
vt 0.468750 0.143750
vt 0.468750 0.143750
vt 0.468750 0.143750
vt 0.468750 0.156250
vt 0.468750 0.143750
vt 0.468750 0.156250
vt 0.468750 0.156250
vt 0.468750 0.143750
vt 0.468750 0.156250
vt 0.468750 0.143750
vt 0.468750 0.100000
vt 0.468750 0.100000
vt 0.468750 0.143750
vt 0.468750 0.143750
vt 0.468750 0.100000
vt 0.468750 0.143750
vt 0.468750 0.100000
vt 0.468750 0.143750
vt 0.468750 0.087500
vt 0.468750 0.100000
vt 0.468750 0.087500
vt 0.468750 0.100000
vt 0.468750 0.100000
vt 0.468750 0.100000
vt 0.468750 0.143750
vt 0.468750 0.143750
vt 0.468750 0.143750
vt 0.468750 0.100000
vt 0.468750 0.143750
vt 0.468750 0.100000
vt 0.468750 0.100000
vt 0.468750 0.087500
vt 0.468750 0.100000
vt 0.468750 0.087500
vt 0.468750 0.100000
vt 0.468750 0.100000
vt 0.468750 0.100000
vt 0.468750 0.100000
vt 0.468750 0.100000
vt 0.468750 0.100000
vt 0.468750 0.100000
vt 0.468750 0.100000
vt 0.468750 0.100000
vt 0.468750 0.100000
vt 0.468750 0.100000
vt 0.468750 0.100000
vt 0.468750 0.100000
vt 0.468750 0.100000
vt 0.468750 0.087500
vt 0.468750 0.087500
vt 0.468750 0.087500
vt 0.468750 0.087500
vt 0.468750 0.087500
vt 0.468750 0.087500
vt 0.468750 0.087500
vt 0.468750 0.087500
vt 0.468750 0.100000
vt 0.468750 0.100000
vt 0.468750 0.087500
vt 0.468750 0.100000
vt 0.468750 0.087500
vt 0.468750 0.100000
vt 0.468750 0.100000
vt 0.468750 0.087500
vt 0.468750 0.100000
vt 0.468750 0.087500
vt 0.468750 0.100000
vt 0.468750 0.143750
vt 0.468750 0.100000
vt 0.468750 0.143750
vt 0.468750 0.143750
vt 0.468750 0.100000
vt 0.468750 0.143750
vt 0.468750 0.100000
vt 0.468750 0.143750
vt 0.468750 0.156250
vt 0.468750 0.143750
vt 0.468750 0.156250
vt 0.468750 0.143750
vt 0.468750 0.143750
vt 0.468750 0.156250
vt 0.468750 0.156250
vt 0.468750 0.156250
vt 0.468750 0.156250
vt 0.468750 0.156250
vt 0.468750 0.156250
vt 0.468750 0.156250
vt 0.468750 0.156250
vt 0.468750 0.156250
vt 0.468750 0.143750
vt 0.468750 0.156250
vt 0.468750 0.143750
vt 0.468750 0.143750
vt 0.468750 0.143750
vt 0.468750 0.143750
vt 0.468750 0.143750
vt 0.468750 0.143750
vt 0.468750 0.143750
vt 0.468750 0.143750
vt 0.468750 0.143750
vt 0.468750 0.143750
vt 0.468750 0.143750
vt 0.468750 0.143750
vt 0.468750 0.143750
vt 0.468750 0.143750
vt 0.468750 0.143750
vt 0.468750 0.143750
vt 0.468750 0.156250
vt 0.468750 0.143750
vt 0.468750 0.156250
vt 0.468750 0.156250
vt 0.468750 0.143750
vt 0.468750 0.156250
vt 0.468750 0.143750
vt 0.468750 0.100000
vt 0.468750 0.100000
vt 0.468750 0.143750
vt 0.468750 0.143750
vt 0.468750 0.100000
vt 0.468750 0.143750
vt 0.468750 0.100000
vt 0.468750 0.143750
vt 0.468750 0.087500
vt 0.468750 0.100000
vt 0.468750 0.087500
vt 0.468750 0.100000
vt 0.468750 0.100000
vt 0.468750 0.100000
vt 0.468750 0.143750
vt 0.468750 0.143750
vt 0.468750 0.143750
vt 0.468750 0.100000
vt 0.468750 0.143750
vt 0.468750 0.100000
vt 0.468750 0.100000
vt 0.468750 0.087500
vt 0.468750 0.100000
vt 0.468750 0.087500
vt 0.468750 0.100000
vt 0.468750 0.100000
vt 0.468750 0.100000
vt 0.468750 0.100000
vt 0.468750 0.100000
vt 0.468750 0.100000
vt 0.468750 0.100000
vt 0.468750 0.100000
vt 0.468750 0.100000
vt 0.468750 0.100000
vt 0.468750 0.100000
vt 0.468750 0.100000
vt 0.468750 0.100000
vt 0.468750 0.100000
vt 0.468750 0.087500
vt 0.468750 0.087500
vt 0.468750 0.087500
vt 0.468750 0.087500
vt 0.468750 0.087500
vt 0.468750 0.087500
vt 0.468750 0.087500
vt 0.468750 0.087500
vt 0.468750 0.100000
vt 0.468750 0.100000
vt 0.468750 0.087500
vt 0.468750 0.100000
vt 0.468750 0.087500
vt 0.468750 0.100000
vt 0.468750 0.100000
vt 0.468750 0.087500
vt 0.468750 0.100000
vt 0.468750 0.087500
vt 0.468750 0.100000
vt 0.468750 0.143750
vt 0.468750 0.100000
vt 0.468750 0.143750
vt 0.468750 0.143750
vt 0.468750 0.100000
vt 0.468750 0.143750
vt 0.468750 0.100000
vt 0.468750 0.143750
vt 0.468750 0.156250
vt 0.468750 0.143750
vt 0.468750 0.156250
vt 0.468750 0.143750
vt 0.468750 0.143750
vt 0.468750 0.156250
vt 0.468750 0.156250
vt 0.468750 0.156250
vt 0.468750 0.156250
vt 0.468750 0.156250
vt 0.468750 0.156250
vt 0.468750 0.156250
vt 0.468750 0.156250
vt 0.468750 0.156250
vt 0.468750 0.143750
vt 0.468750 0.156250
vt 0.468750 0.143750
vt 0.468750 0.143750
vt 0.468750 0.143750
vt 0.468750 0.143750
vt 0.468750 0.143750
vt 0.468750 0.143750
vt 0.468750 0.143750
vt 0.468750 0.143750
vt 0.468750 0.143750
vt 0.468750 0.143750
vt 0.468750 0.143750
vt 0.468750 0.143750
vt 0.468750 0.143750
vt 0.468750 0.143750
vt 0.468750 0.143750
vt 0.468750 0.143750
vt 0.468750 0.156250
vt 0.468750 0.143750
vt 0.468750 0.156250
vt 0.468750 0.156250
vt 0.468750 0.143750
vt 0.468750 0.156250
vt 0.468750 0.143750
vt 0.468750 0.100000
vt 0.468750 0.100000
vt 0.468750 0.143750
vt 0.468750 0.143750
vt 0.468750 0.100000
vt 0.468750 0.143750
vt 0.468750 0.100000
vt 0.468750 0.143750
vt 0.468750 0.087500
vt 0.468750 0.100000
vt 0.468750 0.087500
vt 0.468750 0.100000
vt 0.468750 0.100000
vt 0.468750 0.100000
vt 0.468750 0.143750
vt 0.468750 0.143750
vt 0.468750 0.143750
vt 0.468750 0.100000
vt 0.468750 0.143750
vt 0.468750 0.100000
vt 0.468750 0.100000
vt 0.468750 0.087500
vt 0.468750 0.100000
vt 0.468750 0.087500
vt 0.468750 0.100000
vt 0.468750 0.100000
vt 0.468750 0.100000
vt 0.468750 0.100000
vt 0.468750 0.100000
vt 0.468750 0.100000
vt 0.468750 0.100000
vt 0.468750 0.100000
vt 0.468750 0.100000
vt 0.468750 0.100000
vt 0.468750 0.100000
vt 0.468750 0.100000
vt 0.468750 0.100000
vt 0.468750 0.100000
vt 0.468750 0.087500
vt 0.468750 0.087500
vt 0.468750 0.087500
vt 0.468750 0.087500
vt 0.468750 0.087500
vt 0.468750 0.087500
vt 0.468750 0.087500
vt 0.468750 0.087500
vt 0.468750 0.100000
vt 0.468750 0.100000
vt 0.468750 0.087500
vt 0.468750 0.100000
vt 0.468750 0.087500
vt 0.468750 0.100000
vt 0.468750 0.100000
vt 0.468750 0.087500
vt 0.468750 0.100000
vt 0.468750 0.087500
vt 0.468750 0.100000
vt 0.468750 0.143750
vt 0.468750 0.100000
vt 0.468750 0.143750
vt 0.468750 0.143750
vt 0.468750 0.100000
vt 0.468750 0.143750
vt 0.468750 0.100000
vt 0.093750 0.025000
vt 0.093750 0.150000
vt 0.093750 0.025000
vt 0.093750 0.150000
vt 0.093750 0.100000
vt 0.093750 0.100000
vt 0.093750 0.143750
vt 0.093750 0.143750
vt 0.093750 0.100000
vt 0.093750 0.100000
vt 0.093750 0.143750
vt 0.093750 0.143750
vt 0.093750 0.100000
vt 0.093750 0.100000
vt 0.093750 0.143750
vt 0.093750 0.143750
vt 0.093750 0.100000
vt 0.093750 0.100000
vt 0.093750 0.143750
vt 0.093750 0.143750
vt 0.093750 0.100000
vt 0.093750 0.100000
vt 0.093750 0.143750
vt 0.093750 0.143750
vt 0.093750 0.100000
vt 0.093750 0.100000
vt 0.093750 0.143750
vt 0.093750 0.143750
vt 0.093750 0.100000
vt 0.093750 0.100000
vt 0.093750 0.143750
vt 0.093750 0.143750
vt 0.968750 0.425000
vt 0.968750 0.325000
vt 0.968750 0.425000
vt 0.968750 0.325000
vt 0.968750 0.325000
vt 0.968750 0.325000
vt 0.968750 0.425000
vt 0.968750 0.425000
vt 0.968750 0.325000
vt 0.968750 0.425000
vt 0.968750 0.325000
vt 0.968750 0.425000
vt 0.968750 0.425000
vt 0.968750 0.325000
vt 0.968750 0.425000
vt 0.968750 0.325000
vt 0.968750 0.325000
vt 0.968750 0.325000
vt 0.968750 0.425000
vt 0.968750 0.425000
vt 0.968750 0.325000
vt 0.968750 0.425000
vt 0.968750 0.325000
vt 0.968750 0.425000
vt 0.968750 0.393750
vt 0.968750 0.350000
vt 0.968750 0.393750
vt 0.968750 0.425000
vt 0.968750 0.406250
vt 0.968750 0.350000
vt 0.968750 0.406250
vt 0.968750 0.337500
vt 0.968750 0.325000
vt 0.968750 0.325000
vt 0.968750 0.337500
vt 0.968750 0.425000
vt 0.968750 0.393750
vt 0.968750 0.350000
vt 0.968750 0.393750
vt 0.968750 0.350000
vt 0.968750 0.425000
vt 0.968750 0.325000
vt 0.968750 0.425000
vt 0.968750 0.325000
vt 0.968750 0.325000
vt 0.968750 0.325000
vt 0.968750 0.425000
vt 0.968750 0.425000
vt 0.968750 0.325000
vt 0.968750 0.425000
vt 0.968750 0.325000
vt 0.968750 0.425000
vt 0.968750 0.393750
vt 0.968750 0.350000
vt 0.968750 0.393750
vt 0.968750 0.425000
vt 0.968750 0.406250
vt 0.968750 0.350000
vt 0.968750 0.406250
vt 0.968750 0.337500
vt 0.968750 0.325000
vt 0.968750 0.325000
vt 0.968750 0.337500
vt 0.968750 0.425000
vt 0.968750 0.393750
vt 0.968750 0.350000
vt 0.968750 0.393750
vt 0.968750 0.350000
vt 0.968750 0.393750
vt 0.968750 0.350000
vt 0.968750 0.393750
vt 0.968750 0.425000
vt 0.968750 0.406250
vt 0.968750 0.350000
vt 0.968750 0.406250
vt 0.968750 0.337500
vt 0.968750 0.325000
vt 0.968750 0.325000
vt 0.968750 0.337500
vt 0.968750 0.425000
vt 0.968750 0.393750
vt 0.968750 0.350000
vt 0.968750 0.393750
vt 0.968750 0.350000
vt 0.968750 0.393750
vt 0.968750 0.350000
vt 0.968750 0.393750
vt 0.968750 0.425000
vt 0.968750 0.406250
vt 0.968750 0.350000
vt 0.968750 0.406250
vt 0.968750 0.337500
vt 0.968750 0.325000
vt 0.968750 0.325000
vt 0.968750 0.337500
vt 0.968750 0.425000
vt 0.968750 0.393750
vt 0.968750 0.350000
vt 0.968750 0.393750
vt 0.968750 0.350000
vt 0.968750 0.393750
vt 0.968750 0.350000
vt 0.968750 0.393750
vt 0.968750 0.425000
vt 0.968750 0.406250
vt 0.968750 0.350000
vt 0.968750 0.406250
vt 0.968750 0.337500
vt 0.968750 0.325000
vt 0.968750 0.325000
vt 0.968750 0.337500
vt 0.968750 0.425000
vt 0.968750 0.393750
vt 0.968750 0.350000
vt 0.968750 0.393750
vt 0.968750 0.350000
vt 0.968750 0.393750
vt 0.968750 0.350000
vt 0.968750 0.393750
vt 0.968750 0.425000
vt 0.968750 0.406250
vt 0.968750 0.350000
vt 0.968750 0.406250
vt 0.968750 0.337500
vt 0.968750 0.325000
vt 0.968750 0.325000
vt 0.968750 0.337500
vt 0.968750 0.425000
vt 0.968750 0.393750
vt 0.968750 0.350000
vt 0.968750 0.393750
vt 0.968750 0.350000
usemtl colormap
f 3/3 2/2 1/1
f 2/2 3/3 4/4
f 7/7 6/6 5/5
f 6/6 7/7 8/8
f 11/11 10/10 9/9
f 10/10 11/11 12/12
f 15/15 14/14 13/13
f 14/14 15/15 16/16
f 19/19 18/18 17/17
f 18/18 19/19 20/20
f 23/23 22/22 21/21
f 22/22 23/23 24/24
f 27/27 26/26 25/25
f 26/26 27/27 28/28
f 31/31 30/30 29/29
f 30/30 31/31 32/32
f 35/35 34/34 33/33
f 34/34 35/35 36/36
f 39/39 38/38 37/37
f 38/38 39/39 40/40
f 40/40 39/39 41/41
f 41/41 39/39 42/42
f 43/43 42/42 39/39
f 43/43 44/44 42/42
f 45/45 44/44 43/43
f 44/44 45/45 46/46
f 49/49 48/48 47/47
f 48/48 50/50 47/47
f 47/47 50/50 51/51
f 52/52 50/50 48/48
f 51/51 50/50 53/53
f 54/54 50/50 52/52
f 54/54 55/55 50/50
f 55/55 54/54 56/56
f 57/57 56/56 54/54
f 58/58 53/53 50/50
f 56/56 57/57 58/58
f 58/58 59/59 53/53
f 58/58 57/57 60/60
f 58/58 60/60 59/59
f 59/59 60/60 61/61
f 61/61 60/60 62/62
f 65/65 64/64 63/63
f 64/64 65/65 66/66
f 69/69 68/68 67/67
f 70/70 68/68 69/69
f 71/71 68/68 70/70
f 71/71 72/72 68/68
f 73/73 72/72 71/71
f 72/72 73/73 74/74
f 75/75 74/74 73/73
f 75/75 76/76 74/74
f 77/77 76/76 75/75
f 76/76 77/77 78/78
f 81/81 80/80 79/79
f 80/80 81/81 82/82
f 82/82 81/81 83/83
f 83/83 81/81 84/84
f 85/85 80/80 82/82
f 85/85 86/86 80/80
f 85/85 87/87 86/86
f 88/88 87/87 85/85
f 89/89 87/87 88/88
f 87/87 89/89 90/90
f 93/93 92/92 91/91
f 92/92 93/93 94/94
f 97/97 96/96 95/95
f 96/96 97/97 98/98
f 101/101 100/100 99/99
f 100/100 101/101 102/102
f 105/105 104/104 103/103
f 104/104 105/105 106/106
f 109/109 108/108 107/107
f 108/108 109/109 110/110
f 113/113 112/112 111/111
f 112/112 113/113 114/114
f 117/117 116/116 115/115
f 116/116 117/117 118/118
f 121/121 120/120 119/119
f 120/120 121/121 122/122
f 125/125 124/124 123/123
f 124/124 125/125 126/126
f 129/129 128/128 127/127
f 128/128 129/129 130/130
f 133/133 132/132 131/131
f 132/132 133/133 134/134
f 137/137 136/136 135/135
f 136/136 137/137 138/138
f 141/141 140/140 139/139
f 140/140 141/141 142/142
f 145/145 144/144 143/143
f 144/144 145/145 146/146
f 149/149 148/148 147/147
f 148/148 149/149 150/150
f 153/153 152/152 151/151
f 152/152 153/153 154/154
f 157/157 156/156 155/155
f 156/156 157/157 158/158
f 161/161 160/160 159/159
f 160/160 161/161 162/162
f 165/165 164/164 163/163
f 164/164 165/165 166/166
f 166/166 165/165 167/167
f 168/168 167/167 165/165
f 168/168 165/165 169/169
f 168/168 169/169 170/170
f 171/171 167/167 168/168
f 167/167 171/171 172/172
f 175/175 174/174 173/173
f 174/174 175/175 176/176
f 179/179 178/178 177/177
f 178/178 179/179 180/180
f 183/183 182/182 181/181
f 182/182 183/183 184/184
f 187/187 186/186 185/185
f 186/186 187/187 188/188
f 188/188 187/187 189/189
f 188/188 189/189 190/190
f 193/193 192/192 191/191
f 192/192 193/193 194/194
f 197/197 196/196 195/195
f 196/196 197/197 198/198
f 198/198 197/197 199/199
f 198/198 199/199 200/200
f 203/203 202/202 201/201
f 202/202 203/203 204/204
f 207/207 206/206 205/205
f 206/206 207/207 208/208
f 211/211 210/210 209/209
f 210/210 211/211 212/212
f 215/215 214/214 213/213
f 214/214 215/215 216/216
f 219/219 218/218 217/217
f 218/218 219/219 220/220
f 220/220 219/219 221/221
f 220/220 221/221 222/222
f 225/225 224/224 223/223
f 224/224 225/225 226/226
f 229/229 228/228 227/227
f 228/228 229/229 230/230
f 230/230 229/229 231/231
f 230/230 231/231 232/232
f 235/235 234/234 233/233
f 234/234 235/235 236/236
f 239/239 238/238 237/237
f 238/238 239/239 240/240
f 243/243 242/242 241/241
f 242/242 243/243 244/244
f 247/247 246/246 245/245
f 246/246 247/247 248/248
f 251/251 250/250 249/249
f 250/250 251/251 252/252
f 255/255 254/254 253/253
f 254/254 255/255 256/256
f 259/259 258/258 257/257
f 258/258 259/259 260/260
f 263/263 262/262 261/261
f 262/262 263/263 264/264
f 267/267 266/266 265/265
f 266/266 267/267 268/268
f 271/271 270/270 269/269
f 270/270 271/271 272/272
f 275/275 274/274 273/273
f 274/274 275/275 276/276
f 279/279 278/278 277/277
f 278/278 279/279 280/280
f 283/283 282/282 281/281
f 282/282 283/283 284/284
f 287/287 286/286 285/285
f 286/286 287/287 288/288
f 291/291 290/290 289/289
f 290/290 291/291 292/292
f 295/295 294/294 293/293
f 294/294 295/295 296/296
f 299/299 298/298 297/297
f 298/298 299/299 300/300
f 300/300 299/299 301/301
f 300/300 301/301 302/302
f 302/302 303/303 300/300
f 302/302 301/301 304/304
f 303/303 302/302 305/305
f 303/303 305/305 306/306
f 304/304 301/301 307/307
f 304/304 307/307 308/308
f 308/308 307/307 309/309
f 303/303 306/306 310/310
f 309/309 307/307 311/311
f 310/310 306/306 312/312
f 310/310 312/312 313/313
f 309/309 311/311 313/313
f 313/313 311/311 310/310
f 310/310 311/311 314/314
f 314/314 311/311 315/315
f 314/314 315/315 316/316
f 319/319 318/318 317/317
f 318/318 319/319 320/320
f 320/320 319/319 321/321
f 320/320 321/321 322/322
f 322/322 321/321 323/323
f 322/322 323/323 324/324
f 324/324 323/323 325/325
f 324/324 325/325 326/326
f 326/326 325/325 327/327
f 326/326 327/327 328/328
f 331/331 330/330 329/329
f 330/330 331/331 332/332
f 332/332 331/331 333/333
f 332/332 333/333 334/334
f 334/334 333/333 335/335
f 334/334 335/335 336/336
f 339/339 338/338 337/337
f 338/338 339/339 340/340
f 343/343 342/342 341/341
f 342/342 343/343 344/344
f 347/347 346/346 345/345
f 346/346 347/347 348/348
f 351/351 350/350 349/349
f 350/350 351/351 352/352
f 355/355 354/354 353/353
f 354/354 355/355 356/356
f 359/359 358/358 357/357
f 358/358 359/359 360/360
f 363/363 362/362 361/361
f 362/362 363/363 364/364
f 367/367 366/366 365/365
f 366/366 367/367 368/368
f 371/371 370/370 369/369
f 370/370 371/371 372/372
f 375/375 374/374 373/373
f 374/374 375/375 376/376
f 379/379 378/378 377/377
f 378/378 379/379 380/380
f 383/383 382/382 381/381
f 382/382 383/383 384/384
f 387/387 386/386 385/385
f 386/386 387/387 388/388
f 391/391 390/390 389/389
f 390/390 391/391 392/392
f 395/395 394/394 393/393
f 394/394 395/395 396/396
f 399/399 398/398 397/397
f 398/398 399/399 400/400
f 403/403 402/402 401/401
f 402/402 403/403 404/404
f 407/407 406/406 405/405
f 406/406 407/407 408/408
f 411/411 410/410 409/409
f 410/410 411/411 412/412
f 415/415 414/414 413/413
f 414/414 415/415 416/416
f 419/419 418/418 417/417
f 418/418 419/419 420/420
f 423/423 422/422 421/421
f 422/422 423/423 424/424
f 427/427 426/426 425/425
f 426/426 427/427 428/428
f 431/431 430/430 429/429
f 430/430 431/431 432/432
f 435/435 434/434 433/433
f 434/434 435/435 436/436
f 439/439 438/438 437/437
f 438/438 439/439 440/440
f 440/440 439/439 441/441
f 441/441 439/439 442/442
f 445/445 444/444 443/443
f 444/444 445/445 446/446
f 449/449 448/448 447/447
f 448/448 449/449 450/450
f 450/450 449/449 451/451
f 452/452 451/451 449/449
f 451/451 452/452 453/453
f 453/453 452/452 454/454
f 454/454 452/452 455/455
f 456/456 454/454 455/455
f 455/455 452/452 457/457
f 457/457 452/452 458/458
f 457/457 458/458 459/459
f 459/459 458/458 460/460
f 463/463 462/462 461/461
f 462/462 463/463 464/464
f 467/467 466/466 465/465
f 466/466 467/467 468/468
f 471/471 470/470 469/469
f 470/470 471/471 472/472
f 475/475 474/474 473/473
f 474/474 475/475 476/476
f 479/479 478/478 477/477
f 478/478 479/479 480/480
f 483/483 482/482 481/481
f 482/482 483/483 484/484
f 487/487 486/486 485/485
f 486/486 487/487 488/488
f 491/491 490/490 489/489
f 490/490 491/491 492/492
f 495/495 494/494 493/493
f 496/496 494/494 495/495
f 497/497 494/494 496/496
f 497/497 496/496 498/498
f 498/498 499/499 497/497
f 499/499 498/498 500/500
f 497/497 499/499 501/501
f 502/502 494/494 497/497
f 502/502 503/503 494/494
f 502/502 504/504 503/503
f 505/505 504/504 502/502
f 504/504 505/505 506/506
f 509/509 508/508 507/507
f 508/508 509/509 510/510
f 510/510 509/509 511/511
f 510/510 511/511 512/512
f 515/515 514/514 513/513
f 514/514 515/515 516/516
f 519/519 518/518 517/517
f 518/518 519/519 520/520
f 523/523 522/522 521/521
f 522/522 523/523 524/524
f 527/527 526/526 525/525
f 526/526 527/527 528/528
f 531/531 530/530 529/529
f 530/530 531/531 532/532
f 535/535 534/534 533/533
f 534/534 535/535 536/536
f 539/539 538/538 537/537
f 538/538 539/539 540/540
f 543/543 542/542 541/541
f 542/542 543/543 544/544
f 547/547 546/546 545/545
f 546/546 547/547 548/548
f 551/551 550/550 549/549
f 550/550 551/551 552/552
f 555/555 554/554 553/553
f 554/554 555/555 556/556
f 559/559 558/558 557/557
f 558/558 559/559 560/560
f 563/563 562/562 561/561
f 562/562 563/563 564/564
f 567/567 566/566 565/565
f 566/566 567/567 568/568
f 571/571 570/570 569/569
f 570/570 571/571 572/572
f 575/575 574/574 573/573
f 574/574 575/575 576/576
f 579/579 578/578 577/577
f 578/578 579/579 580/580
f 583/583 582/582 581/581
f 582/582 583/583 584/584
f 584/584 583/583 585/585
f 584/584 585/585 586/586
f 589/589 588/588 587/587
f 588/588 589/589 590/590
f 593/593 592/592 591/591
f 592/592 593/593 594/594
f 597/597 596/596 595/595
f 596/596 597/597 598/598
f 598/598 597/597 599/599
f 599/599 597/597 600/600
f 603/603 602/602 601/601
f 602/602 603/603 604/604
f 604/604 603/603 605/605
f 606/606 605/605 603/603
f 605/605 606/606 607/607
f 607/607 606/606 608/608
f 608/608 606/606 609/609
f 610/610 608/608 609/609
f 609/609 606/606 611/611
f 611/611 606/606 612/612
f 611/611 612/612 613/613
f 613/613 612/612 614/614
f 617/617 616/616 615/615
f 618/618 616/616 617/617
f 619/619 616/616 618/618
f 619/619 618/618 620/620
f 620/620 621/621 619/619
f 621/621 620/620 622/622
f 619/619 621/621 623/623
f 624/624 616/616 619/619
f 624/624 625/625 616/616
f 624/624 626/626 625/625
f 627/627 626/626 624/624
f 626/626 627/627 628/628
f 631/631 630/630 629/629
f 630/630 631/631 632/632
f 635/635 634/634 633/633
f 634/634 635/635 636/636
f 639/639 638/638 637/637
f 638/638 639/639 640/640
f 643/643 642/642 641/641
f 642/642 643/643 644/644
f 647/647 646/646 645/645
f 646/646 647/647 648/648
f 648/648 647/647 649/649
f 649/649 647/647 650/650
f 653/653 652/652 651/651
f 652/652 653/653 654/654
f 657/657 656/656 655/655
f 656/656 657/657 658/658
f 658/658 657/657 659/659
f 660/660 659/659 657/657
f 659/659 660/660 661/661
f 661/661 660/660 662/662
f 662/662 660/660 663/663
f 664/664 662/662 663/663
f 663/663 660/660 665/665
f 665/665 660/660 666/666
f 665/665 666/666 667/667
f 667/667 666/666 668/668
f 671/671 670/670 669/669
f 670/670 671/671 672/672
f 675/675 674/674 673/673
f 674/674 675/675 676/676
f 679/679 678/678 677/677
f 678/678 679/679 680/680
f 683/683 682/682 681/681
f 682/682 683/683 684/684
f 687/687 686/686 685/685
f 686/686 687/687 688/688
f 691/691 690/690 689/689
f 690/690 691/691 692/692
f 695/695 694/694 693/693
f 694/694 695/695 696/696
f 699/699 698/698 697/697
f 698/698 699/699 700/700
f 703/703 702/702 701/701
f 704/704 702/702 703/703
f 705/705 702/702 704/704
f 705/705 704/704 706/706
f 706/706 707/707 705/705
f 707/707 706/706 708/708
f 705/705 707/707 709/709
f 710/710 702/702 705/705
f 710/710 711/711 702/702
f 710/710 712/712 711/711
f 713/713 712/712 710/710
f 712/712 713/713 714/714
f 717/717 716/716 715/715
f 716/716 717/717 718/718
f 718/718 717/717 719/719
f 718/718 719/719 720/720
f 723/723 722/722 721/721
f 722/722 723/723 724/724
f 727/727 726/726 725/725
f 726/726 727/727 728/728
f 731/731 730/730 729/729
f 730/730 731/731 732/732
f 735/735 734/734 733/733
f 734/734 735/735 736/736
f 739/739 738/738 737/737
f 738/738 739/739 740/740
f 743/743 742/742 741/741
f 742/742 743/743 744/744
f 747/747 746/746 745/745
f 746/746 747/747 748/748
f 751/751 750/750 749/749
f 750/750 751/751 752/752
f 752/752 751/751 753/753
f 753/753 751/751 754/754
f 757/757 756/756 755/755
f 756/756 757/757 758/758
f 761/761 760/760 759/759
f 760/760 761/761 762/762
f 762/762 761/761 763/763
f 764/764 763/763 761/761
f 763/763 764/764 765/765
f 765/765 764/764 766/766
f 766/766 764/764 767/767
f 768/768 766/766 767/767
f 767/767 764/764 769/769
f 769/769 764/764 770/770
f 769/769 770/770 771/771
f 771/771 770/770 772/772
f 775/775 774/774 773/773
f 774/774 775/775 776/776
f 779/779 778/778 777/777
f 778/778 779/779 780/780
f 783/783 782/782 781/781
f 782/782 783/783 784/784
f 787/787 786/786 785/785
f 786/786 787/787 788/788
f 791/791 790/790 789/789
f 790/790 791/791 792/792
f 795/795 794/794 793/793
f 794/794 795/795 796/796
f 799/799 798/798 797/797
f 798/798 799/799 800/800
f 803/803 802/802 801/801
f 802/802 803/803 804/804
f 807/807 806/806 805/805
f 808/808 806/806 807/807
f 809/809 806/806 808/808
f 809/809 808/808 810/810
f 810/810 811/811 809/809
f 811/811 810/810 812/812
f 809/809 811/811 813/813
f 814/814 806/806 809/809
f 814/814 815/815 806/806
f 814/814 816/816 815/815
f 817/817 816/816 814/814
f 816/816 817/817 818/818
f 821/821 820/820 819/819
f 820/820 821/821 822/822
f 822/822 821/821 823/823
f 822/822 823/823 824/824
f 827/827 826/826 825/825
f 826/826 827/827 828/828
f 831/831 830/830 829/829
f 830/830 831/831 832/832
f 835/835 834/834 833/833
f 834/834 835/835 836/836
f 839/839 838/838 837/837
f 838/838 839/839 840/840
f 843/843 842/842 841/841
f 842/842 843/843 844/844
f 847/847 846/846 845/845
f 846/846 847/847 848/848
f 851/851 850/850 849/849
f 850/850 851/851 852/852
f 855/855 854/854 853/853
f 854/854 855/855 856/856
f 856/856 855/855 857/857
f 857/857 855/855 858/858
f 861/861 860/860 859/859
f 860/860 861/861 862/862
f 865/865 864/864 863/863
f 864/864 865/865 866/866
f 866/866 865/865 867/867
f 868/868 867/867 865/865
f 867/867 868/868 869/869
f 869/869 868/868 870/870
f 870/870 868/868 871/871
f 872/872 870/870 871/871
f 871/871 868/868 873/873
f 873/873 868/868 874/874
f 873/873 874/874 875/875
f 875/875 874/874 876/876
f 879/879 878/878 877/877
f 878/878 879/879 880/880
f 883/883 882/882 881/881
f 882/882 883/883 884/884
f 887/887 886/886 885/885
f 886/886 887/887 888/888
f 891/891 890/890 889/889
f 890/890 891/891 892/892
f 895/895 894/894 893/893
f 894/894 895/895 896/896
f 899/899 898/898 897/897
f 898/898 899/899 900/900
f 903/903 902/902 901/901
f 902/902 903/903 904/904
f 907/907 906/906 905/905
f 906/906 907/907 908/908
f 911/911 910/910 909/909
f 912/912 910/910 911/911
f 913/913 910/910 912/912
f 913/913 912/912 914/914
f 914/914 915/915 913/913
f 915/915 914/914 916/916
f 913/913 915/915 917/917
f 918/918 910/910 913/913
f 918/918 919/919 910/910
f 918/918 920/920 919/919
f 921/921 920/920 918/918
f 920/920 921/921 922/922
f 925/925 924/924 923/923
f 924/924 925/925 926/926
f 926/926 925/925 927/927
f 926/926 927/927 928/928
f 931/931 930/930 929/929
f 930/930 931/931 932/932
f 935/935 934/934 933/933
f 934/934 935/935 936/936
f 939/939 938/938 937/937
f 938/938 939/939 940/940
f 943/943 942/942 941/941
f 942/942 943/943 944/944
f 947/947 946/946 945/945
f 946/946 947/947 948/948
f 951/951 950/950 949/949
f 950/950 951/951 952/952
f 955/955 954/954 953/953
f 954/954 955/955 956/956
f 959/959 958/958 957/957
f 958/958 959/959 960/960
f 960/960 959/959 961/961
f 961/961 959/959 962/962
f 965/965 964/964 963/963
f 964/964 965/965 966/966
f 969/969 968/968 967/967
f 968/968 969/969 970/970
f 970/970 969/969 971/971
f 972/972 971/971 969/969
f 971/971 972/972 973/973
f 973/973 972/972 974/974
f 974/974 972/972 975/975
f 976/976 974/974 975/975
f 975/975 972/972 977/977
f 977/977 972/972 978/978
f 977/977 978/978 979/979
f 979/979 978/978 980/980
f 983/983 982/982 981/981
f 982/982 983/983 984/984
f 987/987 986/986 985/985
f 986/986 987/987 988/988
f 991/991 990/990 989/989
f 990/990 991/991 992/992
f 995/995 994/994 993/993
f 994/994 995/995 996/996
f 999/999 998/998 997/997
f 998/998 999/999 1000/1000
f 1003/1003 1002/1002 1001/1001
f 1002/1002 1003/1003 1004/1004
f 1007/1007 1006/1006 1005/1005
f 1006/1006 1007/1007 1008/1008
f 1011/1011 1010/1010 1009/1009
f 1010/1010 1011/1011 1012/1012
f 1015/1015 1014/1014 1013/1013
f 1016/1016 1014/1014 1015/1015
f 1017/1017 1014/1014 1016/1016
f 1017/1017 1016/1016 1018/1018
f 1018/1018 1019/1019 1017/1017
f 1019/1019 1018/1018 1020/1020
f 1017/1017 1019/1019 1021/1021
f 1022/1022 1014/1014 1017/1017
f 1022/1022 1023/1023 1014/1014
f 1022/1022 1024/1024 1023/1023
f 1025/1025 1024/1024 1022/1022
f 1024/1024 1025/1025 1026/1026
f 1029/1029 1028/1028 1027/1027
f 1028/1028 1029/1029 1030/1030
f 1030/1030 1029/1029 1031/1031
f 1030/1030 1031/1031 1032/1032
f 1035/1035 1034/1034 1033/1033
f 1034/1034 1035/1035 1036/1036
f 1039/1039 1038/1038 1037/1037
f 1038/1038 1039/1039 1040/1040
f 1043/1043 1042/1042 1041/1041
f 1042/1042 1043/1043 1044/1044
f 1047/1047 1046/1046 1045/1045
f 1046/1046 1047/1047 1048/1048
f 1051/1051 1050/1050 1049/1049
f 1050/1050 1051/1051 1052/1052
f 1055/1055 1054/1054 1053/1053
f 1054/1054 1055/1055 1056/1056
f 1059/1059 1058/1058 1057/1057
f 1058/1058 1059/1059 1060/1060
f 1063/1063 1062/1062 1061/1061
f 1062/1062 1063/1063 1064/1064
f 1064/1064 1063/1063 1065/1065
f 1065/1065 1063/1063 1066/1066
f 1069/1069 1068/1068 1067/1067
f 1068/1068 1069/1069 1070/1070
f 1073/1073 1072/1072 1071/1071
f 1072/1072 1073/1073 1074/1074
f 1074/1074 1073/1073 1075/1075
f 1076/1076 1075/1075 1073/1073
f 1075/1075 1076/1076 1077/1077
f 1077/1077 1076/1076 1078/1078
f 1078/1078 1076/1076 1079/1079
f 1080/1080 1078/1078 1079/1079
f 1079/1079 1076/1076 1081/1081
f 1081/1081 1076/1076 1082/1082
f 1081/1081 1082/1082 1083/1083
f 1083/1083 1082/1082 1084/1084
f 1087/1087 1086/1086 1085/1085
f 1086/1086 1087/1087 1088/1088
f 1091/1091 1090/1090 1089/1089
f 1090/1090 1091/1091 1092/1092
f 1095/1095 1094/1094 1093/1093
f 1094/1094 1095/1095 1096/1096
f 1099/1099 1098/1098 1097/1097
f 1098/1098 1099/1099 1100/1100
f 1103/1103 1102/1102 1101/1101
f 1102/1102 1103/1103 1104/1104
f 1107/1107 1106/1106 1105/1105
f 1106/1106 1107/1107 1108/1108
f 1111/1111 1110/1110 1109/1109
f 1110/1110 1111/1111 1112/1112
f 1115/1115 1114/1114 1113/1113
f 1114/1114 1115/1115 1116/1116
f 1119/1119 1118/1118 1117/1117
f 1120/1120 1118/1118 1119/1119
f 1121/1121 1118/1118 1120/1120
f 1121/1121 1120/1120 1122/1122
f 1122/1122 1123/1123 1121/1121
f 1123/1123 1122/1122 1124/1124
f 1121/1121 1123/1123 1125/1125
f 1126/1126 1118/1118 1121/1121
f 1126/1126 1127/1127 1118/1118
f 1126/1126 1128/1128 1127/1127
f 1129/1129 1128/1128 1126/1126
f 1128/1128 1129/1129 1130/1130
f 1133/1133 1132/1132 1131/1131
f 1132/1132 1133/1133 1134/1134
f 1134/1134 1133/1133 1135/1135
f 1134/1134 1135/1135 1136/1136
f 1139/1139 1138/1138 1137/1137
f 1138/1138 1139/1139 1140/1140
f 1143/1143 1142/1142 1141/1141
f 1142/1142 1143/1143 1144/1144
f 1147/1147 1146/1146 1145/1145
f 1146/1146 1147/1147 1148/1148
f 1151/1151 1150/1150 1149/1149
f 1150/1150 1151/1151 1152/1152
f 1155/1155 1154/1154 1153/1153
f 1154/1154 1155/1155 1156/1156
f 1159/1159 1158/1158 1157/1157
f 1158/1158 1159/1159 1160/1160
f 1163/1163 1162/1162 1161/1161
f 1162/1162 1163/1163 1164/1164
f 1167/1167 1166/1166 1165/1165
f 1166/1166 1167/1167 1168/1168
f 1171/1171 1170/1170 1169/1169
f 1170/1170 1171/1171 1172/1172
f 1175/1175 1174/1174 1173/1173
f 1174/1174 1175/1175 1176/1176
f 1179/1179 1178/1178 1177/1177
f 1178/1178 1179/1179 1180/1180
f 1183/1183 1182/1182 1181/1181
f 1182/1182 1183/1183 1184/1184
f 1187/1187 1186/1186 1185/1185
f 1186/1186 1187/1187 1188/1188
f 1191/1191 1190/1190 1189/1189
f 1190/1190 1191/1191 1192/1192
f 1195/1195 1194/1194 1193/1193
f 1194/1194 1195/1195 1196/1196
f 1199/1199 1198/1198 1197/1197
f 1198/1198 1199/1199 1200/1200
f 1203/1203 1202/1202 1201/1201
f 1202/1202 1203/1203 1204/1204
f 1207/1207 1206/1206 1205/1205
f 1206/1206 1207/1207 1208/1208
f 1211/1211 1210/1210 1209/1209
f 1210/1210 1211/1211 1212/1212
f 1215/1215 1214/1214 1213/1213
f 1214/1214 1216/1216 1213/1213
f 1213/1213 1216/1216 1217/1217
f 1218/1218 1216/1216 1214/1214
f 1217/1217 1216/1216 1219/1219
f 1220/1220 1216/1216 1218/1218
f 1220/1220 1221/1221 1216/1216
f 1221/1221 1220/1220 1222/1222
f 1223/1223 1222/1222 1220/1220
f 1224/1224 1219/1219 1216/1216
f 1222/1222 1223/1223 1224/1224
f 1224/1224 1225/1225 1219/1219
f 1224/1224 1223/1223 1226/1226
f 1224/1224 1226/1226 1225/1225
f 1225/1225 1226/1226 1227/1227
f 1227/1227 1226/1226 1228/1228
f 1231/1231 1230/1230 1229/1229
f 1230/1230 1231/1231 1232/1232
f 1235/1235 1234/1234 1233/1233
f 1234/1234 1235/1235 1236/1236
f 1239/1239 1238/1238 1237/1237
f 1238/1238 1239/1239 1240/1240
f 1243/1243 1242/1242 1241/1241
f 1242/1242 1244/1244 1241/1241
f 1241/1241 1244/1244 1245/1245
f 1246/1246 1244/1244 1242/1242
f 1245/1245 1244/1244 1247/1247
f 1248/1248 1244/1244 1246/1246
f 1248/1248 1249/1249 1244/1244
f 1249/1249 1248/1248 1250/1250
f 1251/1251 1250/1250 1248/1248
f 1252/1252 1247/1247 1244/1244
f 1250/1250 1251/1251 1252/1252
f 1252/1252 1253/1253 1247/1247
f 1252/1252 1251/1251 1254/1254
f 1252/1252 1254/1254 1253/1253
f 1253/1253 1254/1254 1255/1255
f 1255/1255 1254/1254 1256/1256
f 1259/1259 1258/1258 1257/1257
f 1258/1258 1260/1260 1257/1257
f 1257/1257 1260/1260 1261/1261
f 1262/1262 1260/1260 1258/1258
f 1261/1261 1260/1260 1263/1263
f 1264/1264 1260/1260 1262/1262
f 1264/1264 1265/1265 1260/1260
f 1265/1265 1264/1264 1266/1266
f 1267/1267 1266/1266 1264/1264
f 1268/1268 1263/1263 1260/1260
f 1266/1266 1267/1267 1268/1268
f 1268/1268 1269/1269 1263/1263
f 1268/1268 1267/1267 1270/1270
f 1268/1268 1270/1270 1269/1269
f 1269/1269 1270/1270 1271/1271
f 1271/1271 1270/1270 1272/1272
f 1275/1275 1274/1274 1273/1273
f 1274/1274 1276/1276 1273/1273
f 1273/1273 1276/1276 1277/1277
f 1278/1278 1276/1276 1274/1274
f 1277/1277 1276/1276 1279/1279
f 1280/1280 1276/1276 1278/1278
f 1280/1280 1281/1281 1276/1276
f 1281/1281 1280/1280 1282/1282
f 1283/1283 1282/1282 1280/1280
f 1284/1284 1279/1279 1276/1276
f 1282/1282 1283/1283 1284/1284
f 1284/1284 1285/1285 1279/1279
f 1284/1284 1283/1283 1286/1286
f 1284/1284 1286/1286 1285/1285
f 1285/1285 1286/1286 1287/1287
f 1287/1287 1286/1286 1288/1288
f 1291/1291 1290/1290 1289/1289
f 1290/1290 1292/1292 1289/1289
f 1289/1289 1292/1292 1293/1293
f 1294/1294 1292/1292 1290/1290
f 1293/1293 1292/1292 1295/1295
f 1296/1296 1292/1292 1294/1294
f 1296/1296 1297/1297 1292/1292
f 1297/1297 1296/1296 1298/1298
f 1299/1299 1298/1298 1296/1296
f 1300/1300 1295/1295 1292/1292
f 1298/1298 1299/1299 1300/1300
f 1300/1300 1301/1301 1295/1295
f 1300/1300 1299/1299 1302/1302
f 1300/1300 1302/1302 1301/1301
f 1301/1301 1302/1302 1303/1303
f 1303/1303 1302/1302 1304/1304
f 1307/1307 1306/1306 1305/1305
f 1306/1306 1308/1308 1305/1305
f 1305/1305 1308/1308 1309/1309
f 1310/1310 1308/1308 1306/1306
f 1309/1309 1308/1308 1311/1311
f 1312/1312 1308/1308 1310/1310
f 1312/1312 1313/1313 1308/1308
f 1313/1313 1312/1312 1314/1314
f 1315/1315 1314/1314 1312/1312
f 1316/1316 1311/1311 1308/1308
f 1314/1314 1315/1315 1316/1316
f 1316/1316 1317/1317 1311/1311
f 1316/1316 1315/1315 1318/1318
f 1316/1316 1318/1318 1317/1317
f 1317/1317 1318/1318 1319/1319
f 1319/1319 1318/1318 1320/1320
