mtllib building-small-d.mtl
o building-small-d
v 0.500000 0.000000 0.500000
v -0.500000 0.000000 0.500000
v 0.500000 0.050000 0.500000
v -0.500000 0.050000 0.500000
v 0.500000 0.000000 0.500000
v 0.500000 0.000000 -0.500000
v -0.500000 0.000000 0.500000
v -0.500000 0.000000 -0.500000
v -0.500000 0.000000 -0.500000
v -0.500000 0.050000 -0.500000
v -0.500000 0.000000 0.500000
v -0.500000 0.050000 0.500000
v 0.500000 0.050000 -0.500000
v 0.500000 0.000000 -0.500000
v 0.500000 0.050000 0.500000
v 0.500000 0.000000 0.500000
v -0.500000 0.000000 -0.500000
v 0.500000 0.000000 -0.500000
v -0.500000 0.050000 -0.500000
v 0.500000 0.050000 -0.500000
v 0.500000 0.050000 -0.500000
v 0.500000 0.050000 0.500000
v -0.500000 0.050000 -0.500000
v -0.500000 0.050000 0.500000
v 0.400000 0.850000 -0.400000
v 0.400000 0.450000 -0.400000
v 0.400000 0.850000 0.400000
v 0.400000 0.450000 0.400000
v -0.400000 0.450000 -0.400000
v 0.400000 0.450000 -0.400000
v -0.400000 0.850000 -0.400000
v 0.400000 0.850000 -0.400000
v -0.400000 0.450000 -0.400000
v -0.400000 0.850000 -0.400000
v -0.400000 0.450000 0.400000
v -0.400000 0.850000 0.400000
v 0.100000 0.725000 0.400000
v 0.100000 0.500000 0.400000
v -0.000000 0.850000 0.400000
v 0.125000 0.750000 0.400000
v -0.000000 0.450000 0.400000
v 0.400000 0.850000 0.400000
v 0.300000 0.500000 0.400000
v 0.400000 0.450000 0.400000
v 0.275000 0.750000 0.400000
v 0.300000 0.725000 0.400000
v -0.300000 0.725000 0.400000
v -0.300000 0.500000 0.400000
v -0.400000 0.850000 0.400000
v -0.275000 0.750000 0.400000
v -0.400000 0.450000 0.400000
v -0.000000 0.850000 0.400000
v -0.100000 0.500000 0.400000
v -0.000000 0.450000 0.400000
v -0.125000 0.750000 0.400000
v -0.100000 0.725000 0.400000
v 0.169085 0.950000 -0.090863
v 0.217308 0.950000 -0.110838
v 0.169085 1.000000 -0.080673
v 0.224513 1.000000 -0.103632
v 0.113657 1.000000 -0.214489
v 0.120862 0.950000 -0.207283
v 0.090697 1.000000 -0.159061
v 0.100888 0.950000 -0.159061
v 0.090697 1.000000 -0.159061
v 0.100888 0.950000 -0.159061
v 0.113657 1.000000 -0.103632
v 0.120862 0.950000 -0.110838
v 0.224513 1.000000 -0.214489
v 0.247473 1.000000 -0.159061
v 0.217308 0.950000 -0.207283
v 0.237282 0.950000 -0.159061
v 0.237282 0.950000 -0.159061
v 0.247473 1.000000 -0.159061
v 0.217308 0.950000 -0.110838
v 0.224513 1.000000 -0.103632
v 0.217308 0.950000 -0.207283
v 0.169085 0.950000 -0.227258
v 0.224513 1.000000 -0.214489
v 0.169085 1.000000 -0.237448
v 0.120862 0.950000 -0.110838
v 0.169085 0.950000 -0.090863
v 0.113657 1.000000 -0.103632
v 0.169085 1.000000 -0.080673
v 0.169085 0.950000 -0.227258
v 0.120862 0.950000 -0.207283
v 0.169085 1.000000 -0.237448
v 0.113657 1.000000 -0.214489
v -0.400000 0.050000 -0.400000
v 0.400000 0.050000 -0.400000
v -0.400000 0.450000 -0.400000
v 0.400000 0.450000 -0.400000
v -0.400000 0.050000 -0.400000
v -0.400000 0.450000 -0.400000
v -0.400000 0.050000 0.400000
v -0.400000 0.450000 0.400000
v 0.400000 0.450000 -0.400000
v 0.400000 0.050000 -0.400000
v 0.400000 0.450000 0.400000
v 0.400000 0.050000 0.400000
v 0.100000 0.325000 0.400000
v 0.100000 0.100000 0.400000
v -0.000000 0.450000 0.400000
v 0.125000 0.350000 0.400000
v -0.000000 0.050000 0.400000
v 0.400000 0.450000 0.400000
v 0.300000 0.100000 0.400000
v 0.400000 0.050000 0.400000
v 0.275000 0.350000 0.400000
v 0.300000 0.325000 0.400000
v -0.000000 0.050000 0.400000
v -0.075000 0.050000 0.400000
v -0.000000 0.450000 0.400000
v -0.075000 0.325000 0.400000
v -0.100000 0.350000 0.400000
v -0.300000 0.350000 0.400000
v -0.400000 0.450000 0.400000
v -0.325000 0.325000 0.400000
v -0.400000 0.050000 0.400000
v -0.325000 0.050000 0.400000
v -0.450000 0.100000 -0.350000
v -0.450000 0.850000 -0.350000
v -0.450000 0.100000 -0.300000
v -0.450000 0.850000 -0.300000
v -0.450000 0.100000 -0.350000
v -0.400000 0.100000 -0.350000
v -0.450000 0.850000 -0.350000
v -0.400000 0.850000 -0.350000
v -0.400000 0.100000 -0.300000
v -0.450000 0.100000 -0.300000
v -0.400000 0.850000 -0.300000
v -0.450000 0.850000 -0.300000
v -0.400000 0.750000 -0.275000
v -0.400000 0.750000 -0.375000
v -0.450000 0.750000 -0.275000
v -0.450000 0.750000 -0.375000
v -0.475000 0.750000 -0.300000
v -0.475000 0.750000 -0.350000
v -0.450000 0.750000 -0.375000
v -0.400000 0.750000 -0.375000
v -0.450000 0.800000 -0.375000
v -0.400000 0.800000 -0.375000
v -0.400000 0.800000 -0.375000
v -0.400000 0.800000 -0.275000
v -0.450000 0.800000 -0.375000
v -0.450000 0.800000 -0.275000
v -0.475000 0.800000 -0.350000
v -0.475000 0.800000 -0.300000
v -0.400000 0.750000 -0.275000
v -0.450000 0.750000 -0.275000
v -0.400000 0.800000 -0.275000
v -0.450000 0.800000 -0.275000
v -0.475000 0.750000 -0.350000
v -0.475000 0.800000 -0.350000
v -0.475000 0.750000 -0.300000
v -0.475000 0.800000 -0.300000
v -0.475000 0.750000 -0.350000
v -0.450000 0.750000 -0.375000
v -0.475000 0.800000 -0.350000
v -0.450000 0.800000 -0.375000
v -0.475000 0.750000 -0.300000
v -0.475000 0.800000 -0.300000
v -0.450000 0.750000 -0.275000
v -0.450000 0.800000 -0.275000
v -0.400000 0.150000 -0.275000
v -0.400000 0.150000 -0.375000
v -0.450000 0.150000 -0.275000
v -0.450000 0.150000 -0.375000
v -0.475000 0.150000 -0.300000
v -0.475000 0.150000 -0.350000
v -0.450000 0.150000 -0.375000
v -0.400000 0.150000 -0.375000
v -0.450000 0.200000 -0.375000
v -0.400000 0.200000 -0.375000
v -0.400000 0.200000 -0.375000
v -0.400000 0.200000 -0.275000
v -0.450000 0.200000 -0.375000
v -0.450000 0.200000 -0.275000
v -0.475000 0.200000 -0.350000
v -0.475000 0.200000 -0.300000
v -0.400000 0.150000 -0.275000
v -0.450000 0.150000 -0.275000
v -0.400000 0.200000 -0.275000
v -0.450000 0.200000 -0.275000
v -0.475000 0.150000 -0.350000
v -0.475000 0.200000 -0.350000
v -0.475000 0.150000 -0.300000
v -0.475000 0.200000 -0.300000
v -0.475000 0.150000 -0.350000
v -0.450000 0.150000 -0.375000
v -0.475000 0.200000 -0.350000
v -0.450000 0.200000 -0.375000
v -0.475000 0.150000 -0.300000
v -0.475000 0.200000 -0.300000
v -0.450000 0.150000 -0.275000
v -0.450000 0.200000 -0.275000
v 0.300000 0.125000 0.475000
v 0.100000 0.125000 0.475000
v 0.300000 0.150000 0.450000
v 0.100000 0.150000 0.450000
v 0.300000 0.100000 0.475000
v 0.100000 0.100000 0.475000
v 0.300000 0.125000 0.475000
v 0.100000 0.125000 0.475000
v 0.100000 0.100000 0.400000
v 0.100000 0.325000 0.400000
v 0.100000 0.100000 0.425000
v 0.100000 0.325000 0.425000
v 0.100000 0.150000 0.425000
v 0.100000 0.100000 0.475000
v 0.100000 0.150000 0.450000
v 0.100000 0.125000 0.475000
v 0.300000 0.100000 0.475000
v 0.300000 0.100000 0.425000
v 0.100000 0.100000 0.475000
v 0.300000 0.100000 0.400000
v 0.100000 0.100000 0.400000
v 0.100000 0.100000 0.425000
v 0.275000 0.350000 0.400000
v 0.275000 0.350000 0.425000
v 0.125000 0.350000 0.400000
v 0.125000 0.350000 0.425000
v 0.265000 0.150000 0.400000
v 0.265000 0.150000 0.425000
v 0.135000 0.150000 0.400000
v 0.135000 0.150000 0.425000
v 0.100000 0.150000 0.450000
v 0.100000 0.150000 0.425000
v 0.300000 0.150000 0.450000
v 0.300000 0.150000 0.425000
v 0.300000 0.150000 0.425000
v 0.265000 0.150000 0.425000
v 0.300000 0.325000 0.425000
v 0.265000 0.315000 0.425000
v 0.135000 0.315000 0.425000
v 0.100000 0.325000 0.425000
v 0.275000 0.350000 0.425000
v 0.125000 0.350000 0.425000
v 0.100000 0.150000 0.425000
v 0.135000 0.150000 0.425000
v 0.135000 0.315000 0.400000
v 0.135000 0.150000 0.400000
v 0.135000 0.315000 0.425000
v 0.135000 0.150000 0.425000
v 0.300000 0.325000 0.400000
v 0.300000 0.100000 0.400000
v 0.300000 0.325000 0.425000
v 0.300000 0.100000 0.425000
v 0.300000 0.150000 0.425000
v 0.300000 0.150000 0.450000
v 0.300000 0.100000 0.475000
v 0.300000 0.125000 0.475000
v 0.265000 0.150000 0.400000
v 0.265000 0.315000 0.400000
v 0.265000 0.150000 0.425000
v 0.265000 0.315000 0.425000
v 0.265000 0.315000 0.425000
v 0.265000 0.315000 0.400000
v 0.135000 0.315000 0.425000
v 0.135000 0.315000 0.400000
v 0.275000 0.350000 0.400000
v 0.300000 0.325000 0.400000
v 0.275000 0.350000 0.425000
v 0.300000 0.325000 0.425000
v 0.125000 0.350000 0.400000
v 0.125000 0.350000 0.425000
v 0.100000 0.325000 0.400000
v 0.100000 0.325000 0.425000
v -0.275000 0.050000 0.425000
v -0.275000 0.050000 0.400000
v -0.325000 0.050000 0.425000
v -0.325000 0.050000 0.400000
v -0.075000 0.050000 0.425000
v -0.075000 0.050000 0.400000
v -0.125000 0.050000 0.425000
v -0.125000 0.050000 0.400000
v -0.125000 0.050000 0.400000
v -0.125000 0.300000 0.400000
v -0.125000 0.050000 0.425000
v -0.125000 0.300000 0.425000
v -0.275000 0.300000 0.400000
v -0.275000 0.050000 0.400000
v -0.275000 0.300000 0.425000
v -0.275000 0.050000 0.425000
v -0.075000 0.325000 0.400000
v -0.075000 0.050000 0.400000
v -0.075000 0.325000 0.425000
v -0.075000 0.050000 0.425000
v -0.100000 0.350000 0.400000
v -0.075000 0.325000 0.400000
v -0.100000 0.350000 0.425000
v -0.075000 0.325000 0.425000
v -0.325000 0.050000 0.400000
v -0.325000 0.325000 0.400000
v -0.325000 0.050000 0.425000
v -0.325000 0.325000 0.425000
v -0.300000 0.350000 0.400000
v -0.300000 0.350000 0.425000
v -0.325000 0.325000 0.400000
v -0.325000 0.325000 0.425000
v -0.125000 0.300000 0.425000
v -0.125000 0.300000 0.400000
v -0.275000 0.300000 0.425000
v -0.275000 0.300000 0.400000
v -0.100000 0.350000 0.400000
v -0.100000 0.350000 0.425000
v -0.300000 0.350000 0.400000
v -0.300000 0.350000 0.425000
v -0.075000 0.050000 0.425000
v -0.125000 0.050000 0.425000
v -0.075000 0.325000 0.425000
v -0.125000 0.300000 0.425000
v -0.275000 0.300000 0.425000
v -0.325000 0.325000 0.425000
v -0.100000 0.350000 0.425000
v -0.300000 0.350000 0.425000
v -0.325000 0.050000 0.425000
v -0.275000 0.050000 0.425000
v -0.350000 0.850000 -0.450000
v 0.350000 0.850000 -0.450000
v -0.350000 0.950000 -0.450000
v 0.350000 0.950000 -0.450000
v 0.350000 0.850000 -0.450000
v 0.420711 0.850000 -0.420711
v 0.350000 0.950000 -0.450000
v 0.420711 0.950000 -0.420711
v 0.420711 0.950000 -0.420711
v 0.420711 0.850000 -0.420711
v 0.450000 0.950000 -0.350000
v 0.450000 0.850000 -0.350000
v 0.450000 0.950000 -0.350000
v 0.450000 0.850000 -0.350000
v 0.450000 0.950000 0.350000
v 0.450000 0.850000 0.350000
v 0.420711 0.850000 0.420711
v 0.350000 0.850000 0.450000
v 0.420711 0.950000 0.420711
v 0.350000 0.950000 0.450000
v 0.450000 0.950000 0.350000
v 0.450000 0.850000 0.350000
v 0.420711 0.950000 0.420711
v 0.420711 0.850000 0.420711
v 0.350000 0.850000 0.450000
v -0.350000 0.850000 0.450000
v 0.350000 0.950000 0.450000
v -0.350000 0.950000 0.450000
v -0.350000 0.850000 0.450000
v -0.420711 0.850000 0.420711
v -0.350000 0.950000 0.450000
v -0.420711 0.950000 0.420711
v -0.450000 0.850000 0.350000
v -0.450000 0.950000 0.350000
v -0.420711 0.850000 0.420711
v -0.420711 0.950000 0.420711
v -0.450000 0.850000 -0.350000
v -0.450000 0.950000 -0.350000
v -0.450000 0.850000 0.350000
v -0.450000 0.950000 0.350000
v -0.420711 0.850000 -0.420711
v -0.420711 0.950000 -0.420711
v -0.450000 0.850000 -0.350000
v -0.450000 0.950000 -0.350000
v -0.420711 0.850000 -0.420711
v -0.350000 0.850000 -0.450000
v -0.420711 0.950000 -0.420711
v -0.350000 0.950000 -0.450000
v 0.450000 0.950000 -0.350000
v 0.450000 0.950000 0.350000
v 0.420711 0.950000 -0.420711
v 0.420711 0.950000 0.420711
v 0.350000 0.950000 -0.450000
v 0.350000 0.950000 -0.330109
v 0.350000 0.950000 0.450000
v 0.330109 0.950000 -0.350000
v 0.350000 0.950000 0.330109
v 0.330109 0.950000 0.350000
v -0.350000 0.950000 -0.450000
v -0.330109 0.950000 -0.350000
v -0.350000 0.950000 -0.330109
v -0.350000 0.950000 0.450000
v -0.420711 0.950000 -0.420711
v -0.330109 0.950000 0.350000
v -0.350000 0.950000 0.330109
v -0.420711 0.950000 0.420711
v -0.450000 0.950000 -0.350000
v -0.450000 0.950000 0.350000
v 0.450000 0.850000 0.350000
v 0.450000 0.850000 -0.350000
v 0.420711 0.850000 0.420711
v 0.420711 0.850000 -0.420711
v 0.350000 0.850000 0.450000
v 0.350000 0.850000 -0.450000
v -0.350000 0.850000 0.450000
v -0.350000 0.850000 -0.450000
v -0.420711 0.850000 0.420711
v -0.420711 0.850000 -0.420711
v -0.450000 0.850000 0.350000
v -0.450000 0.850000 -0.350000
v 0.350000 0.900000 -0.330109
v 0.350000 0.900000 0.330109
v 0.330109 0.900000 -0.350000
v 0.330109 0.900000 0.350000
v -0.330109 0.900000 -0.350000
v -0.330109 0.900000 0.350000
v -0.350000 0.900000 -0.330109
v -0.350000 0.900000 0.330109
v -0.330109 0.900000 0.350000
v 0.330109 0.900000 0.350000
v -0.330109 0.950000 0.350000
v 0.330109 0.950000 0.350000
v 0.330109 0.900000 0.350000
v 0.350000 0.900000 0.330109
v 0.330109 0.950000 0.350000
v 0.350000 0.950000 0.330109
v 0.350000 0.900000 -0.330109
v 0.350000 0.950000 -0.330109
v 0.350000 0.900000 0.330109
v 0.350000 0.950000 0.330109
v 0.330109 0.900000 -0.350000
v 0.330109 0.950000 -0.350000
v 0.350000 0.900000 -0.330109
v 0.350000 0.950000 -0.330109
v 0.330109 0.900000 -0.350000
v -0.330109 0.900000 -0.350000
v 0.330109 0.950000 -0.350000
v -0.330109 0.950000 -0.350000
v -0.330109 0.950000 -0.350000
v -0.330109 0.900000 -0.350000
v -0.350000 0.950000 -0.330109
v -0.350000 0.900000 -0.330109
v -0.350000 0.950000 -0.330109
v -0.350000 0.900000 -0.330109
v -0.350000 0.950000 0.330109
v -0.350000 0.900000 0.330109
v -0.350000 0.950000 0.330109
v -0.350000 0.900000 0.330109
v -0.330109 0.950000 0.350000
v -0.330109 0.900000 0.350000
v 0.300000 0.525000 0.475000
v 0.100000 0.525000 0.475000
v 0.300000 0.550000 0.450000
v 0.100000 0.550000 0.450000
v 0.300000 0.500000 0.475000
v 0.100000 0.500000 0.475000
v 0.300000 0.525000 0.475000
v 0.100000 0.525000 0.475000
v 0.100000 0.500000 0.400000
v 0.100000 0.725000 0.400000
v 0.100000 0.500000 0.425000
v 0.100000 0.725000 0.425000
v 0.100000 0.550000 0.425000
v 0.100000 0.500000 0.475000
v 0.100000 0.550000 0.450000
v 0.100000 0.525000 0.475000
v 0.300000 0.500000 0.475000
v 0.300000 0.500000 0.425000
v 0.100000 0.500000 0.475000
v 0.300000 0.500000 0.400000
v 0.100000 0.500000 0.400000
v 0.100000 0.500000 0.425000
v 0.275000 0.750000 0.400000
v 0.275000 0.750000 0.425000
v 0.125000 0.750000 0.400000
v 0.125000 0.750000 0.425000
v 0.265000 0.550000 0.400000
v 0.265000 0.550000 0.425000
v 0.135000 0.550000 0.400000
v 0.135000 0.550000 0.425000
v 0.100000 0.550000 0.450000
v 0.100000 0.550000 0.425000
v 0.300000 0.550000 0.450000
v 0.300000 0.550000 0.425000
v 0.300000 0.550000 0.425000
v 0.265000 0.550000 0.425000
v 0.300000 0.725000 0.425000
v 0.265000 0.715000 0.425000
v 0.135000 0.715000 0.425000
v 0.100000 0.725000 0.425000
v 0.275000 0.750000 0.425000
v 0.125000 0.750000 0.425000
v 0.100000 0.550000 0.425000
v 0.135000 0.550000 0.425000
v 0.135000 0.715000 0.400000
v 0.135000 0.550000 0.400000
v 0.135000 0.715000 0.425000
v 0.135000 0.550000 0.425000
v 0.300000 0.725000 0.400000
v 0.300000 0.500000 0.400000
v 0.300000 0.725000 0.425000
v 0.300000 0.500000 0.425000
v 0.300000 0.550000 0.425000
v 0.300000 0.550000 0.450000
v 0.300000 0.500000 0.475000
v 0.300000 0.525000 0.475000
v 0.265000 0.550000 0.400000
v 0.265000 0.715000 0.400000
v 0.265000 0.550000 0.425000
v 0.265000 0.715000 0.425000
v 0.265000 0.715000 0.425000
v 0.265000 0.715000 0.400000
v 0.135000 0.715000 0.425000
v 0.135000 0.715000 0.400000
v 0.275000 0.750000 0.400000
v 0.300000 0.725000 0.400000
v 0.275000 0.750000 0.425000
v 0.300000 0.725000 0.425000
v 0.125000 0.750000 0.400000
v 0.125000 0.750000 0.425000
v 0.100000 0.725000 0.400000
v 0.100000 0.725000 0.425000
v -0.100000 0.525000 0.475000
v -0.300000 0.525000 0.475000
v -0.100000 0.550000 0.450000
v -0.300000 0.550000 0.450000
v -0.100000 0.500000 0.475000
v -0.300000 0.500000 0.475000
v -0.100000 0.525000 0.475000
v -0.300000 0.525000 0.475000
v -0.300000 0.500000 0.400000
v -0.300000 0.725000 0.400000
v -0.300000 0.500000 0.425000
v -0.300000 0.725000 0.425000
v -0.300000 0.550000 0.425000
v -0.300000 0.500000 0.475000
v -0.300000 0.550000 0.450000
v -0.300000 0.525000 0.475000
v -0.100000 0.500000 0.475000
v -0.100000 0.500000 0.425000
v -0.300000 0.500000 0.475000
v -0.100000 0.500000 0.400000
v -0.300000 0.500000 0.400000
v -0.300000 0.500000 0.425000
v -0.125000 0.750000 0.400000
v -0.125000 0.750000 0.425000
v -0.275000 0.750000 0.400000
v -0.275000 0.750000 0.425000
v -0.135000 0.550000 0.400000
v -0.135000 0.550000 0.425000
v -0.265000 0.550000 0.400000
v -0.265000 0.550000 0.425000
v -0.300000 0.550000 0.450000
v -0.300000 0.550000 0.425000
v -0.100000 0.550000 0.450000
v -0.100000 0.550000 0.425000
v -0.100000 0.550000 0.425000
v -0.135000 0.550000 0.425000
v -0.100000 0.725000 0.425000
v -0.135000 0.715000 0.425000
v -0.265000 0.715000 0.425000
v -0.300000 0.725000 0.425000
v -0.125000 0.750000 0.425000
v -0.275000 0.750000 0.425000
v -0.300000 0.550000 0.425000
v -0.265000 0.550000 0.425000
v -0.265000 0.715000 0.400000
v -0.265000 0.550000 0.400000
v -0.265000 0.715000 0.425000
v -0.265000 0.550000 0.425000
v -0.100000 0.725000 0.400000
v -0.100000 0.500000 0.400000
v -0.100000 0.725000 0.425000
v -0.100000 0.500000 0.425000
v -0.100000 0.550000 0.425000
v -0.100000 0.550000 0.450000
v -0.100000 0.500000 0.475000
v -0.100000 0.525000 0.475000
v -0.135000 0.550000 0.400000
v -0.135000 0.715000 0.400000
v -0.135000 0.550000 0.425000
v -0.135000 0.715000 0.425000
v -0.135000 0.715000 0.425000
v -0.135000 0.715000 0.400000
v -0.265000 0.715000 0.425000
v -0.265000 0.715000 0.400000
v -0.125000 0.750000 0.400000
v -0.100000 0.725000 0.400000
v -0.125000 0.750000 0.425000
v -0.100000 0.725000 0.425000
v -0.275000 0.750000 0.400000
v -0.275000 0.750000 0.425000
v -0.300000 0.725000 0.400000
v -0.300000 0.725000 0.425000
v 0.020745 0.925000 0.177195
v -0.006697 0.925000 0.273356
v -0.075416 0.925000 0.149753
v -0.102858 0.925000 0.245914
v -0.075416 0.900000 0.149753
v -0.075416 0.925000 0.149753
v -0.102858 0.900000 0.245914
v -0.102858 0.925000 0.245914
v -0.006697 0.900000 0.273356
v -0.102858 0.900000 0.245914
v -0.006697 0.925000 0.273356
v -0.102858 0.925000 0.245914
v 0.020745 0.925000 0.177195
v 0.020745 0.900000 0.177195
v -0.006697 0.925000 0.273356
v -0.006697 0.900000 0.273356
v -0.075416 0.900000 0.149753
v 0.020745 0.900000 0.177195
v -0.075416 0.925000 0.149753
v 0.020745 0.925000 0.177195
v 0.070011 0.925000 0.236939
v 0.129797 0.925000 0.156780
v 0.150170 0.925000 0.296726
v 0.209957 0.925000 0.216566
v 0.150170 0.900000 0.296726
v 0.150170 0.925000 0.296726
v 0.209957 0.900000 0.216566
v 0.209957 0.925000 0.216566
v 0.129797 0.900000 0.156780
v 0.209957 0.900000 0.216566
v 0.129797 0.925000 0.156780
v 0.209957 0.925000 0.216566
v 0.070011 0.925000 0.236939
v 0.070011 0.900000 0.236939
v 0.129797 0.925000 0.156780
v 0.129797 0.900000 0.156780
v 0.150170 0.900000 0.296726
v 0.070011 0.900000 0.236939
v 0.150170 0.925000 0.296726
v 0.070011 0.925000 0.236939
v 0.286085 1.000000 -0.159061
v 0.251816 1.000000 -0.076329
v 0.251816 1.000000 -0.241792
v 0.247473 1.000000 -0.159061
v 0.224513 1.000000 -0.214489
v 0.224513 1.000000 -0.103632
v 0.169085 1.000000 -0.276061
v 0.169085 1.000000 -0.237448
v 0.169085 1.000000 -0.042061
v 0.169085 1.000000 -0.080673
v 0.113657 1.000000 -0.103632
v 0.086353 1.000000 -0.241792
v 0.086353 1.000000 -0.076329
v 0.113657 1.000000 -0.214489
v 0.090697 1.000000 -0.159061
v 0.052085 1.000000 -0.159061
v 0.251816 1.000000 -0.241792
v 0.239796 0.900000 -0.229771
v 0.286085 1.000000 -0.159061
v 0.269085 0.900000 -0.159061
v 0.239796 0.900000 -0.088350
v 0.169085 0.900000 -0.059061
v 0.251816 1.000000 -0.076329
v 0.169085 1.000000 -0.042061
v 0.086353 1.000000 -0.241792
v 0.052085 1.000000 -0.159061
v 0.098374 0.900000 -0.229771
v 0.069085 0.900000 -0.159061
v 0.269085 0.900000 -0.159061
v 0.239796 0.900000 -0.088350
v 0.286085 1.000000 -0.159061
v 0.251816 1.000000 -0.076329
v 0.169085 0.900000 -0.059061
v 0.098374 0.900000 -0.088350
v 0.169085 1.000000 -0.042061
v 0.086353 1.000000 -0.076329
v 0.069085 0.900000 -0.159061
v 0.052085 1.000000 -0.159061
v 0.098374 0.900000 -0.088350
v 0.086353 1.000000 -0.076329
v 0.098374 0.900000 -0.229771
v 0.169085 0.900000 -0.259061
v 0.086353 1.000000 -0.241792
v 0.169085 1.000000 -0.276061
v 0.169085 0.900000 -0.259061
v 0.239796 0.900000 -0.229771
v 0.169085 1.000000 -0.276061
v 0.251816 1.000000 -0.241792
v 0.265000 0.150000 0.400000
v 0.135000 0.150000 0.400000
v 0.265000 0.315000 0.400000
v 0.135000 0.315000 0.400000
v -0.275000 0.050000 0.400000
v -0.275000 0.300000 0.400000
v -0.125000 0.050000 0.400000
v -0.125000 0.300000 0.400000
v 0.265000 0.550000 0.400000
v 0.135000 0.550000 0.400000
v 0.265000 0.715000 0.400000
v 0.135000 0.715000 0.400000
v -0.135000 0.550000 0.400000
v -0.265000 0.550000 0.400000
v -0.135000 0.715000 0.400000
v -0.265000 0.715000 0.400000
v 0.237282 0.950000 -0.159061
v 0.217308 0.950000 -0.110838
v 0.217308 0.950000 -0.207283
v 0.169085 0.950000 -0.227258
v 0.169085 0.950000 -0.090863
v 0.120862 0.950000 -0.207283
v 0.120862 0.950000 -0.110838
v 0.100888 0.950000 -0.159061
v 0.400000 0.350000 0.550000
v -0.400000 0.350000 0.550000
v 0.400000 0.400000 0.550000
v -0.400000 0.400000 0.550000
v -0.400000 0.350000 0.400000
v -0.400000 0.500000 0.400000
v -0.400000 0.350000 0.550000
v -0.400000 0.500000 0.450000
v -0.400000 0.400000 0.550000
v 0.400000 0.500000 0.400000
v 0.400000 0.350000 0.400000
v 0.400000 0.500000 0.450000
v 0.400000 0.350000 0.550000
v 0.400000 0.400000 0.550000
v 0.400000 0.350000 0.550000
v 0.400000 0.350000 0.400000
v -0.400000 0.350000 0.550000
v -0.400000 0.350000 0.400000
v 0.400000 0.400000 0.550000
v -0.400000 0.400000 0.550000
v 0.400000 0.500000 0.450000
v -0.400000 0.500000 0.450000
v 0.400000 0.500000 0.400000
v 0.400000 0.500000 0.450000
v -0.400000 0.500000 0.400000
v -0.400000 0.500000 0.450000
v 0.269085 0.900000 -0.159061
v 0.239796 0.900000 -0.229771
v 0.239796 0.900000 -0.088350
v 0.169085 0.900000 -0.059061
v 0.169085 0.900000 -0.259061
v 0.098374 0.900000 -0.088350
v 0.098374 0.900000 -0.229771
v 0.069085 0.900000 -0.159061
vt 0.218750 0.025000
vt 0.218750 0.025000
vt 0.218750 0.225000
vt 0.218750 0.225000
vt 0.218750 0.025000
vt 0.218750 0.025000
vt 0.218750 0.025000
vt 0.218750 0.025000
vt 0.218750 0.025000
vt 0.218750 0.225000
vt 0.218750 0.025000
vt 0.218750 0.225000
vt 0.218750 0.225000
vt 0.218750 0.025000
vt 0.218750 0.225000
vt 0.218750 0.025000
vt 0.218750 0.025000
vt 0.218750 0.025000
vt 0.218750 0.225000
vt 0.218750 0.225000
vt 0.218750 0.225000
vt 0.218750 0.225000
vt 0.218750 0.225000
vt 0.218750 0.225000
vt 0.218750 0.225000
vt 0.218750 0.025000
vt 0.218750 0.225000
vt 0.218750 0.025000
vt 0.218750 0.025000
vt 0.218750 0.025000
vt 0.218750 0.225000
vt 0.218750 0.225000
vt 0.218750 0.025000
vt 0.218750 0.225000
vt 0.218750 0.025000
vt 0.218750 0.225000
vt 0.218750 0.162500
vt 0.218750 0.050000
vt 0.218750 0.225000
vt 0.218750 0.175000
vt 0.218750 0.025000
vt 0.218750 0.225000
vt 0.218750 0.050000
vt 0.218750 0.025000
vt 0.218750 0.175000
vt 0.218750 0.162500
vt 0.218750 0.162500
vt 0.218750 0.050000
vt 0.218750 0.225000
vt 0.218750 0.175000
vt 0.218750 0.025000
vt 0.218750 0.225000
vt 0.218750 0.050000
vt 0.218750 0.025000
vt 0.218750 0.175000
vt 0.218750 0.162500
vt 0.218750 0.125000
vt 0.218750 0.125000
vt 0.218750 0.225000
vt 0.218750 0.225000
vt 0.218750 0.225000
vt 0.218750 0.125000
vt 0.218750 0.225000
vt 0.218750 0.125000
vt 0.218750 0.225000
vt 0.218750 0.125000
vt 0.218750 0.225000
vt 0.218750 0.125000
vt 0.218750 0.225000
vt 0.218750 0.225000
vt 0.218750 0.125000
vt 0.218750 0.125000
vt 0.218750 0.125000
vt 0.218750 0.225000
vt 0.218750 0.125000
vt 0.218750 0.225000
vt 0.218750 0.125000
vt 0.218750 0.125000
vt 0.218750 0.225000
vt 0.218750 0.225000
vt 0.218750 0.125000
vt 0.218750 0.125000
vt 0.218750 0.225000
vt 0.218750 0.225000
vt 0.218750 0.125000
vt 0.218750 0.125000
vt 0.218750 0.225000
vt 0.218750 0.225000
vt 0.718750 0.025000
vt 0.718750 0.025000
vt 0.718750 0.225000
vt 0.718750 0.225000
vt 0.718750 0.025000
vt 0.718750 0.225000
vt 0.718750 0.025000
vt 0.718750 0.225000
vt 0.718750 0.225000
vt 0.718750 0.025000
vt 0.718750 0.225000
vt 0.718750 0.025000
vt 0.718750 0.162500
vt 0.718750 0.050000
vt 0.718750 0.225000
vt 0.718750 0.175000
vt 0.718750 0.025000
vt 0.718750 0.225000
vt 0.718750 0.050000
vt 0.718750 0.025000
vt 0.718750 0.175000
vt 0.718750 0.162500
vt 0.718750 0.025000
vt 0.718750 0.025000
vt 0.718750 0.225000
vt 0.718750 0.162500
vt 0.718750 0.175000
vt 0.718750 0.175000
vt 0.718750 0.225000
vt 0.718750 0.162500
vt 0.718750 0.025000
vt 0.718750 0.025000
vt 0.468750 0.037500
vt 0.468750 0.225000
vt 0.468750 0.037500
vt 0.468750 0.225000
vt 0.468750 0.037500
vt 0.468750 0.037500
vt 0.468750 0.225000
vt 0.468750 0.225000
vt 0.468750 0.037500
vt 0.468750 0.037500
vt 0.468750 0.225000
vt 0.468750 0.225000
vt 0.468750 0.025000
vt 0.468750 0.025000
vt 0.468750 0.025000
vt 0.468750 0.025000
vt 0.468750 0.025000
vt 0.468750 0.025000
vt 0.468750 0.025000
vt 0.468750 0.025000
vt 0.468750 0.225000
vt 0.468750 0.225000
vt 0.468750 0.225000
vt 0.468750 0.225000
vt 0.468750 0.225000
vt 0.468750 0.225000
vt 0.468750 0.225000
vt 0.468750 0.225000
vt 0.468750 0.025000
vt 0.468750 0.025000
vt 0.468750 0.225000
vt 0.468750 0.225000
vt 0.468750 0.025000
vt 0.468750 0.225000
vt 0.468750 0.025000
vt 0.468750 0.225000
vt 0.468750 0.025000
vt 0.468750 0.025000
vt 0.468750 0.225000
vt 0.468750 0.225000
vt 0.468750 0.025000
vt 0.468750 0.225000
vt 0.468750 0.025000
vt 0.468750 0.225000
vt 0.468750 0.025000
vt 0.468750 0.025000
vt 0.468750 0.025000
vt 0.468750 0.025000
vt 0.468750 0.025000
vt 0.468750 0.025000
vt 0.468750 0.025000
vt 0.468750 0.025000
vt 0.468750 0.225000
vt 0.468750 0.225000
vt 0.468750 0.225000
vt 0.468750 0.225000
vt 0.468750 0.225000
vt 0.468750 0.225000
vt 0.468750 0.225000
vt 0.468750 0.225000
vt 0.468750 0.025000
vt 0.468750 0.025000
vt 0.468750 0.225000
vt 0.468750 0.225000
vt 0.468750 0.025000
vt 0.468750 0.225000
vt 0.468750 0.025000
vt 0.468750 0.225000
vt 0.468750 0.025000
vt 0.468750 0.025000
vt 0.468750 0.225000
vt 0.468750 0.225000
vt 0.468750 0.025000
vt 0.468750 0.225000
vt 0.468750 0.025000
vt 0.468750 0.225000
vt 0.468750 0.062500
vt 0.468750 0.062500
vt 0.468750 0.075000
vt 0.468750 0.075000
vt 0.468750 0.050000
vt 0.468750 0.050000
vt 0.468750 0.062500
vt 0.468750 0.062500
vt 0.468750 0.050000
vt 0.468750 0.162500
vt 0.468750 0.050000
vt 0.468750 0.162500
vt 0.468750 0.075000
vt 0.468750 0.050000
vt 0.468750 0.075000
vt 0.468750 0.062500
vt 0.468750 0.050000
vt 0.468750 0.050000
vt 0.468750 0.050000
vt 0.468750 0.050000
vt 0.468750 0.050000
vt 0.468750 0.050000
vt 0.468750 0.175000
vt 0.468750 0.175000
vt 0.468750 0.175000
vt 0.468750 0.175000
vt 0.468750 0.075000
vt 0.468750 0.075000
vt 0.468750 0.075000
vt 0.468750 0.075000
vt 0.468750 0.075000
vt 0.468750 0.075000
vt 0.468750 0.075000
vt 0.468750 0.075000
vt 0.468750 0.075000
vt 0.468750 0.075000
vt 0.468750 0.162500
vt 0.468750 0.157500
vt 0.468750 0.157500
vt 0.468750 0.162500
vt 0.468750 0.175000
vt 0.468750 0.175000
vt 0.468750 0.075000
vt 0.468750 0.075000
vt 0.468750 0.157500
vt 0.468750 0.075000
vt 0.468750 0.157500
vt 0.468750 0.075000
vt 0.468750 0.162500
vt 0.468750 0.050000
vt 0.468750 0.162500
vt 0.468750 0.050000
vt 0.468750 0.075000
vt 0.468750 0.075000
vt 0.468750 0.050000
vt 0.468750 0.062500
vt 0.468750 0.075000
vt 0.468750 0.157500
vt 0.468750 0.075000
vt 0.468750 0.157500
vt 0.468750 0.157500
vt 0.468750 0.157500
vt 0.468750 0.157500
vt 0.468750 0.157500
vt 0.468750 0.175000
vt 0.468750 0.162500
vt 0.468750 0.175000
vt 0.468750 0.162500
vt 0.468750 0.175000
vt 0.468750 0.175000
vt 0.468750 0.162500
vt 0.468750 0.162500
vt 0.468750 0.025000
vt 0.468750 0.025000
vt 0.468750 0.025000
vt 0.468750 0.025000
vt 0.468750 0.025000
vt 0.468750 0.025000
vt 0.468750 0.025000
vt 0.468750 0.025000
vt 0.468750 0.025000
vt 0.468750 0.150000
vt 0.468750 0.025000
vt 0.468750 0.150000
vt 0.468750 0.150000
vt 0.468750 0.025000
vt 0.468750 0.150000
vt 0.468750 0.025000
vt 0.468750 0.162500
vt 0.468750 0.025000
vt 0.468750 0.162500
vt 0.468750 0.025000
vt 0.468750 0.175000
vt 0.468750 0.162500
vt 0.468750 0.175000
vt 0.468750 0.162500
vt 0.468750 0.025000
vt 0.468750 0.162500
vt 0.468750 0.025000
vt 0.468750 0.162500
vt 0.468750 0.175000
vt 0.468750 0.175000
vt 0.468750 0.162500
vt 0.468750 0.162500
vt 0.468750 0.150000
vt 0.468750 0.150000
vt 0.468750 0.150000
vt 0.468750 0.150000
vt 0.468750 0.175000
vt 0.468750 0.175000
vt 0.468750 0.175000
vt 0.468750 0.175000
vt 0.468750 0.025000
vt 0.468750 0.025000
vt 0.468750 0.162500
vt 0.468750 0.150000
vt 0.468750 0.150000
vt 0.468750 0.162500
vt 0.468750 0.175000
vt 0.468750 0.175000
vt 0.468750 0.025000
vt 0.468750 0.025000
vt 0.468750 0.025000
vt 0.468750 0.025000
vt 0.468750 0.225000
vt 0.468750 0.225000
vt 0.468750 0.025000
vt 0.468750 0.025000
vt 0.468750 0.225000
vt 0.468750 0.225000
vt 0.468750 0.225000
vt 0.468750 0.025000
vt 0.468750 0.225000
vt 0.468750 0.025000
vt 0.468750 0.225000
vt 0.468750 0.025000
vt 0.468750 0.225000
vt 0.468750 0.025000
vt 0.468750 0.025000
vt 0.468750 0.025000
vt 0.468750 0.225000
vt 0.468750 0.225000
vt 0.468750 0.225000
vt 0.468750 0.025000
vt 0.468750 0.225000
vt 0.468750 0.025000
vt 0.468750 0.025000
vt 0.468750 0.025000
vt 0.468750 0.225000
vt 0.468750 0.225000
vt 0.468750 0.025000
vt 0.468750 0.025000
vt 0.468750 0.225000
vt 0.468750 0.225000
vt 0.468750 0.025000
vt 0.468750 0.225000
vt 0.468750 0.025000
vt 0.468750 0.225000
vt 0.468750 0.025000
vt 0.468750 0.225000
vt 0.468750 0.025000
vt 0.468750 0.225000
vt 0.468750 0.025000
vt 0.468750 0.225000
vt 0.468750 0.025000
vt 0.468750 0.225000
vt 0.468750 0.025000
vt 0.468750 0.025000
vt 0.468750 0.225000
vt 0.468750 0.225000
vt 0.468750 0.225000
vt 0.468750 0.225000
vt 0.468750 0.225000
vt 0.468750 0.225000
vt 0.468750 0.225000
vt 0.468750 0.225000
vt 0.468750 0.225000
vt 0.468750 0.225000
vt 0.468750 0.225000
vt 0.468750 0.225000
vt 0.468750 0.225000
vt 0.468750 0.225000
vt 0.468750 0.225000
vt 0.468750 0.225000
vt 0.468750 0.225000
vt 0.468750 0.225000
vt 0.468750 0.225000
vt 0.468750 0.225000
vt 0.468750 0.225000
vt 0.468750 0.225000
vt 0.468750 0.025000
vt 0.468750 0.025000
vt 0.468750 0.025000
vt 0.468750 0.025000
vt 0.468750 0.025000
vt 0.468750 0.025000
vt 0.468750 0.025000
vt 0.468750 0.025000
vt 0.468750 0.025000
vt 0.468750 0.025000
vt 0.468750 0.025000
vt 0.468750 0.025000
vt 0.468750 0.125000
vt 0.468750 0.125000
vt 0.468750 0.125000
vt 0.468750 0.125000
vt 0.468750 0.125000
vt 0.468750 0.125000
vt 0.468750 0.125000
vt 0.468750 0.125000
vt 0.468750 0.125000
vt 0.468750 0.125000
vt 0.468750 0.225000
vt 0.468750 0.225000
vt 0.468750 0.125000
vt 0.468750 0.125000
vt 0.468750 0.225000
vt 0.468750 0.225000
vt 0.468750 0.125000
vt 0.468750 0.225000
vt 0.468750 0.125000
vt 0.468750 0.225000
vt 0.468750 0.125000
vt 0.468750 0.225000
vt 0.468750 0.125000
vt 0.468750 0.225000
vt 0.468750 0.125000
vt 0.468750 0.125000
vt 0.468750 0.225000
vt 0.468750 0.225000
vt 0.468750 0.225000
vt 0.468750 0.125000
vt 0.468750 0.225000
vt 0.468750 0.125000
vt 0.468750 0.225000
vt 0.468750 0.125000
vt 0.468750 0.225000
vt 0.468750 0.125000
vt 0.468750 0.225000
vt 0.468750 0.125000
vt 0.468750 0.225000
vt 0.468750 0.125000
vt 0.468750 0.062500
vt 0.468750 0.062500
vt 0.468750 0.075000
vt 0.468750 0.075000
vt 0.468750 0.050000
vt 0.468750 0.050000
vt 0.468750 0.062500
vt 0.468750 0.062500
vt 0.468750 0.050000
vt 0.468750 0.162500
vt 0.468750 0.050000
vt 0.468750 0.162500
vt 0.468750 0.075000
vt 0.468750 0.050000
vt 0.468750 0.075000
vt 0.468750 0.062500
vt 0.468750 0.050000
vt 0.468750 0.050000
vt 0.468750 0.050000
vt 0.468750 0.050000
vt 0.468750 0.050000
vt 0.468750 0.050000
vt 0.468750 0.175000
vt 0.468750 0.175000
vt 0.468750 0.175000
vt 0.468750 0.175000
vt 0.468750 0.075000
vt 0.468750 0.075000
vt 0.468750 0.075000
vt 0.468750 0.075000
vt 0.468750 0.075000
vt 0.468750 0.075000
vt 0.468750 0.075000
vt 0.468750 0.075000
vt 0.468750 0.075000
vt 0.468750 0.075000
vt 0.468750 0.162500
vt 0.468750 0.157500
vt 0.468750 0.157500
vt 0.468750 0.162500
vt 0.468750 0.175000
vt 0.468750 0.175000
vt 0.468750 0.075000
vt 0.468750 0.075000
vt 0.468750 0.157500
vt 0.468750 0.075000
vt 0.468750 0.157500
vt 0.468750 0.075000
vt 0.468750 0.162500
vt 0.468750 0.050000
vt 0.468750 0.162500
vt 0.468750 0.050000
vt 0.468750 0.075000
vt 0.468750 0.075000
vt 0.468750 0.050000
vt 0.468750 0.062500
vt 0.468750 0.075000
vt 0.468750 0.157500
vt 0.468750 0.075000
vt 0.468750 0.157500
vt 0.468750 0.157500
vt 0.468750 0.157500
vt 0.468750 0.157500
vt 0.468750 0.157500
vt 0.468750 0.175000
vt 0.468750 0.162500
vt 0.468750 0.175000
vt 0.468750 0.162500
vt 0.468750 0.175000
vt 0.468750 0.175000
vt 0.468750 0.162500
vt 0.468750 0.162500
vt 0.468750 0.062500
vt 0.468750 0.062500
vt 0.468750 0.075000
vt 0.468750 0.075000
vt 0.468750 0.050000
vt 0.468750 0.050000
vt 0.468750 0.062500
vt 0.468750 0.062500
vt 0.468750 0.050000
vt 0.468750 0.162500
vt 0.468750 0.050000
vt 0.468750 0.162500
vt 0.468750 0.075000
vt 0.468750 0.050000
vt 0.468750 0.075000
vt 0.468750 0.062500
vt 0.468750 0.050000
vt 0.468750 0.050000
vt 0.468750 0.050000
vt 0.468750 0.050000
vt 0.468750 0.050000
vt 0.468750 0.050000
vt 0.468750 0.175000
vt 0.468750 0.175000
vt 0.468750 0.175000
vt 0.468750 0.175000
vt 0.468750 0.075000
vt 0.468750 0.075000
vt 0.468750 0.075000
vt 0.468750 0.075000
vt 0.468750 0.075000
vt 0.468750 0.075000
vt 0.468750 0.075000
vt 0.468750 0.075000
vt 0.468750 0.075000
vt 0.468750 0.075000
vt 0.468750 0.162500
vt 0.468750 0.157500
vt 0.468750 0.157500
vt 0.468750 0.162500
vt 0.468750 0.175000
vt 0.468750 0.175000
vt 0.468750 0.075000
vt 0.468750 0.075000
vt 0.468750 0.157500
vt 0.468750 0.075000
vt 0.468750 0.157500
vt 0.468750 0.075000
vt 0.468750 0.162500
vt 0.468750 0.050000
vt 0.468750 0.162500
vt 0.468750 0.050000
vt 0.468750 0.075000
vt 0.468750 0.075000
vt 0.468750 0.050000
vt 0.468750 0.062500
vt 0.468750 0.075000
vt 0.468750 0.157500
vt 0.468750 0.075000
vt 0.468750 0.157500
vt 0.468750 0.157500
vt 0.468750 0.157500
vt 0.468750 0.157500
vt 0.468750 0.157500
vt 0.468750 0.175000
vt 0.468750 0.162500
vt 0.468750 0.175000
vt 0.468750 0.162500
vt 0.468750 0.175000
vt 0.468750 0.175000
vt 0.468750 0.162500
vt 0.468750 0.162500
vt 0.468750 0.225000
vt 0.468750 0.225000
vt 0.468750 0.225000
vt 0.468750 0.225000
vt 0.468750 0.025000
vt 0.468750 0.225000
vt 0.468750 0.025000
vt 0.468750 0.225000
vt 0.468750 0.025000
vt 0.468750 0.025000
vt 0.468750 0.225000
vt 0.468750 0.225000
vt 0.468750 0.225000
vt 0.468750 0.025000
vt 0.468750 0.225000
vt 0.468750 0.025000
vt 0.468750 0.025000
vt 0.468750 0.025000
vt 0.468750 0.225000
vt 0.468750 0.225000
vt 0.468750 0.225000
vt 0.468750 0.225000
vt 0.468750 0.225000
vt 0.468750 0.225000
vt 0.468750 0.025000
vt 0.468750 0.225000
vt 0.468750 0.025000
vt 0.468750 0.225000
vt 0.468750 0.025000
vt 0.468750 0.025000
vt 0.468750 0.225000
vt 0.468750 0.225000
vt 0.468750 0.225000
vt 0.468750 0.025000
vt 0.468750 0.225000
vt 0.468750 0.025000
vt 0.468750 0.025000
vt 0.468750 0.025000
vt 0.468750 0.225000
vt 0.468750 0.225000
vt 0.468750 0.225000
vt 0.468750 0.225000
vt 0.468750 0.225000
vt 0.468750 0.225000
vt 0.468750 0.225000
vt 0.468750 0.225000
vt 0.468750 0.225000
vt 0.468750 0.225000
vt 0.468750 0.225000
vt 0.468750 0.225000
vt 0.468750 0.225000
vt 0.468750 0.225000
vt 0.468750 0.225000
vt 0.468750 0.225000
vt 0.468750 0.225000
vt 0.468750 0.225000
vt 0.468750 0.225000
vt 0.468750 0.025000
vt 0.468750 0.225000
vt 0.468750 0.025000
vt 0.468750 0.025000
vt 0.468750 0.025000
vt 0.468750 0.225000
vt 0.468750 0.225000
vt 0.468750 0.225000
vt 0.468750 0.225000
vt 0.468750 0.025000
vt 0.468750 0.025000
vt 0.468750 0.025000
vt 0.468750 0.025000
vt 0.468750 0.225000
vt 0.468750 0.225000
vt 0.468750 0.025000
vt 0.468750 0.025000
vt 0.468750 0.225000
vt 0.468750 0.225000
vt 0.468750 0.025000
vt 0.468750 0.225000
vt 0.468750 0.025000
vt 0.468750 0.225000
vt 0.468750 0.025000
vt 0.468750 0.025000
vt 0.468750 0.225000
vt 0.468750 0.225000
vt 0.468750 0.025000
vt 0.468750 0.025000
vt 0.468750 0.225000
vt 0.468750 0.225000
vt 0.093750 0.075000
vt 0.093750 0.075000
vt 0.093750 0.157500
vt 0.093750 0.157500
vt 0.093750 0.025000
vt 0.093750 0.150000
vt 0.093750 0.025000
vt 0.093750 0.150000
vt 0.093750 0.075000
vt 0.093750 0.075000
vt 0.093750 0.157500
vt 0.093750 0.157500
vt 0.093750 0.075000
vt 0.093750 0.075000
vt 0.093750 0.157500
vt 0.093750 0.157500
vt 0.093750 0.125000
vt 0.093750 0.125000
vt 0.093750 0.125000
vt 0.093750 0.125000
vt 0.093750 0.125000
vt 0.093750 0.125000
vt 0.093750 0.125000
vt 0.093750 0.125000
vt 0.218750 0.275000
vt 0.218750 0.275000
vt 0.218750 0.341667
vt 0.218750 0.341667
vt 0.218750 0.275000
vt 0.218750 0.475000
vt 0.218750 0.275000
vt 0.218750 0.475000
vt 0.218750 0.341667
vt 0.218750 0.475000
vt 0.218750 0.275000
vt 0.218750 0.475000
vt 0.218750 0.275000
vt 0.218750 0.341667
vt 0.218750 0.275000
vt 0.218750 0.275000
vt 0.218750 0.275000
vt 0.218750 0.275000
vt 0.218750 0.341667
vt 0.218750 0.341667
vt 0.218750 0.475000
vt 0.218750 0.475000
vt 0.218750 0.475000
vt 0.218750 0.475000
vt 0.218750 0.475000
vt 0.218750 0.475000
vt 0.593750 0.025000
vt 0.593750 0.025000
vt 0.593750 0.025000
vt 0.593750 0.025000
vt 0.593750 0.025000
vt 0.593750 0.025000
vt 0.593750 0.025000
vt 0.593750 0.025000
usemtl colormap
f 3/3 2/2 1/1
f 2/2 3/3 4/4
f 7/7 6/6 5/5
f 6/6 7/7 8/8
f 11/11 10/10 9/9
f 10/10 11/11 12/12
f 15/15 14/14 13/13
f 14/14 15/15 16/16
f 19/19 18/18 17/17
f 18/18 19/19 20/20
f 23/23 22/22 21/21
f 22/22 23/23 24/24
f 27/27 26/26 25/25
f 26/26 27/27 28/28
f 31/31 30/30 29/29
f 30/30 31/31 32/32
f 35/35 34/34 33/33
f 34/34 35/35 36/36
f 39/39 38/38 37/37
f 39/39 37/37 40/40
f 41/41 38/38 39/39
f 39/39 40/40 42/42
f 38/38 41/41 43/43
f 44/44 43/43 41/41
f 43/43 44/44 42/42
f 45/45 42/42 40/40
f 43/43 42/42 46/46
f 46/46 42/42 45/45
f 49/49 48/48 47/47
f 49/49 47/47 50/50
f 51/51 48/48 49/49
f 49/49 50/50 52/52
f 48/48 51/51 53/53
f 54/54 53/53 51/51
f 53/53 54/54 52/52
f 55/55 52/52 50/50
f 53/53 52/52 56/56
f 56/56 52/52 55/55
f 59/59 58/58 57/57
f 58/58 59/59 60/60
f 63/63 62/62 61/61
f 62/62 63/63 64/64
f 67/67 66/66 65/65
f 66/66 67/67 68/68
f 71/71 70/70 69/69
f 70/70 71/71 72/72
f 75/75 74/74 73/73
f 74/74 75/75 76/76
f 79/79 78/78 77/77
f 78/78 79/79 80/80
f 83/83 82/82 81/81
f 82/82 83/83 84/84
f 87/87 86/86 85/85
f 86/86 87/87 88/88
f 91/91 90/90 89/89
f 90/90 91/91 92/92
f 95/95 94/94 93/93
f 94/94 95/95 96/96
f 99/99 98/98 97/97
f 98/98 99/99 100/100
f 103/103 102/102 101/101
f 103/103 101/101 104/104
f 105/105 102/102 103/103
f 103/103 104/104 106/106
f 102/102 105/105 107/107
f 108/108 107/107 105/105
f 107/107 108/108 106/106
f 109/109 106/106 104/104
f 107/107 106/106 110/110
f 110/110 106/106 109/109
f 113/113 112/112 111/111
f 112/112 113/113 114/114
f 114/114 113/113 115/115
f 115/115 113/113 116/116
f 117/117 116/116 113/113
f 117/117 118/118 116/116
f 119/119 118/118 117/117
f 118/118 119/119 120/120
f 123/123 122/122 121/121
f 122/122 123/123 124/124
f 127/127 126/126 125/125
f 126/126 127/127 128/128
f 131/131 130/130 129/129
f 130/130 131/131 132/132
f 135/135 134/134 133/133
f 134/134 135/135 136/136
f 136/136 135/135 137/137
f 136/136 137/137 138/138
f 141/141 140/140 139/139
f 140/140 141/141 142/142
f 145/145 144/144 143/143
f 144/144 145/145 146/146
f 146/146 145/145 147/147
f 146/146 147/147 148/148
f 151/151 150/150 149/149
f 150/150 151/151 152/152
f 155/155 154/154 153/153
f 154/154 155/155 156/156
f 159/159 158/158 157/157
f 158/158 159/159 160/160
f 163/163 162/162 161/161
f 162/162 163/163 164/164
f 167/167 166/166 165/165
f 166/166 167/167 168/168
f 168/168 167/167 169/169
f 168/168 169/169 170/170
f 173/173 172/172 171/171
f 172/172 173/173 174/174
f 177/177 176/176 175/175
f 176/176 177/177 178/178
f 178/178 177/177 179/179
f 178/178 179/179 180/180
f 183/183 182/182 181/181
f 182/182 183/183 184/184
f 187/187 186/186 185/185
f 186/186 187/187 188/188
f 191/191 190/190 189/189
f 190/190 191/191 192/192
f 195/195 194/194 193/193
f 194/194 195/195 196/196
f 199/199 198/198 197/197
f 198/198 199/199 200/200
f 203/203 202/202 201/201
f 202/202 203/203 204/204
f 207/207 206/206 205/205
f 206/206 207/207 208/208
f 208/208 207/207 209/209
f 210/210 209/209 207/207
f 209/209 210/210 211/211
f 211/211 210/210 212/212
f 215/215 214/214 213/213
f 214/214 215/215 216/216
f 216/216 215/215 217/217
f 217/217 215/215 218/218
f 221/221 220/220 219/219
f 220/220 221/221 222/222
f 225/225 224/224 223/223
f 226/226 224/224 225/225
f 227/227 224/224 226/226
f 227/227 226/226 228/228
f 229/229 224/224 227/227
f 224/224 229/229 230/230
f 233/233 232/232 231/231
f 232/232 233/233 234/234
f 234/234 233/233 235/235
f 236/236 235/235 233/233
f 236/236 233/233 237/237
f 236/236 237/237 238/238
f 239/239 235/235 236/236
f 235/235 239/239 240/240
f 243/243 242/242 241/241
f 242/242 243/243 244/244
f 247/247 246/246 245/245
f 246/246 247/247 248/248
f 248/248 247/247 249/249
f 250/250 248/248 249/249
f 248/248 250/250 251/251
f 251/251 250/250 252/252
f 255/255 254/254 253/253
f 254/254 255/255 256/256
f 259/259 258/258 257/257
f 258/258 259/259 260/260
f 263/263 262/262 261/261
f 262/262 263/263 264/264
f 267/267 266/266 265/265
f 266/266 267/267 268/268
f 271/271 270/270 269/269
f 270/270 271/271 272/272
f 275/275 274/274 273/273
f 274/274 275/275 276/276
f 279/279 278/278 277/277
f 278/278 279/279 280/280
f 283/283 282/282 281/281
f 282/282 283/283 284/284
f 287/287 286/286 285/285
f 286/286 287/287 288/288
f 291/291 290/290 289/289
f 290/290 291/291 292/292
f 295/295 294/294 293/293
f 294/294 295/295 296/296
f 299/299 298/298 297/297
f 298/298 299/299 300/300
f 303/303 302/302 301/301
f 302/302 303/303 304/304
f 307/307 306/306 305/305
f 306/306 307/307 308/308
f 311/311 310/310 309/309
f 310/310 311/311 312/312
f 312/312 311/311 313/313
f 314/314 313/313 311/311
f 314/314 311/311 315/315
f 314/314 315/315 316/316
f 317/317 313/313 314/314
f 313/313 317/317 318/318
f 321/321 320/320 319/319
f 320/320 321/321 322/322
f 325/325 324/324 323/323
f 324/324 325/325 326/326
f 329/329 328/328 327/327
f 328/328 329/329 330/330
f 333/333 332/332 331/331
f 332/332 333/333 334/334
f 337/337 336/336 335/335
f 336/336 337/337 338/338
f 341/341 340/340 339/339
f 340/340 341/341 342/342
f 345/345 344/344 343/343
f 344/344 345/345 346/346
f 349/349 348/348 347/347
f 348/348 349/349 350/350
f 353/353 352/352 351/351
f 352/352 353/353 354/354
f 357/357 356/356 355/355
f 356/356 357/357 358/358
f 361/361 360/360 359/359
f 360/360 361/361 362/362
f 365/365 364/364 363/363
f 364/364 365/365 366/366
f 369/369 368/368 367/367
f 368/368 369/369 370/370
f 370/370 369/369 371/371
f 370/370 371/371 372/372
f 372/372 373/373 370/370
f 372/372 371/371 374/374
f 373/373 372/372 375/375
f 373/373 375/375 376/376
f 374/374 371/371 377/377
f 374/374 377/377 378/378
f 378/378 377/377 379/379
f 373/373 376/376 380/380
f 379/379 377/377 381/381
f 380/380 376/376 382/382
f 380/380 382/382 383/383
f 379/379 381/381 383/383
f 383/383 381/381 380/380
f 380/380 381/381 384/384
f 384/384 381/381 385/385
f 384/384 385/385 386/386
f 389/389 388/388 387/387
f 388/388 389/389 390/390
f 390/390 389/389 391/391
f 390/390 391/391 392/392
f 392/392 391/391 393/393
f 392/392 393/393 394/394
f 394/394 393/393 395/395
f 394/394 395/395 396/396
f 396/396 395/395 397/397
f 396/396 397/397 398/398
f 401/401 400/400 399/399
f 400/400 401/401 402/402
f 402/402 401/401 403/403
f 402/402 403/403 404/404
f 404/404 403/403 405/405
f 404/404 405/405 406/406
f 409/409 408/408 407/407
f 408/408 409/409 410/410
f 413/413 412/412 411/411
f 412/412 413/413 414/414
f 417/417 416/416 415/415
f 416/416 417/417 418/418
f 421/421 420/420 419/419
f 420/420 421/421 422/422
f 425/425 424/424 423/423
f 424/424 425/425 426/426
f 429/429 428/428 427/427
f 428/428 429/429 430/430
f 433/433 432/432 431/431
f 432/432 433/433 434/434
f 437/437 436/436 435/435
f 436/436 437/437 438/438
f 441/441 440/440 439/439
f 440/440 441/441 442/442
f 445/445 444/444 443/443
f 444/444 445/445 446/446
f 449/449 448/448 447/447
f 448/448 449/449 450/450
f 450/450 449/449 451/451
f 452/452 451/451 449/449
f 451/451 452/452 453/453
f 453/453 452/452 454/454
f 457/457 456/456 455/455
f 456/456 457/457 458/458
f 458/458 457/457 459/459
f 459/459 457/457 460/460
f 463/463 462/462 461/461
f 462/462 463/463 464/464
f 467/467 466/466 465/465
f 468/468 466/466 467/467
f 469/469 466/466 468/468
f 469/469 468/468 470/470
f 471/471 466/466 469/469
f 466/466 471/471 472/472
f 475/475 474/474 473/473
f 474/474 475/475 476/476
f 476/476 475/475 477/477
f 478/478 477/477 475/475
f 478/478 475/475 479/479
f 478/478 479/479 480/480
f 481/481 477/477 478/478
f 477/477 481/481 482/482
f 485/485 484/484 483/483
f 484/484 485/485 486/486
f 489/489 488/488 487/487
f 488/488 489/489 490/490
f 490/490 489/489 491/491
f 492/492 490/490 491/491
f 490/490 492/492 493/493
f 493/493 492/492 494/494
f 497/497 496/496 495/495
f 496/496 497/497 498/498
f 501/501 500/500 499/499
f 500/500 501/501 502/502
f 505/505 504/504 503/503
f 504/504 505/505 506/506
f 509/509 508/508 507/507
f 508/508 509/509 510/510
f 513/513 512/512 511/511
f 512/512 513/513 514/514
f 517/517 516/516 515/515
f 516/516 517/517 518/518
f 521/521 520/520 519/519
f 520/520 521/521 522/522
f 522/522 521/521 523/523
f 524/524 523/523 521/521
f 523/523 524/524 525/525
f 525/525 524/524 526/526
f 529/529 528/528 527/527
f 528/528 529/529 530/530
f 530/530 529/529 531/531
f 531/531 529/529 532/532
f 535/535 534/534 533/533
f 534/534 535/535 536/536
f 539/539 538/538 537/537
f 540/540 538/538 539/539
f 541/541 538/538 540/540
f 541/541 540/540 542/542
f 543/543 538/538 541/541
f 538/538 543/543 544/544
f 547/547 546/546 545/545
f 546/546 547/547 548/548
f 548/548 547/547 549/549
f 550/550 549/549 547/547
f 550/550 547/547 551/551
f 550/550 551/551 552/552
f 553/553 549/549 550/550
f 549/549 553/553 554/554
f 557/557 556/556 555/555
f 556/556 557/557 558/558
f 561/561 560/560 559/559
f 560/560 561/561 562/562
f 562/562 561/561 563/563
f 564/564 562/562 563/563
f 562/562 564/564 565/565
f 565/565 564/564 566/566
f 569/569 568/568 567/567
f 568/568 569/569 570/570
f 573/573 572/572 571/571
f 572/572 573/573 574/574
f 577/577 576/576 575/575
f 576/576 577/577 578/578
f 581/581 580/580 579/579
f 580/580 581/581 582/582
f 585/585 584/584 583/583
f 584/584 585/585 586/586
f 589/589 588/588 587/587
f 588/588 589/589 590/590
f 593/593 592/592 591/591
f 592/592 593/593 594/594
f 597/597 596/596 595/595
f 596/596 597/597 598/598
f 601/601 600/600 599/599
f 600/600 601/601 602/602
f 605/605 604/604 603/603
f 604/604 605/605 606/606
f 609/609 608/608 607/607
f 608/608 609/609 610/610
f 613/613 612/612 611/611
f 612/612 613/613 614/614
f 617/617 616/616 615/615
f 616/616 617/617 618/618
f 621/621 620/620 619/619
f 620/620 621/621 622/622
f 625/625 624/624 623/623
f 624/624 625/625 626/626
f 626/626 625/625 627/627
f 628/628 624/624 626/626
f 627/627 625/625 629/629
f 627/627 629/629 630/630
f 624/624 628/628 631/631
f 631/631 628/628 632/632
f 631/631 632/632 633/633
f 630/630 629/629 634/634
f 631/631 633/633 635/635
f 630/630 634/634 636/636
f 635/635 633/633 637/637
f 636/636 634/634 637/637
f 635/635 637/637 634/634
f 635/635 634/634 638/638
f 641/641 640/640 639/639
f 640/640 641/641 642/642
f 645/645 644/644 643/643
f 644/644 645/645 646/646
f 649/649 648/648 647/647
f 648/648 649/649 650/650
f 653/653 652/652 651/651
f 652/652 653/653 654/654
f 657/657 656/656 655/655
f 656/656 657/657 658/658
f 661/661 660/660 659/659
f 660/660 661/661 662/662
f 665/665 664/664 663/663
f 664/664 665/665 666/666
f 669/669 668/668 667/667
f 668/668 669/669 670/670
f 673/673 672/672 671/671
f 672/672 673/673 674/674
f 677/677 676/676 675/675
f 676/676 677/677 678/678
f 681/681 680/680 679/679
f 680/680 681/681 682/682
f 685/685 684/684 683/683
f 684/684 685/685 686/686
f 689/689 688/688 687/687
f 688/688 689/689 690/690
f 688/688 690/690 691/691
f 691/691 690/690 692/692
f 691/691 692/692 693/693
f 693/693 692/692 694/694
f 697/697 696/696 695/695
f 696/696 697/697 698/698
f 701/701 700/700 699/699
f 700/700 701/701 702/702
f 702/702 701/701 703/703
f 706/706 705/705 704/704
f 705/705 706/706 707/707
f 707/707 706/706 708/708
f 711/711 710/710 709/709
f 710/710 711/711 712/712
f 715/715 714/714 713/713
f 714/714 715/715 716/716
f 719/719 718/718 717/717
f 718/718 719/719 720/720
f 723/723 722/722 721/721
f 722/722 723/723 724/724
f 722/722 724/724 725/725
f 725/725 724/724 726/726
f 725/725 726/726 727/727
f 727/727 726/726 728/728
