mtllib building-garage.mtl
o building-garage
v 0.500000 0.000000 0.500000
v -0.500000 0.000000 0.500000
v 0.500000 0.050000 0.500000
v -0.500000 0.050000 0.500000
v 0.500000 0.000000 0.500000
v 0.500000 0.000000 -0.500000
v -0.500000 0.000000 0.500000
v -0.500000 0.000000 -0.500000
v -0.500000 0.000000 -0.500000
v -0.500000 0.050000 -0.500000
v -0.500000 0.000000 0.500000
v -0.500000 0.050000 0.500000
v 0.500000 0.050000 -0.500000
v 0.500000 0.000000 -0.500000
v 0.500000 0.050000 0.500000
v 0.500000 0.000000 0.500000
v -0.500000 0.000000 -0.500000
v 0.500000 0.000000 -0.500000
v -0.500000 0.050000 -0.500000
v 0.500000 0.050000 -0.500000
v 0.500000 0.050000 -0.500000
v 0.500000 0.050000 0.500000
v -0.500000 0.050000 -0.500000
v -0.500000 0.050000 0.500000
v -0.400000 0.050000 -0.400000
v 0.400000 0.050000 -0.400000
v -0.400000 0.450000 -0.400000
v 0.400000 0.450000 -0.400000
v -0.400000 0.050000 -0.400000
v -0.400000 0.450000 -0.400000
v -0.400000 0.050000 0.400000
v -0.400000 0.450000 0.400000
v 0.400000 0.450000 -0.400000
v 0.400000 0.050000 -0.400000
v 0.400000 0.450000 0.400000
v 0.400000 0.050000 0.400000
v 0.400000 0.050000 0.400000
v 0.225000 0.050000 0.400000
v 0.400000 0.450000 0.400000
v 0.225000 0.325000 0.400000
v 0.200000 0.350000 0.400000
v -0.200000 0.350000 0.400000
v -0.400000 0.450000 0.400000
v -0.225000 0.325000 0.400000
v -0.400000 0.050000 0.400000
v -0.225000 0.050000 0.400000
v -0.450000 0.100000 -0.350000
v -0.450000 0.450000 -0.350000
v -0.450000 0.100000 -0.300000
v -0.450000 0.450000 -0.300000
v -0.450000 0.100000 -0.350000
v -0.400000 0.100000 -0.350000
v -0.450000 0.450000 -0.350000
v -0.400000 0.450000 -0.350000
v -0.400000 0.100000 -0.300000
v -0.450000 0.100000 -0.300000
v -0.400000 0.450000 -0.300000
v -0.450000 0.450000 -0.300000
v -0.400000 0.350000 -0.275000
v -0.400000 0.350000 -0.375000
v -0.450000 0.350000 -0.275000
v -0.450000 0.350000 -0.375000
v -0.475000 0.350000 -0.300000
v -0.475000 0.350000 -0.350000
v -0.450000 0.350000 -0.375000
v -0.400000 0.350000 -0.375000
v -0.450000 0.400000 -0.375000
v -0.400000 0.400000 -0.375000
v -0.400000 0.400000 -0.375000
v -0.400000 0.400000 -0.275000
v -0.450000 0.400000 -0.375000
v -0.450000 0.400000 -0.275000
v -0.475000 0.400000 -0.350000
v -0.475000 0.400000 -0.300000
v -0.400000 0.350000 -0.275000
v -0.450000 0.350000 -0.275000
v -0.400000 0.400000 -0.275000
v -0.450000 0.400000 -0.275000
v -0.475000 0.350000 -0.350000
v -0.475000 0.400000 -0.350000
v -0.475000 0.350000 -0.300000
v -0.475000 0.400000 -0.300000
v -0.475000 0.350000 -0.350000
v -0.450000 0.350000 -0.375000
v -0.475000 0.400000 -0.350000
v -0.450000 0.400000 -0.375000
v -0.475000 0.350000 -0.300000
v -0.475000 0.400000 -0.300000
v -0.450000 0.350000 -0.275000
v -0.450000 0.400000 -0.275000
v -0.400000 0.150000 -0.275000
v -0.400000 0.150000 -0.375000
v -0.450000 0.150000 -0.275000
v -0.450000 0.150000 -0.375000
v -0.475000 0.150000 -0.300000
v -0.475000 0.150000 -0.350000
v -0.450000 0.150000 -0.375000
v -0.400000 0.150000 -0.375000
v -0.450000 0.200000 -0.375000
v -0.400000 0.200000 -0.375000
v -0.400000 0.200000 -0.375000
v -0.400000 0.200000 -0.275000
v -0.450000 0.200000 -0.375000
v -0.450000 0.200000 -0.275000
v -0.475000 0.200000 -0.350000
v -0.475000 0.200000 -0.300000
v -0.400000 0.150000 -0.275000
v -0.450000 0.150000 -0.275000
v -0.400000 0.200000 -0.275000
v -0.450000 0.200000 -0.275000
v -0.475000 0.150000 -0.350000
v -0.475000 0.200000 -0.350000
v -0.475000 0.150000 -0.300000
v -0.475000 0.200000 -0.300000
v -0.475000 0.150000 -0.350000
v -0.450000 0.150000 -0.375000
v -0.475000 0.200000 -0.350000
v -0.450000 0.200000 -0.375000
v -0.475000 0.150000 -0.300000
v -0.475000 0.200000 -0.300000
v -0.450000 0.150000 -0.275000
v -0.450000 0.200000 -0.275000
v -0.350000 0.450000 -0.450000
v 0.350000 0.450000 -0.450000
v -0.350000 0.550000 -0.450000
v 0.350000 0.550000 -0.450000
v 0.350000 0.450000 -0.450000
v 0.420711 0.450000 -0.420711
v 0.350000 0.550000 -0.450000
v 0.420711 0.550000 -0.420711
v 0.420711 0.550000 -0.420711
v 0.420711 0.450000 -0.420711
v 0.450000 0.550000 -0.350000
v 0.450000 0.450000 -0.350000
v 0.450000 0.550000 -0.350000
v 0.450000 0.450000 -0.350000
v 0.450000 0.550000 0.350000
v 0.450000 0.450000 0.350000
v 0.420711 0.450000 0.420711
v 0.350000 0.450000 0.450000
v 0.420711 0.550000 0.420711
v 0.350000 0.550000 0.450000
v 0.450000 0.550000 0.350000
v 0.450000 0.450000 0.350000
v 0.420711 0.550000 0.420711
v 0.420711 0.450000 0.420711
v 0.350000 0.450000 0.450000
v -0.350000 0.450000 0.450000
v 0.350000 0.550000 0.450000
v -0.350000 0.550000 0.450000
v -0.350000 0.450000 0.450000
v -0.420711 0.450000 0.420711
v -0.350000 0.550000 0.450000
v -0.420711 0.550000 0.420711
v -0.450000 0.450000 0.350000
v -0.450000 0.550000 0.350000
v -0.420711 0.450000 0.420711
v -0.420711 0.550000 0.420711
v -0.450000 0.450000 -0.350000
v -0.450000 0.550000 -0.350000
v -0.450000 0.450000 0.350000
v -0.450000 0.550000 0.350000
v -0.420711 0.450000 -0.420711
v -0.420711 0.550000 -0.420711
v -0.450000 0.450000 -0.350000
v -0.450000 0.550000 -0.350000
v -0.420711 0.450000 -0.420711
v -0.350000 0.450000 -0.450000
v -0.420711 0.550000 -0.420711
v -0.350000 0.550000 -0.450000
v 0.450000 0.550000 -0.350000
v 0.450000 0.550000 0.350000
v 0.420711 0.550000 -0.420711
v 0.420711 0.550000 0.420711
v 0.350000 0.550000 -0.450000
v 0.350000 0.550000 -0.330109
v 0.350000 0.550000 0.450000
v 0.330109 0.550000 -0.350000
v 0.350000 0.550000 0.330109
v 0.330109 0.550000 0.350000
v -0.350000 0.550000 -0.450000
v -0.330109 0.550000 -0.350000
v -0.350000 0.550000 -0.330109
v -0.350000 0.550000 0.450000
v -0.420711 0.550000 -0.420711
v -0.330109 0.550000 0.350000
v -0.350000 0.550000 0.330109
v -0.420711 0.550000 0.420711
v -0.450000 0.550000 -0.350000
v -0.450000 0.550000 0.350000
v 0.450000 0.450000 0.350000
v 0.450000 0.450000 -0.350000
v 0.420711 0.450000 0.420711
v 0.420711 0.450000 -0.420711
v 0.350000 0.450000 0.450000
v 0.350000 0.450000 -0.450000
v -0.350000 0.450000 0.450000
v -0.350000 0.450000 -0.450000
v -0.420711 0.450000 0.420711
v -0.420711 0.450000 -0.420711
v -0.450000 0.450000 0.350000
v -0.450000 0.450000 -0.350000
v 0.350000 0.500000 -0.330109
v 0.350000 0.500000 0.330109
v 0.330109 0.500000 -0.350000
v 0.330109 0.500000 0.350000
v -0.330109 0.500000 -0.350000
v -0.330109 0.500000 0.350000
v -0.350000 0.500000 -0.330109
v -0.350000 0.500000 0.330109
v -0.330109 0.500000 0.350000
v 0.330109 0.500000 0.350000
v -0.330109 0.550000 0.350000
v 0.330109 0.550000 0.350000
v 0.330109 0.500000 0.350000
v 0.350000 0.500000 0.330109
v 0.330109 0.550000 0.350000
v 0.350000 0.550000 0.330109
v 0.350000 0.500000 -0.330109
v 0.350000 0.550000 -0.330109
v 0.350000 0.500000 0.330109
v 0.350000 0.550000 0.330109
v 0.330109 0.500000 -0.350000
v 0.330109 0.550000 -0.350000
v 0.350000 0.500000 -0.330109
v 0.350000 0.550000 -0.330109
v 0.330109 0.500000 -0.350000
v -0.330109 0.500000 -0.350000
v 0.330109 0.550000 -0.350000
v -0.330109 0.550000 -0.350000
v -0.330109 0.550000 -0.350000
v -0.330109 0.500000 -0.350000
v -0.350000 0.550000 -0.330109
v -0.350000 0.500000 -0.330109
v -0.350000 0.550000 -0.330109
v -0.350000 0.500000 -0.330109
v -0.350000 0.550000 0.330109
v -0.350000 0.500000 0.330109
v -0.350000 0.550000 0.330109
v -0.350000 0.500000 0.330109
v -0.330109 0.550000 0.350000
v -0.330109 0.500000 0.350000
v 0.100092 0.525000 -0.261009
v 0.198384 0.525000 -0.242607
v 0.081690 0.525000 -0.162717
v 0.179982 0.525000 -0.144315
v 0.081690 0.500000 -0.162717
v 0.081690 0.525000 -0.162717
v 0.179982 0.500000 -0.144315
v 0.179982 0.525000 -0.144315
v 0.198384 0.500000 -0.242607
v 0.179982 0.500000 -0.144315
v 0.198384 0.525000 -0.242607
v 0.179982 0.525000 -0.144315
v 0.100092 0.525000 -0.261009
v 0.100092 0.500000 -0.261009
v 0.198384 0.525000 -0.242607
v 0.198384 0.500000 -0.242607
v 0.081690 0.500000 -0.162717
v 0.100092 0.500000 -0.261009
v 0.081690 0.525000 -0.162717
v 0.100092 0.525000 -0.261009
v 0.195440 0.525000 0.012584
v 0.145883 0.525000 -0.074273
v 0.282297 0.525000 -0.036973
v 0.232740 0.525000 -0.123830
v 0.282297 0.500000 -0.036973
v 0.282297 0.525000 -0.036973
v 0.232740 0.500000 -0.123830
v 0.232740 0.525000 -0.123830
v 0.145883 0.500000 -0.074273
v 0.232740 0.500000 -0.123830
v 0.145883 0.525000 -0.074273
v 0.232740 0.525000 -0.123830
v 0.195440 0.525000 0.012584
v 0.195440 0.500000 0.012584
v 0.145883 0.525000 -0.074273
v 0.145883 0.500000 -0.074273
v 0.282297 0.500000 -0.036973
v 0.195440 0.500000 0.012584
v 0.282297 0.525000 -0.036973
v 0.195440 0.525000 0.012584
v -0.175000 0.050000 0.425000
v -0.175000 0.050000 0.400000
v -0.225000 0.050000 0.425000
v -0.225000 0.050000 0.400000
v 0.225000 0.050000 0.425000
v 0.225000 0.050000 0.400000
v 0.175000 0.050000 0.425000
v 0.175000 0.050000 0.400000
v 0.175000 0.050000 0.400000
v 0.175000 0.300000 0.400000
v 0.175000 0.050000 0.425000
v 0.175000 0.300000 0.425000
v -0.175000 0.300000 0.400000
v -0.175000 0.050000 0.400000
v -0.175000 0.300000 0.425000
v -0.175000 0.050000 0.425000
v 0.225000 0.325000 0.400000
v 0.225000 0.050000 0.400000
v 0.225000 0.325000 0.425000
v 0.225000 0.050000 0.425000
v 0.200000 0.350000 0.400000
v 0.225000 0.325000 0.400000
v 0.200000 0.350000 0.425000
v 0.225000 0.325000 0.425000
v 0.200000 0.350000 0.400000
v 0.200000 0.350000 0.425000
v -0.200000 0.350000 0.400000
v -0.200000 0.350000 0.425000
v 0.175000 0.300000 0.425000
v 0.175000 0.300000 0.400000
v -0.175000 0.300000 0.425000
v -0.175000 0.300000 0.400000
v 0.225000 0.050000 0.425000
v 0.175000 0.050000 0.425000
v 0.225000 0.325000 0.425000
v 0.175000 0.300000 0.425000
v -0.175000 0.300000 0.425000
v -0.225000 0.325000 0.425000
v 0.200000 0.350000 0.425000
v -0.200000 0.350000 0.425000
v -0.225000 0.050000 0.425000
v -0.175000 0.050000 0.425000
v -0.225000 0.050000 0.400000
v -0.225000 0.325000 0.400000
v -0.225000 0.050000 0.425000
v -0.225000 0.325000 0.425000
v -0.200000 0.350000 0.400000
v -0.200000 0.350000 0.425000
v -0.225000 0.325000 0.400000
v -0.225000 0.325000 0.425000
v 0.050000 0.100000 0.410000
v -0.050000 0.100000 0.410000
v 0.050000 0.150000 0.410000
v -0.050000 0.150000 0.410000
v -0.175000 0.050000 0.400000
v -0.175000 0.300000 0.400000
v 0.175000 0.050000 0.400000
v 0.175000 0.300000 0.400000
vt 0.218750 0.025000
vt 0.218750 0.025000
vt 0.218750 0.225000
vt 0.218750 0.225000
vt 0.218750 0.025000
vt 0.218750 0.025000
vt 0.218750 0.025000
vt 0.218750 0.025000
vt 0.218750 0.025000
vt 0.218750 0.225000
vt 0.218750 0.025000
vt 0.218750 0.225000
vt 0.218750 0.225000
vt 0.218750 0.025000
vt 0.218750 0.225000
vt 0.218750 0.025000
vt 0.218750 0.025000
vt 0.218750 0.025000
vt 0.218750 0.225000
vt 0.218750 0.225000
vt 0.218750 0.225000
vt 0.218750 0.225000
vt 0.218750 0.225000
vt 0.218750 0.225000
vt 0.218750 0.025000
vt 0.218750 0.025000
vt 0.218750 0.225000
vt 0.218750 0.225000
vt 0.218750 0.025000
vt 0.218750 0.225000
vt 0.218750 0.025000
vt 0.218750 0.225000
vt 0.218750 0.225000
vt 0.218750 0.025000
vt 0.218750 0.225000
vt 0.218750 0.025000
vt 0.218750 0.025000
vt 0.218750 0.025000
vt 0.218750 0.225000
vt 0.218750 0.162500
vt 0.218750 0.175000
vt 0.218750 0.175000
vt 0.218750 0.225000
vt 0.218750 0.162500
vt 0.218750 0.025000
vt 0.218750 0.025000
vt 0.468750 0.050000
vt 0.468750 0.225000
vt 0.468750 0.050000
vt 0.468750 0.225000
vt 0.468750 0.050000
vt 0.468750 0.050000
vt 0.468750 0.225000
vt 0.468750 0.225000
vt 0.468750 0.050000
vt 0.468750 0.050000
vt 0.468750 0.225000
vt 0.468750 0.225000
vt 0.468750 0.025000
vt 0.468750 0.025000
vt 0.468750 0.025000
vt 0.468750 0.025000
vt 0.468750 0.025000
vt 0.468750 0.025000
vt 0.468750 0.025000
vt 0.468750 0.025000
vt 0.468750 0.225000
vt 0.468750 0.225000
vt 0.468750 0.225000
vt 0.468750 0.225000
vt 0.468750 0.225000
vt 0.468750 0.225000
vt 0.468750 0.225000
vt 0.468750 0.225000
vt 0.468750 0.025000
vt 0.468750 0.025000
vt 0.468750 0.225000
vt 0.468750 0.225000
vt 0.468750 0.025000
vt 0.468750 0.225000
vt 0.468750 0.025000
vt 0.468750 0.225000
vt 0.468750 0.025000
vt 0.468750 0.025000
vt 0.468750 0.225000
vt 0.468750 0.225000
vt 0.468750 0.025000
vt 0.468750 0.225000
vt 0.468750 0.025000
vt 0.468750 0.225000
vt 0.468750 0.025000
vt 0.468750 0.025000
vt 0.468750 0.025000
vt 0.468750 0.025000
vt 0.468750 0.025000
vt 0.468750 0.025000
vt 0.468750 0.025000
vt 0.468750 0.025000
vt 0.468750 0.225000
vt 0.468750 0.225000
vt 0.468750 0.225000
vt 0.468750 0.225000
vt 0.468750 0.225000
vt 0.468750 0.225000
vt 0.468750 0.225000
vt 0.468750 0.225000
vt 0.468750 0.025000
vt 0.468750 0.025000
vt 0.468750 0.225000
vt 0.468750 0.225000
vt 0.468750 0.025000
vt 0.468750 0.225000
vt 0.468750 0.025000
vt 0.468750 0.225000
vt 0.468750 0.025000
vt 0.468750 0.025000
vt 0.468750 0.225000
vt 0.468750 0.225000
vt 0.468750 0.025000
vt 0.468750 0.225000
vt 0.468750 0.025000
vt 0.468750 0.225000
vt 0.468750 0.025000
vt 0.468750 0.025000
vt 0.468750 0.225000
vt 0.468750 0.225000
vt 0.468750 0.025000
vt 0.468750 0.025000
vt 0.468750 0.225000
vt 0.468750 0.225000
vt 0.468750 0.225000
vt 0.468750 0.025000
vt 0.468750 0.225000
vt 0.468750 0.025000
vt 0.468750 0.225000
vt 0.468750 0.025000
vt 0.468750 0.225000
vt 0.468750 0.025000
vt 0.468750 0.025000
vt 0.468750 0.025000
vt 0.468750 0.225000
vt 0.468750 0.225000
vt 0.468750 0.225000
vt 0.468750 0.025000
vt 0.468750 0.225000
vt 0.468750 0.025000
vt 0.468750 0.025000
vt 0.468750 0.025000
vt 0.468750 0.225000
vt 0.468750 0.225000
vt 0.468750 0.025000
vt 0.468750 0.025000
vt 0.468750 0.225000
vt 0.468750 0.225000
vt 0.468750 0.025000
vt 0.468750 0.225000
vt 0.468750 0.025000
vt 0.468750 0.225000
vt 0.468750 0.025000
vt 0.468750 0.225000
vt 0.468750 0.025000
vt 0.468750 0.225000
vt 0.468750 0.025000
vt 0.468750 0.225000
vt 0.468750 0.025000
vt 0.468750 0.225000
vt 0.468750 0.025000
vt 0.468750 0.025000
vt 0.468750 0.225000
vt 0.468750 0.225000
vt 0.468750 0.225000
vt 0.468750 0.225000
vt 0.468750 0.225000
vt 0.468750 0.225000
vt 0.468750 0.225000
vt 0.468750 0.225000
vt 0.468750 0.225000
vt 0.468750 0.225000
vt 0.468750 0.225000
vt 0.468750 0.225000
vt 0.468750 0.225000
vt 0.468750 0.225000
vt 0.468750 0.225000
vt 0.468750 0.225000
vt 0.468750 0.225000
vt 0.468750 0.225000
vt 0.468750 0.225000
vt 0.468750 0.225000
vt 0.468750 0.225000
vt 0.468750 0.225000
vt 0.468750 0.025000
vt 0.468750 0.025000
vt 0.468750 0.025000
vt 0.468750 0.025000
vt 0.468750 0.025000
vt 0.468750 0.025000
vt 0.468750 0.025000
vt 0.468750 0.025000
vt 0.468750 0.025000
vt 0.468750 0.025000
vt 0.468750 0.025000
vt 0.468750 0.025000
vt 0.468750 0.125000
vt 0.468750 0.125000
vt 0.468750 0.125000
vt 0.468750 0.125000
vt 0.468750 0.125000
vt 0.468750 0.125000
vt 0.468750 0.125000
vt 0.468750 0.125000
vt 0.468750 0.125000
vt 0.468750 0.125000
vt 0.468750 0.225000
vt 0.468750 0.225000
vt 0.468750 0.125000
vt 0.468750 0.125000
vt 0.468750 0.225000
vt 0.468750 0.225000
vt 0.468750 0.125000
vt 0.468750 0.225000
vt 0.468750 0.125000
vt 0.468750 0.225000
vt 0.468750 0.125000
vt 0.468750 0.225000
vt 0.468750 0.125000
vt 0.468750 0.225000
vt 0.468750 0.125000
vt 0.468750 0.125000
vt 0.468750 0.225000
vt 0.468750 0.225000
vt 0.468750 0.225000
vt 0.468750 0.125000
vt 0.468750 0.225000
vt 0.468750 0.125000
vt 0.468750 0.225000
vt 0.468750 0.125000
vt 0.468750 0.225000
vt 0.468750 0.125000
vt 0.468750 0.225000
vt 0.468750 0.125000
vt 0.468750 0.225000
vt 0.468750 0.125000
vt 0.468750 0.225000
vt 0.468750 0.225000
vt 0.468750 0.225000
vt 0.468750 0.225000
vt 0.468750 0.025000
vt 0.468750 0.225000
vt 0.468750 0.025000
vt 0.468750 0.225000
vt 0.468750 0.025000
vt 0.468750 0.025000
vt 0.468750 0.225000
vt 0.468750 0.225000
vt 0.468750 0.225000
vt 0.468750 0.025000
vt 0.468750 0.225000
vt 0.468750 0.025000
vt 0.468750 0.025000
vt 0.468750 0.025000
vt 0.468750 0.225000
vt 0.468750 0.225000
vt 0.468750 0.225000
vt 0.468750 0.225000
vt 0.468750 0.225000
vt 0.468750 0.225000
vt 0.468750 0.025000
vt 0.468750 0.225000
vt 0.468750 0.025000
vt 0.468750 0.225000
vt 0.468750 0.025000
vt 0.468750 0.025000
vt 0.468750 0.225000
vt 0.468750 0.225000
vt 0.468750 0.225000
vt 0.468750 0.025000
vt 0.468750 0.225000
vt 0.468750 0.025000
vt 0.468750 0.025000
vt 0.468750 0.025000
vt 0.468750 0.225000
vt 0.468750 0.225000
vt 0.093750 0.025000
vt 0.093750 0.025000
vt 0.093750 0.025000
vt 0.093750 0.025000
vt 0.093750 0.025000
vt 0.093750 0.025000
vt 0.093750 0.025000
vt 0.093750 0.025000
vt 0.093750 0.025000
vt 0.093750 0.150000
vt 0.093750 0.025000
vt 0.093750 0.150000
vt 0.093750 0.150000
vt 0.093750 0.025000
vt 0.093750 0.150000
vt 0.093750 0.025000
vt 0.093750 0.162500
vt 0.093750 0.025000
vt 0.093750 0.162500
vt 0.093750 0.025000
vt 0.093750 0.175000
vt 0.093750 0.162500
vt 0.093750 0.175000
vt 0.093750 0.162500
vt 0.093750 0.175000
vt 0.093750 0.175000
vt 0.093750 0.175000
vt 0.093750 0.175000
vt 0.093750 0.150000
vt 0.093750 0.150000
vt 0.093750 0.150000
vt 0.093750 0.150000
vt 0.093750 0.025000
vt 0.093750 0.025000
vt 0.093750 0.162500
vt 0.093750 0.150000
vt 0.093750 0.150000
vt 0.093750 0.162500
vt 0.093750 0.175000
vt 0.093750 0.175000
vt 0.093750 0.025000
vt 0.093750 0.025000
vt 0.093750 0.025000
vt 0.093750 0.162500
vt 0.093750 0.025000
vt 0.093750 0.162500
vt 0.093750 0.175000
vt 0.093750 0.175000
vt 0.093750 0.162500
vt 0.093750 0.162500
vt 0.093750 0.050000
vt 0.093750 0.050000
vt 0.093750 0.075000
vt 0.093750 0.075000
vt 0.343750 0.275000
vt 0.343750 0.400000
vt 0.343750 0.275000
vt 0.343750 0.400000
usemtl colormap
f 3/3 2/2 1/1
f 2/2 3/3 4/4
f 7/7 6/6 5/5
f 6/6 7/7 8/8
f 11/11 10/10 9/9
f 10/10 11/11 12/12
f 15/15 14/14 13/13
f 14/14 15/15 16/16
f 19/19 18/18 17/17
f 18/18 19/19 20/20
f 23/23 22/22 21/21
f 22/22 23/23 24/24
f 27/27 26/26 25/25
f 26/26 27/27 28/28
f 31/31 30/30 29/29
f 30/30 31/31 32/32
f 35/35 34/34 33/33
f 34/34 35/35 36/36
f 39/39 38/38 37/37
f 38/38 39/39 40/40
f 40/40 39/39 41/41
f 41/41 39/39 42/42
f 42/42 39/39 43/43
f 43/43 44/44 42/42
f 45/45 44/44 43/43
f 44/44 45/45 46/46
f 49/49 48/48 47/47
f 48/48 49/49 50/50
f 53/53 52/52 51/51
f 52/52 53/53 54/54
f 57/57 56/56 55/55
f 56/56 57/57 58/58
f 61/61 60/60 59/59
f 60/60 61/61 62/62
f 62/62 61/61 63/63
f 62/62 63/63 64/64
f 67/67 66/66 65/65
f 66/66 67/67 68/68
f 71/71 70/70 69/69
f 70/70 71/71 72/72
f 72/72 71/71 73/73
f 72/72 73/73 74/74
f 77/77 76/76 75/75
f 76/76 77/77 78/78
f 81/81 80/80 79/79
f 80/80 81/81 82/82
f 85/85 84/84 83/83
f 84/84 85/85 86/86
f 89/89 88/88 87/87
f 88/88 89/89 90/90
f 93/93 92/92 91/91
f 92/92 93/93 94/94
f 94/94 93/93 95/95
f 94/94 95/95 96/96
f 99/99 98/98 97/97
f 98/98 99/99 100/100
f 103/103 102/102 101/101
f 102/102 103/103 104/104
f 104/104 103/103 105/105
f 104/104 105/105 106/106
f 109/109 108/108 107/107
f 108/108 109/109 110/110
f 113/113 112/112 111/111
f 112/112 113/113 114/114
f 117/117 116/116 115/115
f 116/116 117/117 118/118
f 121/121 120/120 119/119
f 120/120 121/121 122/122
f 125/125 124/124 123/123
f 124/124 125/125 126/126
f 129/129 128/128 127/127
f 128/128 129/129 130/130
f 133/133 132/132 131/131
f 132/132 133/133 134/134
f 137/137 136/136 135/135
f 136/136 137/137 138/138
f 141/141 140/140 139/139
f 140/140 141/141 142/142
f 145/145 144/144 143/143
f 144/144 145/145 146/146
f 149/149 148/148 147/147
f 148/148 149/149 150/150
f 153/153 152/152 151/151
f 152/152 153/153 154/154
f 157/157 156/156 155/155
f 156/156 157/157 158/158
f 161/161 160/160 159/159
f 160/160 161/161 162/162
f 165/165 164/164 163/163
f 164/164 165/165 166/166
f 169/169 168/168 167/167
f 168/168 169/169 170/170
f 173/173 172/172 171/171
f 172/172 173/173 174/174
f 174/174 173/173 175/175
f 174/174 175/175 176/176
f 176/176 177/177 174/174
f 176/176 175/175 178/178
f 177/177 176/176 179/179
f 177/177 179/179 180/180
f 178/178 175/175 181/181
f 178/178 181/181 182/182
f 182/182 181/181 183/183
f 177/177 180/180 184/184
f 183/183 181/181 185/185
f 184/184 180/180 186/186
f 184/184 186/186 187/187
f 183/183 185/185 187/187
f 187/187 185/185 184/184
f 184/184 185/185 188/188
f 188/188 185/185 189/189
f 188/188 189/189 190/190
f 193/193 192/192 191/191
f 192/192 193/193 194/194
f 194/194 193/193 195/195
f 194/194 195/195 196/196
f 196/196 195/195 197/197
f 196/196 197/197 198/198
f 198/198 197/197 199/199
f 198/198 199/199 200/200
f 200/200 199/199 201/201
f 200/200 201/201 202/202
f 205/205 204/204 203/203
f 204/204 205/205 206/206
f 206/206 205/205 207/207
f 206/206 207/207 208/208
f 208/208 207/207 209/209
f 208/208 209/209 210/210
f 213/213 212/212 211/211
f 212/212 213/213 214/214
f 217/217 216/216 215/215
f 216/216 217/217 218/218
f 221/221 220/220 219/219
f 220/220 221/221 222/222
f 225/225 224/224 223/223
f 224/224 225/225 226/226
f 229/229 228/228 227/227
f 228/228 229/229 230/230
f 233/233 232/232 231/231
f 232/232 233/233 234/234
f 237/237 236/236 235/235
f 236/236 237/237 238/238
f 241/241 240/240 239/239
f 240/240 241/241 242/242
f 245/245 244/244 243/243
f 244/244 245/245 246/246
f 249/249 248/248 247/247
f 248/248 249/249 250/250
f 253/253 252/252 251/251
f 252/252 253/253 254/254
f 257/257 256/256 255/255
f 256/256 257/257 258/258
f 261/261 260/260 259/259
f 260/260 261/261 262/262
f 265/265 264/264 263/263
f 264/264 265/265 266/266
f 269/269 268/268 267/267
f 268/268 269/269 270/270
f 273/273 272/272 271/271
f 272/272 273/273 274/274
f 277/277 276/276 275/275
f 276/276 277/277 278/278
f 281/281 280/280 279/279
f 280/280 281/281 282/282
f 285/285 284/284 283/283
f 284/284 285/285 286/286
f 289/289 288/288 287/287
f 288/288 289/289 290/290
f 293/293 292/292 291/291
f 292/292 293/293 294/294
f 297/297 296/296 295/295
f 296/296 297/297 298/298
f 301/301 300/300 299/299
f 300/300 301/301 302/302
f 305/305 304/304 303/303
f 304/304 305/305 306/306
f 309/309 308/308 307/307
f 308/308 309/309 310/310
f 313/313 312/312 311/311
f 312/312 313/313 314/314
f 317/317 316/316 315/315
f 316/316 317/317 318/318
f 318/318 317/317 319/319
f 320/320 319/319 317/317
f 320/320 317/317 321/321
f 320/320 321/321 322/322
f 323/323 319/319 320/320
f 319/319 323/323 324/324
f 327/327 326/326 325/325
f 326/326 327/327 328/328
f 331/331 330/330 329/329
f 330/330 331/331 332/332
f 335/335 334/334 333/333
f 334/334 335/335 336/336
f 339/339 338/338 337/337
f 338/338 339/339 340/340
