mtllib grass-trees.mtl
o grass-trees
v 0.500000 0.000000 0.500000
v 0.500000 0.000000 -0.500000
v -0.500000 0.000000 0.500000
v -0.500000 0.000000 -0.500000
v -0.500000 0.000000 -0.500000
v 0.500000 0.000000 -0.500000
v -0.500000 0.050000 -0.500000
v 0.500000 0.050000 -0.500000
v 0.500000 0.050000 -0.500000
v 0.500000 0.050000 0.500000
v -0.500000 0.050000 -0.500000
v -0.500000 0.050000 0.500000
v 0.500000 0.050000 -0.500000
v 0.500000 0.000000 -0.500000
v 0.500000 0.050000 0.500000
v 0.500000 0.000000 0.500000
v 0.500000 0.000000 0.500000
v -0.500000 0.000000 0.500000
v 0.500000 0.050000 0.500000
v -0.500000 0.050000 0.500000
v -0.500000 0.000000 -0.500000
v -0.500000 0.050000 -0.500000
v -0.500000 0.000000 0.500000
v -0.500000 0.050000 0.500000
v -0.250750 0.169527 0.337935
v -0.250750 0.139645 0.337935
v -0.285247 0.169527 0.228910
v -0.285247 0.139645 0.228910
v -0.149265 0.169527 0.390635
v -0.149265 0.139645 0.390635
v -0.250750 0.169527 0.337935
v -0.250750 0.139645 0.337935
v -0.040240 0.169527 0.356138
v -0.149265 0.169527 0.390635
v -0.071561 0.259172 0.318888
v -0.145072 0.259172 0.342148
v 0.012460 0.139645 0.254653
v -0.040240 0.139645 0.356138
v 0.012460 0.169527 0.254653
v -0.040240 0.169527 0.356138
v -0.040240 0.139645 0.356138
v -0.149265 0.139645 0.390635
v -0.040240 0.169527 0.356138
v -0.149265 0.169527 0.390635
v -0.213500 0.259172 0.306614
v -0.250750 0.169527 0.337935
v -0.236760 0.259172 0.233103
v -0.285247 0.169527 0.228910
v -0.232547 0.139645 0.127425
v -0.123522 0.139645 0.092928
v -0.232547 0.169527 0.127425
v -0.123522 0.169527 0.092928
v -0.285247 0.169527 0.228910
v -0.232547 0.169527 0.127425
v -0.236760 0.259172 0.233103
v -0.201227 0.259172 0.164675
v 0.012460 0.169527 0.254653
v -0.040240 0.169527 0.356138
v -0.036027 0.259172 0.250460
v -0.071561 0.259172 0.318888
v -0.022037 0.139645 0.145628
v -0.022037 0.169527 0.145628
v -0.123522 0.139645 0.092928
v -0.123522 0.169527 0.092928
v 0.012460 0.139645 0.254653
v 0.012460 0.169527 0.254653
v -0.022037 0.139645 0.145628
v -0.022037 0.169527 0.145628
v -0.285247 0.139645 0.228910
v -0.232547 0.139645 0.127425
v -0.285247 0.169527 0.228910
v -0.232547 0.169527 0.127425
v -0.232547 0.169527 0.127425
v -0.123522 0.169527 0.092928
v -0.201227 0.259172 0.164675
v -0.127715 0.259172 0.141415
v 0.012460 0.169527 0.254653
v -0.036027 0.259172 0.250460
v -0.022037 0.169527 0.145628
v -0.059287 0.259172 0.176949
v -0.250750 0.139645 0.337935
v -0.149265 0.139645 0.390635
v -0.285247 0.139645 0.228910
v -0.232547 0.139645 0.127425
v -0.040240 0.139645 0.356138
v -0.123522 0.139645 0.092928
v 0.012460 0.139645 0.254653
v -0.022037 0.139645 0.145628
v -0.022037 0.169527 0.145628
v -0.059287 0.259172 0.176949
v -0.123522 0.169527 0.092928
v -0.127715 0.259172 0.141415
v -0.149265 0.169527 0.390635
v -0.250750 0.169527 0.337935
v -0.145072 0.259172 0.342148
v -0.213500 0.259172 0.306614
v -0.017311 0.259172 0.252079
v -0.059471 0.259172 0.333267
v -0.017311 0.289054 0.252079
v -0.059471 0.289054 0.333267
v -0.044908 0.289054 0.164859
v -0.121756 0.504203 0.229474
v -0.126097 0.289054 0.122699
v -0.134746 0.504203 0.222728
v -0.213317 0.259172 0.150296
v -0.126097 0.259172 0.122699
v -0.213317 0.289054 0.150296
v -0.126097 0.289054 0.122699
v -0.151031 0.504203 0.254089
v -0.227879 0.289054 0.318704
v -0.155447 0.504203 0.240134
v -0.255476 0.289054 0.231484
v -0.255476 0.259172 0.231484
v -0.213317 0.259172 0.150296
v -0.255476 0.289054 0.231484
v -0.213317 0.289054 0.150296
v -0.059471 0.289054 0.333267
v -0.146691 0.289054 0.360864
v -0.124086 0.504203 0.256419
v -0.138041 0.504203 0.260835
v -0.146691 0.289054 0.360864
v -0.146691 0.259172 0.360864
v -0.227879 0.289054 0.318704
v -0.227879 0.259172 0.318704
v -0.044908 0.259172 0.164859
v -0.044908 0.289054 0.164859
v -0.126097 0.259172 0.122699
v -0.126097 0.289054 0.122699
v -0.146691 0.289054 0.360864
v -0.227879 0.289054 0.318704
v -0.138041 0.504203 0.260835
v -0.151031 0.504203 0.254089
v -0.017311 0.289054 0.252079
v -0.117340 0.504203 0.243429
v -0.044908 0.289054 0.164859
v -0.121756 0.504203 0.229474
v -0.255476 0.289054 0.231484
v -0.213317 0.289054 0.150296
v -0.155447 0.504203 0.240134
v -0.148701 0.504203 0.227144
v -0.151031 0.504203 0.254089
v -0.155447 0.504203 0.240134
v -0.138041 0.504203 0.260835
v -0.124086 0.504203 0.256419
v -0.148701 0.504203 0.227144
v -0.117340 0.504203 0.243429
v -0.134746 0.504203 0.222728
v -0.121756 0.504203 0.229474
v -0.227879 0.289054 0.318704
v -0.227879 0.259172 0.318704
v -0.255476 0.289054 0.231484
v -0.255476 0.259172 0.231484
v -0.227879 0.259172 0.318704
v -0.146691 0.259172 0.360864
v -0.255476 0.259172 0.231484
v -0.213317 0.259172 0.150296
v -0.059471 0.259172 0.333267
v -0.126097 0.259172 0.122699
v -0.017311 0.259172 0.252079
v -0.044908 0.259172 0.164859
v -0.213317 0.289054 0.150296
v -0.126097 0.289054 0.122699
v -0.148701 0.504203 0.227144
v -0.134746 0.504203 0.222728
v -0.059471 0.259172 0.333267
v -0.146691 0.259172 0.360864
v -0.059471 0.289054 0.333267
v -0.146691 0.289054 0.360864
v -0.017311 0.289054 0.252079
v -0.059471 0.289054 0.333267
v -0.117340 0.504203 0.243429
v -0.124086 0.504203 0.256419
v -0.017311 0.259172 0.252079
v -0.017311 0.289054 0.252079
v -0.044908 0.259172 0.164859
v -0.044908 0.289054 0.164859
v 0.281722 0.155184 0.095936
v 0.281722 0.128888 0.095936
v 0.374174 0.155184 0.135673
v 0.374174 0.128888 0.135673
v 0.188250 0.155184 0.133210
v 0.188250 0.128888 0.133210
v 0.281722 0.155184 0.095936
v 0.281722 0.128888 0.095936
v 0.148512 0.155184 0.225662
v 0.188250 0.155184 0.133210
v 0.191336 0.234072 0.226230
v 0.218129 0.234072 0.163893
v 0.185786 0.128888 0.319134
v 0.148512 0.128888 0.225662
v 0.185786 0.155184 0.319134
v 0.148512 0.155184 0.225662
v 0.148512 0.128888 0.225662
v 0.188250 0.128888 0.133210
v 0.148512 0.155184 0.225662
v 0.188250 0.155184 0.133210
v 0.281154 0.234072 0.138760
v 0.281722 0.155184 0.095936
v 0.343491 0.234072 0.165553
v 0.374174 0.155184 0.135673
v 0.411448 0.128888 0.229146
v 0.371711 0.128888 0.321598
v 0.411448 0.155184 0.229146
v 0.371711 0.155184 0.321598
v 0.374174 0.155184 0.135673
v 0.411448 0.155184 0.229146
v 0.343491 0.234072 0.165553
v 0.368624 0.234072 0.228578
v 0.185786 0.155184 0.319134
v 0.148512 0.155184 0.225662
v 0.216469 0.234072 0.289255
v 0.191336 0.234072 0.226230
v 0.278238 0.128888 0.358872
v 0.278238 0.155184 0.358872
v 0.371711 0.128888 0.321598
v 0.371711 0.155184 0.321598
v 0.185786 0.128888 0.319134
v 0.185786 0.155184 0.319134
v 0.278238 0.128888 0.358872
v 0.278238 0.155184 0.358872
v 0.374174 0.128888 0.135673
v 0.411448 0.128888 0.229146
v 0.374174 0.155184 0.135673
v 0.411448 0.155184 0.229146
v 0.411448 0.155184 0.229146
v 0.371711 0.155184 0.321598
v 0.368624 0.234072 0.228578
v 0.341831 0.234072 0.290915
v 0.185786 0.155184 0.319134
v 0.216469 0.234072 0.289255
v 0.278238 0.155184 0.358872
v 0.278806 0.234072 0.316048
v 0.281722 0.128888 0.095936
v 0.188250 0.128888 0.133210
v 0.374174 0.128888 0.135673
v 0.411448 0.128888 0.229146
v 0.148512 0.128888 0.225662
v 0.371711 0.128888 0.321598
v 0.185786 0.128888 0.319134
v 0.278238 0.128888 0.358872
v 0.278238 0.155184 0.358872
v 0.278806 0.234072 0.316048
v 0.371711 0.155184 0.321598
v 0.341831 0.234072 0.290915
v 0.188250 0.155184 0.133210
v 0.281722 0.155184 0.095936
v 0.218129 0.234072 0.163893
v 0.281154 0.234072 0.138760
v 0.204625 0.234072 0.300788
v 0.174805 0.234072 0.226011
v 0.204625 0.260368 0.300788
v 0.174805 0.260368 0.226011
v 0.278587 0.260368 0.332579
v 0.279757 0.449698 0.244232
v 0.353364 0.260368 0.302759
v 0.291722 0.449698 0.239461
v 0.385155 0.234072 0.228797
v 0.353364 0.234072 0.302759
v 0.385155 0.260368 0.228797
v 0.353364 0.260368 0.302759
v 0.280203 0.449698 0.210576
v 0.281373 0.260368 0.122229
v 0.292037 0.449698 0.215662
v 0.355335 0.260368 0.154020
v 0.355335 0.234072 0.154020
v 0.385155 0.234072 0.228797
v 0.355335 0.260368 0.154020
v 0.385155 0.260368 0.228797
v 0.174805 0.260368 0.226011
v 0.206596 0.260368 0.152049
v 0.263152 0.449698 0.227181
v 0.268239 0.449698 0.215347
v 0.206596 0.260368 0.152049
v 0.206596 0.234072 0.152049
v 0.281373 0.260368 0.122229
v 0.281373 0.234072 0.122229
v 0.278587 0.234072 0.332579
v 0.278587 0.260368 0.332579
v 0.353364 0.234072 0.302759
v 0.353364 0.260368 0.302759
v 0.206596 0.260368 0.152049
v 0.281373 0.260368 0.122229
v 0.268239 0.449698 0.215347
v 0.280203 0.449698 0.210576
v 0.204625 0.260368 0.300788
v 0.267923 0.449698 0.239145
v 0.278587 0.260368 0.332579
v 0.279757 0.449698 0.244232
v 0.355335 0.260368 0.154020
v 0.385155 0.260368 0.228797
v 0.292037 0.449698 0.215662
v 0.296808 0.449698 0.227627
v 0.280203 0.449698 0.210576
v 0.292037 0.449698 0.215662
v 0.268239 0.449698 0.215347
v 0.263152 0.449698 0.227181
v 0.296808 0.449698 0.227627
v 0.267923 0.449698 0.239145
v 0.291722 0.449698 0.239461
v 0.279757 0.449698 0.244232
v 0.281373 0.260368 0.122229
v 0.281373 0.234072 0.122229
v 0.355335 0.260368 0.154020
v 0.355335 0.234072 0.154020
v 0.281373 0.234072 0.122229
v 0.206596 0.234072 0.152049
v 0.355335 0.234072 0.154020
v 0.385155 0.234072 0.228797
v 0.174805 0.234072 0.226011
v 0.353364 0.234072 0.302759
v 0.204625 0.234072 0.300788
v 0.278587 0.234072 0.332579
v 0.385155 0.260368 0.228797
v 0.353364 0.260368 0.302759
v 0.296808 0.449698 0.227627
v 0.291722 0.449698 0.239461
v 0.174805 0.234072 0.226011
v 0.206596 0.234072 0.152049
v 0.174805 0.260368 0.226011
v 0.206596 0.260368 0.152049
v 0.204625 0.260368 0.300788
v 0.174805 0.260368 0.226011
v 0.267923 0.449698 0.239145
v 0.263152 0.449698 0.227181
v 0.204625 0.234072 0.300788
v 0.204625 0.260368 0.300788
v 0.278587 0.234072 0.332579
v 0.278587 0.260368 0.332579
v -0.130876 0.294732 0.000551
v -0.237243 0.294732 -0.011381
v -0.130876 0.329693 0.000551
v -0.237243 0.329693 -0.011381
v -0.047226 0.329693 -0.066224
v -0.150067 0.581417 -0.122997
v -0.035294 0.329693 -0.172591
v -0.148158 0.581417 -0.140016
v -0.102069 0.294732 -0.256241
v -0.035294 0.294732 -0.172591
v -0.102069 0.329693 -0.256241
v -0.035294 0.329693 -0.172591
v -0.189245 0.581417 -0.144625
v -0.292086 0.329693 -0.201397
v -0.175861 0.581417 -0.155309
v -0.208436 0.329693 -0.268173
v -0.208436 0.294732 -0.268173
v -0.102069 0.294732 -0.256241
v -0.208436 0.329693 -0.268173
v -0.102069 0.329693 -0.256241
v -0.237243 0.329693 -0.011381
v -0.304018 0.329693 -0.095031
v -0.180470 0.581417 -0.114222
v -0.191154 0.581417 -0.127606
v -0.304018 0.329693 -0.095031
v -0.304018 0.294732 -0.095031
v -0.292086 0.329693 -0.201397
v -0.292086 0.294732 -0.201397
v -0.047226 0.294732 -0.066224
v -0.047226 0.329693 -0.066224
v -0.035294 0.294732 -0.172591
v -0.035294 0.329693 -0.172591
v -0.304018 0.329693 -0.095031
v -0.292086 0.329693 -0.201397
v -0.191154 0.581417 -0.127606
v -0.189245 0.581417 -0.144625
v -0.130876 0.329693 0.000551
v -0.163451 0.581417 -0.112313
v -0.047226 0.329693 -0.066224
v -0.150067 0.581417 -0.122997
v -0.208436 0.329693 -0.268173
v -0.102069 0.329693 -0.256241
v -0.175861 0.581417 -0.155309
v -0.158842 0.581417 -0.153400
v -0.189245 0.581417 -0.144625
v -0.175861 0.581417 -0.155309
v -0.191154 0.581417 -0.127606
v -0.180470 0.581417 -0.114222
v -0.158842 0.581417 -0.153400
v -0.163451 0.581417 -0.112313
v -0.148158 0.581417 -0.140016
v -0.150067 0.581417 -0.122997
v -0.292086 0.329693 -0.201397
v -0.292086 0.294732 -0.201397
v -0.208436 0.329693 -0.268173
v -0.208436 0.294732 -0.268173
v -0.292086 0.294732 -0.201397
v -0.304018 0.294732 -0.095031
v -0.208436 0.294732 -0.268173
v -0.102069 0.294732 -0.256241
v -0.237243 0.294732 -0.011381
v -0.035294 0.294732 -0.172591
v -0.130876 0.294732 0.000551
v -0.047226 0.294732 -0.066224
v -0.102069 0.329693 -0.256241
v -0.035294 0.329693 -0.172591
v -0.158842 0.581417 -0.153400
v -0.148158 0.581417 -0.140016
v -0.237243 0.294732 -0.011381
v -0.304018 0.294732 -0.095031
v -0.237243 0.329693 -0.011381
v -0.304018 0.329693 -0.095031
v -0.130876 0.329693 0.000551
v -0.237243 0.329693 -0.011381
v -0.163451 0.581417 -0.112313
v -0.180470 0.581417 -0.114222
v -0.130876 0.294732 0.000551
v -0.130876 0.329693 0.000551
v -0.047226 0.294732 -0.066224
v -0.047226 0.329693 -0.066224
v -0.322693 0.189847 -0.218294
v -0.322693 0.154885 -0.218294
v -0.218131 0.189847 -0.301763
v -0.218131 0.154885 -0.301763
v -0.337608 0.189847 -0.085336
v -0.337608 0.154885 -0.085336
v -0.322693 0.189847 -0.218294
v -0.322693 0.154885 -0.218294
v -0.254139 0.189847 0.019227
v -0.337608 0.189847 -0.085336
v -0.226620 0.294731 -0.030623
v -0.282900 0.294731 -0.101126
v -0.121181 0.154885 0.034142
v -0.254139 0.154885 0.019227
v -0.121181 0.189847 0.034142
v -0.254139 0.189847 0.019227
v -0.254139 0.154885 0.019227
v -0.337608 0.154885 -0.085336
v -0.254139 0.189847 0.019227
v -0.337608 0.189847 -0.085336
v -0.272844 0.294731 -0.190775
v -0.322693 0.189847 -0.218294
v -0.202341 0.294731 -0.247055
v -0.218131 0.189847 -0.301763
v -0.085172 0.154885 -0.286848
v -0.001703 0.154885 -0.182286
v -0.085172 0.189847 -0.286848
v -0.001703 0.189847 -0.182286
v -0.218131 0.189847 -0.301763
v -0.085172 0.189847 -0.286848
v -0.202341 0.294731 -0.247055
v -0.112692 0.294731 -0.236999
v -0.121181 0.189847 0.034142
v -0.254139 0.189847 0.019227
v -0.136971 0.294731 -0.020566
v -0.226620 0.294731 -0.030623
v -0.016618 0.154885 -0.049327
v -0.016618 0.189847 -0.049327
v -0.001703 0.154885 -0.182286
v -0.001703 0.189847 -0.182286
v -0.121181 0.154885 0.034142
v -0.121181 0.189847 0.034142
v -0.016618 0.154885 -0.049327
v -0.016618 0.189847 -0.049327
v -0.218131 0.154885 -0.301763
v -0.085172 0.154885 -0.286848
v -0.218131 0.189847 -0.301763
v -0.085172 0.189847 -0.286848
v -0.085172 0.189847 -0.286848
v -0.001703 0.189847 -0.182286
v -0.112692 0.294731 -0.236999
v -0.056411 0.294731 -0.166496
v -0.121181 0.189847 0.034142
v -0.136971 0.294731 -0.020566
v -0.016618 0.189847 -0.049327
v -0.066468 0.294731 -0.076847
v -0.322693 0.154885 -0.218294
v -0.337608 0.154885 -0.085336
v -0.218131 0.154885 -0.301763
v -0.085172 0.154885 -0.286848
v -0.254139 0.154885 0.019227
v -0.001703 0.154885 -0.182286
v -0.121181 0.154885 0.034142
v -0.016618 0.154885 -0.049327
v -0.016618 0.189847 -0.049327
v -0.066468 0.294731 -0.076847
v -0.001703 0.189847 -0.182286
v -0.056411 0.294731 -0.166496
v -0.337608 0.189847 -0.085336
v -0.322693 0.189847 -0.218294
v -0.282900 0.294731 -0.101126
v -0.272844 0.294731 -0.190775
v 0.281986 0.319832 -0.277785
v 0.369131 0.319832 -0.198207
v 0.281986 0.358380 -0.277785
v 0.369131 0.358380 -0.198207
v 0.164096 0.358380 -0.272434
v 0.219035 0.635921 -0.155144
v 0.084518 0.358380 -0.185289
v 0.206303 0.635921 -0.141201
v 0.089869 0.319832 -0.067399
v 0.084518 0.319832 -0.185289
v 0.089869 0.358380 -0.067399
v 0.084518 0.358380 -0.185289
v 0.239965 0.635921 -0.110462
v 0.294904 0.358380 0.006828
v 0.221102 0.635921 -0.109606
v 0.177014 0.358380 0.012179
v 0.177014 0.319832 0.012179
v 0.089869 0.319832 -0.067399
v 0.177014 0.358380 0.012179
v 0.089869 0.358380 -0.067399
v 0.369131 0.358380 -0.198207
v 0.374482 0.358380 -0.080317
v 0.251841 0.635921 -0.143268
v 0.252697 0.635921 -0.124405
v 0.374482 0.358380 -0.080317
v 0.374482 0.319832 -0.080317
v 0.294904 0.358380 0.006828
v 0.294904 0.319832 0.006828
v 0.164096 0.319832 -0.272434
v 0.164096 0.358380 -0.272434
v 0.084518 0.319832 -0.185289
v 0.084518 0.358380 -0.185289
v 0.374482 0.358380 -0.080317
v 0.294904 0.358380 0.006828
v 0.252697 0.635921 -0.124405
v 0.239965 0.635921 -0.110462
v 0.281986 0.358380 -0.277785
v 0.237898 0.635921 -0.156000
v 0.164096 0.358380 -0.272434
v 0.219035 0.635921 -0.155144
v 0.177014 0.358380 0.012179
v 0.089869 0.358380 -0.067399
v 0.221102 0.635921 -0.109606
v 0.207159 0.635921 -0.122338
v 0.239965 0.635921 -0.110462
v 0.221102 0.635921 -0.109606
v 0.252697 0.635921 -0.124405
v 0.251841 0.635921 -0.143268
v 0.207159 0.635921 -0.122338
v 0.237898 0.635921 -0.156000
v 0.206303 0.635921 -0.141201
v 0.219035 0.635921 -0.155144
v 0.294904 0.358380 0.006828
v 0.294904 0.319832 0.006828
v 0.177014 0.358380 0.012179
v 0.177014 0.319832 0.012179
v 0.294904 0.319832 0.006828
v 0.374482 0.319832 -0.080317
v 0.177014 0.319832 0.012179
v 0.089869 0.319832 -0.067399
v 0.369131 0.319832 -0.198207
v 0.084518 0.319832 -0.185289
v 0.281986 0.319832 -0.277785
v 0.164096 0.319832 -0.272434
v 0.089869 0.358380 -0.067399
v 0.084518 0.358380 -0.185289
v 0.207159 0.635921 -0.122338
v 0.206303 0.635921 -0.141201
v 0.369131 0.319832 -0.198207
v 0.374482 0.319832 -0.080317
v 0.369131 0.358380 -0.198207
v 0.374482 0.358380 -0.080317
v 0.281986 0.358380 -0.277785
v 0.369131 0.358380 -0.198207
v 0.237898 0.635921 -0.156000
v 0.251841 0.635921 -0.143268
v 0.281986 0.319832 -0.277785
v 0.281986 0.358380 -0.277785
v 0.164096 0.319832 -0.272434
v 0.164096 0.358380 -0.272434
v 0.311255 0.204190 0.041736
v 0.311255 0.165642 0.041736
v 0.163892 0.204190 0.048424
v 0.163892 0.165642 0.048424
v 0.410727 0.204190 -0.067195
v 0.410727 0.165642 -0.067195
v 0.311255 0.204190 0.041736
v 0.311255 0.165642 0.041736
v 0.404039 0.204190 -0.214558
v 0.410727 0.204190 -0.067195
v 0.347185 0.319832 -0.187928
v 0.351695 0.319832 -0.088566
v 0.295108 0.165642 -0.314030
v 0.404039 0.165642 -0.214558
v 0.295108 0.204190 -0.314030
v 0.404039 0.204190 -0.214558
v 0.404039 0.165642 -0.214558
v 0.410727 0.165642 -0.067195
v 0.404039 0.204190 -0.214558
v 0.410727 0.204190 -0.067195
v 0.284624 0.319832 -0.015118
v 0.311255 0.204190 0.041736
v 0.185263 0.319832 -0.010608
v 0.163892 0.204190 0.048424
v 0.054961 0.165642 -0.051048
v 0.048273 0.165642 -0.198411
v 0.054961 0.204190 -0.051048
v 0.048273 0.204190 -0.198411
v 0.163892 0.204190 0.048424
v 0.054961 0.204190 -0.051048
v 0.185263 0.319832 -0.010608
v 0.111815 0.319832 -0.077679
v 0.295108 0.204190 -0.314030
v 0.404039 0.204190 -0.214558
v 0.273737 0.319832 -0.254998
v 0.347185 0.319832 -0.187928
v 0.147745 0.165642 -0.307342
v 0.147745 0.204190 -0.307342
v 0.048273 0.165642 -0.198411
v 0.048273 0.204190 -0.198411
v 0.295108 0.165642 -0.314030
v 0.295108 0.204190 -0.314030
v 0.147745 0.165642 -0.307342
v 0.147745 0.204190 -0.307342
v 0.163892 0.165642 0.048424
v 0.054961 0.165642 -0.051048
v 0.163892 0.204190 0.048424
v 0.054961 0.204190 -0.051048
v 0.054961 0.204190 -0.051048
v 0.048273 0.204190 -0.198411
v 0.111815 0.319832 -0.077679
v 0.107305 0.319832 -0.177040
v 0.295108 0.204190 -0.314030
v 0.273737 0.319832 -0.254998
v 0.147745 0.204190 -0.307342
v 0.174375 0.319832 -0.250488
v 0.311255 0.165642 0.041736
v 0.410727 0.165642 -0.067195
v 0.163892 0.165642 0.048424
v 0.054961 0.165642 -0.051048
v 0.404039 0.165642 -0.214558
v 0.048273 0.165642 -0.198411
v 0.295108 0.165642 -0.314030
v 0.147745 0.165642 -0.307342
v 0.147745 0.204190 -0.307342
v 0.174375 0.319832 -0.250488
v 0.048273 0.204190 -0.198411
v 0.107305 0.319832 -0.177040
v 0.410727 0.204190 -0.067195
v 0.311255 0.204190 0.041736
v 0.351695 0.319832 -0.088566
v 0.284624 0.319832 -0.015118
v -0.140944 0.050000 0.294409
v -0.083766 0.050000 0.246332
v -0.189021 0.050000 0.237231
v -0.131843 0.050000 0.189154
v 0.247548 0.050000 0.194102
v 0.246678 0.050000 0.259836
v 0.313282 0.050000 0.194972
v 0.312412 0.050000 0.260706
v -0.229036 0.050000 -0.116672
v -0.152517 0.050000 -0.074431
v -0.186794 0.050000 -0.193191
v -0.110276 0.050000 -0.150949
v 0.293573 0.050000 -0.109607
v 0.252696 0.050000 -0.196877
v 0.206304 0.050000 -0.068730
v 0.165426 0.050000 -0.155999
v -0.189021 0.050000 0.237231
v -0.131843 0.050000 0.189154
v -0.181127 0.139645 0.237913
v -0.132526 0.139645 0.197048
v -0.083766 0.050000 0.246332
v -0.140944 0.050000 0.294409
v -0.091660 0.139645 0.245650
v -0.140262 0.139645 0.286515
v -0.083766 0.050000 0.246332
v -0.091660 0.139645 0.245650
v -0.131843 0.050000 0.189154
v -0.132526 0.139645 0.197048
v -0.140944 0.050000 0.294409
v -0.189021 0.050000 0.237231
v -0.140262 0.139645 0.286515
v -0.181127 0.139645 0.237913
v 0.313282 0.050000 0.194972
v 0.312412 0.050000 0.260706
v 0.308287 0.128888 0.199837
v 0.307547 0.128888 0.255711
v 0.246678 0.050000 0.259836
v 0.247548 0.050000 0.194102
v 0.251673 0.128888 0.254971
v 0.252413 0.128888 0.199097
v 0.246678 0.050000 0.259836
v 0.251673 0.128888 0.254971
v 0.312412 0.050000 0.260706
v 0.307547 0.128888 0.255711
v 0.247548 0.050000 0.194102
v 0.313282 0.050000 0.194972
v 0.252413 0.128888 0.199097
v 0.308287 0.128888 0.199837
v -0.186794 0.050000 -0.193191
v -0.110276 0.050000 -0.150949
v -0.184224 0.154885 -0.184284
v -0.119183 0.154885 -0.148379
v -0.152517 0.050000 -0.074431
v -0.229036 0.050000 -0.116672
v -0.155088 0.154885 -0.083338
v -0.220129 0.154885 -0.119243
v -0.152517 0.050000 -0.074431
v -0.155088 0.154885 -0.083338
v -0.110276 0.050000 -0.150949
v -0.119183 0.154885 -0.148379
v -0.229036 0.050000 -0.116672
v -0.186794 0.050000 -0.193191
v -0.220129 0.154885 -0.119243
v -0.184224 0.154885 -0.184284
v 0.206304 0.050000 -0.068730
v 0.165426 0.050000 -0.155999
v 0.209783 0.165642 -0.078341
v 0.175037 0.165642 -0.152520
v 0.252696 0.050000 -0.196877
v 0.293573 0.050000 -0.109607
v 0.249216 0.165642 -0.187266
v 0.283962 0.165642 -0.113087
v 0.252696 0.050000 -0.196877
v 0.249216 0.165642 -0.187266
v 0.165426 0.050000 -0.155999
v 0.175037 0.165642 -0.152520
v 0.293573 0.050000 -0.109607
v 0.206304 0.050000 -0.068730
v 0.283962 0.165642 -0.113087
v 0.209783 0.165642 -0.078341
vt 0.218750 0.275000
vt 0.218750 0.275000
vt 0.218750 0.275000
vt 0.218750 0.275000
vt 0.218750 0.275000
vt 0.218750 0.275000
vt 0.218750 0.475000
vt 0.218750 0.475000
vt 0.218750 0.475000
vt 0.218750 0.475000
vt 0.218750 0.475000
vt 0.218750 0.475000
vt 0.218750 0.475000
vt 0.218750 0.275000
vt 0.218750 0.475000
vt 0.218750 0.275000
vt 0.218750 0.275000
vt 0.218750 0.275000
vt 0.218750 0.475000
vt 0.218750 0.475000
vt 0.218750 0.275000
vt 0.218750 0.475000
vt 0.218750 0.275000
vt 0.218750 0.475000
vt 0.218750 0.325000
vt 0.218750 0.275000
vt 0.218750 0.325000
vt 0.218750 0.275000
vt 0.218750 0.325000
vt 0.218750 0.275000
vt 0.218750 0.325000
vt 0.218750 0.275000
vt 0.218750 0.325000
vt 0.218750 0.325000
vt 0.218750 0.475000
vt 0.218750 0.475000
vt 0.218750 0.275000
vt 0.218750 0.275000
vt 0.218750 0.325000
vt 0.218750 0.325000
vt 0.218750 0.275000
vt 0.218750 0.275000
vt 0.218750 0.325000
vt 0.218750 0.325000
vt 0.218750 0.475000
vt 0.218750 0.325000
vt 0.218750 0.475000
vt 0.218750 0.325000
vt 0.218750 0.275000
vt 0.218750 0.275000
vt 0.218750 0.325000
vt 0.218750 0.325000
vt 0.218750 0.325000
vt 0.218750 0.325000
vt 0.218750 0.475000
vt 0.218750 0.475000
vt 0.218750 0.325000
vt 0.218750 0.325000
vt 0.218750 0.475000
vt 0.218750 0.475000
vt 0.218750 0.275000
vt 0.218750 0.325000
vt 0.218750 0.275000
vt 0.218750 0.325000
vt 0.218750 0.275000
vt 0.218750 0.325000
vt 0.218750 0.275000
vt 0.218750 0.325000
vt 0.218750 0.275000
vt 0.218750 0.275000
vt 0.218750 0.325000
vt 0.218750 0.325000
vt 0.218750 0.325000
vt 0.218750 0.325000
vt 0.218750 0.475000
vt 0.218750 0.475000
vt 0.218750 0.325000
vt 0.218750 0.475000
vt 0.218750 0.325000
vt 0.218750 0.475000
vt 0.218750 0.275000
vt 0.218750 0.275000
vt 0.218750 0.275000
vt 0.218750 0.275000
vt 0.218750 0.275000
vt 0.218750 0.275000
vt 0.218750 0.275000
vt 0.218750 0.275000
vt 0.218750 0.325000
vt 0.218750 0.475000
vt 0.218750 0.325000
vt 0.218750 0.475000
vt 0.218750 0.325000
vt 0.218750 0.325000
vt 0.218750 0.475000
vt 0.218750 0.475000
vt 0.218750 0.275000
vt 0.218750 0.275000
vt 0.218750 0.299390
vt 0.218750 0.299390
vt 0.218750 0.299390
vt 0.218750 0.475000
vt 0.218750 0.299390
vt 0.218750 0.475000
vt 0.218750 0.275000
vt 0.218750 0.275000
vt 0.218750 0.299390
vt 0.218750 0.299390
vt 0.218750 0.475000
vt 0.218750 0.299390
vt 0.218750 0.475000
vt 0.218750 0.299390
vt 0.218750 0.275000
vt 0.218750 0.275000
vt 0.218750 0.299390
vt 0.218750 0.299390
vt 0.218750 0.299390
vt 0.218750 0.299390
vt 0.218750 0.475000
vt 0.218750 0.475000
vt 0.218750 0.299390
vt 0.218750 0.275000
vt 0.218750 0.299390
vt 0.218750 0.275000
vt 0.218750 0.275000
vt 0.218750 0.299390
vt 0.218750 0.275000
vt 0.218750 0.299390
vt 0.218750 0.299390
vt 0.218750 0.299390
vt 0.218750 0.475000
vt 0.218750 0.475000
vt 0.218750 0.299390
vt 0.218750 0.475000
vt 0.218750 0.299390
vt 0.218750 0.475000
vt 0.218750 0.299390
vt 0.218750 0.299390
vt 0.218750 0.475000
vt 0.218750 0.475000
vt 0.218750 0.475000
vt 0.218750 0.475000
vt 0.218750 0.475000
vt 0.218750 0.475000
vt 0.218750 0.475000
vt 0.218750 0.475000
vt 0.218750 0.475000
vt 0.218750 0.475000
vt 0.218750 0.299390
vt 0.218750 0.275000
vt 0.218750 0.299390
vt 0.218750 0.275000
vt 0.218750 0.275000
vt 0.218750 0.275000
vt 0.218750 0.275000
vt 0.218750 0.275000
vt 0.218750 0.275000
vt 0.218750 0.275000
vt 0.218750 0.275000
vt 0.218750 0.275000
vt 0.218750 0.299390
vt 0.218750 0.299390
vt 0.218750 0.475000
vt 0.218750 0.475000
vt 0.218750 0.275000
vt 0.218750 0.275000
vt 0.218750 0.299390
vt 0.218750 0.299390
vt 0.218750 0.299390
vt 0.218750 0.299390
vt 0.218750 0.475000
vt 0.218750 0.475000
vt 0.218750 0.275000
vt 0.218750 0.299390
vt 0.218750 0.275000
vt 0.218750 0.299390
vt 0.218750 0.325000
vt 0.218750 0.275000
vt 0.218750 0.325000
vt 0.218750 0.275000
vt 0.218750 0.325000
vt 0.218750 0.275000
vt 0.218750 0.325000
vt 0.218750 0.275000
vt 0.218750 0.325000
vt 0.218750 0.325000
vt 0.218750 0.475000
vt 0.218750 0.475000
vt 0.218750 0.275000
vt 0.218750 0.275000
vt 0.218750 0.325000
vt 0.218750 0.325000
vt 0.218750 0.275000
vt 0.218750 0.275000
vt 0.218750 0.325000
vt 0.218750 0.325000
vt 0.218750 0.475000
vt 0.218750 0.325000
vt 0.218750 0.475000
vt 0.218750 0.325000
vt 0.218750 0.275000
vt 0.218750 0.275000
vt 0.218750 0.325000
vt 0.218750 0.325000
vt 0.218750 0.325000
vt 0.218750 0.325000
vt 0.218750 0.475000
vt 0.218750 0.475000
vt 0.218750 0.325000
vt 0.218750 0.325000
vt 0.218750 0.475000
vt 0.218750 0.475000
vt 0.218750 0.275000
vt 0.218750 0.325000
vt 0.218750 0.275000
vt 0.218750 0.325000
vt 0.218750 0.275000
vt 0.218750 0.325000
vt 0.218750 0.275000
vt 0.218750 0.325000
vt 0.218750 0.275000
vt 0.218750 0.275000
vt 0.218750 0.325000
vt 0.218750 0.325000
vt 0.218750 0.325000
vt 0.218750 0.325000
vt 0.218750 0.475000
vt 0.218750 0.475000
vt 0.218750 0.325000
vt 0.218750 0.475000
vt 0.218750 0.325000
vt 0.218750 0.475000
vt 0.218750 0.275000
vt 0.218750 0.275000
vt 0.218750 0.275000
vt 0.218750 0.275000
vt 0.218750 0.275000
vt 0.218750 0.275000
vt 0.218750 0.275000
vt 0.218750 0.275000
vt 0.218750 0.325000
vt 0.218750 0.475000
vt 0.218750 0.325000
vt 0.218750 0.475000
vt 0.218750 0.325000
vt 0.218750 0.325000
vt 0.218750 0.475000
vt 0.218750 0.475000
vt 0.218750 0.275000
vt 0.218750 0.275000
vt 0.218750 0.299390
vt 0.218750 0.299390
vt 0.218750 0.299390
vt 0.218750 0.475000
vt 0.218750 0.299390
vt 0.218750 0.475000
vt 0.218750 0.275000
vt 0.218750 0.275000
vt 0.218750 0.299390
vt 0.218750 0.299390
vt 0.218750 0.475000
vt 0.218750 0.299390
vt 0.218750 0.475000
vt 0.218750 0.299390
vt 0.218750 0.275000
vt 0.218750 0.275000
vt 0.218750 0.299390
vt 0.218750 0.299390
vt 0.218750 0.299390
vt 0.218750 0.299390
vt 0.218750 0.475000
vt 0.218750 0.475000
vt 0.218750 0.299390
vt 0.218750 0.275000
vt 0.218750 0.299390
vt 0.218750 0.275000
vt 0.218750 0.275000
vt 0.218750 0.299390
vt 0.218750 0.275000
vt 0.218750 0.299390
vt 0.218750 0.299390
vt 0.218750 0.299390
vt 0.218750 0.475000
vt 0.218750 0.475000
vt 0.218750 0.299390
vt 0.218750 0.475000
vt 0.218750 0.299390
vt 0.218750 0.475000
vt 0.218750 0.299390
vt 0.218750 0.299390
vt 0.218750 0.475000
vt 0.218750 0.475000
vt 0.218750 0.475000
vt 0.218750 0.475000
vt 0.218750 0.475000
vt 0.218750 0.475000
vt 0.218750 0.475000
vt 0.218750 0.475000
vt 0.218750 0.475000
vt 0.218750 0.475000
vt 0.218750 0.299390
vt 0.218750 0.275000
vt 0.218750 0.299390
vt 0.218750 0.275000
vt 0.218750 0.275000
vt 0.218750 0.275000
vt 0.218750 0.275000
vt 0.218750 0.275000
vt 0.218750 0.275000
vt 0.218750 0.275000
vt 0.218750 0.275000
vt 0.218750 0.275000
vt 0.218750 0.299390
vt 0.218750 0.299390
vt 0.218750 0.475000
vt 0.218750 0.475000
vt 0.218750 0.275000
vt 0.218750 0.275000
vt 0.218750 0.299390
vt 0.218750 0.299390
vt 0.218750 0.299390
vt 0.218750 0.299390
vt 0.218750 0.475000
vt 0.218750 0.475000
vt 0.218750 0.275000
vt 0.218750 0.299390
vt 0.218750 0.275000
vt 0.218750 0.299390
vt 0.218750 0.275000
vt 0.218750 0.275000
vt 0.218750 0.299390
vt 0.218750 0.299390
vt 0.218750 0.299390
vt 0.218750 0.475000
vt 0.218750 0.299390
vt 0.218750 0.475000
vt 0.218750 0.275000
vt 0.218750 0.275000
vt 0.218750 0.299390
vt 0.218750 0.299390
vt 0.218750 0.475000
vt 0.218750 0.299390
vt 0.218750 0.475000
vt 0.218750 0.299390
vt 0.218750 0.275000
vt 0.218750 0.275000
vt 0.218750 0.299390
vt 0.218750 0.299390
vt 0.218750 0.299390
vt 0.218750 0.299390
vt 0.218750 0.475000
vt 0.218750 0.475000
vt 0.218750 0.299390
vt 0.218750 0.275000
vt 0.218750 0.299390
vt 0.218750 0.275000
vt 0.218750 0.275000
vt 0.218750 0.299390
vt 0.218750 0.275000
vt 0.218750 0.299390
vt 0.218750 0.299390
vt 0.218750 0.299390
vt 0.218750 0.475000
vt 0.218750 0.475000
vt 0.218750 0.299390
vt 0.218750 0.475000
vt 0.218750 0.299390
vt 0.218750 0.475000
vt 0.218750 0.299390
vt 0.218750 0.299390
vt 0.218750 0.475000
vt 0.218750 0.475000
vt 0.218750 0.475000
vt 0.218750 0.475000
vt 0.218750 0.475000
vt 0.218750 0.475000
vt 0.218750 0.475000
vt 0.218750 0.475000
vt 0.218750 0.475000
vt 0.218750 0.475000
vt 0.218750 0.299390
vt 0.218750 0.275000
vt 0.218750 0.299390
vt 0.218750 0.275000
vt 0.218750 0.275000
vt 0.218750 0.275000
vt 0.218750 0.275000
vt 0.218750 0.275000
vt 0.218750 0.275000
vt 0.218750 0.275000
vt 0.218750 0.275000
vt 0.218750 0.275000
vt 0.218750 0.299390
vt 0.218750 0.299390
vt 0.218750 0.475000
vt 0.218750 0.475000
vt 0.218750 0.275000
vt 0.218750 0.275000
vt 0.218750 0.299390
vt 0.218750 0.299390
vt 0.218750 0.299390
vt 0.218750 0.299390
vt 0.218750 0.475000
vt 0.218750 0.475000
vt 0.218750 0.275000
vt 0.218750 0.299390
vt 0.218750 0.275000
vt 0.218750 0.299390
vt 0.218750 0.325000
vt 0.218750 0.275000
vt 0.218750 0.325000
vt 0.218750 0.275000
vt 0.218750 0.325000
vt 0.218750 0.275000
vt 0.218750 0.325000
vt 0.218750 0.275000
vt 0.218750 0.325000
vt 0.218750 0.325000
vt 0.218750 0.475000
vt 0.218750 0.475000
vt 0.218750 0.275000
vt 0.218750 0.275000
vt 0.218750 0.325000
vt 0.218750 0.325000
vt 0.218750 0.275000
vt 0.218750 0.275000
vt 0.218750 0.325000
vt 0.218750 0.325000
vt 0.218750 0.475000
vt 0.218750 0.325000
vt 0.218750 0.475000
vt 0.218750 0.325000
vt 0.218750 0.275000
vt 0.218750 0.275000
vt 0.218750 0.325000
vt 0.218750 0.325000
vt 0.218750 0.325000
vt 0.218750 0.325000
vt 0.218750 0.475000
vt 0.218750 0.475000
vt 0.218750 0.325000
vt 0.218750 0.325000
vt 0.218750 0.475000
vt 0.218750 0.475000
vt 0.218750 0.275000
vt 0.218750 0.325000
vt 0.218750 0.275000
vt 0.218750 0.325000
vt 0.218750 0.275000
vt 0.218750 0.325000
vt 0.218750 0.275000
vt 0.218750 0.325000
vt 0.218750 0.275000
vt 0.218750 0.275000
vt 0.218750 0.325000
vt 0.218750 0.325000
vt 0.218750 0.325000
vt 0.218750 0.325000
vt 0.218750 0.475000
vt 0.218750 0.475000
vt 0.218750 0.325000
vt 0.218750 0.475000
vt 0.218750 0.325000
vt 0.218750 0.475000
vt 0.218750 0.275000
vt 0.218750 0.275000
vt 0.218750 0.275000
vt 0.218750 0.275000
vt 0.218750 0.275000
vt 0.218750 0.275000
vt 0.218750 0.275000
vt 0.218750 0.275000
vt 0.218750 0.325000
vt 0.218750 0.475000
vt 0.218750 0.325000
vt 0.218750 0.475000
vt 0.218750 0.325000
vt 0.218750 0.325000
vt 0.218750 0.475000
vt 0.218750 0.475000
vt 0.218750 0.275000
vt 0.218750 0.275000
vt 0.218750 0.299390
vt 0.218750 0.299390
vt 0.218750 0.299390
vt 0.218750 0.475000
vt 0.218750 0.299390
vt 0.218750 0.475000
vt 0.218750 0.275000
vt 0.218750 0.275000
vt 0.218750 0.299390
vt 0.218750 0.299390
vt 0.218750 0.475000
vt 0.218750 0.299390
vt 0.218750 0.475000
vt 0.218750 0.299390
vt 0.218750 0.275000
vt 0.218750 0.275000
vt 0.218750 0.299390
vt 0.218750 0.299390
vt 0.218750 0.299390
vt 0.218750 0.299390
vt 0.218750 0.475000
vt 0.218750 0.475000
vt 0.218750 0.299390
vt 0.218750 0.275000
vt 0.218750 0.299390
vt 0.218750 0.275000
vt 0.218750 0.275000
vt 0.218750 0.299390
vt 0.218750 0.275000
vt 0.218750 0.299390
vt 0.218750 0.299390
vt 0.218750 0.299390
vt 0.218750 0.475000
vt 0.218750 0.475000
vt 0.218750 0.299390
vt 0.218750 0.475000
vt 0.218750 0.299390
vt 0.218750 0.475000
vt 0.218750 0.299390
vt 0.218750 0.299390
vt 0.218750 0.475000
vt 0.218750 0.475000
vt 0.218750 0.475000
vt 0.218750 0.475000
vt 0.218750 0.475000
vt 0.218750 0.475000
vt 0.218750 0.475000
vt 0.218750 0.475000
vt 0.218750 0.475000
vt 0.218750 0.475000
vt 0.218750 0.299390
vt 0.218750 0.275000
vt 0.218750 0.299390
vt 0.218750 0.275000
vt 0.218750 0.275000
vt 0.218750 0.275000
vt 0.218750 0.275000
vt 0.218750 0.275000
vt 0.218750 0.275000
vt 0.218750 0.275000
vt 0.218750 0.275000
vt 0.218750 0.275000
vt 0.218750 0.299390
vt 0.218750 0.299390
vt 0.218750 0.475000
vt 0.218750 0.475000
vt 0.218750 0.275000
vt 0.218750 0.275000
vt 0.218750 0.299390
vt 0.218750 0.299390
vt 0.218750 0.299390
vt 0.218750 0.299390
vt 0.218750 0.475000
vt 0.218750 0.475000
vt 0.218750 0.275000
vt 0.218750 0.299390
vt 0.218750 0.275000
vt 0.218750 0.299390
vt 0.218750 0.325000
vt 0.218750 0.275000
vt 0.218750 0.325000
vt 0.218750 0.275000
vt 0.218750 0.325000
vt 0.218750 0.275000
vt 0.218750 0.325000
vt 0.218750 0.275000
vt 0.218750 0.325000
vt 0.218750 0.325000
vt 0.218750 0.475000
vt 0.218750 0.475000
vt 0.218750 0.275000
vt 0.218750 0.275000
vt 0.218750 0.325000
vt 0.218750 0.325000
vt 0.218750 0.275000
vt 0.218750 0.275000
vt 0.218750 0.325000
vt 0.218750 0.325000
vt 0.218750 0.475000
vt 0.218750 0.325000
vt 0.218750 0.475000
vt 0.218750 0.325000
vt 0.218750 0.275000
vt 0.218750 0.275000
vt 0.218750 0.325000
vt 0.218750 0.325000
vt 0.218750 0.325000
vt 0.218750 0.325000
vt 0.218750 0.475000
vt 0.218750 0.475000
vt 0.218750 0.325000
vt 0.218750 0.325000
vt 0.218750 0.475000
vt 0.218750 0.475000
vt 0.218750 0.275000
vt 0.218750 0.325000
vt 0.218750 0.275000
vt 0.218750 0.325000
vt 0.218750 0.275000
vt 0.218750 0.325000
vt 0.218750 0.275000
vt 0.218750 0.325000
vt 0.218750 0.275000
vt 0.218750 0.275000
vt 0.218750 0.325000
vt 0.218750 0.325000
vt 0.218750 0.325000
vt 0.218750 0.325000
vt 0.218750 0.475000
vt 0.218750 0.475000
vt 0.218750 0.325000
vt 0.218750 0.475000
vt 0.218750 0.325000
vt 0.218750 0.475000
vt 0.218750 0.275000
vt 0.218750 0.275000
vt 0.218750 0.275000
vt 0.218750 0.275000
vt 0.218750 0.275000
vt 0.218750 0.275000
vt 0.218750 0.275000
vt 0.218750 0.275000
vt 0.218750 0.325000
vt 0.218750 0.475000
vt 0.218750 0.325000
vt 0.218750 0.475000
vt 0.218750 0.325000
vt 0.218750 0.325000
vt 0.218750 0.475000
vt 0.218750 0.475000
vt 0.593750 0.025000
vt 0.593750 0.025000
vt 0.593750 0.025000
vt 0.593750 0.025000
vt 0.593750 0.025000
vt 0.593750 0.025000
vt 0.593750 0.025000
vt 0.593750 0.025000
vt 0.593750 0.025000
vt 0.593750 0.025000
vt 0.593750 0.025000
vt 0.593750 0.025000
vt 0.593750 0.025000
vt 0.593750 0.025000
vt 0.593750 0.025000
vt 0.593750 0.025000
vt 0.718750 0.025000
vt 0.718750 0.025000
vt 0.718750 0.225000
vt 0.718750 0.225000
vt 0.718750 0.025000
vt 0.718750 0.025000
vt 0.718750 0.225000
vt 0.718750 0.225000
vt 0.718750 0.025000
vt 0.718750 0.225000
vt 0.718750 0.025000
vt 0.718750 0.225000
vt 0.718750 0.025000
vt 0.718750 0.025000
vt 0.718750 0.225000
vt 0.718750 0.225000
vt 0.718750 0.025000
vt 0.718750 0.025000
vt 0.718750 0.225000
vt 0.718750 0.225000
vt 0.718750 0.025000
vt 0.718750 0.025000
vt 0.718750 0.225000
vt 0.718750 0.225000
vt 0.718750 0.025000
vt 0.718750 0.225000
vt 0.718750 0.025000
vt 0.718750 0.225000
vt 0.718750 0.025000
vt 0.718750 0.025000
vt 0.718750 0.225000
vt 0.718750 0.225000
vt 0.718750 0.025000
vt 0.718750 0.025000
vt 0.718750 0.225000
vt 0.718750 0.225000
vt 0.718750 0.025000
vt 0.718750 0.025000
vt 0.718750 0.225000
vt 0.718750 0.225000
vt 0.718750 0.025000
vt 0.718750 0.225000
vt 0.718750 0.025000
vt 0.718750 0.225000
vt 0.718750 0.025000
vt 0.718750 0.025000
vt 0.718750 0.225000
vt 0.718750 0.225000
vt 0.718750 0.025000
vt 0.718750 0.025000
vt 0.718750 0.225000
vt 0.718750 0.225000
vt 0.718750 0.025000
vt 0.718750 0.025000
vt 0.718750 0.225000
vt 0.718750 0.225000
vt 0.718750 0.025000
vt 0.718750 0.225000
vt 0.718750 0.025000
vt 0.718750 0.225000
vt 0.718750 0.025000
vt 0.718750 0.025000
vt 0.718750 0.225000
vt 0.718750 0.225000
usemtl colormap
f 3/3 2/2 1/1
f 2/2 3/3 4/4
f 7/7 6/6 5/5
f 6/6 7/7 8/8
f 11/11 10/10 9/9
f 10/10 11/11 12/12
f 15/15 14/14 13/13
f 14/14 15/15 16/16
f 19/19 18/18 17/17
f 18/18 19/19 20/20
f 23/23 22/22 21/21
f 22/22 23/23 24/24
f 27/27 26/26 25/25
f 26/26 27/27 28/28
f 31/31 30/30 29/29
f 30/30 31/31 32/32
f 35/35 34/34 33/33
f 34/34 35/35 36/36
f 39/39 38/38 37/37
f 38/38 39/39 40/40
f 43/43 42/42 41/41
f 42/42 43/43 44/44
f 47/47 46/46 45/45
f 46/46 47/47 48/48
f 51/51 50/50 49/49
f 50/50 51/51 52/52
f 55/55 54/54 53/53
f 54/54 55/55 56/56
f 59/59 58/58 57/57
f 58/58 59/59 60/60
f 63/63 62/62 61/61
f 62/62 63/63 64/64
f 67/67 66/66 65/65
f 66/66 67/67 68/68
f 71/71 70/70 69/69
f 70/70 71/71 72/72
f 75/75 74/74 73/73
f 74/74 75/75 76/76
f 79/79 78/78 77/77
f 78/78 79/79 80/80
f 83/83 82/82 81/81
f 82/82 83/83 84/84
f 82/82 84/84 85/85
f 85/85 84/84 86/86
f 85/85 86/86 87/87
f 87/87 86/86 88/88
f 91/91 90/90 89/89
f 90/90 91/91 92/92
f 95/95 94/94 93/93
f 94/94 95/95 96/96
f 99/99 98/98 97/97
f 98/98 99/99 100/100
f 103/103 102/102 101/101
f 102/102 103/103 104/104
f 107/107 106/106 105/105
f 106/106 107/107 108/108
f 111/111 110/110 109/109
f 110/110 111/111 112/112
f 115/115 114/114 113/113
f 114/114 115/115 116/116
f 119/119 118/118 117/117
f 118/118 119/119 120/120
f 123/123 122/122 121/121
f 122/122 123/123 124/124
f 127/127 126/126 125/125
f 126/126 127/127 128/128
f 131/131 130/130 129/129
f 130/130 131/131 132/132
f 135/135 134/134 133/133
f 134/134 135/135 136/136
f 139/139 138/138 137/137
f 138/138 139/139 140/140
f 143/143 142/142 141/141
f 142/142 143/143 144/144
f 142/142 144/144 145/145
f 145/145 144/144 146/146
f 145/145 146/146 147/147
f 147/147 146/146 148/148
f 151/151 150/150 149/149
f 150/150 151/151 152/152
f 155/155 154/154 153/153
f 154/154 155/155 156/156
f 154/154 156/156 157/157
f 157/157 156/156 158/158
f 157/157 158/158 159/159
f 159/159 158/158 160/160
f 163/163 162/162 161/161
f 162/162 163/163 164/164
f 167/167 166/166 165/165
f 166/166 167/167 168/168
f 171/171 170/170 169/169
f 170/170 171/171 172/172
f 175/175 174/174 173/173
f 174/174 175/175 176/176
f 179/179 178/178 177/177
f 178/178 179/179 180/180
f 183/183 182/182 181/181
f 182/182 183/183 184/184
f 187/187 186/186 185/185
f 186/186 187/187 188/188
f 191/191 190/190 189/189
f 190/190 191/191 192/192
f 195/195 194/194 193/193
f 194/194 195/195 196/196
f 199/199 198/198 197/197
f 198/198 199/199 200/200
f 203/203 202/202 201/201
f 202/202 203/203 204/204
f 207/207 206/206 205/205
f 206/206 207/207 208/208
f 211/211 210/210 209/209
f 210/210 211/211 212/212
f 215/215 214/214 213/213
f 214/214 215/215 216/216
f 219/219 218/218 217/217
f 218/218 219/219 220/220
f 223/223 222/222 221/221
f 222/222 223/223 224/224
f 227/227 226/226 225/225
f 226/226 227/227 228/228
f 231/231 230/230 229/229
f 230/230 231/231 232/232
f 235/235 234/234 233/233
f 234/234 235/235 236/236
f 234/234 236/236 237/237
f 237/237 236/236 238/238
f 237/237 238/238 239/239
f 239/239 238/238 240/240
f 243/243 242/242 241/241
f 242/242 243/243 244/244
f 247/247 246/246 245/245
f 246/246 247/247 248/248
f 251/251 250/250 249/249
f 250/250 251/251 252/252
f 255/255 254/254 253/253
f 254/254 255/255 256/256
f 259/259 258/258 257/257
f 258/258 259/259 260/260
f 263/263 262/262 261/261
f 262/262 263/263 264/264
f 267/267 266/266 265/265
f 266/266 267/267 268/268
f 271/271 270/270 269/269
f 270/270 271/271 272/272
f 275/275 274/274 273/273
f 274/274 275/275 276/276
f 279/279 278/278 277/277
f 278/278 279/279 280/280
f 283/283 282/282 281/281
f 282/282 283/283 284/284
f 287/287 286/286 285/285
f 286/286 287/287 288/288
f 291/291 290/290 289/289
f 290/290 291/291 292/292
f 295/295 294/294 293/293
f 294/294 295/295 296/296
f 294/294 296/296 297/297
f 297/297 296/296 298/298
f 297/297 298/298 299/299
f 299/299 298/298 300/300
f 303/303 302/302 301/301
f 302/302 303/303 304/304
f 307/307 306/306 305/305
f 306/306 307/307 308/308
f 306/306 308/308 309/309
f 309/309 308/308 310/310
f 309/309 310/310 311/311
f 311/311 310/310 312/312
f 315/315 314/314 313/313
f 314/314 315/315 316/316
f 319/319 318/318 317/317
f 318/318 319/319 320/320
f 323/323 322/322 321/321
f 322/322 323/323 324/324
f 327/327 326/326 325/325
f 326/326 327/327 328/328
f 331/331 330/330 329/329
f 330/330 331/331 332/332
f 335/335 334/334 333/333
f 334/334 335/335 336/336
f 339/339 338/338 337/337
f 338/338 339/339 340/340
f 343/343 342/342 341/341
f 342/342 343/343 344/344
f 347/347 346/346 345/345
f 346/346 347/347 348/348
f 351/351 350/350 349/349
f 350/350 351/351 352/352
f 355/355 354/354 353/353
f 354/354 355/355 356/356
f 359/359 358/358 357/357
f 358/358 359/359 360/360
f 363/363 362/362 361/361
f 362/362 363/363 364/364
f 367/367 366/366 365/365
f 366/366 367/367 368/368
f 371/371 370/370 369/369
f 370/370 371/371 372/372
f 375/375 374/374 373/373
f 374/374 375/375 376/376
f 374/374 376/376 377/377
f 377/377 376/376 378/378
f 377/377 378/378 379/379
f 379/379 378/378 380/380
f 383/383 382/382 381/381
f 382/382 383/383 384/384
f 387/387 386/386 385/385
f 386/386 387/387 388/388
f 386/386 388/388 389/389
f 389/389 388/388 390/390
f 389/389 390/390 391/391
f 391/391 390/390 392/392
f 395/395 394/394 393/393
f 394/394 395/395 396/396
f 399/399 398/398 397/397
f 398/398 399/399 400/400
f 403/403 402/402 401/401
f 402/402 403/403 404/404
f 407/407 406/406 405/405
f 406/406 407/407 408/408
f 411/411 410/410 409/409
f 410/410 411/411 412/412
f 415/415 414/414 413/413
f 414/414 415/415 416/416
f 419/419 418/418 417/417
f 418/418 419/419 420/420
f 423/423 422/422 421/421
f 422/422 423/423 424/424
f 427/427 426/426 425/425
f 426/426 427/427 428/428
f 431/431 430/430 429/429
f 430/430 431/431 432/432
f 435/435 434/434 433/433
f 434/434 435/435 436/436
f 439/439 438/438 437/437
f 438/438 439/439 440/440
f 443/443 442/442 441/441
f 442/442 443/443 444/444
f 447/447 446/446 445/445
f 446/446 447/447 448/448
f 451/451 450/450 449/449
f 450/450 451/451 452/452
f 455/455 454/454 453/453
f 454/454 455/455 456/456
f 459/459 458/458 457/457
f 458/458 459/459 460/460
f 463/463 462/462 461/461
f 462/462 463/463 464/464
f 467/467 466/466 465/465
f 466/466 467/467 468/468
f 466/466 468/468 469/469
f 469/469 468/468 470/470
f 469/469 470/470 471/471
f 471/471 470/470 472/472
f 475/475 474/474 473/473
f 474/474 475/475 476/476
f 479/479 478/478 477/477
f 478/478 479/479 480/480
f 483/483 482/482 481/481
f 482/482 483/483 484/484
f 487/487 486/486 485/485
f 486/486 487/487 488/488
f 491/491 490/490 489/489
f 490/490 491/491 492/492
f 495/495 494/494 493/493
f 494/494 495/495 496/496
f 499/499 498/498 497/497
f 498/498 499/499 500/500
f 503/503 502/502 501/501
f 502/502 503/503 504/504
f 507/507 506/506 505/505
f 506/506 507/507 508/508
f 511/511 510/510 509/509
f 510/510 511/511 512/512
f 515/515 514/514 513/513
f 514/514 515/515 516/516
f 519/519 518/518 517/517
f 518/518 519/519 520/520
f 523/523 522/522 521/521
f 522/522 523/523 524/524
f 527/527 526/526 525/525
f 526/526 527/527 528/528
f 526/526 528/528 529/529
f 529/529 528/528 530/530
f 529/529 530/530 531/531
f 531/531 530/530 532/532
f 535/535 534/534 533/533
f 534/534 535/535 536/536
f 539/539 538/538 537/537
f 538/538 539/539 540/540
f 538/538 540/540 541/541
f 541/541 540/540 542/542
f 541/541 542/542 543/543
f 543/543 542/542 544/544
f 547/547 546/546 545/545
f 546/546 547/547 548/548
f 551/551 550/550 549/549
f 550/550 551/551 552/552
f 555/555 554/554 553/553
f 554/554 555/555 556/556
f 559/559 558/558 557/557
f 558/558 559/559 560/560
f 563/563 562/562 561/561
f 562/562 563/563 564/564
f 567/567 566/566 565/565
f 566/566 567/567 568/568
f 571/571 570/570 569/569
f 570/570 571/571 572/572
f 575/575 574/574 573/573
f 574/574 575/575 576/576
f 579/579 578/578 577/577
f 578/578 579/579 580/580
f 583/583 582/582 581/581
f 582/582 583/583 584/584
f 587/587 586/586 585/585
f 586/586 587/587 588/588
f 591/591 590/590 589/589
f 590/590 591/591 592/592
f 595/595 594/594 593/593
f 594/594 595/595 596/596
f 599/599 598/598 597/597
f 598/598 599/599 600/600
f 603/603 602/602 601/601
f 602/602 603/603 604/604
f 607/607 606/606 605/605
f 606/606 607/607 608/608
f 611/611 610/610 609/609
f 610/610 611/611 612/612
f 615/615 614/614 613/613
f 614/614 615/615 616/616
f 619/619 618/618 617/617
f 618/618 619/619 620/620
f 618/618 620/620 621/621
f 621/621 620/620 622/622
f 621/621 622/622 623/623
f 623/623 622/622 624/624
f 627/627 626/626 625/625
f 626/626 627/627 628/628
f 631/631 630/630 629/629
f 630/630 631/631 632/632
f 635/635 634/634 633/633
f 634/634 635/635 636/636
f 639/639 638/638 637/637
f 638/638 639/639 640/640
f 643/643 642/642 641/641
f 642/642 643/643 644/644
f 647/647 646/646 645/645
f 646/646 647/647 648/648
f 651/651 650/650 649/649
f 650/650 651/651 652/652
f 655/655 654/654 653/653
f 654/654 655/655 656/656
f 659/659 658/658 657/657
f 658/658 659/659 660/660
f 663/663 662/662 661/661
f 662/662 663/663 664/664
f 667/667 666/666 665/665
f 666/666 667/667 668/668
f 671/671 670/670 669/669
f 670/670 671/671 672/672
f 675/675 674/674 673/673
f 674/674 675/675 676/676
f 679/679 678/678 677/677
f 678/678 679/679 680/680
f 683/683 682/682 681/681
f 682/682 683/683 684/684
f 687/687 686/686 685/685
f 686/686 687/687 688/688
f 691/691 690/690 689/689
f 690/690 691/691 692/692
f 695/695 694/694 693/693
f 694/694 695/695 696/696
f 699/699 698/698 697/697
f 698/698 699/699 700/700
f 703/703 702/702 701/701
f 702/702 703/703 704/704
f 707/707 706/706 705/705
f 706/706 707/707 708/708
f 711/711 710/710 709/709
f 710/710 711/711 712/712
