mtllib pavement-fountain.mtl
o pavement-fountain
v 0.500000 0.000000 0.500000
v 0.500000 0.000000 -0.500000
v -0.500000 0.000000 0.500000
v -0.500000 0.000000 -0.500000
v -0.500000 0.000000 -0.500000
v 0.500000 0.000000 -0.500000
v -0.500000 0.050000 -0.500000
v 0.500000 0.050000 -0.500000
v 0.500000 0.050000 -0.500000
v 0.500000 0.050000 0.500000
v -0.500000 0.050000 -0.500000
v -0.500000 0.050000 0.500000
v 0.500000 0.050000 -0.500000
v 0.500000 0.000000 -0.500000
v 0.500000 0.050000 0.500000
v 0.500000 0.000000 0.500000
v 0.500000 0.000000 0.500000
v -0.500000 0.000000 0.500000
v 0.500000 0.050000 0.500000
v -0.500000 0.050000 0.500000
v -0.500000 0.000000 -0.500000
v -0.500000 0.050000 -0.500000
v -0.500000 0.000000 0.500000
v -0.500000 0.050000 0.500000
v 0.272000 0.050000 0.000000
v 0.192333 0.050000 -0.192333
v 0.192333 0.050000 0.192333
v 0.000000 0.050000 0.272000
v -0.000000 0.050000 -0.272000
v -0.192333 0.050000 0.192333
v -0.192333 0.050000 -0.192333
v -0.272000 0.050000 0.000000
v -0.000000 0.050000 -0.272000
v 0.192333 0.050000 -0.192333
v -0.000000 0.186000 -0.272000
v 0.192333 0.186000 -0.192333
v 0.192333 0.186000 -0.192333
v 0.192333 0.050000 -0.192333
v 0.272000 0.186000 0.000000
v 0.272000 0.050000 0.000000
v 0.272000 0.186000 0.000000
v 0.272000 0.050000 0.000000
v 0.192333 0.186000 0.192333
v 0.192333 0.050000 0.192333
v 0.192333 0.050000 0.192333
v 0.000000 0.050000 0.272000
v 0.192333 0.186000 0.192333
v 0.000000 0.186000 0.272000
v 0.000000 0.050000 0.272000
v -0.192333 0.050000 0.192333
v 0.000000 0.186000 0.272000
v -0.192333 0.186000 0.192333
v -0.272000 0.050000 0.000000
v -0.272000 0.186000 0.000000
v -0.192333 0.050000 0.192333
v -0.192333 0.186000 0.192333
v -0.192333 0.050000 -0.192333
v -0.192333 0.186000 -0.192333
v -0.272000 0.050000 0.000000
v -0.272000 0.186000 0.000000
v -0.192333 0.050000 -0.192333
v -0.000000 0.050000 -0.272000
v -0.192333 0.186000 -0.192333
v -0.000000 0.186000 -0.272000
v -0.244378 0.186000 -0.244378
v -0.000000 0.186000 -0.345603
v -0.244378 0.254000 -0.244378
v -0.000000 0.254000 -0.345603
v -0.244378 0.186000 -0.244378
v -0.244378 0.254000 -0.244378
v -0.345603 0.186000 0.000000
v -0.345603 0.254000 0.000000
v -0.345603 0.186000 0.000000
v -0.345603 0.254000 0.000000
v -0.244378 0.186000 0.244378
v -0.244378 0.254000 0.244378
v 0.000000 0.186000 0.345603
v -0.244378 0.186000 0.244378
v 0.000000 0.254000 0.345603
v -0.244378 0.254000 0.244378
v 0.244378 0.186000 0.244378
v 0.000000 0.186000 0.345603
v 0.244378 0.254000 0.244378
v 0.000000 0.254000 0.345603
v 0.345603 0.254000 0.000000
v 0.345603 0.186000 0.000000
v 0.244378 0.254000 0.244378
v 0.244378 0.186000 0.244378
v 0.244378 0.254000 -0.244378
v 0.244378 0.186000 -0.244378
v 0.345603 0.254000 0.000000
v 0.345603 0.186000 0.000000
v -0.000000 0.186000 -0.345603
v 0.244378 0.186000 -0.244378
v -0.000000 0.254000 -0.345603
v 0.244378 0.254000 -0.244378
v -0.272000 0.254000 0.000000
v -0.272000 0.186000 0.000000
v -0.192333 0.254000 0.192333
v -0.192333 0.186000 0.192333
v -0.192333 0.186000 0.192333
v 0.000000 0.186000 0.272000
v -0.192333 0.254000 0.192333
v 0.000000 0.254000 0.272000
v 0.000000 0.186000 0.272000
v 0.192333 0.186000 0.192333
v 0.000000 0.254000 0.272000
v 0.192333 0.254000 0.192333
v 0.272000 0.186000 0.000000
v 0.272000 0.254000 0.000000
v 0.192333 0.186000 0.192333
v 0.192333 0.254000 0.192333
v 0.192333 0.186000 -0.192333
v 0.192333 0.254000 -0.192333
v 0.272000 0.186000 0.000000
v 0.272000 0.254000 0.000000
v 0.192333 0.186000 -0.192333
v -0.000000 0.186000 -0.272000
v 0.192333 0.254000 -0.192333
v 0.000000 0.254000 -0.272000
v -0.000000 0.186000 -0.272000
v -0.192333 0.186000 -0.192333
v 0.000000 0.254000 -0.272000
v -0.192333 0.254000 -0.192333
v -0.192333 0.254000 -0.192333
v -0.192333 0.186000 -0.192333
v -0.272000 0.254000 0.000000
v -0.272000 0.186000 0.000000
v -0.000000 0.186000 -0.272000
v 0.192333 0.186000 -0.192333
v -0.000000 0.186000 -0.345603
v -0.192333 0.186000 -0.192333
v 0.244378 0.186000 -0.244378
v -0.244378 0.186000 -0.244378
v 0.272000 0.186000 0.000000
v 0.345603 0.186000 0.000000
v 0.244378 0.186000 0.244378
v 0.192333 0.186000 0.192333
v 0.000000 0.186000 0.345603
v 0.000000 0.186000 0.272000
v -0.272000 0.186000 0.000000
v -0.345603 0.186000 0.000000
v -0.244378 0.186000 0.244378
v -0.192333 0.186000 0.192333
v 0.000000 0.254000 0.272000
v 0.192333 0.254000 0.192333
v 0.000000 0.254000 0.345603
v -0.192333 0.254000 0.192333
v 0.244378 0.254000 0.244378
v -0.244378 0.254000 0.244378
v 0.272000 0.254000 0.000000
v 0.345603 0.254000 0.000000
v 0.244378 0.254000 -0.244378
v 0.192333 0.254000 -0.192333
v -0.272000 0.254000 0.000000
v -0.345603 0.254000 0.000000
v -0.244378 0.254000 -0.244378
v -0.192333 0.254000 -0.192333
v -0.000000 0.254000 -0.345603
v 0.000000 0.254000 -0.272000
v 0.272000 0.186000 0.000000
v 0.192333 0.186000 0.192333
v 0.192333 0.186000 -0.192333
v 0.161735 0.186000 0.000000
v 0.114364 0.186000 -0.114364
v 0.114364 0.186000 0.114364
v -0.000000 0.186000 -0.272000
v -0.000000 0.186000 -0.161735
v 0.000000 0.186000 0.272000
v 0.000000 0.186000 0.161735
v -0.114364 0.186000 0.114364
v -0.192333 0.186000 -0.192333
v -0.192333 0.186000 0.192333
v -0.114364 0.186000 -0.114364
v -0.272000 0.186000 0.000000
v -0.161735 0.186000 0.000000
v 0.063062 0.536000 0.000000
v 0.044592 0.536000 0.044592
v 0.044592 0.536000 -0.044592
v 0.000000 0.536000 -0.063062
v 0.000000 0.536000 0.063062
v -0.044592 0.536000 -0.044592
v -0.044592 0.536000 0.044592
v -0.063062 0.536000 0.000000
v -0.044592 0.536000 0.044592
v -0.089183 0.486000 0.089183
v -0.063062 0.536000 0.000000
v -0.126124 0.486000 0.000000
v 0.000000 0.536000 0.063062
v 0.000000 0.486000 0.126124
v -0.044592 0.536000 0.044592
v -0.089183 0.486000 0.089183
v 0.126124 0.486000 0.000000
v 0.089183 0.486000 0.089183
v 0.063062 0.536000 0.000000
v 0.044592 0.536000 0.044592
v 0.089183 0.486000 0.089183
v 0.000000 0.486000 0.126124
v 0.044592 0.536000 0.044592
v 0.000000 0.536000 0.063062
v 0.126124 0.486000 0.000000
v 0.063062 0.536000 0.000000
v 0.089183 0.486000 -0.089183
v 0.044592 0.536000 -0.044592
v -0.044592 0.536000 -0.044592
v -0.063062 0.536000 0.000000
v -0.089183 0.486000 -0.089183
v -0.126124 0.486000 0.000000
v 0.000000 0.536000 -0.063062
v -0.044592 0.536000 -0.044592
v -0.000000 0.486000 -0.126124
v -0.089183 0.486000 -0.089183
v 0.089183 0.486000 -0.089183
v 0.044592 0.536000 -0.044592
v -0.000000 0.486000 -0.126124
v 0.000000 0.536000 -0.063062
v 0.114364 0.186000 -0.114364
v 0.161735 0.186000 0.000000
v 0.089183 0.486000 -0.089183
v 0.126124 0.486000 0.000000
v -0.161735 0.186000 0.000000
v -0.126124 0.486000 0.000000
v -0.114364 0.186000 0.114364
v -0.089183 0.486000 0.089183
v 0.161735 0.186000 0.000000
v 0.114364 0.186000 0.114364
v 0.126124 0.486000 0.000000
v 0.089183 0.486000 0.089183
v 0.114364 0.186000 0.114364
v 0.000000 0.186000 0.161735
v 0.089183 0.486000 0.089183
v 0.000000 0.486000 0.126124
v 0.000000 0.186000 0.161735
v -0.114364 0.186000 0.114364
v 0.000000 0.486000 0.126124
v -0.089183 0.486000 0.089183
v -0.000000 0.186000 -0.161735
v 0.114364 0.186000 -0.114364
v -0.000000 0.486000 -0.126124
v 0.089183 0.486000 -0.089183
v -0.114364 0.186000 -0.114364
v -0.089183 0.486000 -0.089183
v -0.161735 0.186000 0.000000
v -0.126124 0.486000 0.000000
v -0.114364 0.186000 -0.114364
v -0.000000 0.186000 -0.161735
v -0.089183 0.486000 -0.089183
v -0.000000 0.486000 -0.126124
vt 0.218750 0.025000
vt 0.218750 0.025000
vt 0.218750 0.025000
vt 0.218750 0.025000
vt 0.218750 0.025000
vt 0.218750 0.025000
vt 0.218750 0.225000
vt 0.218750 0.225000
vt 0.218750 0.225000
vt 0.218750 0.225000
vt 0.218750 0.225000
vt 0.218750 0.225000
vt 0.218750 0.225000
vt 0.218750 0.025000
vt 0.218750 0.225000
vt 0.218750 0.025000
vt 0.218750 0.025000
vt 0.218750 0.025000
vt 0.218750 0.225000
vt 0.218750 0.225000
vt 0.218750 0.025000
vt 0.218750 0.225000
vt 0.218750 0.025000
vt 0.218750 0.225000
vt 0.468750 0.025000
vt 0.468750 0.025000
vt 0.468750 0.025000
vt 0.468750 0.025000
vt 0.468750 0.025000
vt 0.468750 0.025000
vt 0.468750 0.025000
vt 0.468750 0.025000
vt 0.468750 0.025000
vt 0.468750 0.025000
vt 0.468750 0.080967
vt 0.468750 0.080967
vt 0.468750 0.080967
vt 0.468750 0.025000
vt 0.468750 0.080967
vt 0.468750 0.025000
vt 0.468750 0.080967
vt 0.468750 0.025000
vt 0.468750 0.080967
vt 0.468750 0.025000
vt 0.468750 0.025000
vt 0.468750 0.025000
vt 0.468750 0.080967
vt 0.468750 0.080967
vt 0.468750 0.025000
vt 0.468750 0.025000
vt 0.468750 0.080967
vt 0.468750 0.080967
vt 0.468750 0.025000
vt 0.468750 0.080967
vt 0.468750 0.025000
vt 0.468750 0.080967
vt 0.468750 0.025000
vt 0.468750 0.080967
vt 0.468750 0.025000
vt 0.468750 0.080967
vt 0.468750 0.025000
vt 0.468750 0.025000
vt 0.468750 0.080967
vt 0.468750 0.080967
vt 0.468750 0.080967
vt 0.468750 0.080967
vt 0.468750 0.108951
vt 0.468750 0.108951
vt 0.468750 0.080967
vt 0.468750 0.108951
vt 0.468750 0.080967
vt 0.468750 0.108951
vt 0.468750 0.080967
vt 0.468750 0.108951
vt 0.468750 0.080967
vt 0.468750 0.108951
vt 0.468750 0.080967
vt 0.468750 0.080967
vt 0.468750 0.108951
vt 0.468750 0.108951
vt 0.468750 0.080967
vt 0.468750 0.080967
vt 0.468750 0.108951
vt 0.468750 0.108951
vt 0.468750 0.108951
vt 0.468750 0.080967
vt 0.468750 0.108951
vt 0.468750 0.080967
vt 0.468750 0.108951
vt 0.468750 0.080967
vt 0.468750 0.108951
vt 0.468750 0.080967
vt 0.468750 0.080967
vt 0.468750 0.080967
vt 0.468750 0.108951
vt 0.468750 0.108951
vt 0.468750 0.108951
vt 0.468750 0.080967
vt 0.468750 0.108951
vt 0.468750 0.080967
vt 0.468750 0.080967
vt 0.468750 0.080967
vt 0.468750 0.108951
vt 0.468750 0.108951
vt 0.468750 0.080967
vt 0.468750 0.080967
vt 0.468750 0.108951
vt 0.468750 0.108951
vt 0.468750 0.080967
vt 0.468750 0.108951
vt 0.468750 0.080967
vt 0.468750 0.108951
vt 0.468750 0.080967
vt 0.468750 0.108951
vt 0.468750 0.080967
vt 0.468750 0.108951
vt 0.468750 0.080967
vt 0.468750 0.080967
vt 0.468750 0.108951
vt 0.468750 0.108951
vt 0.468750 0.080967
vt 0.468750 0.080967
vt 0.468750 0.108951
vt 0.468750 0.108951
vt 0.468750 0.108951
vt 0.468750 0.080967
vt 0.468750 0.108951
vt 0.468750 0.080967
vt 0.468750 0.080967
vt 0.468750 0.080967
vt 0.468750 0.080967
vt 0.468750 0.080967
vt 0.468750 0.080967
vt 0.468750 0.080967
vt 0.468750 0.080967
vt 0.468750 0.080967
vt 0.468750 0.080967
vt 0.468750 0.080967
vt 0.468750 0.080967
vt 0.468750 0.080967
vt 0.468750 0.080967
vt 0.468750 0.080967
vt 0.468750 0.080967
vt 0.468750 0.080967
vt 0.468750 0.108951
vt 0.468750 0.108951
vt 0.468750 0.108951
vt 0.468750 0.108951
vt 0.468750 0.108951
vt 0.468750 0.108951
vt 0.468750 0.108951
vt 0.468750 0.108951
vt 0.468750 0.108951
vt 0.468750 0.108951
vt 0.468750 0.108951
vt 0.468750 0.108951
vt 0.468750 0.108951
vt 0.468750 0.108951
vt 0.468750 0.108951
vt 0.468750 0.108951
vt 0.843750 0.330967
vt 0.843750 0.330967
vt 0.843750 0.330967
vt 0.843750 0.330967
vt 0.843750 0.330967
vt 0.843750 0.330967
vt 0.843750 0.330967
vt 0.843750 0.330967
vt 0.843750 0.330967
vt 0.843750 0.330967
vt 0.843750 0.330967
vt 0.843750 0.330967
vt 0.843750 0.330967
vt 0.843750 0.330967
vt 0.843750 0.330967
vt 0.843750 0.330967
vt 0.843750 0.475000
vt 0.843750 0.475000
vt 0.843750 0.475000
vt 0.843750 0.475000
vt 0.843750 0.475000
vt 0.843750 0.475000
vt 0.843750 0.475000
vt 0.843750 0.475000
vt 0.843750 0.475000
vt 0.843750 0.454424
vt 0.843750 0.475000
vt 0.843750 0.454424
vt 0.843750 0.475000
vt 0.843750 0.454424
vt 0.843750 0.475000
vt 0.843750 0.454424
vt 0.843750 0.454424
vt 0.843750 0.454424
vt 0.843750 0.475000
vt 0.843750 0.475000
vt 0.843750 0.454424
vt 0.843750 0.454424
vt 0.843750 0.475000
vt 0.843750 0.475000
vt 0.843750 0.454424
vt 0.843750 0.475000
vt 0.843750 0.454424
vt 0.843750 0.475000
vt 0.843750 0.475000
vt 0.843750 0.475000
vt 0.843750 0.454424
vt 0.843750 0.454424
vt 0.843750 0.475000
vt 0.843750 0.475000
vt 0.843750 0.454424
vt 0.843750 0.454424
vt 0.843750 0.454424
vt 0.843750 0.475000
vt 0.843750 0.454424
vt 0.843750 0.475000
vt 0.843750 0.330967
vt 0.843750 0.330967
vt 0.843750 0.454424
vt 0.843750 0.454424
vt 0.843750 0.330967
vt 0.843750 0.454424
vt 0.843750 0.330967
vt 0.843750 0.454424
vt 0.843750 0.330967
vt 0.843750 0.330967
vt 0.843750 0.454424
vt 0.843750 0.454424
vt 0.843750 0.330967
vt 0.843750 0.330967
vt 0.843750 0.454424
vt 0.843750 0.454424
vt 0.843750 0.330967
vt 0.843750 0.330967
vt 0.843750 0.454424
vt 0.843750 0.454424
vt 0.843750 0.330967
vt 0.843750 0.330967
vt 0.843750 0.454424
vt 0.843750 0.454424
vt 0.843750 0.330967
vt 0.843750 0.454424
vt 0.843750 0.330967
vt 0.843750 0.454424
vt 0.843750 0.330967
vt 0.843750 0.330967
vt 0.843750 0.454424
vt 0.843750 0.454424
usemtl colormap
f 3/3 2/2 1/1
f 2/2 3/3 4/4
f 7/7 6/6 5/5
f 6/6 7/7 8/8
f 11/11 10/10 9/9
f 10/10 11/11 12/12
f 15/15 14/14 13/13
f 14/14 15/15 16/16
f 19/19 18/18 17/17
f 18/18 19/19 20/20
f 23/23 22/22 21/21
f 22/22 23/23 24/24
f 27/27 26/26 25/25
f 26/26 27/27 28/28
f 26/26 28/28 29/29
f 29/29 28/28 30/30
f 29/29 30/30 31/31
f 31/31 30/30 32/32
f 35/35 34/34 33/33
f 34/34 35/35 36/36
f 39/39 38/38 37/37
f 38/38 39/39 40/40
f 43/43 42/42 41/41
f 42/42 43/43 44/44
f 47/47 46/46 45/45
f 46/46 47/47 48/48
f 51/51 50/50 49/49
f 50/50 51/51 52/52
f 55/55 54/54 53/53
f 54/54 55/55 56/56
f 59/59 58/58 57/57
f 58/58 59/59 60/60
f 63/63 62/62 61/61
f 62/62 63/63 64/64
f 67/67 66/66 65/65
f 66/66 67/67 68/68
f 71/71 70/70 69/69
f 70/70 71/71 72/72
f 75/75 74/74 73/73
f 74/74 75/75 76/76
f 79/79 78/78 77/77
f 78/78 79/79 80/80
f 83/83 82/82 81/81
f 82/82 83/83 84/84
f 87/87 86/86 85/85
f 86/86 87/87 88/88
f 91/91 90/90 89/89
f 90/90 91/91 92/92
f 95/95 94/94 93/93
f 94/94 95/95 96/96
f 99/99 98/98 97/97
f 98/98 99/99 100/100
f 103/103 102/102 101/101
f 102/102 103/103 104/104
f 107/107 106/106 105/105
f 106/106 107/107 108/108
f 111/111 110/110 109/109
f 110/110 111/111 112/112
f 115/115 114/114 113/113
f 114/114 115/115 116/116
f 119/119 118/118 117/117
f 118/118 119/119 120/120
f 123/123 122/122 121/121
f 122/122 123/123 124/124
f 127/127 126/126 125/125
f 126/126 127/127 128/128
f 131/131 130/130 129/129
f 131/131 129/129 132/132
f 133/133 130/130 131/131
f 131/131 132/132 134/134
f 133/133 135/135 130/130
f 135/135 133/133 136/136
f 137/137 135/135 136/136
f 135/135 137/137 138/138
f 138/138 137/137 139/139
f 138/138 139/139 140/140
f 134/134 132/132 141/141
f 134/134 141/141 142/142
f 140/140 139/139 143/143
f 141/141 143/143 142/142
f 140/140 143/143 144/144
f 144/144 143/143 141/141
f 147/147 146/146 145/145
f 147/147 145/145 148/148
f 149/149 146/146 147/147
f 147/147 148/148 150/150
f 149/149 151/151 146/146
f 151/151 149/149 152/152
f 153/153 151/151 152/152
f 151/151 153/153 154/154
f 150/150 148/148 155/155
f 150/150 155/155 156/156
f 155/155 157/157 156/156
f 158/158 157/157 155/155
f 154/154 153/153 159/159
f 158/158 159/159 157/157
f 154/154 159/159 160/160
f 160/160 159/159 158/158
f 163/163 162/162 161/161
f 162/162 163/163 164/164
f 164/164 163/163 165/165
f 166/166 162/162 164/164
f 165/165 163/163 167/167
f 165/165 167/167 168/168
f 162/162 166/166 169/169
f 169/169 166/166 170/170
f 169/169 170/170 171/171
f 168/168 167/167 172/172
f 169/169 171/171 173/173
f 168/168 172/172 174/174
f 173/173 172/172 175/175
f 173/173 171/171 176/176
f 174/174 172/172 176/176
f 176/176 172/172 173/173
f 179/179 178/178 177/177
f 178/178 179/179 180/180
f 178/178 180/180 181/181
f 181/181 180/180 182/182
f 181/181 182/182 183/183
f 183/183 182/182 184/184
f 187/187 186/186 185/185
f 186/186 187/187 188/188
f 191/191 190/190 189/189
f 190/190 191/191 192/192
f 195/195 194/194 193/193
f 194/194 195/195 196/196
f 199/199 198/198 197/197
f 198/198 199/199 200/200
f 203/203 202/202 201/201
f 202/202 203/203 204/204
f 207/207 206/206 205/205
f 206/206 207/207 208/208
f 211/211 210/210 209/209
f 210/210 211/211 212/212
f 215/215 214/214 213/213
f 214/214 215/215 216/216
f 219/219 218/218 217/217
f 218/218 219/219 220/220
f 223/223 222/222 221/221
f 222/222 223/223 224/224
f 227/227 226/226 225/225
f 226/226 227/227 228/228
f 231/231 230/230 229/229
f 230/230 231/231 232/232
f 235/235 234/234 233/233
f 234/234 235/235 236/236
f 239/239 238/238 237/237
f 238/238 239/239 240/240
f 243/243 242/242 241/241
f 242/242 243/243 244/244
f 247/247 246/246 245/245
f 246/246 247/247 248/248
